%TF.GenerationSoftware,KiCad,Pcbnew,8.0.2*%
%TF.CreationDate,2024-08-31T16:24:40-04:00*%
%TF.ProjectId,BREAD_Loaf,42524541-445f-44c6-9f61-662e6b696361,rev?*%
%TF.SameCoordinates,PX2fdfdc0PY36746e0*%
%TF.FileFunction,Copper,L2,Bot*%
%TF.FilePolarity,Positive*%
%FSLAX46Y46*%
G04 Gerber Fmt 4.6, Leading zero omitted, Abs format (unit mm)*
G04 Created by KiCad (PCBNEW 8.0.2) date 2024-08-31 16:24:40*
%MOMM*%
%LPD*%
G01*
G04 APERTURE LIST*
G04 Aperture macros list*
%AMRoundRect*
0 Rectangle with rounded corners*
0 $1 Rounding radius*
0 $2 $3 $4 $5 $6 $7 $8 $9 X,Y pos of 4 corners*
0 Add a 4 corners polygon primitive as box body*
4,1,4,$2,$3,$4,$5,$6,$7,$8,$9,$2,$3,0*
0 Add four circle primitives for the rounded corners*
1,1,$1+$1,$2,$3*
1,1,$1+$1,$4,$5*
1,1,$1+$1,$6,$7*
1,1,$1+$1,$8,$9*
0 Add four rect primitives between the rounded corners*
20,1,$1+$1,$2,$3,$4,$5,0*
20,1,$1+$1,$4,$5,$6,$7,0*
20,1,$1+$1,$6,$7,$8,$9,0*
20,1,$1+$1,$8,$9,$2,$3,0*%
G04 Aperture macros list end*
%TA.AperFunction,EtchedComponent*%
%ADD10C,0.000000*%
%TD*%
%TA.AperFunction,ComponentPad*%
%ADD11O,1.700000X1.700000*%
%TD*%
%TA.AperFunction,ComponentPad*%
%ADD12R,1.700000X1.700000*%
%TD*%
%TA.AperFunction,SMDPad,CuDef*%
%ADD13RoundRect,0.200000X-0.275000X0.200000X-0.275000X-0.200000X0.275000X-0.200000X0.275000X0.200000X0*%
%TD*%
%TA.AperFunction,SMDPad,CuDef*%
%ADD14RoundRect,0.150000X-0.587500X-0.150000X0.587500X-0.150000X0.587500X0.150000X-0.587500X0.150000X0*%
%TD*%
%TA.AperFunction,SMDPad,CuDef*%
%ADD15RoundRect,0.200000X-0.200000X-0.275000X0.200000X-0.275000X0.200000X0.275000X-0.200000X0.275000X0*%
%TD*%
%TA.AperFunction,SMDPad,CuDef*%
%ADD16RoundRect,0.250000X-0.325000X-0.650000X0.325000X-0.650000X0.325000X0.650000X-0.325000X0.650000X0*%
%TD*%
%TA.AperFunction,SMDPad,CuDef*%
%ADD17RoundRect,0.250000X0.325000X0.650000X-0.325000X0.650000X-0.325000X-0.650000X0.325000X-0.650000X0*%
%TD*%
%TA.AperFunction,SMDPad,CuDef*%
%ADD18RoundRect,0.150000X0.512500X0.150000X-0.512500X0.150000X-0.512500X-0.150000X0.512500X-0.150000X0*%
%TD*%
%TA.AperFunction,SMDPad,CuDef*%
%ADD19R,0.650000X0.400000*%
%TD*%
%TA.AperFunction,SMDPad,CuDef*%
%ADD20R,0.300000X1.600000*%
%TD*%
%TA.AperFunction,SMDPad,CuDef*%
%ADD21RoundRect,0.200000X0.200000X0.275000X-0.200000X0.275000X-0.200000X-0.275000X0.200000X-0.275000X0*%
%TD*%
%TA.AperFunction,SMDPad,CuDef*%
%ADD22RoundRect,0.250000X0.375000X1.075000X-0.375000X1.075000X-0.375000X-1.075000X0.375000X-1.075000X0*%
%TD*%
%TA.AperFunction,ComponentPad*%
%ADD23C,1.879600*%
%TD*%
%TA.AperFunction,SMDPad,CuDef*%
%ADD24R,0.660400X1.270000*%
%TD*%
%TA.AperFunction,ViaPad*%
%ADD25C,0.800000*%
%TD*%
%TA.AperFunction,ViaPad*%
%ADD26C,0.700000*%
%TD*%
%TA.AperFunction,Conductor*%
%ADD27C,1.000000*%
%TD*%
%TA.AperFunction,Conductor*%
%ADD28C,0.500000*%
%TD*%
%TA.AperFunction,Conductor*%
%ADD29C,1.500000*%
%TD*%
%TA.AperFunction,Conductor*%
%ADD30C,0.400000*%
%TD*%
G04 APERTURE END LIST*
D10*
%TA.AperFunction,EtchedComponent*%
%TO.C,JP1*%
G36*
X16429300Y-24850000D02*
G01*
X15929300Y-24850000D01*
X15929300Y-24550000D01*
X16429300Y-24550000D01*
X16429300Y-24850000D01*
G37*
%TD.AperFunction*%
%TA.AperFunction,EtchedComponent*%
%TO.C,JP2*%
G36*
X16450000Y-27450000D02*
G01*
X15950000Y-27450000D01*
X15950000Y-27150000D01*
X16450000Y-27150000D01*
X16450000Y-27450000D01*
G37*
%TD.AperFunction*%
%TA.AperFunction,EtchedComponent*%
%TO.C,JP3*%
G36*
X16450000Y-30050000D02*
G01*
X15950000Y-30050000D01*
X15950000Y-29750000D01*
X16450000Y-29750000D01*
X16450000Y-30050000D01*
G37*
%TD.AperFunction*%
%TA.AperFunction,EtchedComponent*%
%TO.C,JP4*%
G36*
X16450000Y-32650000D02*
G01*
X15950000Y-32650000D01*
X15950000Y-32350000D01*
X16450000Y-32350000D01*
X16450000Y-32650000D01*
G37*
%TD.AperFunction*%
%TD*%
D11*
%TO.P,J6,10,10*%
%TO.N,GND*%
X29700000Y-52660000D03*
%TO.P,J6,9,9*%
%TO.N,+12V*%
X29700000Y-50120000D03*
%TO.P,J6,8,8*%
%TO.N,/SYNC_5V*%
X29700000Y-47580000D03*
%TO.P,J6,7,7*%
%TO.N,/INT_5V*%
X29700000Y-45040000D03*
%TO.P,J6,6,6*%
%TO.N,/E_STOP_5V*%
X29700000Y-42500000D03*
%TO.P,J6,5,5*%
%TO.N,GND*%
X29700000Y-39960000D03*
%TO.P,J6,4,4*%
%TO.N,/SDA_5V*%
X29700000Y-37420000D03*
%TO.P,J6,3,3*%
%TO.N,/SCL_5V*%
X29700000Y-34880000D03*
%TO.P,J6,2,2*%
%TO.N,+12V*%
X29700000Y-32340000D03*
D12*
%TO.P,J6,1,1*%
%TO.N,GND*%
X29700000Y-29800000D03*
%TD*%
D13*
%TO.P,R5,2*%
%TO.N,+5V*%
X20600000Y-43825000D03*
%TO.P,R5,1*%
%TO.N,/INT_5V*%
X20600000Y-42175000D03*
%TD*%
%TO.P,R6,2*%
%TO.N,+5V*%
X20600000Y-40025000D03*
%TO.P,R6,1*%
%TO.N,/SYNC_5V*%
X20600000Y-38375000D03*
%TD*%
D14*
%TO.P,Q2,3,D*%
%TO.N,/INT_5V*%
X18037500Y-43000000D03*
%TO.P,Q2,2,S*%
%TO.N,/INT_3.3V*%
X16162500Y-42050000D03*
%TO.P,Q2,1,G*%
%TO.N,+3.3V*%
X16162500Y-43950000D03*
%TD*%
D15*
%TO.P,R12,2*%
%TO.N,Net-(JP4-A)*%
X13725000Y-32500000D03*
%TO.P,R12,1*%
%TO.N,+3.3V*%
X12075000Y-32500000D03*
%TD*%
D14*
%TO.P,Q3,3,D*%
%TO.N,/SYNC_5V*%
X18037500Y-39200000D03*
%TO.P,Q3,2,S*%
%TO.N,/SYNC_3.3V*%
X16162500Y-38250000D03*
%TO.P,Q3,1,G*%
%TO.N,+3.3V*%
X16162500Y-40150000D03*
%TD*%
D13*
%TO.P,R2,2*%
%TO.N,+3.3V*%
X13600000Y-43825000D03*
%TO.P,R2,1*%
%TO.N,/INT_3.3V*%
X13600000Y-42175000D03*
%TD*%
D15*
%TO.P,R11,2*%
%TO.N,Net-(JP2-A)*%
X13725000Y-27300000D03*
%TO.P,R11,1*%
%TO.N,+5V*%
X12075000Y-27300000D03*
%TD*%
D13*
%TO.P,R4,2*%
%TO.N,+5V*%
X20537500Y-47625000D03*
%TO.P,R4,1*%
%TO.N,/E_STOP_5V*%
X20537500Y-45975000D03*
%TD*%
D15*
%TO.P,R9,2*%
%TO.N,Net-(JP1-A)*%
X13683600Y-24700000D03*
%TO.P,R9,1*%
%TO.N,+5V*%
X12033600Y-24700000D03*
%TD*%
D16*
%TO.P,C2,2*%
%TO.N,Net-(U2-BST)*%
X16075000Y-51050000D03*
%TO.P,C2,1*%
%TO.N,Net-(U2-SW)*%
X13125000Y-51050000D03*
%TD*%
D13*
%TO.P,R3,2*%
%TO.N,+3.3V*%
X13600000Y-40025000D03*
%TO.P,R3,1*%
%TO.N,/SYNC_3.3V*%
X13600000Y-38375000D03*
%TD*%
D17*
%TO.P,C3,2*%
%TO.N,+5V*%
X10425000Y-57850000D03*
%TO.P,C3,1*%
%TO.N,GND*%
X13375000Y-57850000D03*
%TD*%
D16*
%TO.P,C1,2*%
%TO.N,+12V*%
X18675000Y-57850000D03*
%TO.P,C1,1*%
%TO.N,GND*%
X15725000Y-57850000D03*
%TD*%
D13*
%TO.P,R1,2*%
%TO.N,+3.3V*%
X13537500Y-47625000D03*
%TO.P,R1,1*%
%TO.N,/E_STOP_3.3V*%
X13537500Y-45975000D03*
%TD*%
D17*
%TO.P,C4,2*%
%TO.N,+5V*%
X10425000Y-60750000D03*
%TO.P,C4,1*%
%TO.N,GND*%
X13375000Y-60750000D03*
%TD*%
D18*
%TO.P,U2,6,BST*%
%TO.N,Net-(U2-BST)*%
X15862500Y-53600000D03*
%TO.P,U2,5,SW*%
%TO.N,Net-(U2-SW)*%
X15862500Y-54550000D03*
%TO.P,U2,4,GND*%
%TO.N,GND*%
X15862500Y-55500000D03*
%TO.P,U2,3,VIN*%
%TO.N,+12V*%
X18137500Y-55500000D03*
%TO.P,U2,2,EN*%
X18137500Y-54550000D03*
%TO.P,U2,1,FB*%
%TO.N,+5V*%
X18137500Y-53600000D03*
%TD*%
D19*
%TO.P,U1,6,BUS1*%
%TO.N,/SCL_5V*%
X14150000Y-20150000D03*
%TO.P,U1,5,GND*%
%TO.N,GND*%
X14150000Y-20800000D03*
%TO.P,U1,4,BUS2*%
%TO.N,/SDA_5V*%
X14150000Y-21450000D03*
%TO.P,U1,3,ENABLE*%
%TO.N,Net-(U1-ENABLE)*%
X16050000Y-21450000D03*
%TO.P,U1,2,GND*%
%TO.N,GND*%
X16050000Y-20800000D03*
%TO.P,U1,1,VCC*%
%TO.N,+5V*%
X16050000Y-20150000D03*
%TD*%
D20*
%TO.P,U3,8,EN*%
%TO.N,Net-(U3-EN)*%
X8225000Y-39500000D03*
%TO.P,U3,7,VREF2*%
X8875000Y-39500000D03*
%TO.P,U3,6,SCL2*%
%TO.N,/SCL_5V*%
X9525000Y-39500000D03*
%TO.P,U3,5,SDA2*%
%TO.N,/SDA_5V*%
X10175000Y-39500000D03*
%TO.P,U3,4,SDA1*%
%TO.N,/SDA_3.3V*%
X10175000Y-36100000D03*
%TO.P,U3,3,SCL1*%
%TO.N,/SCL_3.3V*%
X9525000Y-36100000D03*
%TO.P,U3,2,VREF1*%
%TO.N,+3.3V*%
X8875000Y-36100000D03*
%TO.P,U3,1,GND*%
%TO.N,GND*%
X8225000Y-36100000D03*
%TD*%
D13*
%TO.P,R7,2*%
%TO.N,Net-(U1-ENABLE)*%
X18400000Y-21625000D03*
%TO.P,R7,1*%
%TO.N,+5V*%
X18400000Y-19975000D03*
%TD*%
D15*
%TO.P,R10,2*%
%TO.N,Net-(JP3-A)*%
X13725000Y-29900000D03*
%TO.P,R10,1*%
%TO.N,+3.3V*%
X12075000Y-29900000D03*
%TD*%
D21*
%TO.P,R8,2*%
%TO.N,+5V*%
X8375000Y-42200000D03*
%TO.P,R8,1*%
%TO.N,Net-(U3-EN)*%
X10025000Y-42200000D03*
%TD*%
D22*
%TO.P,L1,2*%
%TO.N,+5V*%
X10500000Y-54550000D03*
%TO.P,L1,1*%
%TO.N,Net-(U2-SW)*%
X13300000Y-54550000D03*
%TD*%
D14*
%TO.P,Q1,3,D*%
%TO.N,/E_STOP_5V*%
X18037500Y-46800000D03*
%TO.P,Q1,2,S*%
%TO.N,/E_STOP_3.3V*%
X16162500Y-45850000D03*
%TO.P,Q1,1,G*%
%TO.N,+3.3V*%
X16162500Y-47750000D03*
%TD*%
D23*
%TO.P,J2,28,~{RESET}*%
%TO.N,unconnected-(J2-~{RESET}-Pad28)*%
X24760000Y-60740000D03*
%TO.P,J2,27,3.3V*%
%TO.N,+3.3V*%
X24760000Y-58200000D03*
%TO.P,J2,26,AREF/NC*%
%TO.N,unconnected-(J2-AREF{slash}NC-Pad26)*%
X24760000Y-55660000D03*
%TO.P,J2,25,GND*%
%TO.N,GND*%
X24760000Y-53120000D03*
%TO.P,J2,24,A0*%
%TO.N,/A0_3.3V*%
X24760000Y-50580000D03*
%TO.P,J2,23,A1*%
%TO.N,/A1_3.3V*%
X24760000Y-48040000D03*
%TO.P,J2,22,A2*%
%TO.N,/A2_3.3V*%
X24760000Y-45500000D03*
%TO.P,J2,21,A3*%
%TO.N,/A3_3.3V*%
X24760000Y-42960000D03*
%TO.P,J2,20,A4*%
%TO.N,/A4_3.3V*%
X24760000Y-40420000D03*
%TO.P,J2,19,A5*%
%TO.N,/A5_3.3V*%
X24760000Y-37880000D03*
%TO.P,J2,18,SCK*%
%TO.N,/SCK_3.3V*%
X24760000Y-35340000D03*
%TO.P,J2,17,PICO*%
%TO.N,/PICO_3.3V*%
X24760000Y-32800000D03*
%TO.P,J2,16,POCI*%
%TO.N,/POCI_3.3V*%
X24760000Y-30260000D03*
%TO.P,J2,15,RX*%
%TO.N,/RX_3.3V*%
X24760000Y-27720000D03*
%TO.P,J2,14,TX*%
%TO.N,/TX_3.3V*%
X24760000Y-25180000D03*
%TO.P,J2,13,FREEBIE*%
%TO.N,unconnected-(J2-FREEBIE-Pad13)*%
X24760000Y-22640000D03*
%TO.P,J2,12,V_BATT*%
%TO.N,unconnected-(J2-V_BATT-Pad12)*%
X4440000Y-50580000D03*
%TO.P,J2,11,EN*%
%TO.N,unconnected-(J2-EN-Pad11)*%
X4440000Y-48040000D03*
%TO.P,J2,10,V_USB*%
%TO.N,+5V*%
X4440000Y-45500000D03*
%TO.P,J2,9,GPIO0*%
%TO.N,/LED_3.3V*%
X4440000Y-42960000D03*
%TO.P,J2,8,GPIO1*%
%TO.N,/E_STOP_3.3V*%
X4440000Y-40420000D03*
%TO.P,J2,7,GPIO2*%
%TO.N,/INT_3.3V*%
X4440000Y-37880000D03*
%TO.P,J2,6,GPIO3*%
%TO.N,/SYNC_3.3V*%
X4440000Y-35340000D03*
%TO.P,J2,5,GPIO4*%
%TO.N,/08_3.3V*%
X4440000Y-32800000D03*
%TO.P,J2,4,GPIO5*%
%TO.N,/06_3.3V*%
X4440000Y-30260000D03*
%TO.P,J2,3,GPIO6*%
%TO.N,/04_3.3V*%
X4440000Y-27720000D03*
%TO.P,J2,2,SCL*%
%TO.N,/SCL_3.3V*%
X4440000Y-25180000D03*
%TO.P,J2,1,SDA*%
%TO.N,/SDA_3.3V*%
X4440000Y-22640000D03*
%TD*%
D24*
%TO.P,JP1,1,A*%
%TO.N,Net-(JP1-A)*%
X15658600Y-24700000D03*
%TO.P,JP1,2,B*%
%TO.N,/SDA_5V*%
X16700000Y-24700000D03*
%TD*%
%TO.P,JP2,1,A*%
%TO.N,Net-(JP2-A)*%
X15679300Y-27300000D03*
%TO.P,JP2,2,B*%
%TO.N,/SCL_5V*%
X16720700Y-27300000D03*
%TD*%
%TO.P,JP3,1,A*%
%TO.N,Net-(JP3-A)*%
X15679300Y-29900000D03*
%TO.P,JP3,2,B*%
%TO.N,/SDA_3.3V*%
X16720700Y-29900000D03*
%TD*%
%TO.P,JP4,1,A*%
%TO.N,Net-(JP4-A)*%
X15679300Y-32500000D03*
%TO.P,JP4,2,B*%
%TO.N,/SCL_3.3V*%
X16720700Y-32500000D03*
%TD*%
D25*
%TO.N,GND*%
X9100000Y-59300000D03*
D26*
X15700000Y-59400000D03*
X14566750Y-55850000D03*
D25*
X15800000Y-61000000D03*
X19700000Y-50700000D03*
D26*
X14500000Y-57300000D03*
X14500000Y-58450000D03*
D25*
X9100000Y-56400000D03*
D26*
X13300000Y-59300000D03*
D25*
X19800000Y-54000000D03*
X9100000Y-51400000D03*
%TO.N,+12V*%
X18700000Y-63400000D03*
%TO.N,+5V*%
X15100000Y-20200000D03*
X19400000Y-39224500D03*
X12800000Y-26474500D03*
X19400000Y-46824500D03*
X12799924Y-23543585D03*
X19400000Y-43024500D03*
X8200000Y-41075252D03*
%TO.N,/SCL_5V*%
X17899312Y-26300688D03*
%TO.N,/SDA_5V*%
X18849500Y-23900000D03*
%TO.N,+3.3V*%
X16200000Y-46800000D03*
X16162500Y-39191921D03*
X8900000Y-37300000D03*
X12864707Y-29074500D03*
X12864707Y-31674500D03*
X16200000Y-43000000D03*
D26*
%TO.N,GND*%
X15800000Y-56300000D03*
X17000000Y-53100000D03*
%TD*%
D27*
%TO.N,+12V*%
X18675000Y-57850000D02*
X18675000Y-56037500D01*
X18700000Y-57875000D02*
X18675000Y-57850000D01*
X18700000Y-63400000D02*
X18700000Y-57875000D01*
X18675000Y-56037500D02*
X18137500Y-55500000D01*
X18137500Y-55500000D02*
X18137500Y-54600000D01*
%TO.N,Net-(U2-SW)*%
X13300000Y-51225000D02*
X13125000Y-51050000D01*
X13300000Y-54550000D02*
X15000000Y-54550000D01*
X13300000Y-54550000D02*
X13300000Y-51225000D01*
D28*
%TO.N,Net-(U2-BST)*%
X15862500Y-51262500D02*
X16075000Y-51050000D01*
X15862500Y-53600000D02*
X15862500Y-51262500D01*
%TO.N,+5V*%
X12800000Y-26575000D02*
X12075000Y-27300000D01*
X16999390Y-49250000D02*
X12300000Y-49250000D01*
D29*
X4500000Y-45510000D02*
X5829077Y-45510000D01*
D28*
X18137500Y-53600000D02*
X18137500Y-50388110D01*
X12000000Y-27225000D02*
X12075000Y-27300000D01*
X12800000Y-26474500D02*
X12800000Y-26575000D01*
D29*
X5829077Y-45510000D02*
X10500000Y-50180923D01*
X10500000Y-54550000D02*
X10499390Y-54550610D01*
D28*
X19400000Y-46824500D02*
X20200500Y-47625000D01*
D30*
X16050000Y-20150000D02*
X15150000Y-20150000D01*
D28*
X20200500Y-40025000D02*
X20600000Y-40025000D01*
X19400000Y-39224500D02*
X20200500Y-40025000D01*
X20200500Y-43825000D02*
X20600000Y-43825000D01*
D30*
X16150000Y-20050000D02*
X18325000Y-20050000D01*
X15150000Y-20150000D02*
X15100000Y-20200000D01*
D28*
X20200500Y-47625000D02*
X20537500Y-47625000D01*
D29*
X10500000Y-50180923D02*
X10500000Y-54550000D01*
D30*
X18325000Y-20050000D02*
X18400000Y-19975000D01*
D28*
X8200000Y-41075252D02*
X8375000Y-41250252D01*
D29*
X10499390Y-54550610D02*
X10499390Y-57775610D01*
D28*
X12300000Y-49250000D02*
X10500000Y-51050000D01*
X12799924Y-23543585D02*
X12033600Y-24309909D01*
X10500000Y-51050000D02*
X10500000Y-54550000D01*
X19400000Y-43024500D02*
X20200500Y-43825000D01*
X18137500Y-50388110D02*
X16999390Y-49250000D01*
D29*
X10499390Y-57924390D02*
X10499390Y-60675610D01*
D28*
X8375000Y-41250252D02*
X8375000Y-42200000D01*
D30*
X16050000Y-20150000D02*
X16150000Y-20050000D01*
D28*
X12033600Y-24309909D02*
X12033600Y-24700000D01*
%TO.N,/SCL_5V*%
X16720700Y-26476200D02*
X16720700Y-27300000D01*
X10925000Y-37075000D02*
X9525000Y-38475000D01*
X17899312Y-26300688D02*
X16900000Y-27300000D01*
X9525000Y-38475000D02*
X9525000Y-39500000D01*
X13150000Y-20150000D02*
X11100000Y-22200000D01*
X15353400Y-26100000D02*
X16344500Y-26100000D01*
X10925000Y-36175000D02*
X10925000Y-37075000D01*
X11558820Y-25625000D02*
X14878400Y-25625000D01*
X11100000Y-22200000D02*
X11100000Y-25166180D01*
X16679300Y-27800000D02*
X18500000Y-29620700D01*
X18500000Y-34079900D02*
X17049749Y-35530150D01*
X17049749Y-35530150D02*
X11569850Y-35530150D01*
X14878400Y-25625000D02*
X15353400Y-26100000D01*
X16344500Y-26100000D02*
X16720700Y-26476200D01*
X11100000Y-25166180D02*
X11558820Y-25625000D01*
X16900000Y-27300000D02*
X16720700Y-27300000D01*
X11569850Y-35530150D02*
X10925000Y-36175000D01*
X18500000Y-29620700D02*
X18500000Y-34079900D01*
X14150000Y-20150000D02*
X13150000Y-20150000D01*
%TO.N,/SDA_5V*%
X17500000Y-24700000D02*
X19200000Y-26400000D01*
X15358421Y-23100000D02*
X14150000Y-21891579D01*
X14150000Y-21891579D02*
X14150000Y-21450000D01*
X19200000Y-26400000D02*
X19200000Y-34369850D01*
X18849500Y-23900000D02*
X18300000Y-23900000D01*
X17339698Y-36230150D02*
X13494850Y-36230150D01*
X15923800Y-23100000D02*
X15358421Y-23100000D01*
X13494850Y-36230150D02*
X10225000Y-39500000D01*
X16700000Y-24700000D02*
X17700000Y-24700000D01*
X18300000Y-23900000D02*
X17500000Y-24700000D01*
X19200000Y-34369850D02*
X17339698Y-36230150D01*
X16700000Y-23876200D02*
X15923800Y-23100000D01*
X16700000Y-24700000D02*
X16700000Y-23876200D01*
X16700000Y-24700000D02*
X17500000Y-24700000D01*
%TO.N,/E_STOP_5V*%
X32500000Y-45300000D02*
X32500000Y-55589950D01*
X21800000Y-62000000D02*
X21800000Y-47237500D01*
X18862500Y-45975000D02*
X20537500Y-45975000D01*
X27900000Y-62000000D02*
X26100000Y-63800000D01*
X18037500Y-46800000D02*
X18862500Y-45975000D01*
X32500000Y-55589950D02*
X27900000Y-60189950D01*
X23600000Y-63800000D02*
X21800000Y-62000000D01*
X27900000Y-60189950D02*
X27900000Y-62000000D01*
X21800000Y-47237500D02*
X20537500Y-45975000D01*
X29700000Y-42500000D02*
X32500000Y-45300000D01*
X26100000Y-63800000D02*
X23600000Y-63800000D01*
%TO.N,/INT_5V*%
X31800000Y-47140000D02*
X31800000Y-55300000D01*
X22500000Y-61710050D02*
X22500000Y-44075000D01*
X18825000Y-42175000D02*
X20600000Y-42175000D01*
X23889950Y-63100000D02*
X22500000Y-61710050D01*
X27200000Y-59900001D02*
X27200000Y-61710050D01*
X31800000Y-55300000D02*
X27200000Y-59900001D01*
X20600000Y-42175000D02*
X20600000Y-42115000D01*
X18037500Y-42962500D02*
X18825000Y-42175000D01*
X25810050Y-63100000D02*
X23889950Y-63100000D01*
X22500000Y-44075000D02*
X20600000Y-42175000D01*
X27200000Y-61710050D02*
X25810050Y-63100000D01*
X18037500Y-43000000D02*
X18037500Y-42962500D01*
X29700000Y-45040000D02*
X31800000Y-47140000D01*
%TO.N,/SYNC_5V*%
X26500000Y-61420100D02*
X25520100Y-62400000D01*
X31100000Y-48980000D02*
X31100000Y-55010050D01*
X26500000Y-59610052D02*
X26500000Y-61420100D01*
X18825000Y-38375000D02*
X20600000Y-38375000D01*
X23200000Y-61420100D02*
X23200000Y-40975000D01*
X23200000Y-40975000D02*
X20600000Y-38375000D01*
X18037500Y-39162500D02*
X18825000Y-38375000D01*
X18037500Y-39200000D02*
X18037500Y-39162500D01*
X24179900Y-62400000D02*
X23200000Y-61420100D01*
X25520100Y-62400000D02*
X24179900Y-62400000D01*
X31100000Y-55010050D02*
X26500000Y-59610052D01*
X29700000Y-47580000D02*
X31100000Y-48980000D01*
%TO.N,/SDA_3.3V*%
X16759800Y-34830150D02*
X10569850Y-34830150D01*
X17800000Y-33789950D02*
X16759800Y-34830150D01*
X10225000Y-35175000D02*
X10225000Y-36100000D01*
X16720700Y-29900000D02*
X16720700Y-29076200D01*
X17800000Y-30979300D02*
X17800000Y-33789950D01*
X10569850Y-34830150D02*
X10225000Y-35175000D01*
X14197700Y-28225000D02*
X10075000Y-28225000D01*
X10075000Y-28225000D02*
X4500000Y-22650000D01*
X16720700Y-29076200D02*
X16459500Y-28815000D01*
X16459500Y-28815000D02*
X14787700Y-28815000D01*
X14787700Y-28815000D02*
X14197700Y-28225000D01*
X16720700Y-29900000D02*
X17800000Y-30979300D01*
%TO.N,/SCL_3.3V*%
X16720700Y-32500000D02*
X16720700Y-31576200D01*
X14739100Y-30825000D02*
X10535000Y-30825000D01*
X9525000Y-36100000D02*
X9525000Y-34885050D01*
X16169850Y-34130150D02*
X16720700Y-33579300D01*
X16720700Y-33579300D02*
X16720700Y-32500000D01*
X15114100Y-31200000D02*
X14739100Y-30825000D01*
X10279901Y-34130150D02*
X16169850Y-34130150D01*
X16720700Y-31576200D02*
X16344500Y-31200000D01*
X16344500Y-31200000D02*
X15114100Y-31200000D01*
X10535000Y-30825000D02*
X10135000Y-30825000D01*
X9525000Y-34885050D02*
X10279901Y-34130150D01*
X4690000Y-25190000D02*
X4500000Y-25190000D01*
X10135000Y-30825000D02*
X4500000Y-25190000D01*
%TO.N,/SYNC_3.3V*%
X12000000Y-39000000D02*
X12000000Y-42400000D01*
X7300000Y-38150000D02*
X4500000Y-35350000D01*
X13725000Y-38250000D02*
X13600000Y-38375000D01*
X7300000Y-43020100D02*
X7300000Y-38150000D01*
X12000000Y-42400000D02*
X10900000Y-43500000D01*
X13600000Y-38375000D02*
X12625000Y-38375000D01*
X16162500Y-38250000D02*
X13725000Y-38250000D01*
X10900000Y-43500000D02*
X7779900Y-43500000D01*
X12625000Y-38375000D02*
X12000000Y-39000000D01*
X7779900Y-43500000D02*
X7300000Y-43020100D01*
%TO.N,/INT_3.3V*%
X4500000Y-37890000D02*
X6600000Y-39990000D01*
X16162500Y-42050000D02*
X13725000Y-42050000D01*
X6600000Y-39990000D02*
X6600000Y-43310050D01*
X11475000Y-44300000D02*
X13600000Y-42175000D01*
X7589950Y-44300000D02*
X11475000Y-44300000D01*
X13725000Y-42050000D02*
X13600000Y-42175000D01*
X6600000Y-43310050D02*
X7589950Y-44300000D01*
%TO.N,/E_STOP_3.3V*%
X5889800Y-41289800D02*
X5030000Y-40430000D01*
X13537500Y-45975000D02*
X12562500Y-45000000D01*
X13662500Y-45850000D02*
X13537500Y-45975000D01*
X12562500Y-45000000D02*
X7300000Y-45000000D01*
X5889800Y-43589800D02*
X5889800Y-41289800D01*
X16162500Y-45850000D02*
X13662500Y-45850000D01*
X7300000Y-45000000D02*
X5889800Y-43589800D01*
X5030000Y-40430000D02*
X4500000Y-40430000D01*
%TO.N,+3.3V*%
X16162500Y-43950000D02*
X16162500Y-43037500D01*
X13725000Y-43950000D02*
X16162500Y-43950000D01*
D30*
X8875000Y-36100000D02*
X8875000Y-37275000D01*
X8875000Y-37275000D02*
X8900000Y-37300000D01*
D28*
X16112500Y-40100000D02*
X16162500Y-40150000D01*
X13600000Y-43825000D02*
X13725000Y-43950000D01*
X12864707Y-29110293D02*
X12075000Y-29900000D01*
X16162500Y-39191921D02*
X16162500Y-40150000D01*
X12100000Y-29925000D02*
X12075000Y-29900000D01*
X12864707Y-31674500D02*
X12864707Y-31710293D01*
X16162500Y-47750000D02*
X16162500Y-46837500D01*
X16112500Y-47800000D02*
X16162500Y-47750000D01*
X13600000Y-40025000D02*
X13675000Y-40100000D01*
X24820000Y-58210000D02*
X24890000Y-58210000D01*
X12864707Y-31710293D02*
X12075000Y-32500000D01*
X12075000Y-32500000D02*
X12100000Y-32475000D01*
X16162500Y-46837500D02*
X16200000Y-46800000D01*
X12075000Y-32525000D02*
X12075000Y-32500000D01*
X16162500Y-43037500D02*
X16200000Y-43000000D01*
X12864707Y-29074500D02*
X12864707Y-29110293D01*
X13675000Y-40100000D02*
X16112500Y-40100000D01*
X13712500Y-47800000D02*
X16112500Y-47800000D01*
X13537500Y-47625000D02*
X13712500Y-47800000D01*
D30*
%TO.N,Net-(JP1-A)*%
X15658600Y-24700000D02*
X13683600Y-24700000D01*
%TO.N,Net-(JP2-A)*%
X13725000Y-27300000D02*
X15679300Y-27300000D01*
%TO.N,Net-(JP3-A)*%
X13725000Y-29900000D02*
X15679300Y-29900000D01*
%TO.N,Net-(JP4-A)*%
X15679300Y-32500000D02*
X13725000Y-32500000D01*
%TO.N,Net-(U3-EN)*%
X10025000Y-42200000D02*
X10025000Y-41750000D01*
X8875000Y-40600000D02*
X8875000Y-39500000D01*
X10025000Y-41750000D02*
X8875000Y-40600000D01*
X8875000Y-39500000D02*
X8225000Y-39500000D01*
%TO.N,Net-(U1-ENABLE)*%
X16050000Y-21450000D02*
X16150000Y-21550000D01*
X18325000Y-21550000D02*
X18400000Y-21625000D01*
X16150000Y-21550000D02*
X18325000Y-21550000D01*
%TD*%
%TA.AperFunction,Conductor*%
%TO.N,GND*%
G36*
X38185648Y-15914352D02*
G01*
X38200000Y-15949000D01*
X38200000Y-66551000D01*
X38185648Y-66585648D01*
X38151000Y-66600000D01*
X5800330Y-66600000D01*
X5799643Y-66599995D01*
X5634065Y-66597673D01*
X5629266Y-66597370D01*
X5299815Y-66560250D01*
X5294397Y-66559329D01*
X4971522Y-66485635D01*
X4966242Y-66484114D01*
X4653638Y-66374729D01*
X4648562Y-66372626D01*
X4350182Y-66228934D01*
X4345372Y-66226276D01*
X4064950Y-66050075D01*
X4060469Y-66046896D01*
X3801532Y-65840401D01*
X3797435Y-65836739D01*
X3563260Y-65602564D01*
X3559598Y-65598467D01*
X3353103Y-65339530D01*
X3349924Y-65335049D01*
X3173723Y-65054627D01*
X3171065Y-65049817D01*
X3027373Y-64751437D01*
X3025270Y-64746361D01*
X2915885Y-64433757D01*
X2914364Y-64428477D01*
X2868215Y-64226286D01*
X2840669Y-64105597D01*
X2839749Y-64100184D01*
X2836751Y-64073579D01*
X2802628Y-63770729D01*
X2802326Y-63765934D01*
X2800005Y-63600356D01*
X2800000Y-63599669D01*
X2800000Y-50580000D01*
X3294815Y-50580000D01*
X3314313Y-50790423D01*
X3314314Y-50790429D01*
X3372146Y-50993687D01*
X3372147Y-50993689D01*
X3466342Y-51182859D01*
X3466345Y-51182863D01*
X3593695Y-51351503D01*
X3593698Y-51351506D01*
X3749867Y-51493873D01*
X3749868Y-51493874D01*
X3749872Y-51493877D01*
X3929547Y-51605128D01*
X3929550Y-51605129D01*
X4126599Y-51681466D01*
X4126600Y-51681466D01*
X4126605Y-51681468D01*
X4334336Y-51720300D01*
X4334338Y-51720300D01*
X4545662Y-51720300D01*
X4545664Y-51720300D01*
X4753395Y-51681468D01*
X4950453Y-51605128D01*
X5130128Y-51493877D01*
X5286302Y-51351506D01*
X5413656Y-51182862D01*
X5507853Y-50993689D01*
X5565686Y-50790427D01*
X5585185Y-50580000D01*
X5565686Y-50369573D01*
X5507853Y-50166311D01*
X5413656Y-49977138D01*
X5286302Y-49808494D01*
X5286301Y-49808493D01*
X5130132Y-49666126D01*
X5130129Y-49666124D01*
X5130128Y-49666123D01*
X4950453Y-49554872D01*
X4950450Y-49554871D01*
X4950449Y-49554870D01*
X4753400Y-49478533D01*
X4753395Y-49478532D01*
X4545664Y-49439700D01*
X4334336Y-49439700D01*
X4177584Y-49469002D01*
X4126599Y-49478533D01*
X3929550Y-49554870D01*
X3749867Y-49666126D01*
X3593698Y-49808493D01*
X3593695Y-49808496D01*
X3466345Y-49977136D01*
X3466342Y-49977140D01*
X3372149Y-50166305D01*
X3372146Y-50166312D01*
X3314314Y-50369570D01*
X3314313Y-50369576D01*
X3294815Y-50580000D01*
X2800000Y-50580000D01*
X2800000Y-48040000D01*
X3294815Y-48040000D01*
X3314313Y-48250423D01*
X3314314Y-48250429D01*
X3372146Y-48453687D01*
X3372149Y-48453694D01*
X3466342Y-48642859D01*
X3466345Y-48642863D01*
X3593695Y-48811503D01*
X3593698Y-48811506D01*
X3749867Y-48953873D01*
X3749868Y-48953874D01*
X3749872Y-48953877D01*
X3929547Y-49065128D01*
X3929550Y-49065129D01*
X4126599Y-49141466D01*
X4126600Y-49141466D01*
X4126605Y-49141468D01*
X4334336Y-49180300D01*
X4334338Y-49180300D01*
X4545662Y-49180300D01*
X4545664Y-49180300D01*
X4753395Y-49141468D01*
X4950453Y-49065128D01*
X5130128Y-48953877D01*
X5286302Y-48811506D01*
X5413656Y-48642862D01*
X5507853Y-48453689D01*
X5565686Y-48250427D01*
X5585185Y-48040000D01*
X5565686Y-47829573D01*
X5507853Y-47626311D01*
X5413656Y-47437138D01*
X5319346Y-47312251D01*
X5286304Y-47268496D01*
X5286301Y-47268493D01*
X5130132Y-47126126D01*
X5130129Y-47126124D01*
X5130128Y-47126123D01*
X4950453Y-47014872D01*
X4950450Y-47014871D01*
X4950449Y-47014870D01*
X4753400Y-46938533D01*
X4753395Y-46938532D01*
X4545664Y-46899700D01*
X4334336Y-46899700D01*
X4177584Y-46929002D01*
X4126599Y-46938533D01*
X3929550Y-47014870D01*
X3749867Y-47126126D01*
X3593698Y-47268493D01*
X3593695Y-47268496D01*
X3466345Y-47437136D01*
X3466342Y-47437140D01*
X3372149Y-47626305D01*
X3372146Y-47626312D01*
X3314314Y-47829570D01*
X3314313Y-47829576D01*
X3294815Y-48040000D01*
X2800000Y-48040000D01*
X2800000Y-32800000D01*
X3294815Y-32800000D01*
X3314313Y-33010423D01*
X3314314Y-33010429D01*
X3372146Y-33213687D01*
X3372149Y-33213694D01*
X3466342Y-33402859D01*
X3466345Y-33402863D01*
X3593695Y-33571503D01*
X3593698Y-33571506D01*
X3749867Y-33713873D01*
X3749868Y-33713874D01*
X3749872Y-33713877D01*
X3929547Y-33825128D01*
X3929550Y-33825129D01*
X4126599Y-33901466D01*
X4126600Y-33901466D01*
X4126605Y-33901468D01*
X4334336Y-33940300D01*
X4334338Y-33940300D01*
X4545662Y-33940300D01*
X4545664Y-33940300D01*
X4753395Y-33901468D01*
X4950453Y-33825128D01*
X5130128Y-33713877D01*
X5286302Y-33571506D01*
X5413656Y-33402862D01*
X5507853Y-33213689D01*
X5565686Y-33010427D01*
X5585185Y-32800000D01*
X5565686Y-32589573D01*
X5507853Y-32386311D01*
X5413656Y-32197138D01*
X5319719Y-32072745D01*
X5286304Y-32028496D01*
X5286301Y-32028493D01*
X5130132Y-31886126D01*
X5130129Y-31886124D01*
X5130128Y-31886123D01*
X4950453Y-31774872D01*
X4950450Y-31774871D01*
X4950449Y-31774870D01*
X4753400Y-31698533D01*
X4753395Y-31698532D01*
X4545664Y-31659700D01*
X4334336Y-31659700D01*
X4177584Y-31689002D01*
X4126599Y-31698533D01*
X3929550Y-31774870D01*
X3749867Y-31886126D01*
X3593698Y-32028493D01*
X3593695Y-32028496D01*
X3466345Y-32197136D01*
X3466342Y-32197140D01*
X3372149Y-32386305D01*
X3372146Y-32386312D01*
X3314314Y-32589570D01*
X3314313Y-32589576D01*
X3294815Y-32800000D01*
X2800000Y-32800000D01*
X2800000Y-30260000D01*
X3294815Y-30260000D01*
X3314313Y-30470423D01*
X3314314Y-30470429D01*
X3372146Y-30673687D01*
X3372149Y-30673694D01*
X3466342Y-30862859D01*
X3466345Y-30862863D01*
X3593695Y-31031503D01*
X3593698Y-31031506D01*
X3749867Y-31173873D01*
X3749868Y-31173874D01*
X3749872Y-31173877D01*
X3929547Y-31285128D01*
X3941741Y-31289852D01*
X4126599Y-31361466D01*
X4126600Y-31361466D01*
X4126605Y-31361468D01*
X4334336Y-31400300D01*
X4334338Y-31400300D01*
X4545662Y-31400300D01*
X4545664Y-31400300D01*
X4753395Y-31361468D01*
X4950453Y-31285128D01*
X5130128Y-31173877D01*
X5286302Y-31031506D01*
X5413656Y-30862862D01*
X5507853Y-30673689D01*
X5565686Y-30470427D01*
X5585185Y-30260000D01*
X5565686Y-30049573D01*
X5507853Y-29846311D01*
X5413656Y-29657138D01*
X5332749Y-29550000D01*
X5286304Y-29488496D01*
X5286301Y-29488493D01*
X5130132Y-29346126D01*
X5130129Y-29346124D01*
X5130128Y-29346123D01*
X4950453Y-29234872D01*
X4950450Y-29234871D01*
X4950449Y-29234870D01*
X4753400Y-29158533D01*
X4704800Y-29149448D01*
X4545664Y-29119700D01*
X4334336Y-29119700D01*
X4177584Y-29149002D01*
X4126599Y-29158533D01*
X3929550Y-29234870D01*
X3749867Y-29346126D01*
X3593698Y-29488493D01*
X3593695Y-29488496D01*
X3466345Y-29657136D01*
X3466342Y-29657140D01*
X3372149Y-29846305D01*
X3372146Y-29846312D01*
X3314314Y-30049570D01*
X3314313Y-30049576D01*
X3294815Y-30260000D01*
X2800000Y-30260000D01*
X2800000Y-27720000D01*
X3294815Y-27720000D01*
X3314313Y-27930423D01*
X3314314Y-27930429D01*
X3372146Y-28133687D01*
X3372149Y-28133694D01*
X3466342Y-28322859D01*
X3466343Y-28322861D01*
X3466344Y-28322862D01*
X3497788Y-28364500D01*
X3593695Y-28491503D01*
X3593698Y-28491506D01*
X3749867Y-28633873D01*
X3749868Y-28633874D01*
X3749872Y-28633877D01*
X3929547Y-28745128D01*
X3953298Y-28754329D01*
X4126599Y-28821466D01*
X4126600Y-28821466D01*
X4126605Y-28821468D01*
X4334336Y-28860300D01*
X4334338Y-28860300D01*
X4545662Y-28860300D01*
X4545664Y-28860300D01*
X4753395Y-28821468D01*
X4950453Y-28745128D01*
X5130128Y-28633877D01*
X5286302Y-28491506D01*
X5413656Y-28322862D01*
X5507853Y-28133689D01*
X5565686Y-27930427D01*
X5585185Y-27720000D01*
X5565686Y-27509573D01*
X5507853Y-27306311D01*
X5413656Y-27117138D01*
X5324470Y-26999036D01*
X5286304Y-26948496D01*
X5286301Y-26948493D01*
X5130132Y-26806126D01*
X5130129Y-26806124D01*
X5130128Y-26806123D01*
X4950453Y-26694872D01*
X4950450Y-26694871D01*
X4950449Y-26694870D01*
X4753400Y-26618533D01*
X4753395Y-26618532D01*
X4545664Y-26579700D01*
X4334336Y-26579700D01*
X4177584Y-26609002D01*
X4126599Y-26618533D01*
X3929550Y-26694870D01*
X3749867Y-26806126D01*
X3593698Y-26948493D01*
X3593695Y-26948496D01*
X3466345Y-27117136D01*
X3466342Y-27117140D01*
X3372149Y-27306305D01*
X3372146Y-27306312D01*
X3314314Y-27509570D01*
X3314313Y-27509576D01*
X3294815Y-27720000D01*
X2800000Y-27720000D01*
X2800000Y-22640000D01*
X3294815Y-22640000D01*
X3314313Y-22850423D01*
X3314314Y-22850429D01*
X3372146Y-23053687D01*
X3372149Y-23053694D01*
X3466342Y-23242859D01*
X3466345Y-23242863D01*
X3593695Y-23411503D01*
X3593698Y-23411506D01*
X3749867Y-23553873D01*
X3749868Y-23553874D01*
X3749872Y-23553877D01*
X3929547Y-23665128D01*
X3946798Y-23671811D01*
X4126599Y-23741466D01*
X4126600Y-23741466D01*
X4126605Y-23741468D01*
X4334336Y-23780300D01*
X4334338Y-23780300D01*
X4545662Y-23780300D01*
X4545664Y-23780300D01*
X4753395Y-23741468D01*
X4868478Y-23696884D01*
X4905968Y-23697750D01*
X4920823Y-23707926D01*
X9798386Y-28585490D01*
X9894728Y-28641112D01*
X9894729Y-28641113D01*
X9901111Y-28644798D01*
X9901117Y-28644800D01*
X10015687Y-28675499D01*
X10015688Y-28675500D01*
X10015691Y-28675500D01*
X12314595Y-28675500D01*
X12349243Y-28689852D01*
X12363595Y-28724500D01*
X12353469Y-28754329D01*
X12340171Y-28771658D01*
X12340168Y-28771663D01*
X12279662Y-28917738D01*
X12260533Y-29063043D01*
X12246600Y-29091295D01*
X12127747Y-29210148D01*
X12093099Y-29224500D01*
X11843482Y-29224500D01*
X11749696Y-29239353D01*
X11636664Y-29296945D01*
X11636657Y-29296950D01*
X11546950Y-29386657D01*
X11546945Y-29386664D01*
X11489355Y-29499690D01*
X11489355Y-29499692D01*
X11474500Y-29593482D01*
X11474500Y-30206517D01*
X11489353Y-30300302D01*
X11490858Y-30303256D01*
X11493799Y-30340644D01*
X11469442Y-30369160D01*
X11447198Y-30374500D01*
X10341899Y-30374500D01*
X10307251Y-30360148D01*
X5535510Y-25588407D01*
X5521158Y-25553759D01*
X5523029Y-25540349D01*
X5540328Y-25479552D01*
X5565686Y-25390427D01*
X5585185Y-25180000D01*
X5565686Y-24969573D01*
X5507853Y-24766311D01*
X5413656Y-24577138D01*
X5298418Y-24424538D01*
X5286304Y-24408496D01*
X5286301Y-24408493D01*
X5130132Y-24266126D01*
X5130129Y-24266124D01*
X5130128Y-24266123D01*
X4950453Y-24154872D01*
X4950450Y-24154871D01*
X4950449Y-24154870D01*
X4753400Y-24078533D01*
X4728450Y-24073869D01*
X4545664Y-24039700D01*
X4334336Y-24039700D01*
X4214834Y-24062039D01*
X4126599Y-24078533D01*
X3929550Y-24154870D01*
X3749867Y-24266126D01*
X3593698Y-24408493D01*
X3593695Y-24408496D01*
X3466345Y-24577136D01*
X3466342Y-24577140D01*
X3372149Y-24766305D01*
X3372146Y-24766312D01*
X3314314Y-24969570D01*
X3314313Y-24969576D01*
X3294815Y-25180000D01*
X3314313Y-25390423D01*
X3314314Y-25390429D01*
X3372146Y-25593687D01*
X3372149Y-25593694D01*
X3466342Y-25782859D01*
X3466345Y-25782863D01*
X3593695Y-25951503D01*
X3593698Y-25951506D01*
X3749867Y-26093873D01*
X3749868Y-26093874D01*
X3749872Y-26093877D01*
X3929547Y-26205128D01*
X3983716Y-26226113D01*
X4126599Y-26281466D01*
X4126600Y-26281466D01*
X4126605Y-26281468D01*
X4334336Y-26320300D01*
X4334338Y-26320300D01*
X4545662Y-26320300D01*
X4545664Y-26320300D01*
X4753395Y-26281468D01*
X4868478Y-26236884D01*
X4905968Y-26237750D01*
X4920824Y-26247927D01*
X9858386Y-31185489D01*
X9858387Y-31185490D01*
X9858389Y-31185491D01*
X9881400Y-31198776D01*
X9917696Y-31219731D01*
X9961114Y-31244799D01*
X9961116Y-31244799D01*
X9961117Y-31244800D01*
X10075687Y-31275499D01*
X10075688Y-31275500D01*
X10075691Y-31275500D01*
X10475691Y-31275500D01*
X12314595Y-31275500D01*
X12349243Y-31289852D01*
X12363595Y-31324500D01*
X12353469Y-31354329D01*
X12340171Y-31371658D01*
X12340168Y-31371663D01*
X12279662Y-31517738D01*
X12260533Y-31663043D01*
X12246600Y-31691295D01*
X12127747Y-31810148D01*
X12093099Y-31824500D01*
X11843482Y-31824500D01*
X11749696Y-31839353D01*
X11636664Y-31896945D01*
X11636657Y-31896950D01*
X11546950Y-31986657D01*
X11546945Y-31986664D01*
X11489355Y-32099690D01*
X11489355Y-32099692D01*
X11489354Y-32099694D01*
X11489354Y-32099696D01*
X11474500Y-32193481D01*
X11474500Y-32193482D01*
X11474500Y-32806517D01*
X11489353Y-32900303D01*
X11546945Y-33013335D01*
X11546950Y-33013342D01*
X11636657Y-33103049D01*
X11636664Y-33103054D01*
X11749691Y-33160644D01*
X11749692Y-33160644D01*
X11749696Y-33160646D01*
X11843481Y-33175500D01*
X12306518Y-33175499D01*
X12400304Y-33160646D01*
X12461387Y-33129522D01*
X12513335Y-33103054D01*
X12513337Y-33103052D01*
X12513342Y-33103050D01*
X12603050Y-33013342D01*
X12603054Y-33013335D01*
X12660644Y-32900309D01*
X12660644Y-32900307D01*
X12660646Y-32900304D01*
X12675500Y-32806519D01*
X12675499Y-32556897D01*
X12689850Y-32522251D01*
X12930349Y-32281752D01*
X12958600Y-32267820D01*
X13021469Y-32259544D01*
X13056750Y-32244930D01*
X13094251Y-32244930D01*
X13120770Y-32271448D01*
X13124500Y-32290200D01*
X13124500Y-32806517D01*
X13139353Y-32900303D01*
X13196945Y-33013335D01*
X13196950Y-33013342D01*
X13286657Y-33103049D01*
X13286664Y-33103054D01*
X13399691Y-33160644D01*
X13399692Y-33160644D01*
X13399696Y-33160646D01*
X13493481Y-33175500D01*
X13956518Y-33175499D01*
X14050304Y-33160646D01*
X14111387Y-33129522D01*
X14163335Y-33103054D01*
X14163337Y-33103052D01*
X14163342Y-33103050D01*
X14253050Y-33013342D01*
X14254535Y-33010429D01*
X14296914Y-32927255D01*
X14325431Y-32902898D01*
X14340573Y-32900500D01*
X15099600Y-32900500D01*
X15134248Y-32914852D01*
X15148600Y-32949500D01*
X15148600Y-33154748D01*
X15160233Y-33213231D01*
X15177982Y-33239795D01*
X15204547Y-33279552D01*
X15228799Y-33295756D01*
X15270869Y-33323867D01*
X15329352Y-33335500D01*
X15329355Y-33335500D01*
X16029245Y-33335500D01*
X16029248Y-33335500D01*
X16087731Y-33323867D01*
X16154052Y-33279552D01*
X16159257Y-33271761D01*
X16190438Y-33250925D01*
X16227221Y-33258240D01*
X16240740Y-33271758D01*
X16245948Y-33279552D01*
X16248421Y-33281204D01*
X16269258Y-33312385D01*
X16270200Y-33321947D01*
X16270200Y-33372401D01*
X16255848Y-33407049D01*
X15997599Y-33665298D01*
X15962951Y-33679650D01*
X10220589Y-33679650D01*
X10106016Y-33710350D01*
X10106012Y-33710351D01*
X10003294Y-33769655D01*
X10003285Y-33769662D01*
X9164511Y-34608435D01*
X9105202Y-34711159D01*
X9105201Y-34711163D01*
X9100063Y-34730339D01*
X9100063Y-34730340D01*
X9074500Y-34825739D01*
X9074500Y-35050500D01*
X9060148Y-35085148D01*
X9025500Y-35099500D01*
X8705252Y-35099500D01*
X8670162Y-35106479D01*
X8646767Y-35111133D01*
X8576772Y-35157902D01*
X8539990Y-35165218D01*
X8522328Y-35157902D01*
X8453037Y-35111604D01*
X8394695Y-35100000D01*
X8375000Y-35100000D01*
X8375000Y-36988533D01*
X8371270Y-37007284D01*
X8314955Y-37143238D01*
X8294318Y-37300000D01*
X8314955Y-37456761D01*
X8375461Y-37602836D01*
X8375464Y-37602841D01*
X8471718Y-37728282D01*
X8597159Y-37824536D01*
X8597161Y-37824536D01*
X8597163Y-37824538D01*
X8639499Y-37842074D01*
X8743238Y-37885044D01*
X8900000Y-37905682D01*
X9056762Y-37885044D01*
X9202841Y-37824536D01*
X9328282Y-37728282D01*
X9424536Y-37602841D01*
X9485044Y-37456762D01*
X9505682Y-37300000D01*
X9488801Y-37171773D01*
X9486711Y-37155896D01*
X9496418Y-37119670D01*
X9528896Y-37100919D01*
X9535292Y-37100500D01*
X9694745Y-37100500D01*
X9694748Y-37100500D01*
X9753231Y-37088867D01*
X9819552Y-37044552D01*
X9819552Y-37044551D01*
X9822777Y-37042397D01*
X9859559Y-37035080D01*
X9877223Y-37042397D01*
X9880447Y-37044551D01*
X9880448Y-37044552D01*
X9946769Y-37088867D01*
X10005252Y-37100500D01*
X10144101Y-37100500D01*
X10178749Y-37114852D01*
X10193101Y-37149500D01*
X10178749Y-37184148D01*
X9164512Y-38198385D01*
X9164511Y-38198385D01*
X9105201Y-38301111D01*
X9103532Y-38307343D01*
X9103531Y-38307342D01*
X9103531Y-38307346D01*
X9074500Y-38415688D01*
X9074500Y-38450500D01*
X9060148Y-38485148D01*
X9025500Y-38499500D01*
X8705252Y-38499500D01*
X8646769Y-38511133D01*
X8577223Y-38557602D01*
X8540440Y-38564918D01*
X8522777Y-38557602D01*
X8482650Y-38530790D01*
X8453231Y-38511133D01*
X8394748Y-38499500D01*
X8055252Y-38499500D01*
X7996769Y-38511133D01*
X7930447Y-38555447D01*
X7896349Y-38606480D01*
X7886133Y-38621769D01*
X7874500Y-38680252D01*
X7874500Y-38680255D01*
X7874500Y-39292954D01*
X7867935Y-39317454D01*
X7851794Y-39345411D01*
X7851791Y-39345417D01*
X7846830Y-39363934D01*
X7824000Y-39393687D01*
X7786818Y-39398582D01*
X7757065Y-39375752D01*
X7750500Y-39351252D01*
X7750500Y-38090688D01*
X7721469Y-37982346D01*
X7721468Y-37982342D01*
X7721468Y-37982343D01*
X7719799Y-37976114D01*
X7719799Y-37976113D01*
X7660489Y-37873386D01*
X6706797Y-36919694D01*
X7875000Y-36919694D01*
X7886604Y-36978036D01*
X7930807Y-37044192D01*
X7996963Y-37088395D01*
X8055305Y-37100000D01*
X8075000Y-37100000D01*
X8075000Y-36250000D01*
X7875000Y-36250000D01*
X7875000Y-36919694D01*
X6706797Y-36919694D01*
X5535510Y-35748407D01*
X5521158Y-35713759D01*
X5523029Y-35700349D01*
X5531921Y-35669100D01*
X5565686Y-35550427D01*
X5585185Y-35340000D01*
X5579653Y-35280305D01*
X7875000Y-35280305D01*
X7875000Y-35950000D01*
X8075000Y-35950000D01*
X8075000Y-35100000D01*
X8055305Y-35100000D01*
X7996963Y-35111604D01*
X7930807Y-35155807D01*
X7886604Y-35221963D01*
X7875000Y-35280305D01*
X5579653Y-35280305D01*
X5565686Y-35129573D01*
X5507853Y-34926311D01*
X5413656Y-34737138D01*
X5286302Y-34568494D01*
X5200898Y-34490638D01*
X5130132Y-34426126D01*
X5130129Y-34426124D01*
X5130128Y-34426123D01*
X4950453Y-34314872D01*
X4950450Y-34314871D01*
X4950449Y-34314870D01*
X4753400Y-34238533D01*
X4753395Y-34238532D01*
X4545664Y-34199700D01*
X4334336Y-34199700D01*
X4177584Y-34229002D01*
X4126599Y-34238533D01*
X3929550Y-34314870D01*
X3749867Y-34426126D01*
X3593698Y-34568493D01*
X3593695Y-34568496D01*
X3466345Y-34737136D01*
X3466342Y-34737140D01*
X3372149Y-34926305D01*
X3372146Y-34926312D01*
X3314314Y-35129570D01*
X3314313Y-35129576D01*
X3294815Y-35340000D01*
X3314313Y-35550423D01*
X3314314Y-35550429D01*
X3372146Y-35753687D01*
X3372149Y-35753694D01*
X3466342Y-35942859D01*
X3466343Y-35942861D01*
X3466344Y-35942862D01*
X3494880Y-35980650D01*
X3593695Y-36111503D01*
X3593698Y-36111506D01*
X3749867Y-36253873D01*
X3749868Y-36253874D01*
X3749872Y-36253877D01*
X3929547Y-36365128D01*
X3929550Y-36365129D01*
X4126599Y-36441466D01*
X4126600Y-36441466D01*
X4126605Y-36441468D01*
X4334336Y-36480300D01*
X4334338Y-36480300D01*
X4545662Y-36480300D01*
X4545664Y-36480300D01*
X4753395Y-36441468D01*
X4868478Y-36396884D01*
X4905968Y-36397750D01*
X4920824Y-36407927D01*
X6835148Y-38322251D01*
X6849500Y-38356899D01*
X6849500Y-39484101D01*
X6835148Y-39518749D01*
X6800500Y-39533101D01*
X6765852Y-39518749D01*
X5535510Y-38288407D01*
X5521158Y-38253759D01*
X5523029Y-38240349D01*
X5544067Y-38166410D01*
X5565686Y-38090427D01*
X5585185Y-37880000D01*
X5565686Y-37669573D01*
X5507853Y-37466311D01*
X5413656Y-37277138D01*
X5334088Y-37171773D01*
X5286304Y-37108496D01*
X5286301Y-37108493D01*
X5130132Y-36966126D01*
X5130129Y-36966124D01*
X5130128Y-36966123D01*
X4950453Y-36854872D01*
X4950450Y-36854871D01*
X4950449Y-36854870D01*
X4753400Y-36778533D01*
X4753395Y-36778532D01*
X4545664Y-36739700D01*
X4334336Y-36739700D01*
X4177584Y-36769002D01*
X4126599Y-36778533D01*
X3929550Y-36854870D01*
X3749867Y-36966126D01*
X3593698Y-37108493D01*
X3593695Y-37108496D01*
X3466345Y-37277136D01*
X3466342Y-37277140D01*
X3372149Y-37466305D01*
X3372146Y-37466312D01*
X3314314Y-37669570D01*
X3314313Y-37669576D01*
X3294815Y-37880000D01*
X3314313Y-38090423D01*
X3314314Y-38090429D01*
X3372146Y-38293687D01*
X3372149Y-38293694D01*
X3466342Y-38482859D01*
X3466343Y-38482861D01*
X3466344Y-38482862D01*
X3487693Y-38511133D01*
X3593695Y-38651503D01*
X3593698Y-38651506D01*
X3749867Y-38793873D01*
X3749868Y-38793874D01*
X3749872Y-38793877D01*
X3929547Y-38905128D01*
X3929550Y-38905129D01*
X4126599Y-38981466D01*
X4126600Y-38981466D01*
X4126605Y-38981468D01*
X4334336Y-39020300D01*
X4334338Y-39020300D01*
X4545662Y-39020300D01*
X4545664Y-39020300D01*
X4753395Y-38981468D01*
X4868478Y-38936884D01*
X4905968Y-38937750D01*
X4920824Y-38947927D01*
X6135148Y-40162251D01*
X6149500Y-40196899D01*
X6149500Y-40794100D01*
X6135148Y-40828748D01*
X6100500Y-40843100D01*
X6065852Y-40828748D01*
X5590350Y-40353246D01*
X5576207Y-40323120D01*
X5565686Y-40209573D01*
X5507853Y-40006311D01*
X5413656Y-39817138D01*
X5324965Y-39699692D01*
X5286304Y-39648496D01*
X5286301Y-39648493D01*
X5130132Y-39506126D01*
X5130129Y-39506124D01*
X5130128Y-39506123D01*
X4950453Y-39394872D01*
X4950450Y-39394871D01*
X4950449Y-39394870D01*
X4753400Y-39318533D01*
X4747628Y-39317454D01*
X4545664Y-39279700D01*
X4334336Y-39279700D01*
X4193201Y-39306083D01*
X4126599Y-39318533D01*
X3929550Y-39394870D01*
X3749867Y-39506126D01*
X3593698Y-39648493D01*
X3593695Y-39648496D01*
X3466345Y-39817136D01*
X3466342Y-39817140D01*
X3372149Y-40006305D01*
X3372146Y-40006312D01*
X3314314Y-40209570D01*
X3314313Y-40209576D01*
X3294815Y-40420000D01*
X3314313Y-40630423D01*
X3314314Y-40630429D01*
X3372146Y-40833687D01*
X3372149Y-40833694D01*
X3466342Y-41022859D01*
X3466345Y-41022863D01*
X3593695Y-41191503D01*
X3593698Y-41191506D01*
X3749867Y-41333873D01*
X3749868Y-41333874D01*
X3749872Y-41333877D01*
X3929547Y-41445128D01*
X3929550Y-41445129D01*
X4126599Y-41521466D01*
X4126600Y-41521466D01*
X4126605Y-41521468D01*
X4334336Y-41560300D01*
X4334338Y-41560300D01*
X4545662Y-41560300D01*
X4545664Y-41560300D01*
X4753395Y-41521468D01*
X4950453Y-41445128D01*
X5130128Y-41333877D01*
X5182728Y-41285925D01*
X5218000Y-41273189D01*
X5250386Y-41287489D01*
X5424948Y-41462051D01*
X5439300Y-41496699D01*
X5439300Y-42244899D01*
X5424948Y-42279547D01*
X5390300Y-42293899D01*
X5355652Y-42279547D01*
X5351197Y-42274428D01*
X5286304Y-42188496D01*
X5286301Y-42188493D01*
X5130132Y-42046126D01*
X5130129Y-42046124D01*
X5130128Y-42046123D01*
X4950453Y-41934872D01*
X4950450Y-41934871D01*
X4950449Y-41934870D01*
X4753400Y-41858533D01*
X4753395Y-41858532D01*
X4545664Y-41819700D01*
X4334336Y-41819700D01*
X4177584Y-41849002D01*
X4126599Y-41858533D01*
X3929550Y-41934870D01*
X3749867Y-42046126D01*
X3593698Y-42188493D01*
X3593695Y-42188496D01*
X3466345Y-42357136D01*
X3466342Y-42357140D01*
X3372149Y-42546305D01*
X3372146Y-42546312D01*
X3314314Y-42749570D01*
X3314313Y-42749576D01*
X3294815Y-42960000D01*
X3314313Y-43170423D01*
X3314314Y-43170429D01*
X3372146Y-43373687D01*
X3372149Y-43373694D01*
X3466342Y-43562859D01*
X3466343Y-43562861D01*
X3466344Y-43562862D01*
X3489466Y-43593481D01*
X3593695Y-43731503D01*
X3593698Y-43731506D01*
X3749867Y-43873873D01*
X3749868Y-43873874D01*
X3749872Y-43873877D01*
X3929547Y-43985128D01*
X3929550Y-43985129D01*
X4126599Y-44061466D01*
X4126600Y-44061466D01*
X4126605Y-44061468D01*
X4334336Y-44100300D01*
X4334338Y-44100300D01*
X4545662Y-44100300D01*
X4545664Y-44100300D01*
X4753395Y-44061468D01*
X4950453Y-43985128D01*
X5130128Y-43873877D01*
X5286302Y-43731506D01*
X5355062Y-43640451D01*
X5387394Y-43621452D01*
X5423693Y-43630879D01*
X5441494Y-43657300D01*
X5460934Y-43729849D01*
X5469999Y-43763684D01*
X5470001Y-43763689D01*
X5529311Y-43866414D01*
X6192637Y-44529740D01*
X6206989Y-44564388D01*
X6192637Y-44599036D01*
X6157989Y-44613388D01*
X6139238Y-44609658D01*
X6106335Y-44596029D01*
X6106325Y-44596026D01*
X6078277Y-44590447D01*
X6008727Y-44576613D01*
X5987218Y-44572334D01*
X5922697Y-44559500D01*
X5922694Y-44559500D01*
X5922693Y-44559500D01*
X5101073Y-44559500D01*
X5075278Y-44552161D01*
X4950453Y-44474872D01*
X4950450Y-44474871D01*
X4950449Y-44474870D01*
X4753400Y-44398533D01*
X4753395Y-44398532D01*
X4545664Y-44359700D01*
X4334336Y-44359700D01*
X4177584Y-44389002D01*
X4126599Y-44398533D01*
X3929550Y-44474870D01*
X3749867Y-44586126D01*
X3593698Y-44728493D01*
X3593695Y-44728496D01*
X3466345Y-44897136D01*
X3466342Y-44897140D01*
X3372149Y-45086305D01*
X3372146Y-45086312D01*
X3314314Y-45289570D01*
X3314313Y-45289576D01*
X3294815Y-45500000D01*
X3314313Y-45710423D01*
X3314314Y-45710429D01*
X3372146Y-45913687D01*
X3372149Y-45913694D01*
X3466342Y-46102859D01*
X3466345Y-46102863D01*
X3593695Y-46271503D01*
X3593698Y-46271506D01*
X3749867Y-46413873D01*
X3749868Y-46413874D01*
X3749872Y-46413877D01*
X3929547Y-46525128D01*
X3990149Y-46548605D01*
X4126599Y-46601466D01*
X4126600Y-46601466D01*
X4126605Y-46601468D01*
X4334336Y-46640300D01*
X4334338Y-46640300D01*
X4545662Y-46640300D01*
X4545664Y-46640300D01*
X4753395Y-46601468D01*
X4950453Y-46525128D01*
X5042977Y-46467838D01*
X5068772Y-46460500D01*
X5415071Y-46460500D01*
X5449719Y-46474852D01*
X9535148Y-50560281D01*
X9549500Y-50594929D01*
X9549500Y-54449093D01*
X9548958Y-54454568D01*
X9549128Y-54454585D01*
X9548890Y-54456994D01*
X9548890Y-57830774D01*
X9548890Y-60769226D01*
X9570572Y-60878228D01*
X9585416Y-60952858D01*
X9585418Y-60952864D01*
X9645770Y-61098565D01*
X9649500Y-61117317D01*
X9649500Y-61454275D01*
X9652353Y-61484698D01*
X9652353Y-61484699D01*
X9697204Y-61612876D01*
X9697208Y-61612885D01*
X9777849Y-61722150D01*
X9887114Y-61802791D01*
X9887117Y-61802792D01*
X9887118Y-61802793D01*
X9887120Y-61802793D01*
X9887123Y-61802795D01*
X9997645Y-61841468D01*
X10015301Y-61847646D01*
X10045734Y-61850500D01*
X10045744Y-61850500D01*
X10804256Y-61850500D01*
X10804266Y-61850500D01*
X10834699Y-61847646D01*
X10962882Y-61802793D01*
X10963491Y-61802344D01*
X11072150Y-61722150D01*
X11152791Y-61612885D01*
X11152791Y-61612884D01*
X11152793Y-61612882D01*
X11197646Y-61484699D01*
X11200500Y-61454266D01*
X11200500Y-61454191D01*
X12600001Y-61454191D01*
X12600002Y-61454215D01*
X12602850Y-61484602D01*
X12602851Y-61484608D01*
X12647651Y-61612640D01*
X12647655Y-61612648D01*
X12728207Y-61721792D01*
X12837351Y-61802344D01*
X12837359Y-61802348D01*
X12965395Y-61847149D01*
X12995785Y-61849999D01*
X13124999Y-61849999D01*
X13625000Y-61849999D01*
X13754191Y-61849999D01*
X13754215Y-61849997D01*
X13784602Y-61847149D01*
X13784608Y-61847148D01*
X13912640Y-61802348D01*
X13912648Y-61802344D01*
X14021792Y-61721792D01*
X14102344Y-61612648D01*
X14102348Y-61612640D01*
X14147149Y-61484605D01*
X14147149Y-61484603D01*
X14149998Y-61454214D01*
X14150000Y-61454193D01*
X14150000Y-61000000D01*
X13625000Y-61000000D01*
X13625000Y-61849999D01*
X13124999Y-61849999D01*
X13125000Y-61849998D01*
X13125000Y-61000000D01*
X12600001Y-61000000D01*
X12600001Y-61454191D01*
X11200500Y-61454191D01*
X11200500Y-61339006D01*
X11214852Y-61304358D01*
X11237692Y-61281518D01*
X11341712Y-61125841D01*
X11413363Y-60952861D01*
X11449890Y-60769226D01*
X11449890Y-60045806D01*
X12600000Y-60045806D01*
X12600000Y-60500000D01*
X13125000Y-60500000D01*
X13625000Y-60500000D01*
X14149999Y-60500000D01*
X14149999Y-60045808D01*
X14149997Y-60045784D01*
X14147149Y-60015397D01*
X14147148Y-60015391D01*
X14102348Y-59887359D01*
X14102344Y-59887351D01*
X14021792Y-59778207D01*
X13912648Y-59697655D01*
X13912640Y-59697651D01*
X13784604Y-59652850D01*
X13754214Y-59650001D01*
X13754193Y-59650000D01*
X13625000Y-59650000D01*
X13625000Y-60500000D01*
X13125000Y-60500000D01*
X13125000Y-59650000D01*
X12995808Y-59650000D01*
X12995784Y-59650002D01*
X12965397Y-59652850D01*
X12965391Y-59652851D01*
X12837359Y-59697651D01*
X12837351Y-59697655D01*
X12728207Y-59778207D01*
X12647655Y-59887351D01*
X12647651Y-59887359D01*
X12602850Y-60015394D01*
X12602850Y-60015396D01*
X12600001Y-60045785D01*
X12600000Y-60045806D01*
X11449890Y-60045806D01*
X11449890Y-58554191D01*
X12600001Y-58554191D01*
X12600002Y-58554215D01*
X12602850Y-58584602D01*
X12602851Y-58584608D01*
X12647651Y-58712640D01*
X12647655Y-58712648D01*
X12728207Y-58821792D01*
X12837351Y-58902344D01*
X12837359Y-58902348D01*
X12965395Y-58947149D01*
X12995785Y-58949999D01*
X13124999Y-58949999D01*
X13625000Y-58949999D01*
X13754191Y-58949999D01*
X13754215Y-58949997D01*
X13784602Y-58947149D01*
X13784608Y-58947148D01*
X13912640Y-58902348D01*
X13912648Y-58902344D01*
X14021792Y-58821792D01*
X14102344Y-58712648D01*
X14102348Y-58712640D01*
X14147149Y-58584605D01*
X14147149Y-58584603D01*
X14149998Y-58554214D01*
X14150000Y-58554193D01*
X14150000Y-58554191D01*
X14950001Y-58554191D01*
X14950002Y-58554215D01*
X14952850Y-58584602D01*
X14952851Y-58584608D01*
X14997651Y-58712640D01*
X14997655Y-58712648D01*
X15078207Y-58821792D01*
X15187351Y-58902344D01*
X15187359Y-58902348D01*
X15315395Y-58947149D01*
X15345785Y-58949999D01*
X15474999Y-58949999D01*
X15975000Y-58949999D01*
X16104191Y-58949999D01*
X16104215Y-58949997D01*
X16134602Y-58947149D01*
X16134608Y-58947148D01*
X16262640Y-58902348D01*
X16262648Y-58902344D01*
X16371792Y-58821792D01*
X16452344Y-58712648D01*
X16452348Y-58712640D01*
X16497149Y-58584605D01*
X16497149Y-58584603D01*
X16499998Y-58554214D01*
X16500000Y-58554193D01*
X16500000Y-58100000D01*
X15975000Y-58100000D01*
X15975000Y-58949999D01*
X15474999Y-58949999D01*
X15475000Y-58949998D01*
X15475000Y-58100000D01*
X14950001Y-58100000D01*
X14950001Y-58554191D01*
X14150000Y-58554191D01*
X14150000Y-58100000D01*
X13625000Y-58100000D01*
X13625000Y-58949999D01*
X13124999Y-58949999D01*
X13125000Y-58949998D01*
X13125000Y-58100000D01*
X12600001Y-58100000D01*
X12600001Y-58554191D01*
X11449890Y-58554191D01*
X11449890Y-57830774D01*
X11449890Y-57145806D01*
X12600000Y-57145806D01*
X12600000Y-57600000D01*
X13125000Y-57600000D01*
X13625000Y-57600000D01*
X14149999Y-57600000D01*
X14149999Y-57145808D01*
X14149999Y-57145806D01*
X14950000Y-57145806D01*
X14950000Y-57600000D01*
X15475000Y-57600000D01*
X15975000Y-57600000D01*
X16499999Y-57600000D01*
X16499999Y-57145808D01*
X16499997Y-57145784D01*
X16497149Y-57115397D01*
X16497148Y-57115391D01*
X16452348Y-56987359D01*
X16452344Y-56987351D01*
X16371792Y-56878207D01*
X16262648Y-56797655D01*
X16262640Y-56797651D01*
X16134604Y-56752850D01*
X16104214Y-56750001D01*
X16104193Y-56750000D01*
X15975000Y-56750000D01*
X15975000Y-57600000D01*
X15475000Y-57600000D01*
X15475000Y-56750000D01*
X15345808Y-56750000D01*
X15345784Y-56750002D01*
X15315397Y-56752850D01*
X15315391Y-56752851D01*
X15187359Y-56797651D01*
X15187351Y-56797655D01*
X15078207Y-56878207D01*
X14997655Y-56987351D01*
X14997651Y-56987359D01*
X14952850Y-57115394D01*
X14952850Y-57115396D01*
X14950001Y-57145785D01*
X14950000Y-57145806D01*
X14149999Y-57145806D01*
X14149997Y-57145784D01*
X14147149Y-57115397D01*
X14147148Y-57115391D01*
X14102348Y-56987359D01*
X14102344Y-56987351D01*
X14021792Y-56878207D01*
X13912648Y-56797655D01*
X13912640Y-56797651D01*
X13784604Y-56752850D01*
X13754214Y-56750001D01*
X13754193Y-56750000D01*
X13625000Y-56750000D01*
X13625000Y-57600000D01*
X13125000Y-57600000D01*
X13125000Y-56750000D01*
X12995808Y-56750000D01*
X12995784Y-56750002D01*
X12965397Y-56752850D01*
X12965391Y-56752851D01*
X12837359Y-56797651D01*
X12837351Y-56797655D01*
X12728207Y-56878207D01*
X12647655Y-56987351D01*
X12647651Y-56987359D01*
X12602850Y-57115394D01*
X12602850Y-57115396D01*
X12600001Y-57145785D01*
X12600000Y-57145806D01*
X11449890Y-57145806D01*
X11449890Y-54651509D01*
X11450430Y-54646029D01*
X11450264Y-54646013D01*
X11450500Y-54643617D01*
X11450500Y-50756899D01*
X11464852Y-50722251D01*
X11841379Y-50345724D01*
X12349500Y-50345724D01*
X12349500Y-51754275D01*
X12352353Y-51784698D01*
X12352353Y-51784699D01*
X12397204Y-51912876D01*
X12397208Y-51912885D01*
X12477847Y-52022148D01*
X12477850Y-52022150D01*
X12579598Y-52097243D01*
X12598953Y-52129363D01*
X12599500Y-52136667D01*
X12599500Y-53141265D01*
X12589925Y-53170362D01*
X12522208Y-53262114D01*
X12522204Y-53262123D01*
X12477353Y-53390300D01*
X12477353Y-53390301D01*
X12474500Y-53420724D01*
X12474500Y-55679275D01*
X12477353Y-55709698D01*
X12477353Y-55709699D01*
X12522204Y-55837876D01*
X12522208Y-55837885D01*
X12602849Y-55947150D01*
X12712114Y-56027791D01*
X12712117Y-56027792D01*
X12712118Y-56027793D01*
X12712120Y-56027793D01*
X12712123Y-56027795D01*
X12840301Y-56072646D01*
X12870734Y-56075500D01*
X12870744Y-56075500D01*
X13729256Y-56075500D01*
X13729266Y-56075500D01*
X13759699Y-56072646D01*
X13887882Y-56027793D01*
X13997150Y-55947150D01*
X14011790Y-55927314D01*
X14077791Y-55837885D01*
X14077791Y-55837884D01*
X14077793Y-55837882D01*
X14108544Y-55750000D01*
X15009730Y-55750000D01*
X15009912Y-55751248D01*
X15061213Y-55856186D01*
X15061215Y-55856190D01*
X15143809Y-55938784D01*
X15143813Y-55938786D01*
X15248751Y-55990087D01*
X15316779Y-55999999D01*
X15612499Y-55999999D01*
X16112500Y-55999999D01*
X16408221Y-55999999D01*
X16476248Y-55990088D01*
X16476249Y-55990088D01*
X16581186Y-55938787D01*
X16581190Y-55938784D01*
X16663784Y-55856190D01*
X16663786Y-55856186D01*
X16715087Y-55751248D01*
X16715270Y-55750000D01*
X16112500Y-55750000D01*
X16112500Y-55999999D01*
X15612499Y-55999999D01*
X15612500Y-55999998D01*
X15612500Y-55750000D01*
X15009730Y-55750000D01*
X14108544Y-55750000D01*
X14122646Y-55709699D01*
X14125500Y-55679266D01*
X14125500Y-55299500D01*
X14139852Y-55264852D01*
X14174500Y-55250500D01*
X15068992Y-55250500D01*
X15068993Y-55250500D01*
X15068993Y-55250499D01*
X15071387Y-55250264D01*
X15071408Y-55250483D01*
X15076332Y-55250000D01*
X16715269Y-55250000D01*
X16715087Y-55248751D01*
X16663786Y-55143813D01*
X16663784Y-55143809D01*
X16579976Y-55060001D01*
X16565624Y-55025353D01*
X16579976Y-54990705D01*
X16581483Y-54989198D01*
X16664198Y-54906483D01*
X16715573Y-54801393D01*
X16725500Y-54733260D01*
X16725500Y-54366740D01*
X16715573Y-54298607D01*
X16664198Y-54193517D01*
X16581483Y-54110802D01*
X16580329Y-54109648D01*
X16565977Y-54075000D01*
X16580329Y-54040352D01*
X16581483Y-54039198D01*
X16664198Y-53956483D01*
X16715573Y-53851393D01*
X16725500Y-53783260D01*
X16725500Y-53416740D01*
X16715573Y-53348607D01*
X16664198Y-53243517D01*
X16581483Y-53160802D01*
X16528938Y-53135114D01*
X16476396Y-53109428D01*
X16476394Y-53109427D01*
X16408262Y-53099500D01*
X16408260Y-53099500D01*
X16362000Y-53099500D01*
X16327352Y-53085148D01*
X16313000Y-53050500D01*
X16313000Y-52199500D01*
X16327352Y-52164852D01*
X16362000Y-52150500D01*
X16454256Y-52150500D01*
X16454266Y-52150500D01*
X16484699Y-52147646D01*
X16612882Y-52102793D01*
X16652129Y-52073828D01*
X16722150Y-52022150D01*
X16802791Y-51912885D01*
X16802791Y-51912884D01*
X16802793Y-51912882D01*
X16847646Y-51784699D01*
X16850500Y-51754266D01*
X16850500Y-50345734D01*
X16847646Y-50315301D01*
X16802793Y-50187118D01*
X16802792Y-50187117D01*
X16802791Y-50187114D01*
X16722150Y-50077849D01*
X16612885Y-49997208D01*
X16612876Y-49997204D01*
X16484698Y-49952353D01*
X16454275Y-49949500D01*
X16454266Y-49949500D01*
X15695734Y-49949500D01*
X15695724Y-49949500D01*
X15665301Y-49952353D01*
X15665300Y-49952353D01*
X15537123Y-49997204D01*
X15537114Y-49997208D01*
X15427849Y-50077849D01*
X15347208Y-50187114D01*
X15347204Y-50187123D01*
X15302353Y-50315300D01*
X15302353Y-50315301D01*
X15299500Y-50345724D01*
X15299500Y-51754275D01*
X15302353Y-51784697D01*
X15302354Y-51784699D01*
X15347207Y-51912882D01*
X15402425Y-51987700D01*
X15412000Y-52016796D01*
X15412000Y-53050500D01*
X15397648Y-53085148D01*
X15363000Y-53099500D01*
X15316738Y-53099500D01*
X15248605Y-53109427D01*
X15248603Y-53109428D01*
X15143519Y-53160801D01*
X15143515Y-53160803D01*
X15060803Y-53243515D01*
X15060801Y-53243519D01*
X15009428Y-53348603D01*
X15009427Y-53348605D01*
X14999500Y-53416738D01*
X14999500Y-53783263D01*
X15000982Y-53793436D01*
X14991775Y-53829791D01*
X14959558Y-53848988D01*
X14952494Y-53849500D01*
X14174500Y-53849500D01*
X14139852Y-53835148D01*
X14125500Y-53800500D01*
X14125500Y-53420743D01*
X14125499Y-53420724D01*
X14122646Y-53390301D01*
X14122646Y-53390300D01*
X14077795Y-53262123D01*
X14077791Y-53262114D01*
X14010075Y-53170362D01*
X14000500Y-53141265D01*
X14000500Y-51156007D01*
X14000499Y-51155999D01*
X13973582Y-51020680D01*
X13973580Y-51020673D01*
X13962403Y-50993689D01*
X13924429Y-50902012D01*
X13924429Y-50902011D01*
X13920775Y-50893189D01*
X13908757Y-50875202D01*
X13900500Y-50847980D01*
X13900500Y-50345743D01*
X13900499Y-50345724D01*
X13897646Y-50315301D01*
X13897646Y-50315300D01*
X13852795Y-50187123D01*
X13852791Y-50187114D01*
X13772150Y-50077849D01*
X13662885Y-49997208D01*
X13662876Y-49997204D01*
X13534698Y-49952353D01*
X13504275Y-49949500D01*
X13504266Y-49949500D01*
X12745734Y-49949500D01*
X12745724Y-49949500D01*
X12715301Y-49952353D01*
X12715300Y-49952353D01*
X12587123Y-49997204D01*
X12587114Y-49997208D01*
X12477849Y-50077849D01*
X12397208Y-50187114D01*
X12397204Y-50187123D01*
X12352353Y-50315300D01*
X12352353Y-50315301D01*
X12349500Y-50345724D01*
X11841379Y-50345724D01*
X12472251Y-49714852D01*
X12506899Y-49700500D01*
X16792491Y-49700500D01*
X16827139Y-49714852D01*
X17672648Y-50560361D01*
X17687000Y-50595009D01*
X17687000Y-53050500D01*
X17672648Y-53085148D01*
X17638000Y-53099500D01*
X17591738Y-53099500D01*
X17523605Y-53109427D01*
X17523603Y-53109428D01*
X17418519Y-53160801D01*
X17418515Y-53160803D01*
X17335803Y-53243515D01*
X17335801Y-53243519D01*
X17284428Y-53348603D01*
X17284427Y-53348605D01*
X17274500Y-53416738D01*
X17274500Y-53783261D01*
X17284077Y-53848988D01*
X17284427Y-53851393D01*
X17335802Y-53956483D01*
X17335803Y-53956484D01*
X17419671Y-54040352D01*
X17434023Y-54075000D01*
X17419671Y-54109648D01*
X17335803Y-54193515D01*
X17335801Y-54193519D01*
X17284428Y-54298603D01*
X17284427Y-54298605D01*
X17274500Y-54366738D01*
X17274500Y-54733261D01*
X17276375Y-54746126D01*
X17284427Y-54801393D01*
X17335802Y-54906483D01*
X17335803Y-54906484D01*
X17335804Y-54906485D01*
X17419670Y-54990352D01*
X17434022Y-55025000D01*
X17419670Y-55059648D01*
X17335804Y-55143514D01*
X17335801Y-55143519D01*
X17284428Y-55248603D01*
X17284427Y-55248605D01*
X17274500Y-55316738D01*
X17274500Y-55683261D01*
X17284427Y-55751394D01*
X17284428Y-55751396D01*
X17310114Y-55803938D01*
X17335802Y-55856483D01*
X17418517Y-55939198D01*
X17523607Y-55990573D01*
X17571884Y-55997606D01*
X17591738Y-56000500D01*
X17591740Y-56000500D01*
X17627047Y-56000500D01*
X17661695Y-56014852D01*
X17960148Y-56313305D01*
X17974500Y-56347953D01*
X17974500Y-56934013D01*
X17964925Y-56963110D01*
X17947208Y-56987115D01*
X17947204Y-56987123D01*
X17902353Y-57115300D01*
X17902353Y-57115301D01*
X17899500Y-57145724D01*
X17899500Y-58554275D01*
X17902353Y-58584697D01*
X17902354Y-58584699D01*
X17947207Y-58712882D01*
X17989925Y-58770763D01*
X17999500Y-58799859D01*
X17999500Y-63468998D01*
X18026417Y-63604318D01*
X18026420Y-63604328D01*
X18079225Y-63731811D01*
X18102025Y-63765934D01*
X18155883Y-63846539D01*
X18253460Y-63944116D01*
X18299102Y-63974613D01*
X18368189Y-64020775D01*
X18495672Y-64073580D01*
X18495678Y-64073581D01*
X18495681Y-64073582D01*
X18631001Y-64100499D01*
X18631007Y-64100500D01*
X18768993Y-64100500D01*
X18904328Y-64073580D01*
X19031811Y-64020775D01*
X19146542Y-63944114D01*
X19244114Y-63846542D01*
X19320775Y-63731811D01*
X19373580Y-63604328D01*
X19400500Y-63468993D01*
X19400500Y-58727760D01*
X19403250Y-58711576D01*
X19437500Y-58613694D01*
X19447646Y-58584699D01*
X19450500Y-58554266D01*
X19450500Y-57145734D01*
X19447646Y-57115301D01*
X19441778Y-57098532D01*
X19402795Y-56987123D01*
X19402791Y-56987115D01*
X19385075Y-56963110D01*
X19375500Y-56934013D01*
X19375500Y-55968507D01*
X19375499Y-55968501D01*
X19348582Y-55833181D01*
X19348579Y-55833170D01*
X19295775Y-55705689D01*
X19294866Y-55704328D01*
X19280789Y-55683261D01*
X19219114Y-55590957D01*
X19014852Y-55386695D01*
X19000500Y-55352047D01*
X19000500Y-55316738D01*
X18997606Y-55296884D01*
X18990573Y-55248607D01*
X18939198Y-55143517D01*
X18856483Y-55060802D01*
X18855329Y-55059648D01*
X18840977Y-55025000D01*
X18855329Y-54990352D01*
X18856483Y-54989198D01*
X18939198Y-54906483D01*
X18990573Y-54801393D01*
X19000500Y-54733260D01*
X19000500Y-54366740D01*
X18990573Y-54298607D01*
X18939198Y-54193517D01*
X18856483Y-54110802D01*
X18855329Y-54109648D01*
X18840977Y-54075000D01*
X18855329Y-54040352D01*
X18856483Y-54039198D01*
X18939198Y-53956483D01*
X18990573Y-53851393D01*
X19000500Y-53783260D01*
X19000500Y-53416740D01*
X18990573Y-53348607D01*
X18939198Y-53243517D01*
X18856483Y-53160802D01*
X18803938Y-53135114D01*
X18751396Y-53109428D01*
X18751394Y-53109427D01*
X18683262Y-53099500D01*
X18683260Y-53099500D01*
X18637000Y-53099500D01*
X18602352Y-53085148D01*
X18588000Y-53050500D01*
X18588000Y-50328798D01*
X18557300Y-50214228D01*
X18557299Y-50214224D01*
X18497990Y-50111496D01*
X17276004Y-48889511D01*
X17173278Y-48830201D01*
X17173276Y-48830200D01*
X17149063Y-48823713D01*
X17103495Y-48811503D01*
X17058701Y-48799500D01*
X17058699Y-48799500D01*
X12240691Y-48799500D01*
X12240688Y-48799500D01*
X12126118Y-48830199D01*
X12126112Y-48830202D01*
X12082696Y-48855268D01*
X12023385Y-48889511D01*
X12023384Y-48889512D01*
X11320407Y-49592488D01*
X11285759Y-49606840D01*
X11251111Y-49592488D01*
X11245018Y-49585064D01*
X11238306Y-49575019D01*
X7196617Y-45533330D01*
X7182265Y-45498682D01*
X7196617Y-45464034D01*
X7231265Y-45449682D01*
X7237660Y-45450101D01*
X7240691Y-45450500D01*
X12355601Y-45450500D01*
X12390249Y-45464852D01*
X12847648Y-45922251D01*
X12862000Y-45956899D01*
X12862000Y-46206517D01*
X12876853Y-46300303D01*
X12934445Y-46413335D01*
X12934450Y-46413342D01*
X13024157Y-46503049D01*
X13024164Y-46503054D01*
X13137191Y-46560644D01*
X13137192Y-46560644D01*
X13137196Y-46560646D01*
X13230981Y-46575500D01*
X13844018Y-46575499D01*
X13937804Y-46560646D01*
X14037379Y-46509910D01*
X14050835Y-46503054D01*
X14050837Y-46503052D01*
X14050842Y-46503050D01*
X14140550Y-46413342D01*
X14167411Y-46360626D01*
X14184414Y-46327255D01*
X14212931Y-46302898D01*
X14228073Y-46300500D01*
X15380300Y-46300500D01*
X15401820Y-46305479D01*
X15446364Y-46327255D01*
X15473607Y-46340573D01*
X15526364Y-46348259D01*
X15541738Y-46350500D01*
X15541740Y-46350500D01*
X15688638Y-46350500D01*
X15723286Y-46364852D01*
X15737638Y-46399500D01*
X15727512Y-46429329D01*
X15675464Y-46497158D01*
X15675461Y-46497163D01*
X15614955Y-46643238D01*
X15594318Y-46800000D01*
X15614955Y-46956761D01*
X15675461Y-47102836D01*
X15675464Y-47102841D01*
X15701874Y-47137259D01*
X15712000Y-47167088D01*
X15712000Y-47200500D01*
X15697648Y-47235148D01*
X15663000Y-47249500D01*
X15541738Y-47249500D01*
X15473605Y-47259427D01*
X15473603Y-47259428D01*
X15368519Y-47310801D01*
X15368515Y-47310803D01*
X15344171Y-47335148D01*
X15309523Y-47349500D01*
X14247884Y-47349500D01*
X14213236Y-47335148D01*
X14199487Y-47308168D01*
X14198146Y-47299696D01*
X14182247Y-47268493D01*
X14140554Y-47186664D01*
X14140549Y-47186657D01*
X14050842Y-47096950D01*
X14050835Y-47096945D01*
X13937808Y-47039355D01*
X13937805Y-47039354D01*
X13937804Y-47039354D01*
X13844019Y-47024500D01*
X13844017Y-47024500D01*
X13230982Y-47024500D01*
X13137196Y-47039353D01*
X13024164Y-47096945D01*
X13024157Y-47096950D01*
X12934450Y-47186657D01*
X12934445Y-47186664D01*
X12876855Y-47299690D01*
X12876855Y-47299692D01*
X12876854Y-47299694D01*
X12876854Y-47299696D01*
X12865075Y-47374065D01*
X12862000Y-47393482D01*
X12862000Y-47856517D01*
X12876853Y-47950303D01*
X12934445Y-48063335D01*
X12934450Y-48063342D01*
X13024157Y-48153049D01*
X13024164Y-48153054D01*
X13137191Y-48210644D01*
X13137192Y-48210644D01*
X13137196Y-48210646D01*
X13230981Y-48225500D01*
X13553438Y-48225499D01*
X13566119Y-48227168D01*
X13586441Y-48232614D01*
X13653189Y-48250500D01*
X13653191Y-48250500D01*
X16783262Y-48250500D01*
X16800590Y-48247974D01*
X16851393Y-48240573D01*
X16956483Y-48189198D01*
X17039198Y-48106483D01*
X17090573Y-48001393D01*
X17100068Y-47936227D01*
X17100500Y-47933261D01*
X17100500Y-47566738D01*
X17093280Y-47517186D01*
X17090573Y-47498607D01*
X17039198Y-47393517D01*
X16956483Y-47310802D01*
X16903938Y-47285114D01*
X16851396Y-47259428D01*
X16851394Y-47259427D01*
X16783262Y-47249500D01*
X16783260Y-47249500D01*
X16711362Y-47249500D01*
X16676714Y-47235148D01*
X16662362Y-47200500D01*
X16672488Y-47170671D01*
X16724536Y-47102841D01*
X16785044Y-46956762D01*
X16805682Y-46800000D01*
X16785044Y-46643238D01*
X16767742Y-46601468D01*
X16724538Y-46497163D01*
X16724535Y-46497158D01*
X16702038Y-46467839D01*
X16672487Y-46429328D01*
X16662781Y-46393104D01*
X16681533Y-46360626D01*
X16711362Y-46350500D01*
X16783262Y-46350500D01*
X16800590Y-46347974D01*
X16851393Y-46340573D01*
X16956483Y-46289198D01*
X17039198Y-46206483D01*
X17090573Y-46101393D01*
X17099117Y-46042753D01*
X17100500Y-46033261D01*
X17100500Y-45666738D01*
X17094630Y-45626451D01*
X17090573Y-45598607D01*
X17039198Y-45493517D01*
X16956483Y-45410802D01*
X16903938Y-45385114D01*
X16851396Y-45359428D01*
X16851394Y-45359427D01*
X16783262Y-45349500D01*
X16783260Y-45349500D01*
X15541740Y-45349500D01*
X15541738Y-45349500D01*
X15473607Y-45359427D01*
X15473603Y-45359428D01*
X15401820Y-45394521D01*
X15380300Y-45399500D01*
X13969480Y-45399500D01*
X13947235Y-45394159D01*
X13937807Y-45389355D01*
X13937805Y-45389354D01*
X13937804Y-45389354D01*
X13844019Y-45374500D01*
X13844017Y-45374500D01*
X13594399Y-45374500D01*
X13559751Y-45360148D01*
X12839114Y-44639511D01*
X12736388Y-44580201D01*
X12736386Y-44580200D01*
X12712173Y-44573713D01*
X12677372Y-44564388D01*
X12621811Y-44549500D01*
X12621809Y-44549500D01*
X11980899Y-44549500D01*
X11946251Y-44535148D01*
X11931899Y-44500500D01*
X11946251Y-44465852D01*
X12355586Y-44056517D01*
X12840853Y-43571249D01*
X12875500Y-43556898D01*
X12910148Y-43571250D01*
X12924500Y-43605898D01*
X12924500Y-44056517D01*
X12939353Y-44150303D01*
X12996945Y-44263335D01*
X12996950Y-44263342D01*
X13086657Y-44353049D01*
X13086664Y-44353054D01*
X13199691Y-44410644D01*
X13199692Y-44410644D01*
X13199696Y-44410646D01*
X13293481Y-44425500D01*
X13906518Y-44425499D01*
X14000304Y-44410646D01*
X14009735Y-44405841D01*
X14031980Y-44400500D01*
X15380300Y-44400500D01*
X15401820Y-44405479D01*
X15465857Y-44436784D01*
X15473607Y-44440573D01*
X15526364Y-44448259D01*
X15541738Y-44450500D01*
X15541740Y-44450500D01*
X16783262Y-44450500D01*
X16800590Y-44447974D01*
X16851393Y-44440573D01*
X16956483Y-44389198D01*
X17039198Y-44306483D01*
X17090573Y-44201393D01*
X17100500Y-44133260D01*
X17100500Y-43766740D01*
X17100055Y-43763689D01*
X17095125Y-43729849D01*
X17090573Y-43698607D01*
X17039198Y-43593517D01*
X16956483Y-43510802D01*
X16878636Y-43472745D01*
X16851396Y-43459428D01*
X16851394Y-43459427D01*
X16783262Y-43449500D01*
X16783260Y-43449500D01*
X16711362Y-43449500D01*
X16676714Y-43435148D01*
X16662362Y-43400500D01*
X16672488Y-43370671D01*
X16724536Y-43302841D01*
X16785044Y-43156762D01*
X16805682Y-43000000D01*
X16785044Y-42843238D01*
X16750833Y-42760646D01*
X16724538Y-42697163D01*
X16724535Y-42697158D01*
X16689817Y-42651912D01*
X16672487Y-42629328D01*
X16662781Y-42593104D01*
X16681533Y-42560626D01*
X16711362Y-42550500D01*
X16783262Y-42550500D01*
X16800590Y-42547974D01*
X16851393Y-42540573D01*
X16956483Y-42489198D01*
X17039198Y-42406483D01*
X17090573Y-42301393D01*
X17100500Y-42233260D01*
X17100500Y-41866740D01*
X17090573Y-41798607D01*
X17039198Y-41693517D01*
X16956483Y-41610802D01*
X16882226Y-41574500D01*
X16851396Y-41559428D01*
X16851394Y-41559427D01*
X16783262Y-41549500D01*
X16783260Y-41549500D01*
X15541740Y-41549500D01*
X15541738Y-41549500D01*
X15473607Y-41559427D01*
X15473603Y-41559428D01*
X15401820Y-41594521D01*
X15380300Y-41599500D01*
X14031980Y-41599500D01*
X14009735Y-41594159D01*
X14000307Y-41589355D01*
X14000305Y-41589354D01*
X14000304Y-41589354D01*
X13906519Y-41574500D01*
X13906517Y-41574500D01*
X13293482Y-41574500D01*
X13199696Y-41589353D01*
X13086664Y-41646945D01*
X13086657Y-41646950D01*
X12996950Y-41736657D01*
X12996945Y-41736664D01*
X12939355Y-41849690D01*
X12939355Y-41849692D01*
X12939354Y-41849694D01*
X12939354Y-41849696D01*
X12936655Y-41866738D01*
X12924500Y-41943482D01*
X12924500Y-42193099D01*
X12910148Y-42227747D01*
X12485983Y-42651912D01*
X12451335Y-42666264D01*
X12416687Y-42651912D01*
X12402335Y-42617264D01*
X12408899Y-42592765D01*
X12419799Y-42573887D01*
X12428725Y-42540573D01*
X12443576Y-42485148D01*
X12450500Y-42459310D01*
X12450500Y-39206899D01*
X12464852Y-39172251D01*
X12797251Y-38839852D01*
X12831899Y-38825500D01*
X12988812Y-38825500D01*
X13023460Y-38839852D01*
X13086657Y-38903049D01*
X13086664Y-38903054D01*
X13199691Y-38960644D01*
X13199692Y-38960644D01*
X13199696Y-38960646D01*
X13293481Y-38975500D01*
X13906518Y-38975499D01*
X14000304Y-38960646D01*
X14076822Y-38921658D01*
X14113335Y-38903054D01*
X14113337Y-38903052D01*
X14113342Y-38903050D01*
X14203050Y-38813342D01*
X14240129Y-38740572D01*
X14246914Y-38727255D01*
X14275431Y-38702898D01*
X14290573Y-38700500D01*
X15380300Y-38700500D01*
X15401820Y-38705479D01*
X15438450Y-38723386D01*
X15473607Y-38740573D01*
X15526364Y-38748259D01*
X15541738Y-38750500D01*
X15541740Y-38750500D01*
X15644938Y-38750500D01*
X15679586Y-38764852D01*
X15693938Y-38799500D01*
X15683813Y-38829327D01*
X15644413Y-38880676D01*
X15637961Y-38889084D01*
X15577455Y-39035159D01*
X15556818Y-39191921D01*
X15577455Y-39348682D01*
X15637961Y-39494757D01*
X15637964Y-39494762D01*
X15696211Y-39570671D01*
X15705918Y-39606896D01*
X15687166Y-39639374D01*
X15657337Y-39649500D01*
X14265097Y-39649500D01*
X14230449Y-39635148D01*
X14221438Y-39622746D01*
X14203051Y-39586660D01*
X14203050Y-39586658D01*
X14113342Y-39496950D01*
X14113335Y-39496945D01*
X14000308Y-39439355D01*
X14000305Y-39439354D01*
X14000304Y-39439354D01*
X13906519Y-39424500D01*
X13906517Y-39424500D01*
X13293482Y-39424500D01*
X13199696Y-39439353D01*
X13086664Y-39496945D01*
X13086657Y-39496950D01*
X12996950Y-39586657D01*
X12996945Y-39586664D01*
X12939355Y-39699690D01*
X12939355Y-39699692D01*
X12939354Y-39699694D01*
X12939354Y-39699696D01*
X12931539Y-39749038D01*
X12924500Y-39793482D01*
X12924500Y-40256517D01*
X12939353Y-40350303D01*
X12996945Y-40463335D01*
X12996950Y-40463342D01*
X13086657Y-40553049D01*
X13086664Y-40553054D01*
X13199691Y-40610644D01*
X13199692Y-40610644D01*
X13199696Y-40610646D01*
X13293481Y-40625500D01*
X13906518Y-40625499D01*
X14000304Y-40610646D01*
X14042402Y-40589196D01*
X14107867Y-40555841D01*
X14130112Y-40550500D01*
X15309523Y-40550500D01*
X15344171Y-40564852D01*
X15368517Y-40589198D01*
X15473607Y-40640573D01*
X15521884Y-40647606D01*
X15541738Y-40650500D01*
X15541740Y-40650500D01*
X16783262Y-40650500D01*
X16800590Y-40647974D01*
X16851393Y-40640573D01*
X16956483Y-40589198D01*
X17039198Y-40506483D01*
X17090573Y-40401393D01*
X17100500Y-40333260D01*
X17100500Y-39966740D01*
X17090573Y-39898607D01*
X17039198Y-39793517D01*
X16956483Y-39710802D01*
X16898680Y-39682544D01*
X16851396Y-39659428D01*
X16851394Y-39659427D01*
X16783262Y-39649500D01*
X16783260Y-39649500D01*
X16667663Y-39649500D01*
X16633015Y-39635148D01*
X16618663Y-39600500D01*
X16628789Y-39570671D01*
X16657617Y-39533101D01*
X16687036Y-39494762D01*
X16747544Y-39348683D01*
X16768182Y-39191921D01*
X16747544Y-39035159D01*
X16739914Y-39016738D01*
X17099500Y-39016738D01*
X17099500Y-39383261D01*
X17109427Y-39451394D01*
X17109428Y-39451396D01*
X17117226Y-39467347D01*
X17160802Y-39556483D01*
X17243517Y-39639198D01*
X17348607Y-39690573D01*
X17396884Y-39697606D01*
X17416738Y-39700500D01*
X17416740Y-39700500D01*
X18658262Y-39700500D01*
X18675590Y-39697974D01*
X18726393Y-39690573D01*
X18831483Y-39639198D01*
X18865425Y-39605254D01*
X18900071Y-39590903D01*
X18934719Y-39605254D01*
X18938945Y-39610072D01*
X18958890Y-39636065D01*
X18971719Y-39652783D01*
X18974070Y-39654587D01*
X19097159Y-39749036D01*
X19097161Y-39749036D01*
X19097163Y-39749038D01*
X19204545Y-39793517D01*
X19243238Y-39809544D01*
X19347325Y-39823247D01*
X19375577Y-39837180D01*
X19923886Y-40385489D01*
X19958631Y-40405549D01*
X19977788Y-40425736D01*
X19996950Y-40463342D01*
X19996953Y-40463345D01*
X20086657Y-40553049D01*
X20086664Y-40553054D01*
X20199691Y-40610644D01*
X20199692Y-40610644D01*
X20199696Y-40610646D01*
X20293481Y-40625500D01*
X20906518Y-40625499D01*
X21000304Y-40610646D01*
X21061387Y-40579522D01*
X21113335Y-40553054D01*
X21113337Y-40553052D01*
X21113342Y-40553050D01*
X21203050Y-40463342D01*
X21212624Y-40444552D01*
X21260644Y-40350309D01*
X21260644Y-40350307D01*
X21260646Y-40350304D01*
X21275500Y-40256519D01*
X21275499Y-39805897D01*
X21289851Y-39771250D01*
X21324499Y-39756898D01*
X21359147Y-39771250D01*
X22735148Y-41147251D01*
X22749500Y-41181899D01*
X22749500Y-43569100D01*
X22735148Y-43603748D01*
X22700500Y-43618100D01*
X22665852Y-43603748D01*
X21289851Y-42227747D01*
X21275499Y-42193099D01*
X21275499Y-41943482D01*
X21260646Y-41849696D01*
X21203054Y-41736664D01*
X21203049Y-41736657D01*
X21113342Y-41646950D01*
X21113335Y-41646945D01*
X21000308Y-41589355D01*
X21000305Y-41589354D01*
X21000304Y-41589354D01*
X20906519Y-41574500D01*
X20906517Y-41574500D01*
X20293482Y-41574500D01*
X20199696Y-41589353D01*
X20086664Y-41646945D01*
X20086657Y-41646950D01*
X20023460Y-41710148D01*
X19988812Y-41724500D01*
X18765688Y-41724500D01*
X18675326Y-41748713D01*
X18651115Y-41755199D01*
X18651110Y-41755201D01*
X18548385Y-41814511D01*
X18548385Y-41814512D01*
X17877749Y-42485148D01*
X17843101Y-42499500D01*
X17416738Y-42499500D01*
X17348605Y-42509427D01*
X17348603Y-42509428D01*
X17243519Y-42560801D01*
X17243515Y-42560803D01*
X17160803Y-42643515D01*
X17160801Y-42643519D01*
X17109428Y-42748603D01*
X17109427Y-42748605D01*
X17099500Y-42816738D01*
X17099500Y-43183261D01*
X17104060Y-43214554D01*
X17109427Y-43251393D01*
X17160802Y-43356483D01*
X17243517Y-43439198D01*
X17348607Y-43490573D01*
X17396884Y-43497606D01*
X17416738Y-43500500D01*
X17416740Y-43500500D01*
X18658262Y-43500500D01*
X18675590Y-43497974D01*
X18726393Y-43490573D01*
X18831483Y-43439198D01*
X18865425Y-43405254D01*
X18900071Y-43390903D01*
X18934719Y-43405254D01*
X18938945Y-43410072D01*
X18971718Y-43452782D01*
X19097159Y-43549036D01*
X19097161Y-43549036D01*
X19097163Y-43549038D01*
X19204545Y-43593517D01*
X19243238Y-43609544D01*
X19347325Y-43623247D01*
X19375577Y-43637180D01*
X19923886Y-44185489D01*
X19958631Y-44205549D01*
X19977789Y-44225737D01*
X19996063Y-44261603D01*
X19996950Y-44263342D01*
X19996953Y-44263345D01*
X20086657Y-44353049D01*
X20086664Y-44353054D01*
X20199691Y-44410644D01*
X20199692Y-44410644D01*
X20199696Y-44410646D01*
X20293481Y-44425500D01*
X20906518Y-44425499D01*
X21000304Y-44410646D01*
X21100291Y-44359700D01*
X21113335Y-44353054D01*
X21113337Y-44353052D01*
X21113342Y-44353050D01*
X21203050Y-44263342D01*
X21203054Y-44263335D01*
X21260644Y-44150309D01*
X21260644Y-44150307D01*
X21260646Y-44150304D01*
X21275500Y-44056519D01*
X21275499Y-43605897D01*
X21289851Y-43571250D01*
X21324499Y-43556898D01*
X21359145Y-43571249D01*
X21654311Y-43866414D01*
X22035148Y-44247251D01*
X22049500Y-44281899D01*
X22049500Y-46731600D01*
X22035148Y-46766248D01*
X22000500Y-46780600D01*
X21965852Y-46766248D01*
X21227351Y-46027747D01*
X21212999Y-45993099D01*
X21212999Y-45743482D01*
X21198146Y-45649696D01*
X21140554Y-45536664D01*
X21140549Y-45536657D01*
X21050842Y-45446950D01*
X21050835Y-45446945D01*
X20937808Y-45389355D01*
X20937805Y-45389354D01*
X20937804Y-45389354D01*
X20844019Y-45374500D01*
X20844017Y-45374500D01*
X20230982Y-45374500D01*
X20137196Y-45389353D01*
X20024164Y-45446945D01*
X20024157Y-45446950D01*
X19960960Y-45510148D01*
X19926312Y-45524500D01*
X18803188Y-45524500D01*
X18712826Y-45548713D01*
X18688615Y-45555199D01*
X18688610Y-45555201D01*
X18585885Y-45614511D01*
X18585885Y-45614512D01*
X17915249Y-46285148D01*
X17880601Y-46299500D01*
X17416738Y-46299500D01*
X17348605Y-46309427D01*
X17348603Y-46309428D01*
X17243519Y-46360801D01*
X17243515Y-46360803D01*
X17160803Y-46443515D01*
X17160801Y-46443519D01*
X17109428Y-46548603D01*
X17109427Y-46548605D01*
X17099500Y-46616738D01*
X17099500Y-46983261D01*
X17104106Y-47014870D01*
X17109427Y-47051393D01*
X17160802Y-47156483D01*
X17243517Y-47239198D01*
X17348607Y-47290573D01*
X17396884Y-47297606D01*
X17416738Y-47300500D01*
X17416740Y-47300500D01*
X18658262Y-47300500D01*
X18675590Y-47297974D01*
X18726393Y-47290573D01*
X18831483Y-47239198D01*
X18865425Y-47205254D01*
X18900071Y-47190903D01*
X18934719Y-47205254D01*
X18938945Y-47210072D01*
X18971718Y-47252782D01*
X19097159Y-47349036D01*
X19097161Y-47349036D01*
X19097163Y-47349038D01*
X19204545Y-47393517D01*
X19243238Y-47409544D01*
X19347325Y-47423247D01*
X19375577Y-47437180D01*
X19863366Y-47924969D01*
X19874589Y-47946987D01*
X19875663Y-47946639D01*
X19876854Y-47950306D01*
X19934445Y-48063335D01*
X19934450Y-48063342D01*
X20024157Y-48153049D01*
X20024164Y-48153054D01*
X20137191Y-48210644D01*
X20137192Y-48210644D01*
X20137196Y-48210646D01*
X20230981Y-48225500D01*
X20844018Y-48225499D01*
X20937804Y-48210646D01*
X20998887Y-48179522D01*
X21050835Y-48153054D01*
X21050837Y-48153052D01*
X21050842Y-48153050D01*
X21140550Y-48063342D01*
X21140554Y-48063335D01*
X21198144Y-47950309D01*
X21198144Y-47950307D01*
X21198146Y-47950304D01*
X21213000Y-47856519D01*
X21212999Y-47405897D01*
X21227351Y-47371250D01*
X21261999Y-47356898D01*
X21296647Y-47371250D01*
X21335148Y-47409751D01*
X21349500Y-47444399D01*
X21349500Y-62059309D01*
X21366670Y-62123387D01*
X21380200Y-62173884D01*
X21380202Y-62173890D01*
X21439509Y-62276610D01*
X21439511Y-62276614D01*
X23323386Y-64160489D01*
X23382696Y-64194731D01*
X23426114Y-64219799D01*
X23426116Y-64219799D01*
X23426117Y-64219800D01*
X23540687Y-64250499D01*
X23540688Y-64250500D01*
X23540691Y-64250500D01*
X26159311Y-64250500D01*
X26189430Y-64242428D01*
X26249673Y-64226286D01*
X26273887Y-64219799D01*
X26376614Y-64160489D01*
X28260489Y-62276614D01*
X28318886Y-62175465D01*
X28319800Y-62173884D01*
X28350499Y-62059312D01*
X28350500Y-62059312D01*
X28350500Y-61125369D01*
X29198500Y-61125369D01*
X29198500Y-61374631D01*
X29231035Y-61621760D01*
X29231036Y-61621764D01*
X29231037Y-61621771D01*
X29295546Y-61862522D01*
X29295549Y-61862529D01*
X29390937Y-62092816D01*
X29437743Y-62173886D01*
X29515566Y-62308681D01*
X29515576Y-62308696D01*
X29667300Y-62506426D01*
X29667311Y-62506438D01*
X29843561Y-62682688D01*
X29843573Y-62682699D01*
X30041303Y-62834423D01*
X30041312Y-62834429D01*
X30041316Y-62834432D01*
X30257184Y-62959063D01*
X30487471Y-63054451D01*
X30487474Y-63054451D01*
X30487477Y-63054453D01*
X30728228Y-63118962D01*
X30728229Y-63118962D01*
X30728240Y-63118965D01*
X30975369Y-63151500D01*
X30975373Y-63151500D01*
X31224627Y-63151500D01*
X31224631Y-63151500D01*
X31471760Y-63118965D01*
X31712529Y-63054451D01*
X31942816Y-62959063D01*
X32158684Y-62834432D01*
X32356436Y-62682691D01*
X32532691Y-62506436D01*
X32684432Y-62308684D01*
X32809063Y-62092816D01*
X32904451Y-61862529D01*
X32907675Y-61850499D01*
X32968962Y-61621771D01*
X32968961Y-61621771D01*
X32968965Y-61621760D01*
X33001500Y-61374631D01*
X33001500Y-61125369D01*
X32968965Y-60878240D01*
X32904451Y-60637471D01*
X32809063Y-60407184D01*
X32684432Y-60191316D01*
X32684429Y-60191312D01*
X32684423Y-60191303D01*
X32532699Y-59993573D01*
X32532688Y-59993561D01*
X32356438Y-59817311D01*
X32356426Y-59817300D01*
X32158696Y-59665576D01*
X32158681Y-59665566D01*
X32044597Y-59599700D01*
X31942816Y-59540937D01*
X31768409Y-59468695D01*
X31712532Y-59445550D01*
X31712522Y-59445546D01*
X31471771Y-59381037D01*
X31471764Y-59381036D01*
X31471760Y-59381035D01*
X31224631Y-59348500D01*
X30975369Y-59348500D01*
X30728240Y-59381035D01*
X30728236Y-59381035D01*
X30728228Y-59381037D01*
X30487477Y-59445546D01*
X30487467Y-59445550D01*
X30336202Y-59508206D01*
X30257184Y-59540937D01*
X30257181Y-59540938D01*
X30257180Y-59540939D01*
X30041318Y-59665566D01*
X30041303Y-59665576D01*
X29843573Y-59817300D01*
X29843561Y-59817311D01*
X29667311Y-59993561D01*
X29667300Y-59993573D01*
X29515576Y-60191303D01*
X29515566Y-60191318D01*
X29390939Y-60407180D01*
X29295550Y-60637467D01*
X29295546Y-60637477D01*
X29231037Y-60878228D01*
X29231035Y-60878236D01*
X29231035Y-60878240D01*
X29198500Y-61125369D01*
X28350500Y-61125369D01*
X28350500Y-60396849D01*
X28364852Y-60362201D01*
X30527053Y-58200000D01*
X32860489Y-55866564D01*
X32919798Y-55763837D01*
X32919799Y-55763836D01*
X32923133Y-55751396D01*
X32950499Y-55649262D01*
X32950500Y-55649262D01*
X32950500Y-45240688D01*
X32921469Y-45132346D01*
X32921468Y-45132342D01*
X32921468Y-45132343D01*
X32919799Y-45126114D01*
X32919799Y-45126113D01*
X32860489Y-45023386D01*
X30711319Y-42874216D01*
X30696967Y-42839568D01*
X30699076Y-42825347D01*
X30735300Y-42705934D01*
X30755583Y-42500000D01*
X30735300Y-42294066D01*
X30675232Y-42096046D01*
X30577685Y-41913550D01*
X30446410Y-41753590D01*
X30286450Y-41622315D01*
X30103954Y-41524768D01*
X29905934Y-41464700D01*
X29700000Y-41444417D01*
X29494065Y-41464700D01*
X29494064Y-41464700D01*
X29321616Y-41517011D01*
X29306932Y-41521466D01*
X29296043Y-41524769D01*
X29113548Y-41622316D01*
X28953590Y-41753590D01*
X28822316Y-41913548D01*
X28724769Y-42096043D01*
X28664700Y-42294064D01*
X28664700Y-42294065D01*
X28644417Y-42499999D01*
X28644417Y-42500000D01*
X28664700Y-42705934D01*
X28664700Y-42705935D01*
X28685802Y-42775499D01*
X28724768Y-42903954D01*
X28822315Y-43086450D01*
X28953590Y-43246410D01*
X29113550Y-43377685D01*
X29296046Y-43475232D01*
X29494066Y-43535300D01*
X29700000Y-43555583D01*
X29905934Y-43535300D01*
X30025345Y-43499077D01*
X30062666Y-43502753D01*
X30074216Y-43511319D01*
X32035148Y-45472251D01*
X32049500Y-45506899D01*
X32049500Y-46634101D01*
X32035148Y-46668749D01*
X32000500Y-46683101D01*
X31965852Y-46668749D01*
X30711319Y-45414216D01*
X30696967Y-45379568D01*
X30699076Y-45365347D01*
X30735300Y-45245934D01*
X30755583Y-45040000D01*
X30735300Y-44834066D01*
X30675232Y-44636046D01*
X30577685Y-44453550D01*
X30446410Y-44293590D01*
X30286450Y-44162315D01*
X30103954Y-44064768D01*
X29905934Y-44004700D01*
X29700000Y-43984417D01*
X29494065Y-44004700D01*
X29494064Y-44004700D01*
X29323246Y-44056517D01*
X29306932Y-44061466D01*
X29296043Y-44064769D01*
X29113548Y-44162316D01*
X28953590Y-44293590D01*
X28822316Y-44453548D01*
X28724769Y-44636043D01*
X28664700Y-44834064D01*
X28664700Y-44834065D01*
X28644417Y-45039999D01*
X28644417Y-45040000D01*
X28664700Y-45245934D01*
X28664700Y-45245935D01*
X28677938Y-45289576D01*
X28724768Y-45443954D01*
X28822315Y-45626450D01*
X28953590Y-45786410D01*
X29113550Y-45917685D01*
X29296046Y-46015232D01*
X29494066Y-46075300D01*
X29700000Y-46095583D01*
X29905934Y-46075300D01*
X30025345Y-46039077D01*
X30062666Y-46042753D01*
X30074216Y-46051319D01*
X31335148Y-47312251D01*
X31349500Y-47346899D01*
X31349500Y-48474101D01*
X31335148Y-48508749D01*
X31300500Y-48523101D01*
X31265852Y-48508749D01*
X30711319Y-47954216D01*
X30696967Y-47919568D01*
X30699076Y-47905347D01*
X30735300Y-47785934D01*
X30755583Y-47580000D01*
X30735300Y-47374066D01*
X30675232Y-47176046D01*
X30577685Y-46993550D01*
X30446410Y-46833590D01*
X30286450Y-46702315D01*
X30103954Y-46604768D01*
X29905934Y-46544700D01*
X29700000Y-46524417D01*
X29494065Y-46544700D01*
X29494064Y-46544700D01*
X29345221Y-46589851D01*
X29306932Y-46601466D01*
X29296043Y-46604769D01*
X29113548Y-46702316D01*
X28953590Y-46833590D01*
X28822316Y-46993548D01*
X28724769Y-47176043D01*
X28664700Y-47374064D01*
X28664700Y-47374065D01*
X28644417Y-47579999D01*
X28644417Y-47580000D01*
X28664700Y-47785934D01*
X28664700Y-47785935D01*
X28677938Y-47829576D01*
X28724768Y-47983954D01*
X28822315Y-48166450D01*
X28953590Y-48326410D01*
X29113550Y-48457685D01*
X29296046Y-48555232D01*
X29494066Y-48615300D01*
X29700000Y-48635583D01*
X29905934Y-48615300D01*
X30025345Y-48579077D01*
X30062666Y-48582753D01*
X30074216Y-48591319D01*
X30635148Y-49152251D01*
X30649500Y-49186899D01*
X30649500Y-49484110D01*
X30635148Y-49518758D01*
X30600500Y-49533110D01*
X30565852Y-49518758D01*
X30562623Y-49515195D01*
X30446412Y-49373592D01*
X30286451Y-49242316D01*
X30286450Y-49242315D01*
X30103954Y-49144768D01*
X29905934Y-49084700D01*
X29700000Y-49064417D01*
X29494065Y-49084700D01*
X29494064Y-49084700D01*
X29321616Y-49137011D01*
X29306932Y-49141466D01*
X29296043Y-49144769D01*
X29113548Y-49242316D01*
X28953590Y-49373590D01*
X28822316Y-49533548D01*
X28724769Y-49716043D01*
X28664700Y-49914064D01*
X28664700Y-49914065D01*
X28644417Y-50119999D01*
X28644417Y-50120000D01*
X28664700Y-50325934D01*
X28664700Y-50325935D01*
X28677938Y-50369576D01*
X28724768Y-50523954D01*
X28822315Y-50706450D01*
X28953590Y-50866410D01*
X29113550Y-50997685D01*
X29296046Y-51095232D01*
X29494066Y-51155300D01*
X29700000Y-51175583D01*
X29905934Y-51155300D01*
X30103954Y-51095232D01*
X30286450Y-50997685D01*
X30446410Y-50866410D01*
X30562622Y-50724803D01*
X30595697Y-50707125D01*
X30631585Y-50718011D01*
X30649264Y-50751086D01*
X30649500Y-50755889D01*
X30649500Y-52024896D01*
X30635148Y-52059544D01*
X30600500Y-52073896D01*
X30565852Y-52059544D01*
X30562623Y-52055982D01*
X30446054Y-51913945D01*
X30286178Y-51782736D01*
X30286171Y-51782731D01*
X30103763Y-51685232D01*
X29950000Y-51638587D01*
X29950000Y-52226988D01*
X29892993Y-52194075D01*
X29765826Y-52160000D01*
X29634174Y-52160000D01*
X29507007Y-52194075D01*
X29450000Y-52226988D01*
X29450000Y-51638587D01*
X29296236Y-51685232D01*
X29113828Y-51782731D01*
X29113821Y-51782736D01*
X28953945Y-51913945D01*
X28822736Y-52073821D01*
X28822731Y-52073828D01*
X28725236Y-52256229D01*
X28725231Y-52256241D01*
X28678589Y-52410000D01*
X29266988Y-52410000D01*
X29234075Y-52467007D01*
X29200000Y-52594174D01*
X29200000Y-52725826D01*
X29234075Y-52852993D01*
X29266988Y-52910000D01*
X28678589Y-52910000D01*
X28725231Y-53063758D01*
X28725236Y-53063770D01*
X28822731Y-53246171D01*
X28822736Y-53246178D01*
X28953945Y-53406054D01*
X29113821Y-53537263D01*
X29113828Y-53537268D01*
X29296229Y-53634763D01*
X29296241Y-53634768D01*
X29450000Y-53681411D01*
X29450000Y-53093012D01*
X29507007Y-53125925D01*
X29634174Y-53160000D01*
X29765826Y-53160000D01*
X29892993Y-53125925D01*
X29950000Y-53093012D01*
X29950000Y-53681410D01*
X30103758Y-53634768D01*
X30103770Y-53634763D01*
X30286171Y-53537268D01*
X30286178Y-53537263D01*
X30446057Y-53406052D01*
X30562623Y-53264018D01*
X30595697Y-53246339D01*
X30631585Y-53257226D01*
X30649264Y-53290300D01*
X30649500Y-53295103D01*
X30649500Y-54803151D01*
X30635148Y-54837799D01*
X26139512Y-59333436D01*
X26139511Y-59333437D01*
X26080201Y-59436163D01*
X26078532Y-59442395D01*
X26078531Y-59442394D01*
X26078531Y-59442398D01*
X26049500Y-59550740D01*
X26049500Y-61213201D01*
X26035148Y-61247849D01*
X25347849Y-61935148D01*
X25313201Y-61949500D01*
X25024268Y-61949500D01*
X24989620Y-61935148D01*
X24975268Y-61900500D01*
X24989620Y-61865852D01*
X25015262Y-61852335D01*
X25073395Y-61841468D01*
X25270453Y-61765128D01*
X25450128Y-61653877D01*
X25606302Y-61511506D01*
X25733656Y-61342862D01*
X25827853Y-61153689D01*
X25885686Y-60950427D01*
X25905185Y-60740000D01*
X25885686Y-60529573D01*
X25827853Y-60326311D01*
X25733656Y-60137138D01*
X25664669Y-60045784D01*
X25606304Y-59968496D01*
X25606301Y-59968493D01*
X25450132Y-59826126D01*
X25450129Y-59826124D01*
X25450128Y-59826123D01*
X25270453Y-59714872D01*
X25270450Y-59714871D01*
X25270449Y-59714870D01*
X25073400Y-59638533D01*
X25073395Y-59638532D01*
X24865664Y-59599700D01*
X24654336Y-59599700D01*
X24497584Y-59629002D01*
X24446599Y-59638533D01*
X24249550Y-59714870D01*
X24069867Y-59826126D01*
X23913698Y-59968493D01*
X23913695Y-59968496D01*
X23786345Y-60137136D01*
X23786342Y-60137140D01*
X23743363Y-60223455D01*
X23715072Y-60248074D01*
X23677659Y-60245477D01*
X23653040Y-60217186D01*
X23650500Y-60201614D01*
X23650500Y-58738385D01*
X23664852Y-58703737D01*
X23699500Y-58689385D01*
X23734148Y-58703737D01*
X23743363Y-58716544D01*
X23786342Y-58802859D01*
X23786345Y-58802863D01*
X23913695Y-58971503D01*
X23913698Y-58971506D01*
X24069867Y-59113873D01*
X24069868Y-59113874D01*
X24069872Y-59113877D01*
X24249547Y-59225128D01*
X24249550Y-59225129D01*
X24446599Y-59301466D01*
X24446600Y-59301466D01*
X24446605Y-59301468D01*
X24654336Y-59340300D01*
X24654338Y-59340300D01*
X24865662Y-59340300D01*
X24865664Y-59340300D01*
X25073395Y-59301468D01*
X25270453Y-59225128D01*
X25450128Y-59113877D01*
X25606302Y-58971506D01*
X25733656Y-58802862D01*
X25827853Y-58613689D01*
X25885686Y-58410427D01*
X25905185Y-58200000D01*
X25885686Y-57989573D01*
X25827853Y-57786311D01*
X25733656Y-57597138D01*
X25606302Y-57428494D01*
X25606301Y-57428493D01*
X25450132Y-57286126D01*
X25450129Y-57286124D01*
X25450128Y-57286123D01*
X25270453Y-57174872D01*
X25270450Y-57174871D01*
X25270449Y-57174870D01*
X25073400Y-57098533D01*
X25073395Y-57098532D01*
X24865664Y-57059700D01*
X24654336Y-57059700D01*
X24497584Y-57089002D01*
X24446599Y-57098533D01*
X24249550Y-57174870D01*
X24069867Y-57286126D01*
X23913698Y-57428493D01*
X23913695Y-57428496D01*
X23786345Y-57597136D01*
X23786342Y-57597140D01*
X23743363Y-57683455D01*
X23715072Y-57708074D01*
X23677659Y-57705477D01*
X23653040Y-57677186D01*
X23650500Y-57661614D01*
X23650500Y-56198385D01*
X23664852Y-56163737D01*
X23699500Y-56149385D01*
X23734148Y-56163737D01*
X23743363Y-56176544D01*
X23786342Y-56262859D01*
X23786345Y-56262863D01*
X23913695Y-56431503D01*
X23913698Y-56431506D01*
X24069867Y-56573873D01*
X24069868Y-56573874D01*
X24069872Y-56573877D01*
X24249547Y-56685128D01*
X24249550Y-56685129D01*
X24446599Y-56761466D01*
X24446600Y-56761466D01*
X24446605Y-56761468D01*
X24654336Y-56800300D01*
X24654338Y-56800300D01*
X24865662Y-56800300D01*
X24865664Y-56800300D01*
X25073395Y-56761468D01*
X25270453Y-56685128D01*
X25450128Y-56573877D01*
X25606302Y-56431506D01*
X25733656Y-56262862D01*
X25827853Y-56073689D01*
X25885686Y-55870427D01*
X25905185Y-55660000D01*
X25885686Y-55449573D01*
X25827853Y-55246311D01*
X25733656Y-55057138D01*
X25669979Y-54972816D01*
X25606304Y-54888496D01*
X25606301Y-54888493D01*
X25450132Y-54746126D01*
X25450129Y-54746124D01*
X25450128Y-54746123D01*
X25270453Y-54634872D01*
X25270450Y-54634871D01*
X25270449Y-54634870D01*
X25073400Y-54558533D01*
X25073395Y-54558532D01*
X24865664Y-54519700D01*
X24654336Y-54519700D01*
X24497584Y-54549002D01*
X24446599Y-54558533D01*
X24249550Y-54634870D01*
X24069867Y-54746126D01*
X23913698Y-54888493D01*
X23913695Y-54888496D01*
X23786345Y-55057136D01*
X23786342Y-55057140D01*
X23743363Y-55143455D01*
X23715072Y-55168074D01*
X23677659Y-55165477D01*
X23653040Y-55137186D01*
X23650500Y-55121614D01*
X23650500Y-53657263D01*
X23664852Y-53622615D01*
X23699500Y-53608263D01*
X23734148Y-53622615D01*
X23743363Y-53635422D01*
X23786769Y-53722595D01*
X23786772Y-53722599D01*
X23794118Y-53732327D01*
X24270504Y-53255941D01*
X24286619Y-53316081D01*
X24353498Y-53431920D01*
X24448080Y-53526502D01*
X24563919Y-53593381D01*
X24624057Y-53609494D01*
X24150402Y-54083150D01*
X24150402Y-54083151D01*
X24249774Y-54144679D01*
X24446737Y-54220983D01*
X24654384Y-54259800D01*
X24865616Y-54259800D01*
X25073262Y-54220983D01*
X25270225Y-54144679D01*
X25369596Y-54083151D01*
X25369596Y-54083150D01*
X24895941Y-53609495D01*
X24956081Y-53593381D01*
X25071920Y-53526502D01*
X25166502Y-53431920D01*
X25233381Y-53316081D01*
X25249495Y-53255942D01*
X25725880Y-53732327D01*
X25733230Y-53722595D01*
X25827382Y-53533512D01*
X25827385Y-53533505D01*
X25885192Y-53330337D01*
X25885193Y-53330331D01*
X25904682Y-53120000D01*
X25885193Y-52909668D01*
X25885192Y-52909662D01*
X25827385Y-52706494D01*
X25827382Y-52706487D01*
X25733228Y-52517402D01*
X25725880Y-52507672D01*
X25249494Y-52984057D01*
X25233381Y-52923919D01*
X25166502Y-52808080D01*
X25071920Y-52713498D01*
X24956081Y-52646619D01*
X24895939Y-52630504D01*
X25369596Y-52156848D01*
X25369596Y-52156847D01*
X25270225Y-52095320D01*
X25073262Y-52019016D01*
X24865616Y-51980200D01*
X24654384Y-51980200D01*
X24446737Y-52019016D01*
X24249774Y-52095320D01*
X24150402Y-52156847D01*
X24150402Y-52156848D01*
X24624058Y-52630504D01*
X24563919Y-52646619D01*
X24448080Y-52713498D01*
X24353498Y-52808080D01*
X24286619Y-52923919D01*
X24270504Y-52984058D01*
X23794118Y-52507672D01*
X23794117Y-52507672D01*
X23786772Y-52517398D01*
X23786767Y-52517407D01*
X23743363Y-52604576D01*
X23715072Y-52629195D01*
X23677659Y-52626598D01*
X23653040Y-52598307D01*
X23650500Y-52582735D01*
X23650500Y-51118385D01*
X23664852Y-51083737D01*
X23699500Y-51069385D01*
X23734148Y-51083737D01*
X23743363Y-51096544D01*
X23786342Y-51182859D01*
X23786345Y-51182863D01*
X23913695Y-51351503D01*
X23913698Y-51351506D01*
X24069867Y-51493873D01*
X24069868Y-51493874D01*
X24069872Y-51493877D01*
X24249547Y-51605128D01*
X24249550Y-51605129D01*
X24446599Y-51681466D01*
X24446600Y-51681466D01*
X24446605Y-51681468D01*
X24654336Y-51720300D01*
X24654338Y-51720300D01*
X24865662Y-51720300D01*
X24865664Y-51720300D01*
X25073395Y-51681468D01*
X25270453Y-51605128D01*
X25450128Y-51493877D01*
X25606302Y-51351506D01*
X25733656Y-51182862D01*
X25827853Y-50993689D01*
X25885686Y-50790427D01*
X25905185Y-50580000D01*
X25885686Y-50369573D01*
X25827853Y-50166311D01*
X25733656Y-49977138D01*
X25606302Y-49808494D01*
X25606301Y-49808493D01*
X25450132Y-49666126D01*
X25450129Y-49666124D01*
X25450128Y-49666123D01*
X25270453Y-49554872D01*
X25270450Y-49554871D01*
X25270449Y-49554870D01*
X25073400Y-49478533D01*
X25073395Y-49478532D01*
X24865664Y-49439700D01*
X24654336Y-49439700D01*
X24497584Y-49469002D01*
X24446599Y-49478533D01*
X24249550Y-49554870D01*
X24069867Y-49666126D01*
X23913698Y-49808493D01*
X23913695Y-49808496D01*
X23786345Y-49977136D01*
X23786342Y-49977140D01*
X23743363Y-50063455D01*
X23715072Y-50088074D01*
X23677659Y-50085477D01*
X23653040Y-50057186D01*
X23650500Y-50041614D01*
X23650500Y-48578385D01*
X23664852Y-48543737D01*
X23699500Y-48529385D01*
X23734148Y-48543737D01*
X23743363Y-48556544D01*
X23786342Y-48642859D01*
X23786345Y-48642863D01*
X23913695Y-48811503D01*
X23913698Y-48811506D01*
X24069867Y-48953873D01*
X24069868Y-48953874D01*
X24069872Y-48953877D01*
X24249547Y-49065128D01*
X24249550Y-49065129D01*
X24446599Y-49141466D01*
X24446600Y-49141466D01*
X24446605Y-49141468D01*
X24654336Y-49180300D01*
X24654338Y-49180300D01*
X24865662Y-49180300D01*
X24865664Y-49180300D01*
X25073395Y-49141468D01*
X25270453Y-49065128D01*
X25450128Y-48953877D01*
X25606302Y-48811506D01*
X25733656Y-48642862D01*
X25827853Y-48453689D01*
X25885686Y-48250427D01*
X25905185Y-48040000D01*
X25885686Y-47829573D01*
X25827853Y-47626311D01*
X25733656Y-47437138D01*
X25639346Y-47312251D01*
X25606304Y-47268496D01*
X25606301Y-47268493D01*
X25450132Y-47126126D01*
X25450129Y-47126124D01*
X25450128Y-47126123D01*
X25270453Y-47014872D01*
X25270450Y-47014871D01*
X25270449Y-47014870D01*
X25073400Y-46938533D01*
X25073395Y-46938532D01*
X24865664Y-46899700D01*
X24654336Y-46899700D01*
X24497584Y-46929002D01*
X24446599Y-46938533D01*
X24249550Y-47014870D01*
X24069867Y-47126126D01*
X23913698Y-47268493D01*
X23913695Y-47268496D01*
X23786345Y-47437136D01*
X23786342Y-47437140D01*
X23743363Y-47523455D01*
X23715072Y-47548074D01*
X23677659Y-47545477D01*
X23653040Y-47517186D01*
X23650500Y-47501614D01*
X23650500Y-46038385D01*
X23664852Y-46003737D01*
X23699500Y-45989385D01*
X23734148Y-46003737D01*
X23743363Y-46016544D01*
X23786342Y-46102859D01*
X23786345Y-46102863D01*
X23913695Y-46271503D01*
X23913698Y-46271506D01*
X24069867Y-46413873D01*
X24069868Y-46413874D01*
X24069872Y-46413877D01*
X24249547Y-46525128D01*
X24310149Y-46548605D01*
X24446599Y-46601466D01*
X24446600Y-46601466D01*
X24446605Y-46601468D01*
X24654336Y-46640300D01*
X24654338Y-46640300D01*
X24865662Y-46640300D01*
X24865664Y-46640300D01*
X25073395Y-46601468D01*
X25270453Y-46525128D01*
X25450128Y-46413877D01*
X25606302Y-46271506D01*
X25733656Y-46102862D01*
X25827853Y-45913689D01*
X25885686Y-45710427D01*
X25905185Y-45500000D01*
X25885686Y-45289573D01*
X25827853Y-45086311D01*
X25733656Y-44897138D01*
X25606302Y-44728494D01*
X25508692Y-44639511D01*
X25450132Y-44586126D01*
X25450129Y-44586124D01*
X25450128Y-44586123D01*
X25270453Y-44474872D01*
X25270450Y-44474871D01*
X25270449Y-44474870D01*
X25073400Y-44398533D01*
X25073395Y-44398532D01*
X24865664Y-44359700D01*
X24654336Y-44359700D01*
X24497584Y-44389002D01*
X24446599Y-44398533D01*
X24249550Y-44474870D01*
X24069867Y-44586126D01*
X23913698Y-44728493D01*
X23913695Y-44728496D01*
X23786345Y-44897136D01*
X23786342Y-44897140D01*
X23743363Y-44983455D01*
X23715072Y-45008074D01*
X23677659Y-45005477D01*
X23653040Y-44977186D01*
X23650500Y-44961614D01*
X23650500Y-43498385D01*
X23664852Y-43463737D01*
X23699500Y-43449385D01*
X23734148Y-43463737D01*
X23743362Y-43476542D01*
X23754891Y-43499696D01*
X23786342Y-43562859D01*
X23786343Y-43562861D01*
X23786344Y-43562862D01*
X23809466Y-43593481D01*
X23913695Y-43731503D01*
X23913698Y-43731506D01*
X24069867Y-43873873D01*
X24069868Y-43873874D01*
X24069872Y-43873877D01*
X24249547Y-43985128D01*
X24249550Y-43985129D01*
X24446599Y-44061466D01*
X24446600Y-44061466D01*
X24446605Y-44061468D01*
X24654336Y-44100300D01*
X24654338Y-44100300D01*
X24865662Y-44100300D01*
X24865664Y-44100300D01*
X25073395Y-44061468D01*
X25270453Y-43985128D01*
X25450128Y-43873877D01*
X25606302Y-43731506D01*
X25733656Y-43562862D01*
X25827853Y-43373689D01*
X25885686Y-43170427D01*
X25905185Y-42960000D01*
X25885686Y-42749573D01*
X25827853Y-42546311D01*
X25733656Y-42357138D01*
X25648897Y-42244899D01*
X25606304Y-42188496D01*
X25606301Y-42188493D01*
X25450132Y-42046126D01*
X25450129Y-42046124D01*
X25450128Y-42046123D01*
X25270453Y-41934872D01*
X25270450Y-41934871D01*
X25270449Y-41934870D01*
X25073400Y-41858533D01*
X25073395Y-41858532D01*
X24865664Y-41819700D01*
X24654336Y-41819700D01*
X24497584Y-41849002D01*
X24446599Y-41858533D01*
X24249550Y-41934870D01*
X24069867Y-42046126D01*
X23913698Y-42188493D01*
X23913695Y-42188496D01*
X23786345Y-42357136D01*
X23786342Y-42357140D01*
X23743363Y-42443455D01*
X23715072Y-42468074D01*
X23677659Y-42465477D01*
X23653040Y-42437186D01*
X23650500Y-42421614D01*
X23650500Y-40958385D01*
X23664852Y-40923737D01*
X23699500Y-40909385D01*
X23734148Y-40923737D01*
X23743363Y-40936544D01*
X23786342Y-41022859D01*
X23786345Y-41022863D01*
X23913695Y-41191503D01*
X23913698Y-41191506D01*
X24069867Y-41333873D01*
X24069868Y-41333874D01*
X24069872Y-41333877D01*
X24249547Y-41445128D01*
X24249550Y-41445129D01*
X24446599Y-41521466D01*
X24446600Y-41521466D01*
X24446605Y-41521468D01*
X24654336Y-41560300D01*
X24654338Y-41560300D01*
X24865662Y-41560300D01*
X24865664Y-41560300D01*
X25073395Y-41521468D01*
X25270453Y-41445128D01*
X25450128Y-41333877D01*
X25606302Y-41191506D01*
X25733656Y-41022862D01*
X25827853Y-40833689D01*
X25885686Y-40630427D01*
X25905185Y-40420000D01*
X25885686Y-40209573D01*
X25827853Y-40006311D01*
X25733656Y-39817138D01*
X25652749Y-39710000D01*
X28678589Y-39710000D01*
X29266988Y-39710000D01*
X29234075Y-39767007D01*
X29200000Y-39894174D01*
X29200000Y-40025826D01*
X29234075Y-40152993D01*
X29266988Y-40210000D01*
X28678589Y-40210000D01*
X28725231Y-40363758D01*
X28725236Y-40363770D01*
X28822731Y-40546171D01*
X28822736Y-40546178D01*
X28953945Y-40706054D01*
X29113821Y-40837263D01*
X29113828Y-40837268D01*
X29296229Y-40934763D01*
X29296241Y-40934768D01*
X29450000Y-40981411D01*
X29450000Y-40393012D01*
X29507007Y-40425925D01*
X29634174Y-40460000D01*
X29765826Y-40460000D01*
X29892993Y-40425925D01*
X29950000Y-40393012D01*
X29950000Y-40981410D01*
X30103758Y-40934768D01*
X30103770Y-40934763D01*
X30286171Y-40837268D01*
X30286178Y-40837263D01*
X30446054Y-40706054D01*
X30577263Y-40546178D01*
X30577268Y-40546171D01*
X30674763Y-40363770D01*
X30674768Y-40363758D01*
X30721411Y-40210000D01*
X30133012Y-40210000D01*
X30165925Y-40152993D01*
X30200000Y-40025826D01*
X30200000Y-39894174D01*
X30165925Y-39767007D01*
X30133012Y-39710000D01*
X30721411Y-39710000D01*
X30674768Y-39556241D01*
X30674763Y-39556229D01*
X30577268Y-39373828D01*
X30577263Y-39373821D01*
X30446054Y-39213945D01*
X30286178Y-39082736D01*
X30286171Y-39082731D01*
X30103763Y-38985232D01*
X29950000Y-38938587D01*
X29950000Y-39526988D01*
X29892993Y-39494075D01*
X29765826Y-39460000D01*
X29634174Y-39460000D01*
X29507007Y-39494075D01*
X29450000Y-39526988D01*
X29450000Y-38938587D01*
X29296236Y-38985232D01*
X29113828Y-39082731D01*
X29113821Y-39082736D01*
X28953945Y-39213945D01*
X28822736Y-39373821D01*
X28822731Y-39373828D01*
X28725236Y-39556229D01*
X28725231Y-39556241D01*
X28678589Y-39710000D01*
X25652749Y-39710000D01*
X25644965Y-39699692D01*
X25606304Y-39648496D01*
X25606301Y-39648493D01*
X25450132Y-39506126D01*
X25450129Y-39506124D01*
X25450128Y-39506123D01*
X25270453Y-39394872D01*
X25270450Y-39394871D01*
X25270449Y-39394870D01*
X25073400Y-39318533D01*
X25067628Y-39317454D01*
X24865664Y-39279700D01*
X24654336Y-39279700D01*
X24513201Y-39306083D01*
X24446599Y-39318533D01*
X24249550Y-39394870D01*
X24069867Y-39506126D01*
X23913698Y-39648493D01*
X23913695Y-39648496D01*
X23786345Y-39817136D01*
X23786342Y-39817140D01*
X23692149Y-40006305D01*
X23692146Y-40006312D01*
X23634314Y-40209570D01*
X23634313Y-40209576D01*
X23614815Y-40420000D01*
X23634313Y-40630423D01*
X23634313Y-40630424D01*
X23634314Y-40630427D01*
X23634315Y-40630429D01*
X23639066Y-40647129D01*
X23634743Y-40684382D01*
X23605344Y-40707667D01*
X23568091Y-40703344D01*
X23557288Y-40695185D01*
X21289851Y-38427748D01*
X21275499Y-38393100D01*
X21275499Y-38143482D01*
X21260646Y-38049696D01*
X21203054Y-37936664D01*
X21203049Y-37936657D01*
X21146392Y-37880000D01*
X23614815Y-37880000D01*
X23634313Y-38090423D01*
X23634314Y-38090429D01*
X23692146Y-38293687D01*
X23692149Y-38293694D01*
X23786342Y-38482859D01*
X23786343Y-38482861D01*
X23786344Y-38482862D01*
X23807693Y-38511133D01*
X23913695Y-38651503D01*
X23913698Y-38651506D01*
X24069867Y-38793873D01*
X24069868Y-38793874D01*
X24069872Y-38793877D01*
X24249547Y-38905128D01*
X24249550Y-38905129D01*
X24446599Y-38981466D01*
X24446600Y-38981466D01*
X24446605Y-38981468D01*
X24654336Y-39020300D01*
X24654338Y-39020300D01*
X24865662Y-39020300D01*
X24865664Y-39020300D01*
X25073395Y-38981468D01*
X25270453Y-38905128D01*
X25450128Y-38793877D01*
X25606302Y-38651506D01*
X25733656Y-38482862D01*
X25827853Y-38293689D01*
X25885686Y-38090427D01*
X25905185Y-37880000D01*
X25885686Y-37669573D01*
X25827853Y-37466311D01*
X25804792Y-37419999D01*
X28644417Y-37419999D01*
X28644417Y-37420000D01*
X28664700Y-37625934D01*
X28664700Y-37625935D01*
X28677938Y-37669576D01*
X28720778Y-37810802D01*
X28724769Y-37823956D01*
X28725079Y-37824536D01*
X28822315Y-38006450D01*
X28953590Y-38166410D01*
X29113550Y-38297685D01*
X29296046Y-38395232D01*
X29494066Y-38455300D01*
X29700000Y-38475583D01*
X29905934Y-38455300D01*
X30103954Y-38395232D01*
X30286450Y-38297685D01*
X30446410Y-38166410D01*
X30577685Y-38006450D01*
X30675232Y-37823954D01*
X30735300Y-37625934D01*
X30755583Y-37420000D01*
X30735300Y-37214066D01*
X30675232Y-37016046D01*
X30577685Y-36833550D01*
X30446410Y-36673590D01*
X30286450Y-36542315D01*
X30103954Y-36444768D01*
X29905934Y-36384700D01*
X29700000Y-36364417D01*
X29494065Y-36384700D01*
X29494064Y-36384700D01*
X29321616Y-36437011D01*
X29306932Y-36441466D01*
X29296043Y-36444769D01*
X29113548Y-36542316D01*
X28953590Y-36673590D01*
X28822316Y-36833548D01*
X28724769Y-37016043D01*
X28664700Y-37214064D01*
X28664700Y-37214065D01*
X28644417Y-37419999D01*
X25804792Y-37419999D01*
X25733656Y-37277138D01*
X25654088Y-37171773D01*
X25606304Y-37108496D01*
X25606301Y-37108493D01*
X25450132Y-36966126D01*
X25450129Y-36966124D01*
X25450128Y-36966123D01*
X25270453Y-36854872D01*
X25270450Y-36854871D01*
X25270449Y-36854870D01*
X25073400Y-36778533D01*
X25073395Y-36778532D01*
X24865664Y-36739700D01*
X24654336Y-36739700D01*
X24497584Y-36769002D01*
X24446599Y-36778533D01*
X24249550Y-36854870D01*
X24069867Y-36966126D01*
X23913698Y-37108493D01*
X23913695Y-37108496D01*
X23786345Y-37277136D01*
X23786342Y-37277140D01*
X23692149Y-37466305D01*
X23692146Y-37466312D01*
X23634314Y-37669570D01*
X23634313Y-37669576D01*
X23614815Y-37880000D01*
X21146392Y-37880000D01*
X21113342Y-37846950D01*
X21113335Y-37846945D01*
X21000308Y-37789355D01*
X21000305Y-37789354D01*
X21000304Y-37789354D01*
X20906519Y-37774500D01*
X20906517Y-37774500D01*
X20293482Y-37774500D01*
X20199696Y-37789353D01*
X20086664Y-37846945D01*
X20086657Y-37846950D01*
X20023460Y-37910148D01*
X19988812Y-37924500D01*
X18765688Y-37924500D01*
X18675326Y-37948713D01*
X18651115Y-37955199D01*
X18651110Y-37955201D01*
X18548385Y-38014511D01*
X18548385Y-38014512D01*
X17877749Y-38685148D01*
X17843101Y-38699500D01*
X17416738Y-38699500D01*
X17348605Y-38709427D01*
X17348603Y-38709428D01*
X17243519Y-38760801D01*
X17243515Y-38760803D01*
X17160803Y-38843515D01*
X17160801Y-38843519D01*
X17109428Y-38948603D01*
X17109427Y-38948605D01*
X17099500Y-39016738D01*
X16739914Y-39016738D01*
X16726864Y-38985232D01*
X16687038Y-38889084D01*
X16687037Y-38889083D01*
X16687036Y-38889080D01*
X16641186Y-38829327D01*
X16631481Y-38793104D01*
X16650233Y-38760625D01*
X16680062Y-38750500D01*
X16783262Y-38750500D01*
X16800590Y-38747974D01*
X16851393Y-38740573D01*
X16956483Y-38689198D01*
X17039198Y-38606483D01*
X17090573Y-38501393D01*
X17100500Y-38433260D01*
X17100500Y-38066740D01*
X17090573Y-37998607D01*
X17039198Y-37893517D01*
X16956483Y-37810802D01*
X16882226Y-37774500D01*
X16851396Y-37759428D01*
X16851394Y-37759427D01*
X16783262Y-37749500D01*
X16783260Y-37749500D01*
X15541740Y-37749500D01*
X15541738Y-37749500D01*
X15473607Y-37759427D01*
X15473603Y-37759428D01*
X15401820Y-37794521D01*
X15380300Y-37799500D01*
X14031980Y-37799500D01*
X14009735Y-37794159D01*
X14000307Y-37789355D01*
X14000305Y-37789354D01*
X14000304Y-37789354D01*
X13906519Y-37774500D01*
X13906517Y-37774500D01*
X13293482Y-37774500D01*
X13199696Y-37789353D01*
X13086664Y-37846945D01*
X13086657Y-37846950D01*
X13023460Y-37910148D01*
X12988812Y-37924500D01*
X12565688Y-37924500D01*
X12562504Y-37924919D01*
X12562303Y-37923391D01*
X12530162Y-37919149D01*
X12507341Y-37889389D01*
X12512249Y-37852208D01*
X12520024Y-37842078D01*
X13667101Y-36695002D01*
X13701749Y-36680650D01*
X17399009Y-36680650D01*
X17429128Y-36672578D01*
X17489371Y-36656436D01*
X17513585Y-36649949D01*
X17616312Y-36590640D01*
X18866953Y-35340000D01*
X23614815Y-35340000D01*
X23634313Y-35550423D01*
X23634314Y-35550429D01*
X23692146Y-35753687D01*
X23692149Y-35753694D01*
X23786342Y-35942859D01*
X23786343Y-35942861D01*
X23786344Y-35942862D01*
X23814880Y-35980650D01*
X23913695Y-36111503D01*
X23913698Y-36111506D01*
X24069867Y-36253873D01*
X24069868Y-36253874D01*
X24069872Y-36253877D01*
X24249547Y-36365128D01*
X24249550Y-36365129D01*
X24446599Y-36441466D01*
X24446600Y-36441466D01*
X24446605Y-36441468D01*
X24654336Y-36480300D01*
X24654338Y-36480300D01*
X24865662Y-36480300D01*
X24865664Y-36480300D01*
X25073395Y-36441468D01*
X25270453Y-36365128D01*
X25450128Y-36253877D01*
X25606302Y-36111506D01*
X25733656Y-35942862D01*
X25827853Y-35753689D01*
X25885686Y-35550427D01*
X25905185Y-35340000D01*
X25885686Y-35129573D01*
X25827853Y-34926311D01*
X25804792Y-34879999D01*
X28644417Y-34879999D01*
X28644417Y-34880000D01*
X28664700Y-35085934D01*
X28664700Y-35085935D01*
X28677938Y-35129576D01*
X28724768Y-35283954D01*
X28822315Y-35466450D01*
X28953590Y-35626410D01*
X29113550Y-35757685D01*
X29296046Y-35855232D01*
X29494066Y-35915300D01*
X29700000Y-35935583D01*
X29905934Y-35915300D01*
X30103954Y-35855232D01*
X30286450Y-35757685D01*
X30446410Y-35626410D01*
X30577685Y-35466450D01*
X30675232Y-35283954D01*
X30735300Y-35085934D01*
X30755583Y-34880000D01*
X30735300Y-34674066D01*
X30675232Y-34476046D01*
X30577685Y-34293550D01*
X30446410Y-34133590D01*
X30286450Y-34002315D01*
X30103954Y-33904768D01*
X29905934Y-33844700D01*
X29700000Y-33824417D01*
X29494065Y-33844700D01*
X29494064Y-33844700D01*
X29321616Y-33897011D01*
X29306932Y-33901466D01*
X29296043Y-33904769D01*
X29113548Y-34002316D01*
X28953590Y-34133590D01*
X28822316Y-34293548D01*
X28724769Y-34476043D01*
X28664700Y-34674064D01*
X28664700Y-34674065D01*
X28644417Y-34879999D01*
X25804792Y-34879999D01*
X25733656Y-34737138D01*
X25606302Y-34568494D01*
X25520898Y-34490638D01*
X25450132Y-34426126D01*
X25450129Y-34426124D01*
X25450128Y-34426123D01*
X25270453Y-34314872D01*
X25270450Y-34314871D01*
X25270449Y-34314870D01*
X25073400Y-34238533D01*
X25073395Y-34238532D01*
X24865664Y-34199700D01*
X24654336Y-34199700D01*
X24497584Y-34229002D01*
X24446599Y-34238533D01*
X24249550Y-34314870D01*
X24069867Y-34426126D01*
X23913698Y-34568493D01*
X23913695Y-34568496D01*
X23786345Y-34737136D01*
X23786342Y-34737140D01*
X23692149Y-34926305D01*
X23692146Y-34926312D01*
X23634314Y-35129570D01*
X23634313Y-35129576D01*
X23614815Y-35340000D01*
X18866953Y-35340000D01*
X19560489Y-34646464D01*
X19619799Y-34543737D01*
X19634026Y-34490639D01*
X19650500Y-34429159D01*
X19650500Y-32800000D01*
X23614815Y-32800000D01*
X23634313Y-33010423D01*
X23634314Y-33010429D01*
X23692146Y-33213687D01*
X23692149Y-33213694D01*
X23786342Y-33402859D01*
X23786345Y-33402863D01*
X23913695Y-33571503D01*
X23913698Y-33571506D01*
X24069867Y-33713873D01*
X24069868Y-33713874D01*
X24069872Y-33713877D01*
X24249547Y-33825128D01*
X24249550Y-33825129D01*
X24446599Y-33901466D01*
X24446600Y-33901466D01*
X24446605Y-33901468D01*
X24654336Y-33940300D01*
X24654338Y-33940300D01*
X24865662Y-33940300D01*
X24865664Y-33940300D01*
X25073395Y-33901468D01*
X25270453Y-33825128D01*
X25450128Y-33713877D01*
X25606302Y-33571506D01*
X25733656Y-33402862D01*
X25827853Y-33213689D01*
X25885686Y-33010427D01*
X25905185Y-32800000D01*
X25885686Y-32589573D01*
X25827853Y-32386311D01*
X25804792Y-32339999D01*
X28644417Y-32339999D01*
X28644417Y-32340000D01*
X28664700Y-32545934D01*
X28664700Y-32545935D01*
X28677938Y-32589576D01*
X28724768Y-32743954D01*
X28822315Y-32926450D01*
X28953590Y-33086410D01*
X29113550Y-33217685D01*
X29296046Y-33315232D01*
X29494066Y-33375300D01*
X29700000Y-33395583D01*
X29905934Y-33375300D01*
X30103954Y-33315232D01*
X30286450Y-33217685D01*
X30446410Y-33086410D01*
X30577685Y-32926450D01*
X30675232Y-32743954D01*
X30735300Y-32545934D01*
X30755583Y-32340000D01*
X30735300Y-32134066D01*
X30675232Y-31936046D01*
X30577685Y-31753550D01*
X30446410Y-31593590D01*
X30286450Y-31462315D01*
X30103954Y-31364768D01*
X29905934Y-31304700D01*
X29700000Y-31284417D01*
X29494065Y-31304700D01*
X29494064Y-31304700D01*
X29330459Y-31354329D01*
X29306932Y-31361466D01*
X29296043Y-31364769D01*
X29113548Y-31462316D01*
X28953590Y-31593590D01*
X28822316Y-31753548D01*
X28724769Y-31936043D01*
X28664700Y-32134064D01*
X28664700Y-32134065D01*
X28644417Y-32339999D01*
X25804792Y-32339999D01*
X25733656Y-32197138D01*
X25639719Y-32072745D01*
X25606304Y-32028496D01*
X25606301Y-32028493D01*
X25450132Y-31886126D01*
X25450129Y-31886124D01*
X25450128Y-31886123D01*
X25270453Y-31774872D01*
X25270450Y-31774871D01*
X25270449Y-31774870D01*
X25073400Y-31698533D01*
X25073395Y-31698532D01*
X24865664Y-31659700D01*
X24654336Y-31659700D01*
X24497584Y-31689002D01*
X24446599Y-31698533D01*
X24249550Y-31774870D01*
X24069867Y-31886126D01*
X23913698Y-32028493D01*
X23913695Y-32028496D01*
X23786345Y-32197136D01*
X23786342Y-32197140D01*
X23692149Y-32386305D01*
X23692146Y-32386312D01*
X23634314Y-32589570D01*
X23634313Y-32589576D01*
X23614815Y-32800000D01*
X19650500Y-32800000D01*
X19650500Y-30260000D01*
X23614815Y-30260000D01*
X23634313Y-30470423D01*
X23634314Y-30470429D01*
X23692146Y-30673687D01*
X23692149Y-30673694D01*
X23786342Y-30862859D01*
X23786345Y-30862863D01*
X23913695Y-31031503D01*
X23913698Y-31031506D01*
X24069867Y-31173873D01*
X24069868Y-31173874D01*
X24069872Y-31173877D01*
X24249547Y-31285128D01*
X24261741Y-31289852D01*
X24446599Y-31361466D01*
X24446600Y-31361466D01*
X24446605Y-31361468D01*
X24654336Y-31400300D01*
X24654338Y-31400300D01*
X24865662Y-31400300D01*
X24865664Y-31400300D01*
X25073395Y-31361468D01*
X25270453Y-31285128D01*
X25450128Y-31173877D01*
X25606302Y-31031506D01*
X25733656Y-30862862D01*
X25827853Y-30673689D01*
X25885686Y-30470427D01*
X25905185Y-30260000D01*
X25885686Y-30049573D01*
X25827853Y-29846311D01*
X25733656Y-29657138D01*
X25652749Y-29550000D01*
X25606304Y-29488496D01*
X25606301Y-29488493D01*
X25450132Y-29346126D01*
X25450129Y-29346124D01*
X25450128Y-29346123D01*
X25270453Y-29234872D01*
X25270450Y-29234871D01*
X25270449Y-29234870D01*
X25073400Y-29158533D01*
X25024800Y-29149448D01*
X24865664Y-29119700D01*
X24654336Y-29119700D01*
X24497584Y-29149002D01*
X24446599Y-29158533D01*
X24249550Y-29234870D01*
X24069867Y-29346126D01*
X23913698Y-29488493D01*
X23913695Y-29488496D01*
X23786345Y-29657136D01*
X23786342Y-29657140D01*
X23692149Y-29846305D01*
X23692146Y-29846312D01*
X23634314Y-30049570D01*
X23634313Y-30049576D01*
X23614815Y-30260000D01*
X19650500Y-30260000D01*
X19650500Y-28930305D01*
X28650000Y-28930305D01*
X28650000Y-29550000D01*
X29266988Y-29550000D01*
X29234075Y-29607007D01*
X29200000Y-29734174D01*
X29200000Y-29865826D01*
X29234075Y-29992993D01*
X29266988Y-30050000D01*
X28650000Y-30050000D01*
X28650000Y-30669694D01*
X28661604Y-30728036D01*
X28705807Y-30794192D01*
X28771963Y-30838395D01*
X28830305Y-30850000D01*
X29450000Y-30850000D01*
X29450000Y-30233012D01*
X29507007Y-30265925D01*
X29634174Y-30300000D01*
X29765826Y-30300000D01*
X29892993Y-30265925D01*
X29950000Y-30233012D01*
X29950000Y-30850000D01*
X30569695Y-30850000D01*
X30628036Y-30838395D01*
X30694192Y-30794192D01*
X30738395Y-30728036D01*
X30750000Y-30669694D01*
X30750000Y-30050000D01*
X30133012Y-30050000D01*
X30165925Y-29992993D01*
X30200000Y-29865826D01*
X30200000Y-29734174D01*
X30165925Y-29607007D01*
X30133012Y-29550000D01*
X30750000Y-29550000D01*
X30750000Y-28930305D01*
X30738395Y-28871963D01*
X30694192Y-28805807D01*
X30628036Y-28761604D01*
X30569695Y-28750000D01*
X29950000Y-28750000D01*
X29950000Y-29366988D01*
X29892993Y-29334075D01*
X29765826Y-29300000D01*
X29634174Y-29300000D01*
X29507007Y-29334075D01*
X29450000Y-29366988D01*
X29450000Y-28750000D01*
X28830305Y-28750000D01*
X28771963Y-28761604D01*
X28705807Y-28805807D01*
X28661604Y-28871963D01*
X28650000Y-28930305D01*
X19650500Y-28930305D01*
X19650500Y-27720000D01*
X23614815Y-27720000D01*
X23634313Y-27930423D01*
X23634314Y-27930429D01*
X23692146Y-28133687D01*
X23692149Y-28133694D01*
X23786342Y-28322859D01*
X23786343Y-28322861D01*
X23786344Y-28322862D01*
X23817788Y-28364500D01*
X23913695Y-28491503D01*
X23913698Y-28491506D01*
X24069867Y-28633873D01*
X24069868Y-28633874D01*
X24069872Y-28633877D01*
X24249547Y-28745128D01*
X24273298Y-28754329D01*
X24446599Y-28821466D01*
X24446600Y-28821466D01*
X24446605Y-28821468D01*
X24654336Y-28860300D01*
X24654338Y-28860300D01*
X24865662Y-28860300D01*
X24865664Y-28860300D01*
X25073395Y-28821468D01*
X25270453Y-28745128D01*
X25450128Y-28633877D01*
X25606302Y-28491506D01*
X25733656Y-28322862D01*
X25827853Y-28133689D01*
X25885686Y-27930427D01*
X25905185Y-27720000D01*
X25885686Y-27509573D01*
X25827853Y-27306311D01*
X25733656Y-27117138D01*
X25644470Y-26999036D01*
X25606304Y-26948496D01*
X25606301Y-26948493D01*
X25450132Y-26806126D01*
X25450129Y-26806124D01*
X25450128Y-26806123D01*
X25270453Y-26694872D01*
X25270450Y-26694871D01*
X25270449Y-26694870D01*
X25073400Y-26618533D01*
X25073395Y-26618532D01*
X24865664Y-26579700D01*
X24654336Y-26579700D01*
X24497584Y-26609002D01*
X24446599Y-26618533D01*
X24249550Y-26694870D01*
X24069867Y-26806126D01*
X23913698Y-26948493D01*
X23913695Y-26948496D01*
X23786345Y-27117136D01*
X23786342Y-27117140D01*
X23692149Y-27306305D01*
X23692146Y-27306312D01*
X23634314Y-27509570D01*
X23634313Y-27509576D01*
X23614815Y-27720000D01*
X19650500Y-27720000D01*
X19650500Y-26340691D01*
X19650500Y-26340689D01*
X19625666Y-26248011D01*
X19623889Y-26241378D01*
X19619799Y-26226113D01*
X19560489Y-26123386D01*
X18617103Y-25180000D01*
X23614815Y-25180000D01*
X23634313Y-25390423D01*
X23634314Y-25390429D01*
X23692146Y-25593687D01*
X23692149Y-25593694D01*
X23786342Y-25782859D01*
X23786345Y-25782863D01*
X23913695Y-25951503D01*
X23913698Y-25951506D01*
X24069867Y-26093873D01*
X24069868Y-26093874D01*
X24069872Y-26093877D01*
X24249547Y-26205128D01*
X24303716Y-26226113D01*
X24446599Y-26281466D01*
X24446600Y-26281466D01*
X24446605Y-26281468D01*
X24654336Y-26320300D01*
X24654338Y-26320300D01*
X24865662Y-26320300D01*
X24865664Y-26320300D01*
X25073395Y-26281468D01*
X25270453Y-26205128D01*
X25450128Y-26093877D01*
X25606302Y-25951506D01*
X25733656Y-25782862D01*
X25827853Y-25593689D01*
X25885686Y-25390427D01*
X25905185Y-25180000D01*
X25885686Y-24969573D01*
X25827853Y-24766311D01*
X25733656Y-24577138D01*
X25618418Y-24424538D01*
X25606304Y-24408496D01*
X25606301Y-24408493D01*
X25450132Y-24266126D01*
X25450129Y-24266124D01*
X25450128Y-24266123D01*
X25270453Y-24154872D01*
X25270450Y-24154871D01*
X25270449Y-24154870D01*
X25073400Y-24078533D01*
X25048450Y-24073869D01*
X24865664Y-24039700D01*
X24654336Y-24039700D01*
X24534834Y-24062039D01*
X24446599Y-24078533D01*
X24249550Y-24154870D01*
X24069867Y-24266126D01*
X23913698Y-24408493D01*
X23913695Y-24408496D01*
X23786345Y-24577136D01*
X23786342Y-24577140D01*
X23692149Y-24766305D01*
X23692146Y-24766312D01*
X23634314Y-24969570D01*
X23634313Y-24969576D01*
X23614815Y-25180000D01*
X18617103Y-25180000D01*
X18171751Y-24734648D01*
X18157399Y-24700000D01*
X18171751Y-24665352D01*
X18259967Y-24577136D01*
X18440401Y-24396701D01*
X18475048Y-24382350D01*
X18504875Y-24392474D01*
X18546659Y-24424536D01*
X18546662Y-24424537D01*
X18546663Y-24424538D01*
X18692738Y-24485044D01*
X18849500Y-24505682D01*
X19006262Y-24485044D01*
X19152341Y-24424536D01*
X19277782Y-24328282D01*
X19374036Y-24202841D01*
X19434544Y-24056762D01*
X19455182Y-23900000D01*
X19434544Y-23743238D01*
X19415344Y-23696884D01*
X19374038Y-23597163D01*
X19374035Y-23597158D01*
X19340824Y-23553877D01*
X19277782Y-23471718D01*
X19235630Y-23439374D01*
X19152341Y-23375464D01*
X19152336Y-23375461D01*
X19006261Y-23314955D01*
X18849500Y-23294318D01*
X18692738Y-23314955D01*
X18546663Y-23375461D01*
X18546658Y-23375464D01*
X18463370Y-23439374D01*
X18433541Y-23449500D01*
X18240689Y-23449500D01*
X18199672Y-23460491D01*
X18157773Y-23471718D01*
X18126113Y-23480201D01*
X18126112Y-23480201D01*
X18126110Y-23480202D01*
X18023385Y-23539510D01*
X17327749Y-24235148D01*
X17293101Y-24249500D01*
X17279700Y-24249500D01*
X17245052Y-24235148D01*
X17230700Y-24200500D01*
X17230700Y-24045255D01*
X17230700Y-24045252D01*
X17219067Y-23986769D01*
X17174752Y-23920448D01*
X17174751Y-23920447D01*
X17172273Y-23918791D01*
X17151441Y-23887606D01*
X17150500Y-23878051D01*
X17150500Y-23816888D01*
X17119799Y-23702315D01*
X17119798Y-23702312D01*
X17102188Y-23671811D01*
X17102187Y-23671808D01*
X17060494Y-23599592D01*
X17060491Y-23599589D01*
X17060490Y-23599586D01*
X16200414Y-22739511D01*
X16097688Y-22680201D01*
X16097686Y-22680200D01*
X16073473Y-22673713D01*
X16043351Y-22665642D01*
X15983111Y-22649500D01*
X15983109Y-22649500D01*
X15565320Y-22649500D01*
X15542385Y-22640000D01*
X23614815Y-22640000D01*
X23634313Y-22850423D01*
X23634314Y-22850429D01*
X23692146Y-23053687D01*
X23692149Y-23053694D01*
X23786342Y-23242859D01*
X23786345Y-23242863D01*
X23913695Y-23411503D01*
X23913698Y-23411506D01*
X24069867Y-23553873D01*
X24069868Y-23553874D01*
X24069872Y-23553877D01*
X24249547Y-23665128D01*
X24266798Y-23671811D01*
X24446599Y-23741466D01*
X24446600Y-23741466D01*
X24446605Y-23741468D01*
X24654336Y-23780300D01*
X24654338Y-23780300D01*
X24865662Y-23780300D01*
X24865664Y-23780300D01*
X25073395Y-23741468D01*
X25270453Y-23665128D01*
X25450128Y-23553877D01*
X25606302Y-23411506D01*
X25733656Y-23242862D01*
X25827853Y-23053689D01*
X25885686Y-22850427D01*
X25905185Y-22640000D01*
X25885686Y-22429573D01*
X25827853Y-22226311D01*
X25733656Y-22037138D01*
X25606302Y-21868494D01*
X25593164Y-21856517D01*
X25450132Y-21726126D01*
X25450129Y-21726124D01*
X25450128Y-21726123D01*
X25270453Y-21614872D01*
X25270450Y-21614871D01*
X25270449Y-21614870D01*
X25073400Y-21538533D01*
X25073395Y-21538532D01*
X24865664Y-21499700D01*
X24654336Y-21499700D01*
X24497584Y-21529002D01*
X24446599Y-21538533D01*
X24249550Y-21614870D01*
X24069867Y-21726126D01*
X23913698Y-21868493D01*
X23913695Y-21868496D01*
X23786345Y-22037136D01*
X23786342Y-22037140D01*
X23692149Y-22226305D01*
X23692146Y-22226312D01*
X23634314Y-22429570D01*
X23634313Y-22429576D01*
X23614815Y-22640000D01*
X15542385Y-22640000D01*
X15530672Y-22635148D01*
X14675269Y-21779745D01*
X14660917Y-21745097D01*
X14663317Y-21733043D01*
X14662925Y-21732965D01*
X14663867Y-21728230D01*
X14675500Y-21669748D01*
X14675500Y-21230252D01*
X15524500Y-21230252D01*
X15524500Y-21669748D01*
X15536133Y-21728231D01*
X15547403Y-21745097D01*
X15580447Y-21794552D01*
X15599499Y-21807282D01*
X15646769Y-21838867D01*
X15705252Y-21850500D01*
X15863811Y-21850500D01*
X15898459Y-21864852D01*
X15904087Y-21870480D01*
X15937513Y-21889778D01*
X15995410Y-21923206D01*
X15995412Y-21923206D01*
X15995413Y-21923207D01*
X16075747Y-21944732D01*
X16097269Y-21950499D01*
X16097270Y-21950500D01*
X16097273Y-21950500D01*
X17709427Y-21950500D01*
X17744075Y-21964852D01*
X17753086Y-21977255D01*
X17796945Y-22063335D01*
X17796950Y-22063342D01*
X17886657Y-22153049D01*
X17886664Y-22153054D01*
X17999691Y-22210644D01*
X17999692Y-22210644D01*
X17999696Y-22210646D01*
X18093481Y-22225500D01*
X18706518Y-22225499D01*
X18800304Y-22210646D01*
X18861387Y-22179522D01*
X18913335Y-22153054D01*
X18913337Y-22153052D01*
X18913342Y-22153050D01*
X19003050Y-22063342D01*
X19016403Y-22037136D01*
X19060644Y-21950309D01*
X19060644Y-21950307D01*
X19060646Y-21950304D01*
X19075500Y-21856519D01*
X19075499Y-21393482D01*
X19060646Y-21299696D01*
X19025264Y-21230255D01*
X19003054Y-21186664D01*
X19003049Y-21186657D01*
X18941761Y-21125369D01*
X29198500Y-21125369D01*
X29198500Y-21374631D01*
X29231035Y-21621760D01*
X29231036Y-21621764D01*
X29231037Y-21621771D01*
X29295546Y-21862522D01*
X29295550Y-21862532D01*
X29298842Y-21870479D01*
X29390937Y-22092816D01*
X29425713Y-22153050D01*
X29515566Y-22308681D01*
X29515576Y-22308696D01*
X29667300Y-22506426D01*
X29667311Y-22506438D01*
X29843561Y-22682688D01*
X29843573Y-22682699D01*
X30041303Y-22834423D01*
X30041312Y-22834429D01*
X30041316Y-22834432D01*
X30257184Y-22959063D01*
X30487471Y-23054451D01*
X30487474Y-23054451D01*
X30487477Y-23054453D01*
X30728228Y-23118962D01*
X30728229Y-23118962D01*
X30728240Y-23118965D01*
X30975369Y-23151500D01*
X30975373Y-23151500D01*
X31224627Y-23151500D01*
X31224631Y-23151500D01*
X31471760Y-23118965D01*
X31712529Y-23054451D01*
X31942816Y-22959063D01*
X32158684Y-22834432D01*
X32356436Y-22682691D01*
X32532691Y-22506436D01*
X32591671Y-22429573D01*
X32684423Y-22308696D01*
X32684424Y-22308693D01*
X32684432Y-22308684D01*
X32809063Y-22092816D01*
X32904451Y-21862529D01*
X32910792Y-21838866D01*
X32968962Y-21621771D01*
X32968961Y-21621771D01*
X32968965Y-21621760D01*
X33001500Y-21374631D01*
X33001500Y-21125369D01*
X32968965Y-20878240D01*
X32904451Y-20637471D01*
X32809063Y-20407184D01*
X32684432Y-20191316D01*
X32684429Y-20191312D01*
X32684423Y-20191303D01*
X32532699Y-19993573D01*
X32532688Y-19993561D01*
X32356438Y-19817311D01*
X32356426Y-19817300D01*
X32158696Y-19665576D01*
X32158681Y-19665566D01*
X31942819Y-19540939D01*
X31942820Y-19540939D01*
X31942816Y-19540937D01*
X31768409Y-19468695D01*
X31712532Y-19445550D01*
X31712522Y-19445546D01*
X31471771Y-19381037D01*
X31471764Y-19381036D01*
X31471760Y-19381035D01*
X31224631Y-19348500D01*
X30975369Y-19348500D01*
X30728240Y-19381035D01*
X30728236Y-19381035D01*
X30728228Y-19381037D01*
X30487477Y-19445546D01*
X30487467Y-19445550D01*
X30336202Y-19508206D01*
X30257184Y-19540937D01*
X30257181Y-19540938D01*
X30257180Y-19540939D01*
X30041318Y-19665566D01*
X30041303Y-19665576D01*
X29843573Y-19817300D01*
X29843561Y-19817311D01*
X29667311Y-19993561D01*
X29667300Y-19993573D01*
X29515576Y-20191303D01*
X29515566Y-20191318D01*
X29452642Y-20300307D01*
X29390937Y-20407184D01*
X29367050Y-20464852D01*
X29295550Y-20637467D01*
X29295546Y-20637477D01*
X29231037Y-20878228D01*
X29231035Y-20878236D01*
X29231035Y-20878240D01*
X29198500Y-21125369D01*
X18941761Y-21125369D01*
X18913342Y-21096950D01*
X18913335Y-21096945D01*
X18800308Y-21039355D01*
X18800305Y-21039354D01*
X18800304Y-21039354D01*
X18706519Y-21024500D01*
X18706517Y-21024500D01*
X18093482Y-21024500D01*
X17999696Y-21039353D01*
X17886664Y-21096945D01*
X17886657Y-21096950D01*
X17848460Y-21135148D01*
X17813812Y-21149500D01*
X16607128Y-21149500D01*
X16572480Y-21135148D01*
X16558128Y-21100500D01*
X16561859Y-21081746D01*
X16563395Y-21078037D01*
X16575000Y-21019694D01*
X16575000Y-21000000D01*
X15525000Y-21000000D01*
X15525000Y-21019694D01*
X15536604Y-21078037D01*
X15549494Y-21097329D01*
X15556809Y-21134111D01*
X15549494Y-21151771D01*
X15536133Y-21171767D01*
X15533171Y-21186658D01*
X15524500Y-21230252D01*
X14675500Y-21230252D01*
X14663867Y-21171769D01*
X14650505Y-21151771D01*
X14643188Y-21114992D01*
X14650506Y-21097326D01*
X14663395Y-21078036D01*
X14675000Y-21019694D01*
X14675000Y-21000000D01*
X14216321Y-21000000D01*
X14209929Y-20999581D01*
X14209313Y-20999500D01*
X14209309Y-20999500D01*
X14090691Y-20999500D01*
X14090687Y-20999500D01*
X14090071Y-20999581D01*
X14083679Y-21000000D01*
X13625000Y-21000000D01*
X13625000Y-21019694D01*
X13636604Y-21078037D01*
X13649494Y-21097329D01*
X13656809Y-21134111D01*
X13649494Y-21151771D01*
X13636133Y-21171767D01*
X13633171Y-21186658D01*
X13624500Y-21230252D01*
X13624500Y-21669748D01*
X13636133Y-21728231D01*
X13647403Y-21745097D01*
X13680445Y-21794549D01*
X13683859Y-21797962D01*
X13682272Y-21799548D01*
X13698554Y-21823888D01*
X13699500Y-21833472D01*
X13699500Y-21950889D01*
X13719656Y-22026110D01*
X13719656Y-22026112D01*
X13730200Y-22065465D01*
X13730201Y-22065467D01*
X13780768Y-22153050D01*
X13789511Y-22168193D01*
X15081807Y-23460489D01*
X15123008Y-23484276D01*
X15184535Y-23519799D01*
X15213179Y-23527474D01*
X15299109Y-23550500D01*
X15299112Y-23550500D01*
X15716901Y-23550500D01*
X15751549Y-23564852D01*
X15967549Y-23780852D01*
X15981901Y-23815500D01*
X15967549Y-23850148D01*
X15932901Y-23864500D01*
X15308652Y-23864500D01*
X15255418Y-23875089D01*
X15250169Y-23876133D01*
X15183847Y-23920447D01*
X15149491Y-23971866D01*
X15139533Y-23986769D01*
X15127900Y-24045252D01*
X15127900Y-24045255D01*
X15127900Y-24250500D01*
X15113548Y-24285148D01*
X15078900Y-24299500D01*
X14299173Y-24299500D01*
X14264525Y-24285148D01*
X14255514Y-24272745D01*
X14211654Y-24186664D01*
X14211649Y-24186657D01*
X14121942Y-24096950D01*
X14121935Y-24096945D01*
X14008908Y-24039355D01*
X14008905Y-24039354D01*
X14008904Y-24039354D01*
X13915119Y-24024500D01*
X13915117Y-24024500D01*
X13452082Y-24024500D01*
X13358296Y-24039353D01*
X13245264Y-24096945D01*
X13245257Y-24096950D01*
X13155550Y-24186657D01*
X13155545Y-24186664D01*
X13097955Y-24299690D01*
X13097955Y-24299692D01*
X13097954Y-24299694D01*
X13097954Y-24299696D01*
X13084863Y-24382350D01*
X13083100Y-24393482D01*
X13083100Y-25006517D01*
X13097953Y-25100302D01*
X13099458Y-25103256D01*
X13102399Y-25140644D01*
X13078042Y-25169160D01*
X13055798Y-25174500D01*
X12661402Y-25174500D01*
X12626754Y-25160148D01*
X12612402Y-25125500D01*
X12617743Y-25103254D01*
X12617894Y-25102956D01*
X12619246Y-25100304D01*
X12634100Y-25006519D01*
X12634099Y-24393482D01*
X12631582Y-24377591D01*
X12640337Y-24341126D01*
X12645324Y-24335286D01*
X12824347Y-24156264D01*
X12852597Y-24142332D01*
X12956686Y-24128629D01*
X13102765Y-24068121D01*
X13228206Y-23971867D01*
X13324460Y-23846426D01*
X13384968Y-23700347D01*
X13405606Y-23543585D01*
X13384968Y-23386823D01*
X13325338Y-23242863D01*
X13324462Y-23240748D01*
X13324459Y-23240743D01*
X13228206Y-23115303D01*
X13228205Y-23115302D01*
X13102765Y-23019049D01*
X13102760Y-23019046D01*
X12956685Y-22958540D01*
X12799924Y-22937903D01*
X12643162Y-22958540D01*
X12497087Y-23019046D01*
X12497082Y-23019049D01*
X12371642Y-23115302D01*
X12371641Y-23115303D01*
X12275388Y-23240743D01*
X12275385Y-23240748D01*
X12214879Y-23386823D01*
X12201176Y-23490909D01*
X12187243Y-23519161D01*
X11673114Y-24033291D01*
X11673109Y-24033298D01*
X11660747Y-24054710D01*
X11640557Y-24073869D01*
X11621745Y-24083454D01*
X11584358Y-24086396D01*
X11555840Y-24062039D01*
X11550500Y-24039794D01*
X11550500Y-22406899D01*
X11564852Y-22372251D01*
X13322252Y-20614852D01*
X13356900Y-20600500D01*
X14209313Y-20600500D01*
X14209929Y-20600419D01*
X14216321Y-20600000D01*
X14625853Y-20600000D01*
X14660501Y-20614352D01*
X14664719Y-20619161D01*
X14671718Y-20628282D01*
X14671720Y-20628284D01*
X14683688Y-20637467D01*
X14797159Y-20724536D01*
X14797161Y-20724536D01*
X14797163Y-20724538D01*
X14943238Y-20785044D01*
X15100000Y-20805682D01*
X15256762Y-20785044D01*
X15402841Y-20724536D01*
X15528282Y-20628282D01*
X15535273Y-20619169D01*
X15567751Y-20600419D01*
X15574147Y-20600000D01*
X16575000Y-20600000D01*
X16575000Y-20580305D01*
X16563395Y-20521962D01*
X16561859Y-20518254D01*
X16561857Y-20480751D01*
X16588374Y-20454231D01*
X16607128Y-20450500D01*
X17813812Y-20450500D01*
X17848460Y-20464852D01*
X17886657Y-20503049D01*
X17886664Y-20503054D01*
X17999691Y-20560644D01*
X17999692Y-20560644D01*
X17999696Y-20560646D01*
X18093481Y-20575500D01*
X18706518Y-20575499D01*
X18800304Y-20560646D01*
X18861387Y-20529522D01*
X18913335Y-20503054D01*
X18913337Y-20503052D01*
X18913342Y-20503050D01*
X19003050Y-20413342D01*
X19006190Y-20407180D01*
X19060644Y-20300309D01*
X19060644Y-20300307D01*
X19060646Y-20300304D01*
X19075500Y-20206519D01*
X19075499Y-19743482D01*
X19060646Y-19649696D01*
X19042945Y-19614956D01*
X19003054Y-19536664D01*
X19003049Y-19536657D01*
X18913342Y-19446950D01*
X18913335Y-19446945D01*
X18800308Y-19389355D01*
X18800305Y-19389354D01*
X18800304Y-19389354D01*
X18706519Y-19374500D01*
X18706517Y-19374500D01*
X18093482Y-19374500D01*
X17999696Y-19389353D01*
X17886664Y-19446945D01*
X17886657Y-19446950D01*
X17796950Y-19536657D01*
X17796945Y-19536664D01*
X17753086Y-19622745D01*
X17724569Y-19647102D01*
X17709427Y-19649500D01*
X16097270Y-19649500D01*
X15995414Y-19676792D01*
X15995411Y-19676793D01*
X15956084Y-19699500D01*
X15956082Y-19699501D01*
X15943083Y-19707005D01*
X15904090Y-19729517D01*
X15904084Y-19729522D01*
X15898459Y-19735148D01*
X15863811Y-19749500D01*
X15515959Y-19749500D01*
X15486130Y-19739374D01*
X15474174Y-19730200D01*
X15402841Y-19675464D01*
X15402836Y-19675461D01*
X15256761Y-19614955D01*
X15100000Y-19594318D01*
X14943238Y-19614955D01*
X14797163Y-19675461D01*
X14797158Y-19675464D01*
X14671716Y-19771718D01*
X14664864Y-19780649D01*
X14632385Y-19799399D01*
X14598768Y-19791560D01*
X14569072Y-19771718D01*
X14553231Y-19761133D01*
X14494748Y-19749500D01*
X14494745Y-19749500D01*
X14370442Y-19749500D01*
X14345942Y-19742935D01*
X14323887Y-19730201D01*
X14323884Y-19730200D01*
X14209312Y-19699500D01*
X14209309Y-19699500D01*
X13090691Y-19699500D01*
X13090688Y-19699500D01*
X13000326Y-19723713D01*
X12976113Y-19730200D01*
X12976110Y-19730201D01*
X12873385Y-19789510D01*
X10739512Y-21923384D01*
X10739511Y-21923385D01*
X10680202Y-22026110D01*
X10678532Y-22032343D01*
X10678531Y-22032342D01*
X10678531Y-22032346D01*
X10649500Y-22140688D01*
X10649500Y-25225490D01*
X10670282Y-25303047D01*
X10670282Y-25303049D01*
X10680200Y-25340066D01*
X10680201Y-25340068D01*
X10739511Y-25442794D01*
X11282206Y-25985489D01*
X11303611Y-25997847D01*
X11384931Y-26044798D01*
X11384933Y-26044798D01*
X11384934Y-26044799D01*
X11413578Y-26052474D01*
X11499508Y-26075500D01*
X11499511Y-26075500D01*
X12249888Y-26075500D01*
X12284536Y-26089852D01*
X12298888Y-26124500D01*
X12288762Y-26154329D01*
X12275464Y-26171658D01*
X12275461Y-26171663D01*
X12214955Y-26317738D01*
X12194318Y-26474500D01*
X12199200Y-26511585D01*
X12189493Y-26547810D01*
X12185267Y-26552628D01*
X12127747Y-26610148D01*
X12093099Y-26624500D01*
X11843482Y-26624500D01*
X11749696Y-26639353D01*
X11636664Y-26696945D01*
X11636657Y-26696950D01*
X11546950Y-26786657D01*
X11546945Y-26786664D01*
X11489355Y-26899690D01*
X11489355Y-26899692D01*
X11489354Y-26899694D01*
X11489354Y-26899696D01*
X11481625Y-26948494D01*
X11474500Y-26993482D01*
X11474500Y-27606517D01*
X11489353Y-27700302D01*
X11490858Y-27703256D01*
X11493799Y-27740644D01*
X11469442Y-27769160D01*
X11447198Y-27774500D01*
X10281900Y-27774500D01*
X10247252Y-27760148D01*
X5535510Y-23048406D01*
X5521158Y-23013758D01*
X5523028Y-23000351D01*
X5565686Y-22850427D01*
X5585185Y-22640000D01*
X5565686Y-22429573D01*
X5507853Y-22226311D01*
X5413656Y-22037138D01*
X5286302Y-21868494D01*
X5273164Y-21856517D01*
X5130132Y-21726126D01*
X5130129Y-21726124D01*
X5130128Y-21726123D01*
X4950453Y-21614872D01*
X4950450Y-21614871D01*
X4950449Y-21614870D01*
X4753400Y-21538533D01*
X4753395Y-21538532D01*
X4545664Y-21499700D01*
X4334336Y-21499700D01*
X4177584Y-21529002D01*
X4126599Y-21538533D01*
X3929550Y-21614870D01*
X3749867Y-21726126D01*
X3593698Y-21868493D01*
X3593695Y-21868496D01*
X3466345Y-22037136D01*
X3466342Y-22037140D01*
X3372149Y-22226305D01*
X3372146Y-22226312D01*
X3314314Y-22429570D01*
X3314313Y-22429576D01*
X3294815Y-22640000D01*
X2800000Y-22640000D01*
X2800000Y-18766744D01*
X2800005Y-18766059D01*
X2800453Y-18734035D01*
X2800756Y-18729236D01*
X2837865Y-18399725D01*
X2838780Y-18394334D01*
X2912462Y-18071360D01*
X2913977Y-18066102D01*
X3023342Y-17753401D01*
X3025428Y-17748362D01*
X3169101Y-17449866D01*
X3171745Y-17445079D01*
X3347921Y-17164539D01*
X3351080Y-17160084D01*
X3557537Y-16901032D01*
X3561185Y-16896946D01*
X3795350Y-16662614D01*
X3799418Y-16658976D01*
X4058335Y-16452323D01*
X4062786Y-16449162D01*
X4343197Y-16272788D01*
X4347976Y-16270143D01*
X4646380Y-16126252D01*
X4651424Y-16124160D01*
X4964042Y-16014572D01*
X4969284Y-16013058D01*
X5292218Y-15939143D01*
X5297600Y-15938225D01*
X5627099Y-15900878D01*
X5631870Y-15900572D01*
X5669741Y-15900015D01*
X5670471Y-15900005D01*
X5671191Y-15900000D01*
X38151000Y-15900000D01*
X38185648Y-15914352D01*
G37*
%TD.AperFunction*%
%TD*%
M02*
