M48
; DRILL file {KiCad 8.0.2} date 2024-08-31T16:24:43-0400
; FORMAT={-:-/ absolute / inch / decimal}
; #@! TF.CreationDate,2024-08-31T16:24:43-04:00
; #@! TF.GenerationSoftware,Kicad,Pcbnew,8.0.2
; #@! TF.FileFunction,Plated,1,2,PTH
FMAT,2
INCH
; #@! TA.AperFunction,Plated,PTH,ViaDrill
T1C0.0118
; #@! TA.AperFunction,Plated,PTH,ViaDrill
T2C0.0157
; #@! TA.AperFunction,Plated,PTH,ComponentDrill
T3C0.0394
; #@! TA.AperFunction,Plated,PTH,ComponentDrill
T4C0.0400
%
G90
G05
T1
X0.5236Y-2.3346
X0.5709Y-2.2559
X0.5709Y-2.3012
X0.5735Y-2.1988
X0.6181Y-2.3386
X0.622Y-2.2165
X0.6693Y-2.0906
T2
X0.3228Y-1.6171
X0.3504Y-1.4685
X0.3583Y-2.0236
X0.3583Y-2.2205
X0.3583Y-2.3346
X0.5039Y-0.9269
X0.5039Y-1.0423
X0.5065Y-1.1447
X0.5065Y-1.247
X0.5945Y-0.7953
X0.622Y-2.4016
X0.6363Y-1.543
X0.6378Y-1.6929
X0.6378Y-1.8425
X0.7047Y-1.0355
X0.7362Y-2.4961
X0.7421Y-0.9409
X0.7638Y-1.5443
X0.7638Y-1.6939
X0.7638Y-1.8435
X0.7756Y-1.9961
X0.7795Y-2.126
T3
X1.1693Y-1.1732
X1.1693Y-1.2732
X1.1693Y-1.3732
X1.1693Y-1.4732
X1.1693Y-1.5732
X1.1693Y-1.6732
X1.1693Y-1.7732
X1.1693Y-1.8732
X1.1693Y-1.9732
X1.1693Y-2.0732
T4
X0.1748Y-0.8913
X0.1748Y-0.9913
X0.1748Y-1.0913
X0.1748Y-1.1913
X0.1748Y-1.2913
X0.1748Y-1.3913
X0.1748Y-1.4913
X0.1748Y-1.5913
X0.1748Y-1.6913
X0.1748Y-1.7913
X0.1748Y-1.8913
X0.1748Y-1.9913
X0.9748Y-0.8913
X0.9748Y-0.9913
X0.9748Y-1.0913
X0.9748Y-1.1913
X0.9748Y-1.2913
X0.9748Y-1.3913
X0.9748Y-1.4913
X0.9748Y-1.5913
X0.9748Y-1.6913
X0.9748Y-1.7913
X0.9748Y-1.8913
X0.9748Y-1.9913
X0.9748Y-2.0913
X0.9748Y-2.1913
X0.9748Y-2.2913
X0.9748Y-2.3913
M30
