%TF.GenerationSoftware,KiCad,Pcbnew,8.0.2*%
%TF.CreationDate,2024-08-31T16:24:40-04:00*%
%TF.ProjectId,BREAD_Loaf,42524541-445f-44c6-9f61-662e6b696361,rev?*%
%TF.SameCoordinates,PX2fdfdc0PY36746e0*%
%TF.FileFunction,Soldermask,Top*%
%TF.FilePolarity,Negative*%
%FSLAX46Y46*%
G04 Gerber Fmt 4.6, Leading zero omitted, Abs format (unit mm)*
G04 Created by KiCad (PCBNEW 8.0.2) date 2024-08-31 16:24:40*
%MOMM*%
%LPD*%
G01*
G04 APERTURE LIST*
G04 Aperture macros list*
%AMRoundRect*
0 Rectangle with rounded corners*
0 $1 Rounding radius*
0 $2 $3 $4 $5 $6 $7 $8 $9 X,Y pos of 4 corners*
0 Add a 4 corners polygon primitive as box body*
4,1,4,$2,$3,$4,$5,$6,$7,$8,$9,$2,$3,0*
0 Add four circle primitives for the rounded corners*
1,1,$1+$1,$2,$3*
1,1,$1+$1,$4,$5*
1,1,$1+$1,$6,$7*
1,1,$1+$1,$8,$9*
0 Add four rect primitives between the rounded corners*
20,1,$1+$1,$2,$3,$4,$5,0*
20,1,$1+$1,$4,$5,$6,$7,0*
20,1,$1+$1,$6,$7,$8,$9,0*
20,1,$1+$1,$8,$9,$2,$3,0*%
G04 Aperture macros list end*
%ADD10O,1.700000X1.700000*%
%ADD11R,1.700000X1.700000*%
%ADD12RoundRect,1.000000X-5.000000X-5.000000X5.000000X-5.000000X5.000000X5.000000X-5.000000X5.000000X0*%
%ADD13C,2.082800*%
%ADD14C,3.302000*%
G04 APERTURE END LIST*
D10*
%TO.C,J6*%
X29700000Y-52660000D03*
X29700000Y-50120000D03*
X29700000Y-47580000D03*
X29700000Y-45040000D03*
X29700000Y-42500000D03*
X29700000Y-39960000D03*
X29700000Y-37420000D03*
X29700000Y-34880000D03*
X29700000Y-32340000D03*
D11*
X29700000Y-29800000D03*
%TD*%
D12*
%TO.C,HS1*%
X14566750Y-55850000D03*
%TD*%
D13*
%TO.C,J2*%
X24760000Y-60740000D03*
X24760000Y-58200000D03*
X24760000Y-55660000D03*
X24760000Y-53120000D03*
X24760000Y-50580000D03*
X24760000Y-48040000D03*
X24760000Y-45500000D03*
X24760000Y-42960000D03*
X24760000Y-40420000D03*
X24760000Y-37880000D03*
X24760000Y-35340000D03*
X24760000Y-32800000D03*
X24760000Y-30260000D03*
X24760000Y-27720000D03*
X24760000Y-25180000D03*
X24760000Y-22640000D03*
X4440000Y-50580000D03*
X4440000Y-48040000D03*
X4440000Y-45500000D03*
X4440000Y-42960000D03*
X4440000Y-40420000D03*
X4440000Y-37880000D03*
X4440000Y-35340000D03*
X4440000Y-32800000D03*
X4440000Y-30260000D03*
X4440000Y-27720000D03*
X4440000Y-25180000D03*
X4440000Y-22640000D03*
%TD*%
D14*
%TO.C,ST1*%
X31100000Y-21250000D03*
%TD*%
%TO.C,ST2*%
X31100000Y-61250000D03*
%TD*%
M02*
