%TF.GenerationSoftware,KiCad,Pcbnew,8.0.5*%
%TF.CreationDate,2024-09-27T01:52:58-04:00*%
%TF.ProjectId,BREAD_Loaf,42524541-445f-44c6-9f61-662e6b696361,rev?*%
%TF.SameCoordinates,PX2fdfdc0PY36746e0*%
%TF.FileFunction,Copper,L1,Top*%
%TF.FilePolarity,Positive*%
%FSLAX46Y46*%
G04 Gerber Fmt 4.6, Leading zero omitted, Abs format (unit mm)*
G04 Created by KiCad (PCBNEW 8.0.5) date 2024-09-27 01:52:58*
%MOMM*%
%LPD*%
G01*
G04 APERTURE LIST*
G04 Aperture macros list*
%AMRoundRect*
0 Rectangle with rounded corners*
0 $1 Rounding radius*
0 $2 $3 $4 $5 $6 $7 $8 $9 X,Y pos of 4 corners*
0 Add a 4 corners polygon primitive as box body*
4,1,4,$2,$3,$4,$5,$6,$7,$8,$9,$2,$3,0*
0 Add four circle primitives for the rounded corners*
1,1,$1+$1,$2,$3*
1,1,$1+$1,$4,$5*
1,1,$1+$1,$6,$7*
1,1,$1+$1,$8,$9*
0 Add four rect primitives between the rounded corners*
20,1,$1+$1,$2,$3,$4,$5,0*
20,1,$1+$1,$4,$5,$6,$7,0*
20,1,$1+$1,$6,$7,$8,$9,0*
20,1,$1+$1,$8,$9,$2,$3,0*%
G04 Aperture macros list end*
%TA.AperFunction,SMDPad,CuDef*%
%ADD10R,1.651000X1.000000*%
%TD*%
%TA.AperFunction,ComponentPad*%
%ADD11C,1.879600*%
%TD*%
%TA.AperFunction,SMDPad,CuDef*%
%ADD12RoundRect,1.000000X-5.000000X-5.000000X5.000000X-5.000000X5.000000X5.000000X-5.000000X5.000000X0*%
%TD*%
%TA.AperFunction,ComponentPad*%
%ADD13R,1.700000X1.700000*%
%TD*%
%TA.AperFunction,ComponentPad*%
%ADD14O,1.700000X1.700000*%
%TD*%
%TA.AperFunction,ViaPad*%
%ADD15C,0.800000*%
%TD*%
%TA.AperFunction,ViaPad*%
%ADD16C,0.700000*%
%TD*%
%TA.AperFunction,Conductor*%
%ADD17C,0.500000*%
%TD*%
%TA.AperFunction,Conductor*%
%ADD18C,1.000000*%
%TD*%
%TA.AperFunction,Conductor*%
%ADD19C,2.000000*%
%TD*%
G04 APERTURE END LIST*
D10*
%TO.P,D1,1,VDD*%
%TO.N,+5V*%
X16400000Y-65350000D03*
%TO.P,D1,2,DOUT*%
%TO.N,unconnected-(D1-DOUT-Pad2)*%
X16400000Y-62150000D03*
%TO.P,D1,3,VSS*%
%TO.N,GND*%
X11246000Y-62150000D03*
%TO.P,D1,4,DIN*%
%TO.N,/LED_3.3V*%
X11246000Y-65350000D03*
%TD*%
D11*
%TO.P,J2,28,~{RESET}*%
%TO.N,unconnected-(J2-~{RESET}-Pad28)*%
X24760000Y-60740000D03*
%TO.P,J2,27,3.3V*%
%TO.N,+3.3V*%
X24760000Y-58200000D03*
%TO.P,J2,26,AREF/NC*%
%TO.N,unconnected-(J2-AREF{slash}NC-Pad26)*%
X24760000Y-55660000D03*
%TO.P,J2,25,GND*%
%TO.N,GND*%
X24760000Y-53120000D03*
%TO.P,J2,24,A0*%
%TO.N,/A0_3.3V*%
X24760000Y-50580000D03*
%TO.P,J2,23,A1*%
%TO.N,/A1_3.3V*%
X24760000Y-48040000D03*
%TO.P,J2,22,A2*%
%TO.N,/A2_3.3V*%
X24760000Y-45500000D03*
%TO.P,J2,21,A3*%
%TO.N,/A3_3.3V*%
X24760000Y-42960000D03*
%TO.P,J2,20,A4*%
%TO.N,/A4_3.3V*%
X24760000Y-40420000D03*
%TO.P,J2,19,A5*%
%TO.N,/A5_3.3V*%
X24760000Y-37880000D03*
%TO.P,J2,18,SCK*%
%TO.N,/SCK_3.3V*%
X24760000Y-35340000D03*
%TO.P,J2,17,PICO*%
%TO.N,/PICO_3.3V*%
X24760000Y-32800000D03*
%TO.P,J2,16,POCI*%
%TO.N,/POCI_3.3V*%
X24760000Y-30260000D03*
%TO.P,J2,15,RX*%
%TO.N,/RX_3.3V*%
X24760000Y-27720000D03*
%TO.P,J2,14,TX*%
%TO.N,/TX_3.3V*%
X24760000Y-25180000D03*
%TO.P,J2,13,FREEBIE*%
%TO.N,unconnected-(J2-FREEBIE-Pad13)*%
X24760000Y-22640000D03*
%TO.P,J2,12,V_BATT*%
%TO.N,unconnected-(J2-V_BATT-Pad12)*%
X4440000Y-50580000D03*
%TO.P,J2,11,EN*%
%TO.N,unconnected-(J2-EN-Pad11)*%
X4440000Y-48040000D03*
%TO.P,J2,10,V_USB*%
%TO.N,+5V*%
X4440000Y-45500000D03*
%TO.P,J2,9,GPIO0*%
%TO.N,/LED_3.3V*%
X4440000Y-42960000D03*
%TO.P,J2,8,GPIO1*%
%TO.N,/E_STOP_3.3V*%
X4440000Y-40420000D03*
%TO.P,J2,7,GPIO2*%
%TO.N,/INT_3.3V*%
X4440000Y-37880000D03*
%TO.P,J2,6,GPIO3*%
%TO.N,/SYNC_3.3V*%
X4440000Y-35340000D03*
%TO.P,J2,5,GPIO4*%
%TO.N,/08_3.3V*%
X4440000Y-32800000D03*
%TO.P,J2,4,GPIO5*%
%TO.N,/06_3.3V*%
X4440000Y-30260000D03*
%TO.P,J2,3,GPIO6*%
%TO.N,/04_3.3V*%
X4440000Y-27720000D03*
%TO.P,J2,2,SCL*%
%TO.N,/SCL_3.3V*%
X4440000Y-25180000D03*
%TO.P,J2,1,SDA*%
%TO.N,/SDA_3.3V*%
X4440000Y-22640000D03*
%TD*%
D12*
%TO.P,HS1,1*%
%TO.N,GND*%
X14350000Y-55250000D03*
%TD*%
D13*
%TO.P,J1,1,1*%
%TO.N,GND*%
X29700000Y-29800000D03*
D14*
%TO.P,J1,2,2*%
%TO.N,+12V*%
X29700000Y-32340000D03*
%TO.P,J1,3,3*%
%TO.N,/SCL_3.3V*%
X29700000Y-34880000D03*
%TO.P,J1,4,4*%
%TO.N,/SDA_3.3V*%
X29700000Y-37420000D03*
%TO.P,J1,5,5*%
%TO.N,GND*%
X29700000Y-39960000D03*
%TO.P,J1,6,6*%
%TO.N,/E_STOP_5V*%
X29700000Y-42500000D03*
%TO.P,J1,7,7*%
%TO.N,/INT_5V*%
X29700000Y-45040000D03*
%TO.P,J1,8,8*%
%TO.N,/SYNC_5V*%
X29700000Y-47580000D03*
%TO.P,J1,9,9*%
%TO.N,+12V*%
X29700000Y-50120000D03*
%TO.P,J1,10,10*%
%TO.N,GND*%
X29700000Y-52660000D03*
%TD*%
D15*
%TO.N,GND*%
X11246000Y-62150000D03*
%TO.N,+5V*%
X16400000Y-65350000D03*
%TO.N,+3.3V*%
X18000000Y-29045700D03*
X18000000Y-18700000D03*
X12575000Y-24200000D03*
%TO.N,GND*%
X9000000Y-58650000D03*
D16*
X15600000Y-58750000D03*
X15700000Y-55650000D03*
X14466750Y-55200000D03*
X16900000Y-52450000D03*
D15*
X15700000Y-60350000D03*
X19600000Y-50050000D03*
D16*
X14400000Y-56650000D03*
X14400000Y-57800000D03*
D15*
X9000000Y-55750000D03*
D16*
X13200000Y-58650000D03*
D15*
X19700000Y-53350000D03*
X9000000Y-50750000D03*
%TO.N,+12V*%
X18700000Y-63400000D03*
%TO.N,+5V*%
X16600000Y-37949500D03*
X16600000Y-45550000D03*
X16600000Y-41749500D03*
%TO.N,+3.3V*%
X13400000Y-45525000D03*
X13362500Y-37916921D03*
X13400000Y-41725000D03*
%TD*%
D17*
%TO.N,/LED_3.3V*%
X6450000Y-60554000D02*
X6450000Y-44970000D01*
X11246000Y-65350000D02*
X6450000Y-60554000D01*
X6450000Y-44970000D02*
X4440000Y-42960000D01*
D18*
%TO.N,+3.3V*%
X21500000Y-49550000D02*
X21500000Y-54890000D01*
X19475000Y-47525000D02*
X21500000Y-49550000D01*
X21500000Y-54890000D02*
X24820000Y-58210000D01*
X13400000Y-45525000D02*
X15400000Y-47525000D01*
X15400000Y-47525000D02*
X19475000Y-47525000D01*
X13341921Y-37916921D02*
X12600000Y-37175000D01*
X12600000Y-37175000D02*
X12600000Y-35650000D01*
X13362500Y-37916921D02*
X13341921Y-37916921D01*
X17995700Y-29050000D02*
X12900000Y-29050000D01*
X18000000Y-29045700D02*
X17995700Y-29050000D01*
X18000000Y-19000000D02*
X12600000Y-24400000D01*
X18000000Y-18700000D02*
X18000000Y-19000000D01*
X12600000Y-24400000D02*
X12600000Y-24750000D01*
%TO.N,+5V*%
X16600000Y-41749500D02*
X16600000Y-45550000D01*
%TO.N,+3.3V*%
X12600000Y-35650000D02*
X12600000Y-28750000D01*
X12600000Y-28750000D02*
X12600000Y-24750000D01*
X12600000Y-24750000D02*
X12600000Y-24250000D01*
%TO.N,+12V*%
X29700000Y-50120000D02*
X29680000Y-50120000D01*
X26959800Y-52840200D02*
X26959800Y-61636335D01*
X26959800Y-61636335D02*
X25196135Y-63400000D01*
D19*
X30059138Y-32340000D02*
X31750000Y-34030862D01*
X31750000Y-34030862D02*
X31750000Y-48429138D01*
D18*
X29680000Y-50120000D02*
X26959800Y-52840200D01*
D19*
X29700000Y-32340000D02*
X30059138Y-32340000D01*
D18*
X25196135Y-63400000D02*
X18700000Y-63400000D01*
D19*
X30059138Y-50120000D02*
X29700000Y-50120000D01*
X31750000Y-48429138D02*
X30059138Y-50120000D01*
D18*
%TO.N,+3.3V*%
X13400000Y-41725000D02*
X13400000Y-45525000D01*
X13362500Y-37916921D02*
X13400000Y-37954421D01*
X13400000Y-37954421D02*
X13400000Y-41725000D01*
%TO.N,+5V*%
X16600000Y-37949500D02*
X16600000Y-41749500D01*
%TD*%
M02*
