%TF.GenerationSoftware,KiCad,Pcbnew,8.0.5*%
%TF.CreationDate,2024-09-27T01:52:58-04:00*%
%TF.ProjectId,BREAD_Loaf,42524541-445f-44c6-9f61-662e6b696361,rev?*%
%TF.SameCoordinates,PX2fdfdc0PY36746e0*%
%TF.FileFunction,Paste,Bot*%
%TF.FilePolarity,Positive*%
%FSLAX46Y46*%
G04 Gerber Fmt 4.6, Leading zero omitted, Abs format (unit mm)*
G04 Created by KiCad (PCBNEW 8.0.5) date 2024-09-27 01:52:58*
%MOMM*%
%LPD*%
G01*
G04 APERTURE LIST*
G04 Aperture macros list*
%AMRoundRect*
0 Rectangle with rounded corners*
0 $1 Rounding radius*
0 $2 $3 $4 $5 $6 $7 $8 $9 X,Y pos of 4 corners*
0 Add a 4 corners polygon primitive as box body*
4,1,4,$2,$3,$4,$5,$6,$7,$8,$9,$2,$3,0*
0 Add four circle primitives for the rounded corners*
1,1,$1+$1,$2,$3*
1,1,$1+$1,$4,$5*
1,1,$1+$1,$6,$7*
1,1,$1+$1,$8,$9*
0 Add four rect primitives between the rounded corners*
20,1,$1+$1,$2,$3,$4,$5,0*
20,1,$1+$1,$4,$5,$6,$7,0*
20,1,$1+$1,$6,$7,$8,$9,0*
20,1,$1+$1,$8,$9,$2,$3,0*%
G04 Aperture macros list end*
%ADD10RoundRect,0.100000X-0.225000X-0.100000X0.225000X-0.100000X0.225000X0.100000X-0.225000X0.100000X0*%
%ADD11RoundRect,0.200000X0.275000X-0.200000X0.275000X0.200000X-0.275000X0.200000X-0.275000X-0.200000X0*%
%ADD12RoundRect,0.200000X-0.275000X0.200000X-0.275000X-0.200000X0.275000X-0.200000X0.275000X0.200000X0*%
%ADD13RoundRect,0.200000X0.200000X0.275000X-0.200000X0.275000X-0.200000X-0.275000X0.200000X-0.275000X0*%
%ADD14RoundRect,0.150000X-0.587500X-0.150000X0.587500X-0.150000X0.587500X0.150000X-0.587500X0.150000X0*%
%ADD15RoundRect,0.250000X-0.325000X-0.650000X0.325000X-0.650000X0.325000X0.650000X-0.325000X0.650000X0*%
%ADD16RoundRect,0.250000X0.325000X0.650000X-0.325000X0.650000X-0.325000X-0.650000X0.325000X-0.650000X0*%
%ADD17RoundRect,0.150000X0.512500X0.150000X-0.512500X0.150000X-0.512500X-0.150000X0.512500X-0.150000X0*%
%ADD18RoundRect,0.250000X0.375000X1.075000X-0.375000X1.075000X-0.375000X-1.075000X0.375000X-1.075000X0*%
G04 APERTURE END LIST*
D10*
%TO.C,U2*%
X14300000Y-24550000D03*
X14300000Y-23900000D03*
X14300000Y-23250000D03*
X16200000Y-23250000D03*
X16200000Y-23900000D03*
X16200000Y-24550000D03*
%TD*%
D11*
%TO.C,R9*%
X18000000Y-29045700D03*
X18000000Y-27395700D03*
%TD*%
D12*
%TO.C,R8*%
X18000000Y-20350000D03*
X18000000Y-18700000D03*
%TD*%
D13*
%TO.C,R7*%
X12575000Y-24200000D03*
X10925000Y-24200000D03*
%TD*%
D12*
%TO.C,R5*%
X17800000Y-40900000D03*
X17800000Y-42550000D03*
%TD*%
%TO.C,R6*%
X17800000Y-37100000D03*
X17800000Y-38750000D03*
%TD*%
D14*
%TO.C,Q2*%
X13362500Y-42675000D03*
X13362500Y-40775000D03*
X15237500Y-41725000D03*
%TD*%
%TO.C,Q3*%
X13362500Y-38875000D03*
X13362500Y-36975000D03*
X15237500Y-37925000D03*
%TD*%
D12*
%TO.C,R2*%
X10800000Y-40900000D03*
X10800000Y-42550000D03*
%TD*%
%TO.C,R4*%
X17737500Y-44700000D03*
X17737500Y-46350000D03*
%TD*%
D15*
%TO.C,C2*%
X13025000Y-50400000D03*
X15975000Y-50400000D03*
%TD*%
D12*
%TO.C,R3*%
X10800000Y-37100000D03*
X10800000Y-38750000D03*
%TD*%
D16*
%TO.C,C3*%
X13275000Y-57200000D03*
X10325000Y-57200000D03*
%TD*%
D15*
%TO.C,C1*%
X15625000Y-57200000D03*
X18575000Y-57200000D03*
%TD*%
D12*
%TO.C,R1*%
X10737500Y-44700000D03*
X10737500Y-46350000D03*
%TD*%
D16*
%TO.C,C4*%
X13275000Y-60100000D03*
X10325000Y-60100000D03*
%TD*%
D17*
%TO.C,U1*%
X18037500Y-52950000D03*
X18037500Y-53900000D03*
X18037500Y-54850000D03*
X15762500Y-54850000D03*
X15762500Y-53900000D03*
X15762500Y-52950000D03*
%TD*%
D18*
%TO.C,L1*%
X13200000Y-53900000D03*
X10400000Y-53900000D03*
%TD*%
D14*
%TO.C,Q1*%
X13362500Y-46475000D03*
X13362500Y-44575000D03*
X15237500Y-45525000D03*
%TD*%
M02*
