M48
; DRILL file {KiCad 8.0.5} date 2024-09-28T18:41:14-0400
; FORMAT={-:-/ absolute / inch / decimal}
; #@! TF.CreationDate,2024-09-28T18:41:14-04:00
; #@! TF.GenerationSoftware,Kicad,Pcbnew,8.0.5
; #@! TF.FileFunction,Plated,1,2,PTH
FMAT,2
INCH
; #@! TA.AperFunction,Plated,PTH,ViaDrill
T1C0.0118
; #@! TA.AperFunction,Plated,PTH,ViaDrill
T2C0.0157
; #@! TA.AperFunction,Plated,PTH,ComponentDrill
T3C0.0394
; #@! TA.AperFunction,Plated,PTH,ComponentDrill
T4C0.0400
%
G90
G05
T1
X0.5197Y-2.3091
X0.5669Y-2.2303
X0.5669Y-2.2756
X0.5696Y-2.1732
X0.6142Y-2.313
X0.6181Y-2.1909
X0.6654Y-2.065
T2
X0.3543Y-1.998
X0.3543Y-2.1949
X0.3543Y-2.3091
X0.4951Y-0.9528
X0.5261Y-1.4928
X0.5276Y-1.6427
X0.5276Y-1.7923
X0.6181Y-2.376
X0.6448Y-2.5807
X0.6535Y-1.4941
X0.6535Y-1.6437
X0.6535Y-1.7933
X0.7087Y-0.7362
X0.7087Y-1.1435
X0.7323Y-2.4488
X0.7717Y-1.9705
X0.7756Y-2.1004
T3
X1.1693Y-1.1732
X1.1693Y-1.2732
X1.1693Y-1.3732
X1.1693Y-1.4732
X1.1693Y-1.5732
X1.1693Y-1.6732
X1.1693Y-1.7732
X1.1693Y-1.8732
X1.1693Y-1.9732
X1.1693Y-2.0732
T4
X0.1748Y-0.8913
X0.1748Y-0.9913
X0.1748Y-1.0913
X0.1748Y-1.1913
X0.1748Y-1.2913
X0.1748Y-1.3913
X0.1748Y-1.4913
X0.1748Y-1.5913
X0.1748Y-1.6913
X0.1748Y-1.7913
X0.1748Y-1.8913
X0.1748Y-1.9913
X0.9748Y-0.8913
X0.9748Y-0.9913
X0.9748Y-1.0913
X0.9748Y-1.1913
X0.9748Y-1.2913
X0.9748Y-1.3913
X0.9748Y-1.4913
X0.9748Y-1.5913
X0.9748Y-1.6913
X0.9748Y-1.7913
X0.9748Y-1.8913
X0.9748Y-1.9913
X0.9748Y-2.0913
X0.9748Y-2.1913
X0.9748Y-2.2913
X0.9748Y-2.3913
M30
