%TF.GenerationSoftware,KiCad,Pcbnew,8.0.5*%
%TF.CreationDate,2024-09-28T18:41:12-04:00*%
%TF.ProjectId,BREAD_Loaf,42524541-445f-44c6-9f61-662e6b696361,rev?*%
%TF.SameCoordinates,PX2fdfdc0PY36746e0*%
%TF.FileFunction,Copper,L2,Bot*%
%TF.FilePolarity,Positive*%
%FSLAX46Y46*%
G04 Gerber Fmt 4.6, Leading zero omitted, Abs format (unit mm)*
G04 Created by KiCad (PCBNEW 8.0.5) date 2024-09-28 18:41:12*
%MOMM*%
%LPD*%
G01*
G04 APERTURE LIST*
G04 Aperture macros list*
%AMRoundRect*
0 Rectangle with rounded corners*
0 $1 Rounding radius*
0 $2 $3 $4 $5 $6 $7 $8 $9 X,Y pos of 4 corners*
0 Add a 4 corners polygon primitive as box body*
4,1,4,$2,$3,$4,$5,$6,$7,$8,$9,$2,$3,0*
0 Add four circle primitives for the rounded corners*
1,1,$1+$1,$2,$3*
1,1,$1+$1,$4,$5*
1,1,$1+$1,$6,$7*
1,1,$1+$1,$8,$9*
0 Add four rect primitives between the rounded corners*
20,1,$1+$1,$2,$3,$4,$5,0*
20,1,$1+$1,$4,$5,$6,$7,0*
20,1,$1+$1,$6,$7,$8,$9,0*
20,1,$1+$1,$8,$9,$2,$3,0*%
G04 Aperture macros list end*
%TA.AperFunction,EtchedComponent*%
%ADD10C,0.000000*%
%TD*%
%TA.AperFunction,ComponentPad*%
%ADD11C,1.879600*%
%TD*%
%TA.AperFunction,SMDPad,CuDef*%
%ADD12RoundRect,0.200000X0.275000X-0.200000X0.275000X0.200000X-0.275000X0.200000X-0.275000X-0.200000X0*%
%TD*%
%TA.AperFunction,ComponentPad*%
%ADD13R,1.700000X1.700000*%
%TD*%
%TA.AperFunction,ComponentPad*%
%ADD14O,1.700000X1.700000*%
%TD*%
%TA.AperFunction,SMDPad,CuDef*%
%ADD15RoundRect,0.200000X-0.275000X0.200000X-0.275000X-0.200000X0.275000X-0.200000X0.275000X0.200000X0*%
%TD*%
%TA.AperFunction,SMDPad,CuDef*%
%ADD16RoundRect,0.200000X0.200000X0.275000X-0.200000X0.275000X-0.200000X-0.275000X0.200000X-0.275000X0*%
%TD*%
%TA.AperFunction,SMDPad,CuDef*%
%ADD17R,1.270000X0.660400*%
%TD*%
%TA.AperFunction,SMDPad,CuDef*%
%ADD18RoundRect,0.150000X-0.587500X-0.150000X0.587500X-0.150000X0.587500X0.150000X-0.587500X0.150000X0*%
%TD*%
%TA.AperFunction,SMDPad,CuDef*%
%ADD19RoundRect,0.250000X-0.325000X-0.650000X0.325000X-0.650000X0.325000X0.650000X-0.325000X0.650000X0*%
%TD*%
%TA.AperFunction,SMDPad,CuDef*%
%ADD20RoundRect,0.100000X-0.225000X-0.100000X0.225000X-0.100000X0.225000X0.100000X-0.225000X0.100000X0*%
%TD*%
%TA.AperFunction,SMDPad,CuDef*%
%ADD21RoundRect,0.250000X0.325000X0.650000X-0.325000X0.650000X-0.325000X-0.650000X0.325000X-0.650000X0*%
%TD*%
%TA.AperFunction,SMDPad,CuDef*%
%ADD22RoundRect,0.150000X0.512500X0.150000X-0.512500X0.150000X-0.512500X-0.150000X0.512500X-0.150000X0*%
%TD*%
%TA.AperFunction,SMDPad,CuDef*%
%ADD23RoundRect,0.250000X0.375000X1.075000X-0.375000X1.075000X-0.375000X-1.075000X0.375000X-1.075000X0*%
%TD*%
%TA.AperFunction,ViaPad*%
%ADD24C,0.800000*%
%TD*%
%TA.AperFunction,ViaPad*%
%ADD25C,0.700000*%
%TD*%
%TA.AperFunction,Conductor*%
%ADD26C,1.000000*%
%TD*%
%TA.AperFunction,Conductor*%
%ADD27C,0.500000*%
%TD*%
%TA.AperFunction,Conductor*%
%ADD28C,1.500000*%
%TD*%
G04 APERTURE END LIST*
D10*
%TA.AperFunction,EtchedComponent*%
%TO.C,JP2*%
G36*
X18150000Y-25600000D02*
G01*
X17850000Y-25600000D01*
X17850000Y-25100000D01*
X18150000Y-25100000D01*
X18150000Y-25600000D01*
G37*
%TD.AperFunction*%
%TA.AperFunction,EtchedComponent*%
%TO.C,JP1*%
G36*
X18150000Y-22654300D02*
G01*
X17850000Y-22654300D01*
X17850000Y-22154300D01*
X18150000Y-22154300D01*
X18150000Y-22654300D01*
G37*
%TD.AperFunction*%
%TD*%
D11*
%TO.P,J2,1,SDA*%
%TO.N,/SDA_3.3V*%
X4440000Y-22640000D03*
%TO.P,J2,2,SCL*%
%TO.N,/SCL_3.3V*%
X4440000Y-25180000D03*
%TO.P,J2,3,GPIO6*%
%TO.N,/04_3.3V*%
X4440000Y-27720000D03*
%TO.P,J2,4,GPIO5*%
%TO.N,/06_3.3V*%
X4440000Y-30260000D03*
%TO.P,J2,5,GPIO4*%
%TO.N,/08_3.3V*%
X4440000Y-32800000D03*
%TO.P,J2,6,GPIO3*%
%TO.N,/SYNC_3.3V*%
X4440000Y-35340000D03*
%TO.P,J2,7,GPIO2*%
%TO.N,/INT_3.3V*%
X4440000Y-37880000D03*
%TO.P,J2,8,GPIO1*%
%TO.N,/E_STOP_3.3V*%
X4440000Y-40420000D03*
%TO.P,J2,9,GPIO0*%
%TO.N,/LED_3.3V*%
X4440000Y-42960000D03*
%TO.P,J2,10,V_USB*%
%TO.N,+5V*%
X4440000Y-45500000D03*
%TO.P,J2,11,EN*%
%TO.N,unconnected-(J2-EN-Pad11)*%
X4440000Y-48040000D03*
%TO.P,J2,12,V_BATT*%
%TO.N,unconnected-(J2-V_BATT-Pad12)*%
X4440000Y-50580000D03*
%TO.P,J2,13,FREEBIE*%
%TO.N,unconnected-(J2-FREEBIE-Pad13)*%
X24760000Y-22640000D03*
%TO.P,J2,14,TX*%
%TO.N,/TX_3.3V*%
X24760000Y-25180000D03*
%TO.P,J2,15,RX*%
%TO.N,/RX_3.3V*%
X24760000Y-27720000D03*
%TO.P,J2,16,POCI*%
%TO.N,/POCI_3.3V*%
X24760000Y-30260000D03*
%TO.P,J2,17,PICO*%
%TO.N,/PICO_3.3V*%
X24760000Y-32800000D03*
%TO.P,J2,18,SCK*%
%TO.N,/SCK_3.3V*%
X24760000Y-35340000D03*
%TO.P,J2,19,A5*%
%TO.N,/A5_3.3V*%
X24760000Y-37880000D03*
%TO.P,J2,20,A4*%
%TO.N,/A4_3.3V*%
X24760000Y-40420000D03*
%TO.P,J2,21,A3*%
%TO.N,/A3_3.3V*%
X24760000Y-42960000D03*
%TO.P,J2,22,A2*%
%TO.N,/A2_3.3V*%
X24760000Y-45500000D03*
%TO.P,J2,23,A1*%
%TO.N,/A1_3.3V*%
X24760000Y-48040000D03*
%TO.P,J2,24,A0*%
%TO.N,/A0_3.3V*%
X24760000Y-50580000D03*
%TO.P,J2,25,GND*%
%TO.N,GND*%
X24760000Y-53120000D03*
%TO.P,J2,26,AREF/NC*%
%TO.N,unconnected-(J2-AREF{slash}NC-Pad26)*%
X24760000Y-55660000D03*
%TO.P,J2,27,3.3V*%
%TO.N,+3.3V*%
X24760000Y-58200000D03*
%TO.P,J2,28,~{RESET}*%
%TO.N,unconnected-(J2-~{RESET}-Pad28)*%
X24760000Y-60740000D03*
%TD*%
D12*
%TO.P,R9,1*%
%TO.N,+3.3V*%
X18000000Y-29045700D03*
%TO.P,R9,2*%
%TO.N,Net-(JP2-A)*%
X18000000Y-27395700D03*
%TD*%
D13*
%TO.P,J1,1,1*%
%TO.N,GND*%
X29700000Y-29800000D03*
D14*
%TO.P,J1,2,2*%
%TO.N,+12V*%
X29700000Y-32340000D03*
%TO.P,J1,3,3*%
%TO.N,/SCL_3.3V*%
X29700000Y-34880000D03*
%TO.P,J1,4,4*%
%TO.N,/SDA_3.3V*%
X29700000Y-37420000D03*
%TO.P,J1,5,5*%
%TO.N,GND*%
X29700000Y-39960000D03*
%TO.P,J1,6,6*%
%TO.N,/E_STOP_5V*%
X29700000Y-42500000D03*
%TO.P,J1,7,7*%
%TO.N,/INT_5V*%
X29700000Y-45040000D03*
%TO.P,J1,8,8*%
%TO.N,/SYNC_5V*%
X29700000Y-47580000D03*
%TO.P,J1,9,9*%
%TO.N,+12V*%
X29700000Y-50120000D03*
%TO.P,J1,10,10*%
%TO.N,GND*%
X29700000Y-52660000D03*
%TD*%
D15*
%TO.P,R5,1*%
%TO.N,/INT_5V*%
X17800000Y-40900000D03*
%TO.P,R5,2*%
%TO.N,+5V*%
X17800000Y-42550000D03*
%TD*%
%TO.P,R6,1*%
%TO.N,/SYNC_5V*%
X17800000Y-37100000D03*
%TO.P,R6,2*%
%TO.N,+5V*%
X17800000Y-38750000D03*
%TD*%
D16*
%TO.P,R7,1*%
%TO.N,+3.3V*%
X12575000Y-24200000D03*
%TO.P,R7,2*%
%TO.N,Net-(U2-ENABLE)*%
X10925000Y-24200000D03*
%TD*%
D17*
%TO.P,JP2,1,A*%
%TO.N,Net-(JP2-A)*%
X18000000Y-25870700D03*
%TO.P,JP2,2,B*%
%TO.N,/SCL_3.3V*%
X18000000Y-24829300D03*
%TD*%
D18*
%TO.P,Q2,1,G*%
%TO.N,+3.3V*%
X13362500Y-42675000D03*
%TO.P,Q2,2,S*%
%TO.N,/INT_3.3V*%
X13362500Y-40775000D03*
%TO.P,Q2,3,D*%
%TO.N,/INT_5V*%
X15237500Y-41725000D03*
%TD*%
%TO.P,Q3,1,G*%
%TO.N,+3.3V*%
X13362500Y-38875000D03*
%TO.P,Q3,2,S*%
%TO.N,/SYNC_3.3V*%
X13362500Y-36975000D03*
%TO.P,Q3,3,D*%
%TO.N,/SYNC_5V*%
X15237500Y-37925000D03*
%TD*%
D15*
%TO.P,R2,1*%
%TO.N,/INT_3.3V*%
X10800000Y-40900000D03*
%TO.P,R2,2*%
%TO.N,+3.3V*%
X10800000Y-42550000D03*
%TD*%
%TO.P,R4,1*%
%TO.N,/E_STOP_5V*%
X17737500Y-44700000D03*
%TO.P,R4,2*%
%TO.N,+5V*%
X17737500Y-46350000D03*
%TD*%
D19*
%TO.P,C2,1*%
%TO.N,Net-(U1-SW)*%
X13025000Y-50400000D03*
%TO.P,C2,2*%
%TO.N,Net-(U1-BST)*%
X15975000Y-50400000D03*
%TD*%
D20*
%TO.P,U2,1,VCC*%
%TO.N,+3.3V*%
X14300000Y-24550000D03*
%TO.P,U2,2,GND*%
%TO.N,GND*%
X14300000Y-23900000D03*
%TO.P,U2,3,ENABLE*%
%TO.N,Net-(U2-ENABLE)*%
X14300000Y-23250000D03*
%TO.P,U2,4,BUS2*%
%TO.N,/SDA_3.3V*%
X16200000Y-23250000D03*
%TO.P,U2,5,GND*%
%TO.N,GND*%
X16200000Y-23900000D03*
%TO.P,U2,6,BUS1*%
%TO.N,/SCL_3.3V*%
X16200000Y-24550000D03*
%TD*%
D15*
%TO.P,R3,1*%
%TO.N,/SYNC_3.3V*%
X10800000Y-37100000D03*
%TO.P,R3,2*%
%TO.N,+3.3V*%
X10800000Y-38750000D03*
%TD*%
D21*
%TO.P,C3,1*%
%TO.N,GND*%
X13275000Y-57200000D03*
%TO.P,C3,2*%
%TO.N,+5V*%
X10325000Y-57200000D03*
%TD*%
D19*
%TO.P,C1,1*%
%TO.N,GND*%
X15625000Y-57200000D03*
%TO.P,C1,2*%
%TO.N,+12V*%
X18575000Y-57200000D03*
%TD*%
D15*
%TO.P,R1,1*%
%TO.N,/E_STOP_3.3V*%
X10737500Y-44700000D03*
%TO.P,R1,2*%
%TO.N,+3.3V*%
X10737500Y-46350000D03*
%TD*%
D21*
%TO.P,C4,1*%
%TO.N,GND*%
X13275000Y-60100000D03*
%TO.P,C4,2*%
%TO.N,+5V*%
X10325000Y-60100000D03*
%TD*%
D22*
%TO.P,U1,1,FB*%
%TO.N,+5V*%
X18037500Y-52950000D03*
%TO.P,U1,2,EN*%
%TO.N,+12V*%
X18037500Y-53900000D03*
%TO.P,U1,3,VIN*%
X18037500Y-54850000D03*
%TO.P,U1,4,GND*%
%TO.N,GND*%
X15762500Y-54850000D03*
%TO.P,U1,5,SW*%
%TO.N,Net-(U1-SW)*%
X15762500Y-53900000D03*
%TO.P,U1,6,BST*%
%TO.N,Net-(U1-BST)*%
X15762500Y-52950000D03*
%TD*%
D15*
%TO.P,R8,1*%
%TO.N,+3.3V*%
X18000000Y-18700000D03*
%TO.P,R8,2*%
%TO.N,Net-(JP1-A)*%
X18000000Y-20350000D03*
%TD*%
D17*
%TO.P,JP1,1,A*%
%TO.N,Net-(JP1-A)*%
X18000000Y-21883600D03*
%TO.P,JP1,2,B*%
%TO.N,/SDA_3.3V*%
X18000000Y-22925000D03*
%TD*%
D23*
%TO.P,L1,1*%
%TO.N,Net-(U1-SW)*%
X13200000Y-53900000D03*
%TO.P,L1,2*%
%TO.N,+5V*%
X10400000Y-53900000D03*
%TD*%
D18*
%TO.P,Q1,1,G*%
%TO.N,+3.3V*%
X13362500Y-46475000D03*
%TO.P,Q1,2,S*%
%TO.N,/E_STOP_3.3V*%
X13362500Y-44575000D03*
%TO.P,Q1,3,D*%
%TO.N,/E_STOP_5V*%
X15237500Y-45525000D03*
%TD*%
D24*
%TO.N,GND*%
X9000000Y-58650000D03*
D25*
X15600000Y-58750000D03*
X15700000Y-55650000D03*
X14466750Y-55200000D03*
X16900000Y-52450000D03*
D24*
X15700000Y-60350000D03*
X19600000Y-50050000D03*
D25*
X14400000Y-56650000D03*
X14400000Y-57800000D03*
D24*
X9000000Y-55750000D03*
D25*
X13200000Y-58650000D03*
D24*
X19700000Y-53350000D03*
X9000000Y-50750000D03*
%TO.N,+12V*%
X18600000Y-62200000D03*
%TO.N,+5V*%
X16600000Y-37949500D03*
X16600000Y-45550000D03*
X16377000Y-65550000D03*
X16600000Y-41749500D03*
%TO.N,+3.3V*%
X13400000Y-45525000D03*
X12575000Y-24200000D03*
X13362500Y-37916921D03*
X18000000Y-29045700D03*
X18000000Y-18700000D03*
X13400000Y-41725000D03*
%TD*%
D26*
%TO.N,+12V*%
X18600000Y-57225000D02*
X18575000Y-57200000D01*
X18600000Y-62200000D02*
X18600000Y-57225000D01*
%TO.N,+5V*%
X15775000Y-65550000D02*
X10325000Y-60100000D01*
X16377000Y-65550000D02*
X15775000Y-65550000D01*
%TO.N,+12V*%
X18575000Y-57200000D02*
X18575000Y-55387500D01*
X18575000Y-55387500D02*
X18037500Y-54850000D01*
X18037500Y-54850000D02*
X18037500Y-53950000D01*
D27*
%TO.N,Net-(U1-BST)*%
X15762500Y-50612500D02*
X15975000Y-50400000D01*
X15762500Y-52950000D02*
X15762500Y-50612500D01*
D26*
%TO.N,Net-(U1-SW)*%
X13200000Y-50575000D02*
X13025000Y-50400000D01*
X13200000Y-53900000D02*
X14900000Y-53900000D01*
X13200000Y-53900000D02*
X13200000Y-50575000D01*
D27*
%TO.N,+5V*%
X17737500Y-46350000D02*
X17737500Y-47940184D01*
X16899390Y-48600000D02*
X12200000Y-48600000D01*
D28*
X5829077Y-45510000D02*
X10400000Y-50080923D01*
D27*
X18037500Y-52950000D02*
X18037500Y-49738110D01*
X17737500Y-47940184D02*
X17637500Y-48040184D01*
D28*
X10399390Y-60025610D02*
X10325000Y-60100000D01*
X4500000Y-45510000D02*
X5829077Y-45510000D01*
X10400000Y-53900000D02*
X10399390Y-53900610D01*
D27*
X16600000Y-45550000D02*
X16600000Y-45752684D01*
X16600000Y-45550000D02*
X17400000Y-46350000D01*
X17637500Y-48040184D02*
X17077684Y-48600000D01*
X17400000Y-46350000D02*
X17737500Y-46350000D01*
X17400500Y-38750000D02*
X17800000Y-38750000D01*
X16600000Y-37949500D02*
X17400500Y-38750000D01*
X17400500Y-42550000D02*
X17800000Y-42550000D01*
D28*
X10399390Y-53900610D02*
X10399390Y-57125610D01*
D27*
X12200000Y-48600000D02*
X10400000Y-50400000D01*
D28*
X10399390Y-57274390D02*
X10399390Y-60025610D01*
D27*
X10400000Y-50400000D02*
X10400000Y-53900000D01*
D28*
X10400000Y-50080923D02*
X10400000Y-53900000D01*
D27*
X16600000Y-41749500D02*
X17400500Y-42550000D01*
X18037500Y-49738110D02*
X16899390Y-48600000D01*
X17077684Y-48600000D02*
X16899390Y-48600000D01*
%TO.N,/E_STOP_5V*%
X32500000Y-45300000D02*
X32500000Y-55589950D01*
X19262500Y-44700000D02*
X17737500Y-44700000D01*
X21800000Y-47237500D02*
X19262500Y-44700000D01*
X21800000Y-62000000D02*
X21800000Y-47237500D01*
X16062500Y-44700000D02*
X17737500Y-44700000D01*
X27900000Y-62000000D02*
X26100000Y-63800000D01*
X15237500Y-45525000D02*
X16062500Y-44700000D01*
X32500000Y-55589950D02*
X27900000Y-60189950D01*
X23600000Y-63800000D02*
X21800000Y-62000000D01*
X27900000Y-60189950D02*
X27900000Y-62000000D01*
X29700000Y-42500000D02*
X32500000Y-45300000D01*
X26100000Y-63800000D02*
X23600000Y-63800000D01*
%TO.N,/INT_5V*%
X23889950Y-63100000D02*
X22500000Y-61710050D01*
X22500000Y-61710050D02*
X22500000Y-43400000D01*
X22500000Y-43400000D02*
X20000000Y-40900000D01*
X16025000Y-40900000D02*
X17800000Y-40900000D01*
X20000000Y-40900000D02*
X17800000Y-40900000D01*
X31800000Y-55300000D02*
X27200000Y-59900001D01*
X25810050Y-63100000D02*
X23889950Y-63100000D01*
X15237500Y-41687500D02*
X16025000Y-40900000D01*
X29700000Y-45040000D02*
X31800000Y-47140000D01*
X27200000Y-59900001D02*
X27200000Y-61710050D01*
X27200000Y-61710050D02*
X25810050Y-63100000D01*
X31800000Y-47140000D02*
X31800000Y-55300000D01*
%TO.N,/SYNC_5V*%
X29700000Y-47580000D02*
X31100000Y-48980000D01*
X23200000Y-61420100D02*
X23200000Y-41500000D01*
X16025000Y-37100000D02*
X17800000Y-37100000D01*
X26500000Y-59610052D02*
X26500000Y-61420100D01*
X26500000Y-61420100D02*
X25520100Y-62400000D01*
X31100000Y-48980000D02*
X31100000Y-55010050D01*
X24179900Y-62400000D02*
X23200000Y-61420100D01*
X23200000Y-41500000D02*
X18800000Y-37100000D01*
X31100000Y-55010050D02*
X26500000Y-59610052D01*
X18800000Y-37100000D02*
X17800000Y-37100000D01*
X15237500Y-37887500D02*
X16025000Y-37100000D01*
X25520100Y-62400000D02*
X24179900Y-62400000D01*
%TO.N,/SDA_3.3V*%
X34100000Y-27700000D02*
X34100000Y-33050000D01*
X4440000Y-22640000D02*
X4630000Y-22450000D01*
X29730000Y-37420000D02*
X29700000Y-37420000D01*
X22950000Y-19550000D02*
X25950000Y-19550000D01*
X34100000Y-33050000D02*
X29730000Y-37420000D01*
X16200000Y-23250000D02*
X19250000Y-23250000D01*
X19250000Y-23250000D02*
X22950000Y-19550000D01*
X4630000Y-22450000D02*
X15400000Y-22450000D01*
X25950000Y-19550000D02*
X34100000Y-27700000D01*
X15400000Y-22450000D02*
X16200000Y-23250000D01*
%TO.N,/SCL_3.3V*%
X16300000Y-24650000D02*
X16200000Y-24550000D01*
X25400000Y-20850000D02*
X32750000Y-28200000D01*
X15450000Y-25300000D02*
X16200000Y-24550000D01*
X32750000Y-28200000D02*
X32750000Y-31830000D01*
X4560000Y-25300000D02*
X15450000Y-25300000D01*
X16200000Y-24550000D02*
X19850000Y-24550000D01*
X32750000Y-31830000D02*
X29700000Y-34880000D01*
X4440000Y-25180000D02*
X4560000Y-25300000D01*
X23550000Y-20850000D02*
X25400000Y-20850000D01*
X19850000Y-24550000D02*
X23550000Y-20850000D01*
%TO.N,/SYNC_3.3V*%
X6250000Y-37100000D02*
X4500000Y-35350000D01*
X10925000Y-36975000D02*
X10800000Y-37100000D01*
X13362500Y-36975000D02*
X10925000Y-36975000D01*
X10800000Y-37100000D02*
X6250000Y-37100000D01*
%TO.N,/INT_3.3V*%
X4500000Y-37890000D02*
X7510000Y-40900000D01*
X13362500Y-40775000D02*
X10925000Y-40775000D01*
X7510000Y-40900000D02*
X10800000Y-40900000D01*
%TO.N,/E_STOP_3.3V*%
X10862500Y-44575000D02*
X10737500Y-44700000D01*
X10737500Y-44700000D02*
X8770000Y-44700000D01*
X8770000Y-44700000D02*
X4500000Y-40430000D01*
X13362500Y-44575000D02*
X10862500Y-44575000D01*
%TO.N,+3.3V*%
X13362500Y-42675000D02*
X13362500Y-41762500D01*
X10925000Y-42675000D02*
X13362500Y-42675000D01*
X10800000Y-42550000D02*
X10925000Y-42675000D01*
X13362500Y-37916921D02*
X13362500Y-38875000D01*
X13362500Y-46475000D02*
X13362500Y-45562500D01*
X13312500Y-46525000D02*
X13362500Y-46475000D01*
X10800000Y-38750000D02*
X10875000Y-38825000D01*
X24820000Y-58210000D02*
X24890000Y-58210000D01*
X12575000Y-24200000D02*
X12925000Y-24550000D01*
X12925000Y-24550000D02*
X14300000Y-24550000D01*
X10875000Y-38825000D02*
X13312500Y-38825000D01*
X10912500Y-46525000D02*
X13312500Y-46525000D01*
X10737500Y-46350000D02*
X10912500Y-46525000D01*
%TO.N,Net-(JP1-A)*%
X18000000Y-20350000D02*
X18000000Y-21883600D01*
%TO.N,Net-(JP2-A)*%
X18000000Y-27395700D02*
X18000000Y-25870700D01*
%TO.N,Net-(U2-ENABLE)*%
X11875000Y-23250000D02*
X14300000Y-23250000D01*
X10925000Y-24200000D02*
X11875000Y-23250000D01*
%TD*%
%TA.AperFunction,Conductor*%
%TO.N,GND*%
G36*
X38535648Y-15964352D02*
G01*
X38550000Y-15999000D01*
X38550000Y-66651000D01*
X38535648Y-66685648D01*
X38501000Y-66700000D01*
X5384766Y-66700000D01*
X5377080Y-66699393D01*
X5292769Y-66686002D01*
X5287564Y-66684883D01*
X4961830Y-66596059D01*
X4956777Y-66594381D01*
X4642613Y-66470743D01*
X4637780Y-66468531D01*
X4338881Y-66311533D01*
X4334309Y-66308805D01*
X4129207Y-66170776D01*
X4054196Y-66120295D01*
X4049958Y-66117094D01*
X3791968Y-65899317D01*
X3788092Y-65895667D01*
X3555248Y-65651176D01*
X3551791Y-65647127D01*
X3530305Y-65618998D01*
X3346844Y-65378811D01*
X3343863Y-65374433D01*
X3169244Y-65085472D01*
X3166742Y-65080773D01*
X3024504Y-64774566D01*
X3022527Y-64769622D01*
X2914357Y-64449802D01*
X2912928Y-64444673D01*
X2851154Y-64165054D01*
X2850000Y-64154484D01*
X2850000Y-50580000D01*
X3294815Y-50580000D01*
X3314313Y-50790423D01*
X3314314Y-50790429D01*
X3372146Y-50993687D01*
X3372149Y-50993694D01*
X3466342Y-51182859D01*
X3466345Y-51182863D01*
X3593695Y-51351503D01*
X3593698Y-51351506D01*
X3749867Y-51493873D01*
X3749868Y-51493874D01*
X3749872Y-51493877D01*
X3929547Y-51605128D01*
X3929550Y-51605129D01*
X4126599Y-51681466D01*
X4126600Y-51681466D01*
X4126605Y-51681468D01*
X4334336Y-51720300D01*
X4334338Y-51720300D01*
X4545662Y-51720300D01*
X4545664Y-51720300D01*
X4753395Y-51681468D01*
X4950453Y-51605128D01*
X5130128Y-51493877D01*
X5286302Y-51351506D01*
X5413656Y-51182862D01*
X5507853Y-50993689D01*
X5565686Y-50790427D01*
X5585185Y-50580000D01*
X5565686Y-50369573D01*
X5507853Y-50166311D01*
X5413656Y-49977138D01*
X5286302Y-49808494D01*
X5286301Y-49808493D01*
X5130132Y-49666126D01*
X5130129Y-49666124D01*
X5130128Y-49666123D01*
X4950453Y-49554872D01*
X4950450Y-49554871D01*
X4950449Y-49554870D01*
X4753400Y-49478533D01*
X4753395Y-49478532D01*
X4545664Y-49439700D01*
X4334336Y-49439700D01*
X4217755Y-49461493D01*
X4126599Y-49478533D01*
X3929550Y-49554870D01*
X3749867Y-49666126D01*
X3593698Y-49808493D01*
X3593695Y-49808496D01*
X3466345Y-49977136D01*
X3466342Y-49977140D01*
X3372149Y-50166305D01*
X3372146Y-50166312D01*
X3314314Y-50369570D01*
X3314313Y-50369576D01*
X3294815Y-50580000D01*
X2850000Y-50580000D01*
X2850000Y-48040000D01*
X3294815Y-48040000D01*
X3314313Y-48250423D01*
X3314314Y-48250429D01*
X3372146Y-48453687D01*
X3372149Y-48453694D01*
X3466342Y-48642859D01*
X3466345Y-48642863D01*
X3593695Y-48811503D01*
X3593698Y-48811506D01*
X3749867Y-48953873D01*
X3749868Y-48953874D01*
X3749872Y-48953877D01*
X3929547Y-49065128D01*
X3929550Y-49065129D01*
X4126599Y-49141466D01*
X4126600Y-49141466D01*
X4126605Y-49141468D01*
X4334336Y-49180300D01*
X4334338Y-49180300D01*
X4545662Y-49180300D01*
X4545664Y-49180300D01*
X4753395Y-49141468D01*
X4950453Y-49065128D01*
X5130128Y-48953877D01*
X5286302Y-48811506D01*
X5413656Y-48642862D01*
X5507853Y-48453689D01*
X5565686Y-48250427D01*
X5585185Y-48040000D01*
X5565686Y-47829573D01*
X5507853Y-47626311D01*
X5413656Y-47437138D01*
X5286302Y-47268494D01*
X5286301Y-47268493D01*
X5130132Y-47126126D01*
X5130129Y-47126124D01*
X5130128Y-47126123D01*
X4950453Y-47014872D01*
X4950450Y-47014871D01*
X4950449Y-47014870D01*
X4753400Y-46938533D01*
X4737956Y-46935646D01*
X4545664Y-46899700D01*
X4334336Y-46899700D01*
X4199246Y-46924953D01*
X4126599Y-46938533D01*
X3929550Y-47014870D01*
X3749867Y-47126126D01*
X3593698Y-47268493D01*
X3593695Y-47268496D01*
X3466345Y-47437136D01*
X3466342Y-47437140D01*
X3372149Y-47626305D01*
X3372146Y-47626312D01*
X3314314Y-47829570D01*
X3314313Y-47829576D01*
X3294815Y-48040000D01*
X2850000Y-48040000D01*
X2850000Y-45500000D01*
X3294815Y-45500000D01*
X3314313Y-45710423D01*
X3314314Y-45710429D01*
X3372146Y-45913687D01*
X3372149Y-45913694D01*
X3466342Y-46102859D01*
X3466345Y-46102863D01*
X3593695Y-46271503D01*
X3593698Y-46271506D01*
X3749867Y-46413873D01*
X3749868Y-46413874D01*
X3749872Y-46413877D01*
X3929547Y-46525128D01*
X3929550Y-46525129D01*
X4126599Y-46601466D01*
X4126600Y-46601466D01*
X4126605Y-46601468D01*
X4334336Y-46640300D01*
X4334338Y-46640300D01*
X4545662Y-46640300D01*
X4545664Y-46640300D01*
X4753395Y-46601468D01*
X4950453Y-46525128D01*
X5042977Y-46467838D01*
X5068772Y-46460500D01*
X5415071Y-46460500D01*
X5449719Y-46474852D01*
X9435148Y-50460281D01*
X9449500Y-50494929D01*
X9449500Y-53799093D01*
X9448958Y-53804568D01*
X9449128Y-53804585D01*
X9448890Y-53806994D01*
X9448890Y-59721593D01*
X9445160Y-59740344D01*
X9411027Y-59822748D01*
X9411024Y-59822759D01*
X9374500Y-60006377D01*
X9374500Y-60193622D01*
X9411024Y-60377240D01*
X9411027Y-60377251D01*
X9474122Y-60529576D01*
X9482677Y-60550230D01*
X9541242Y-60637879D01*
X9549500Y-60665100D01*
X9549500Y-60804275D01*
X9552353Y-60834698D01*
X9552353Y-60834699D01*
X9597204Y-60962876D01*
X9597208Y-60962885D01*
X9677849Y-61072150D01*
X9787114Y-61152791D01*
X9787117Y-61152792D01*
X9787118Y-61152793D01*
X9787120Y-61152793D01*
X9787123Y-61152795D01*
X9913878Y-61197148D01*
X9915301Y-61197646D01*
X9945734Y-61200500D01*
X10414547Y-61200500D01*
X10449195Y-61214852D01*
X15328457Y-66094114D01*
X15443189Y-66170775D01*
X15570672Y-66223580D01*
X15706006Y-66250500D01*
X16445993Y-66250500D01*
X16581328Y-66223580D01*
X16708811Y-66170775D01*
X16823542Y-66094114D01*
X16921114Y-65996542D01*
X16997775Y-65881811D01*
X17050580Y-65754328D01*
X17077500Y-65618993D01*
X17077500Y-65481007D01*
X17050580Y-65345672D01*
X16997775Y-65218189D01*
X16951613Y-65149102D01*
X16921116Y-65103460D01*
X16823539Y-65005883D01*
X16755074Y-64960137D01*
X16708811Y-64929225D01*
X16708808Y-64929223D01*
X16708807Y-64929223D01*
X16581329Y-64876420D01*
X16581318Y-64876417D01*
X16445998Y-64849500D01*
X16445993Y-64849500D01*
X16085453Y-64849500D01*
X16050805Y-64835148D01*
X12019848Y-60804191D01*
X12500001Y-60804191D01*
X12500002Y-60804215D01*
X12502850Y-60834602D01*
X12502851Y-60834608D01*
X12547651Y-60962640D01*
X12547655Y-60962648D01*
X12628207Y-61071792D01*
X12737351Y-61152344D01*
X12737359Y-61152348D01*
X12865395Y-61197149D01*
X12895785Y-61199999D01*
X13024999Y-61199999D01*
X13525000Y-61199999D01*
X13654191Y-61199999D01*
X13654215Y-61199997D01*
X13684602Y-61197149D01*
X13684608Y-61197148D01*
X13812640Y-61152348D01*
X13812648Y-61152344D01*
X13921792Y-61071792D01*
X14002344Y-60962648D01*
X14002348Y-60962640D01*
X14047149Y-60834605D01*
X14047149Y-60834603D01*
X14049998Y-60804214D01*
X14050000Y-60804193D01*
X14050000Y-60350000D01*
X13525000Y-60350000D01*
X13525000Y-61199999D01*
X13024999Y-61199999D01*
X13025000Y-61199998D01*
X13025000Y-60350000D01*
X12500001Y-60350000D01*
X12500001Y-60804191D01*
X12019848Y-60804191D01*
X11364242Y-60148585D01*
X11349890Y-60113937D01*
X11349890Y-59395806D01*
X12500000Y-59395806D01*
X12500000Y-59850000D01*
X13025000Y-59850000D01*
X13525000Y-59850000D01*
X14049999Y-59850000D01*
X14049999Y-59395808D01*
X14049997Y-59395784D01*
X14047149Y-59365397D01*
X14047148Y-59365391D01*
X14002348Y-59237359D01*
X14002344Y-59237351D01*
X13921792Y-59128207D01*
X13812648Y-59047655D01*
X13812640Y-59047651D01*
X13684604Y-59002850D01*
X13654214Y-59000001D01*
X13654193Y-59000000D01*
X13525000Y-59000000D01*
X13525000Y-59850000D01*
X13025000Y-59850000D01*
X13025000Y-59000000D01*
X12895808Y-59000000D01*
X12895784Y-59000002D01*
X12865397Y-59002850D01*
X12865391Y-59002851D01*
X12737359Y-59047651D01*
X12737351Y-59047655D01*
X12628207Y-59128207D01*
X12547655Y-59237351D01*
X12547651Y-59237359D01*
X12502850Y-59365394D01*
X12502850Y-59365396D01*
X12500001Y-59395785D01*
X12500000Y-59395806D01*
X11349890Y-59395806D01*
X11349890Y-57904191D01*
X12500001Y-57904191D01*
X12500002Y-57904215D01*
X12502850Y-57934602D01*
X12502851Y-57934608D01*
X12547651Y-58062640D01*
X12547655Y-58062648D01*
X12628207Y-58171792D01*
X12737351Y-58252344D01*
X12737359Y-58252348D01*
X12865395Y-58297149D01*
X12895785Y-58299999D01*
X13024999Y-58299999D01*
X13525000Y-58299999D01*
X13654191Y-58299999D01*
X13654215Y-58299997D01*
X13684602Y-58297149D01*
X13684608Y-58297148D01*
X13812640Y-58252348D01*
X13812648Y-58252344D01*
X13921792Y-58171792D01*
X14002344Y-58062648D01*
X14002348Y-58062640D01*
X14047149Y-57934605D01*
X14047149Y-57934603D01*
X14049998Y-57904214D01*
X14050000Y-57904193D01*
X14050000Y-57904191D01*
X14850001Y-57904191D01*
X14850002Y-57904215D01*
X14852850Y-57934602D01*
X14852851Y-57934608D01*
X14897651Y-58062640D01*
X14897655Y-58062648D01*
X14978207Y-58171792D01*
X15087351Y-58252344D01*
X15087359Y-58252348D01*
X15215395Y-58297149D01*
X15245785Y-58299999D01*
X15374999Y-58299999D01*
X15875000Y-58299999D01*
X16004191Y-58299999D01*
X16004215Y-58299997D01*
X16034602Y-58297149D01*
X16034608Y-58297148D01*
X16162640Y-58252348D01*
X16162648Y-58252344D01*
X16271792Y-58171792D01*
X16352344Y-58062648D01*
X16352348Y-58062640D01*
X16397149Y-57934605D01*
X16397149Y-57934603D01*
X16399998Y-57904214D01*
X16400000Y-57904193D01*
X16400000Y-57450000D01*
X15875000Y-57450000D01*
X15875000Y-58299999D01*
X15374999Y-58299999D01*
X15375000Y-58299998D01*
X15375000Y-57450000D01*
X14850001Y-57450000D01*
X14850001Y-57904191D01*
X14050000Y-57904191D01*
X14050000Y-57450000D01*
X13525000Y-57450000D01*
X13525000Y-58299999D01*
X13024999Y-58299999D01*
X13025000Y-58299998D01*
X13025000Y-57450000D01*
X12500001Y-57450000D01*
X12500001Y-57904191D01*
X11349890Y-57904191D01*
X11349890Y-56495806D01*
X12500000Y-56495806D01*
X12500000Y-56950000D01*
X13025000Y-56950000D01*
X13525000Y-56950000D01*
X14049999Y-56950000D01*
X14049999Y-56495808D01*
X14049999Y-56495806D01*
X14850000Y-56495806D01*
X14850000Y-56950000D01*
X15375000Y-56950000D01*
X15875000Y-56950000D01*
X16399999Y-56950000D01*
X16399999Y-56495808D01*
X16399997Y-56495784D01*
X16397149Y-56465397D01*
X16397148Y-56465391D01*
X16352348Y-56337359D01*
X16352344Y-56337351D01*
X16271792Y-56228207D01*
X16162648Y-56147655D01*
X16162640Y-56147651D01*
X16034604Y-56102850D01*
X16004214Y-56100001D01*
X16004193Y-56100000D01*
X15875000Y-56100000D01*
X15875000Y-56950000D01*
X15375000Y-56950000D01*
X15375000Y-56100000D01*
X15245808Y-56100000D01*
X15245784Y-56100002D01*
X15215397Y-56102850D01*
X15215391Y-56102851D01*
X15087359Y-56147651D01*
X15087351Y-56147655D01*
X14978207Y-56228207D01*
X14897655Y-56337351D01*
X14897651Y-56337359D01*
X14852850Y-56465394D01*
X14852850Y-56465396D01*
X14850001Y-56495785D01*
X14850000Y-56495806D01*
X14049999Y-56495806D01*
X14049997Y-56495784D01*
X14047149Y-56465397D01*
X14047148Y-56465391D01*
X14002348Y-56337359D01*
X14002344Y-56337351D01*
X13921792Y-56228207D01*
X13812648Y-56147655D01*
X13812640Y-56147651D01*
X13684604Y-56102850D01*
X13654214Y-56100001D01*
X13654193Y-56100000D01*
X13525000Y-56100000D01*
X13525000Y-56950000D01*
X13025000Y-56950000D01*
X13025000Y-56100000D01*
X12895808Y-56100000D01*
X12895784Y-56100002D01*
X12865397Y-56102850D01*
X12865391Y-56102851D01*
X12737359Y-56147651D01*
X12737351Y-56147655D01*
X12628207Y-56228207D01*
X12547655Y-56337351D01*
X12547651Y-56337359D01*
X12502850Y-56465394D01*
X12502850Y-56465396D01*
X12500001Y-56495785D01*
X12500000Y-56495806D01*
X11349890Y-56495806D01*
X11349890Y-54001509D01*
X11350430Y-53996029D01*
X11350264Y-53996013D01*
X11350500Y-53993617D01*
X11350500Y-50106899D01*
X11364852Y-50072251D01*
X11741379Y-49695724D01*
X12249500Y-49695724D01*
X12249500Y-51104275D01*
X12252353Y-51134698D01*
X12252353Y-51134699D01*
X12297204Y-51262876D01*
X12297208Y-51262885D01*
X12377847Y-51372148D01*
X12377850Y-51372150D01*
X12479598Y-51447243D01*
X12498953Y-51479363D01*
X12499500Y-51486667D01*
X12499500Y-52491265D01*
X12489925Y-52520362D01*
X12422208Y-52612114D01*
X12422204Y-52612123D01*
X12377353Y-52740300D01*
X12377353Y-52740301D01*
X12374500Y-52770724D01*
X12374500Y-55029275D01*
X12377353Y-55059698D01*
X12377353Y-55059699D01*
X12422204Y-55187876D01*
X12422208Y-55187885D01*
X12502849Y-55297150D01*
X12612114Y-55377791D01*
X12612117Y-55377792D01*
X12612118Y-55377793D01*
X12612120Y-55377793D01*
X12612123Y-55377795D01*
X12654677Y-55392685D01*
X12740301Y-55422646D01*
X12770734Y-55425500D01*
X12770744Y-55425500D01*
X13629256Y-55425500D01*
X13629266Y-55425500D01*
X13659699Y-55422646D01*
X13787882Y-55377793D01*
X13897150Y-55297150D01*
X13977793Y-55187882D01*
X14008544Y-55100000D01*
X14909730Y-55100000D01*
X14909912Y-55101248D01*
X14961213Y-55206186D01*
X14961215Y-55206190D01*
X15043809Y-55288784D01*
X15043813Y-55288786D01*
X15148751Y-55340087D01*
X15216779Y-55349999D01*
X15512499Y-55349999D01*
X16012500Y-55349999D01*
X16308221Y-55349999D01*
X16376248Y-55340088D01*
X16376249Y-55340088D01*
X16481186Y-55288787D01*
X16481190Y-55288784D01*
X16563784Y-55206190D01*
X16563786Y-55206186D01*
X16615087Y-55101248D01*
X16615270Y-55100000D01*
X16012500Y-55100000D01*
X16012500Y-55349999D01*
X15512499Y-55349999D01*
X15512500Y-55349998D01*
X15512500Y-55100000D01*
X14909730Y-55100000D01*
X14008544Y-55100000D01*
X14022646Y-55059699D01*
X14025500Y-55029266D01*
X14025500Y-54649500D01*
X14039852Y-54614852D01*
X14074500Y-54600500D01*
X14968992Y-54600500D01*
X14968993Y-54600500D01*
X14968993Y-54600499D01*
X14971387Y-54600264D01*
X14971408Y-54600483D01*
X14976332Y-54600000D01*
X16615269Y-54600000D01*
X16615087Y-54598751D01*
X16563786Y-54493813D01*
X16563784Y-54493809D01*
X16479976Y-54410001D01*
X16465624Y-54375353D01*
X16479976Y-54340705D01*
X16481483Y-54339198D01*
X16564198Y-54256483D01*
X16615573Y-54151393D01*
X16625500Y-54083260D01*
X16625500Y-53716740D01*
X16615573Y-53648607D01*
X16564198Y-53543517D01*
X16481483Y-53460802D01*
X16480329Y-53459648D01*
X16465977Y-53425000D01*
X16480329Y-53390352D01*
X16481483Y-53389198D01*
X16564198Y-53306483D01*
X16615573Y-53201393D01*
X16625500Y-53133260D01*
X16625500Y-52766740D01*
X16615573Y-52698607D01*
X16564198Y-52593517D01*
X16481483Y-52510802D01*
X16428938Y-52485114D01*
X16376396Y-52459428D01*
X16376394Y-52459427D01*
X16308262Y-52449500D01*
X16308260Y-52449500D01*
X16262000Y-52449500D01*
X16227352Y-52435148D01*
X16213000Y-52400500D01*
X16213000Y-51549500D01*
X16227352Y-51514852D01*
X16262000Y-51500500D01*
X16354256Y-51500500D01*
X16354266Y-51500500D01*
X16384699Y-51497646D01*
X16512882Y-51452793D01*
X16622150Y-51372150D01*
X16702793Y-51262882D01*
X16747646Y-51134699D01*
X16750500Y-51104266D01*
X16750500Y-49695734D01*
X16747646Y-49665301D01*
X16709005Y-49554872D01*
X16702795Y-49537123D01*
X16702791Y-49537114D01*
X16622150Y-49427849D01*
X16512885Y-49347208D01*
X16512876Y-49347204D01*
X16384698Y-49302353D01*
X16354275Y-49299500D01*
X16354266Y-49299500D01*
X15595734Y-49299500D01*
X15595724Y-49299500D01*
X15565301Y-49302353D01*
X15565300Y-49302353D01*
X15437123Y-49347204D01*
X15437114Y-49347208D01*
X15327849Y-49427849D01*
X15247208Y-49537114D01*
X15247204Y-49537123D01*
X15202353Y-49665300D01*
X15202353Y-49665301D01*
X15199500Y-49695724D01*
X15199500Y-51104275D01*
X15202353Y-51134697D01*
X15216660Y-51175583D01*
X15247207Y-51262882D01*
X15302425Y-51337700D01*
X15312000Y-51366796D01*
X15312000Y-52400500D01*
X15297648Y-52435148D01*
X15263000Y-52449500D01*
X15216738Y-52449500D01*
X15148605Y-52459427D01*
X15148603Y-52459428D01*
X15043519Y-52510801D01*
X15043515Y-52510803D01*
X14960803Y-52593515D01*
X14960801Y-52593519D01*
X14909428Y-52698603D01*
X14909427Y-52698605D01*
X14899500Y-52766738D01*
X14899500Y-53133263D01*
X14900982Y-53143436D01*
X14891775Y-53179791D01*
X14859558Y-53198988D01*
X14852494Y-53199500D01*
X14074500Y-53199500D01*
X14039852Y-53185148D01*
X14025500Y-53150500D01*
X14025500Y-52770743D01*
X14025499Y-52770724D01*
X14022646Y-52740301D01*
X14022646Y-52740300D01*
X13977795Y-52612123D01*
X13977791Y-52612114D01*
X13910075Y-52520362D01*
X13900500Y-52491265D01*
X13900500Y-50506007D01*
X13900499Y-50506001D01*
X13873582Y-50370682D01*
X13873581Y-50370681D01*
X13873580Y-50370672D01*
X13873125Y-50369573D01*
X13868643Y-50358753D01*
X13868642Y-50358752D01*
X13824429Y-50252011D01*
X13820775Y-50243189D01*
X13808757Y-50225202D01*
X13800500Y-50197980D01*
X13800500Y-49695743D01*
X13800499Y-49695724D01*
X13797646Y-49665301D01*
X13797646Y-49665300D01*
X13752795Y-49537123D01*
X13752791Y-49537114D01*
X13672150Y-49427849D01*
X13562885Y-49347208D01*
X13562876Y-49347204D01*
X13434698Y-49302353D01*
X13404275Y-49299500D01*
X13404266Y-49299500D01*
X12645734Y-49299500D01*
X12645724Y-49299500D01*
X12615301Y-49302353D01*
X12615300Y-49302353D01*
X12487123Y-49347204D01*
X12487114Y-49347208D01*
X12377849Y-49427849D01*
X12297208Y-49537114D01*
X12297204Y-49537123D01*
X12252353Y-49665300D01*
X12252353Y-49665301D01*
X12249500Y-49695724D01*
X11741379Y-49695724D01*
X12372251Y-49064852D01*
X12406899Y-49050500D01*
X16692491Y-49050500D01*
X16727139Y-49064852D01*
X17572648Y-49910361D01*
X17587000Y-49945009D01*
X17587000Y-52400500D01*
X17572648Y-52435148D01*
X17538000Y-52449500D01*
X17491738Y-52449500D01*
X17423605Y-52459427D01*
X17423603Y-52459428D01*
X17318519Y-52510801D01*
X17318515Y-52510803D01*
X17235803Y-52593515D01*
X17235801Y-52593519D01*
X17184428Y-52698603D01*
X17184427Y-52698605D01*
X17174500Y-52766738D01*
X17174500Y-53133261D01*
X17184077Y-53198988D01*
X17184427Y-53201393D01*
X17235802Y-53306483D01*
X17235803Y-53306484D01*
X17319671Y-53390352D01*
X17334023Y-53425000D01*
X17319671Y-53459648D01*
X17235803Y-53543515D01*
X17235801Y-53543519D01*
X17184428Y-53648603D01*
X17184427Y-53648605D01*
X17179648Y-53681410D01*
X17174500Y-53716740D01*
X17174500Y-54083260D01*
X17184427Y-54151393D01*
X17235802Y-54256483D01*
X17235803Y-54256484D01*
X17235804Y-54256485D01*
X17319670Y-54340352D01*
X17334022Y-54375000D01*
X17319670Y-54409648D01*
X17235804Y-54493514D01*
X17235801Y-54493519D01*
X17184428Y-54598603D01*
X17184427Y-54598605D01*
X17184154Y-54600483D01*
X17174500Y-54666740D01*
X17174500Y-55033260D01*
X17184427Y-55101393D01*
X17235802Y-55206483D01*
X17318517Y-55289198D01*
X17423607Y-55340573D01*
X17471884Y-55347606D01*
X17491738Y-55350500D01*
X17491740Y-55350500D01*
X17527047Y-55350500D01*
X17561695Y-55364852D01*
X17860148Y-55663305D01*
X17874500Y-55697953D01*
X17874500Y-56284013D01*
X17864925Y-56313110D01*
X17847208Y-56337115D01*
X17847204Y-56337123D01*
X17802353Y-56465300D01*
X17802353Y-56465301D01*
X17799500Y-56495724D01*
X17799500Y-57904275D01*
X17802353Y-57934697D01*
X17802354Y-57934699D01*
X17847207Y-58062882D01*
X17889925Y-58120763D01*
X17899500Y-58149859D01*
X17899500Y-62268998D01*
X17926417Y-62404318D01*
X17926420Y-62404329D01*
X17979223Y-62531807D01*
X17979225Y-62531811D01*
X18010137Y-62578074D01*
X18055883Y-62646539D01*
X18153460Y-62744116D01*
X18199102Y-62774613D01*
X18268189Y-62820775D01*
X18395672Y-62873580D01*
X18395678Y-62873581D01*
X18395681Y-62873582D01*
X18531001Y-62900499D01*
X18531007Y-62900500D01*
X18668993Y-62900500D01*
X18804328Y-62873580D01*
X18931811Y-62820775D01*
X19046542Y-62744114D01*
X19144114Y-62646542D01*
X19220775Y-62531811D01*
X19273580Y-62404328D01*
X19300500Y-62268993D01*
X19300500Y-58077760D01*
X19303250Y-58061576D01*
X19304034Y-58059334D01*
X19347646Y-57934699D01*
X19350500Y-57904266D01*
X19350500Y-56495734D01*
X19347646Y-56465301D01*
X19302877Y-56337359D01*
X19302795Y-56337123D01*
X19302791Y-56337115D01*
X19285075Y-56313110D01*
X19275500Y-56284013D01*
X19275500Y-55318507D01*
X19274471Y-55313336D01*
X19274471Y-55313335D01*
X19274470Y-55313334D01*
X19248580Y-55183172D01*
X19195775Y-55055689D01*
X19119114Y-54940957D01*
X18914852Y-54736695D01*
X18900500Y-54702047D01*
X18900500Y-54666738D01*
X18895857Y-54634872D01*
X18890573Y-54598607D01*
X18839198Y-54493517D01*
X18756483Y-54410802D01*
X18755329Y-54409648D01*
X18740977Y-54375000D01*
X18755329Y-54340352D01*
X18756483Y-54339198D01*
X18839198Y-54256483D01*
X18890573Y-54151393D01*
X18900500Y-54083260D01*
X18900500Y-53716740D01*
X18890573Y-53648607D01*
X18839198Y-53543517D01*
X18756483Y-53460802D01*
X18755329Y-53459648D01*
X18740977Y-53425000D01*
X18755329Y-53390352D01*
X18756483Y-53389198D01*
X18839198Y-53306483D01*
X18890573Y-53201393D01*
X18900500Y-53133260D01*
X18900500Y-52766740D01*
X18890573Y-52698607D01*
X18839198Y-52593517D01*
X18756483Y-52510802D01*
X18703938Y-52485114D01*
X18651396Y-52459428D01*
X18651394Y-52459427D01*
X18583262Y-52449500D01*
X18583260Y-52449500D01*
X18537000Y-52449500D01*
X18502352Y-52435148D01*
X18488000Y-52400500D01*
X18488000Y-49678798D01*
X18457299Y-49564225D01*
X18457296Y-49564218D01*
X18451901Y-49554873D01*
X18397994Y-49461502D01*
X18397991Y-49461499D01*
X18397990Y-49461496D01*
X17660288Y-48723794D01*
X17645936Y-48689146D01*
X17660288Y-48654498D01*
X17997989Y-48316798D01*
X18007473Y-48307314D01*
X18097989Y-48216798D01*
X18136843Y-48149500D01*
X18157299Y-48114070D01*
X18187999Y-47999496D01*
X18188000Y-47999496D01*
X18188000Y-46940096D01*
X18202352Y-46905448D01*
X18214750Y-46896439D01*
X18250842Y-46878050D01*
X18340550Y-46788342D01*
X18340554Y-46788335D01*
X18398144Y-46675309D01*
X18398144Y-46675307D01*
X18398146Y-46675304D01*
X18413000Y-46581519D01*
X18412999Y-46118482D01*
X18398146Y-46024696D01*
X18380154Y-45989385D01*
X18340554Y-45911664D01*
X18340549Y-45911657D01*
X18250842Y-45821950D01*
X18250835Y-45821945D01*
X18137808Y-45764355D01*
X18137805Y-45764354D01*
X18137804Y-45764354D01*
X18044019Y-45749500D01*
X18044017Y-45749500D01*
X17456900Y-45749500D01*
X17422252Y-45735148D01*
X17212680Y-45525576D01*
X17198747Y-45497324D01*
X17185044Y-45393239D01*
X17179381Y-45379568D01*
X17134850Y-45272059D01*
X17134850Y-45234557D01*
X17161368Y-45208038D01*
X17198871Y-45208038D01*
X17214768Y-45218660D01*
X17224157Y-45228049D01*
X17224164Y-45228054D01*
X17337191Y-45285644D01*
X17337192Y-45285644D01*
X17337196Y-45285646D01*
X17430981Y-45300500D01*
X18044018Y-45300499D01*
X18137804Y-45285646D01*
X18226039Y-45240688D01*
X18250835Y-45228054D01*
X18250837Y-45228052D01*
X18250842Y-45228050D01*
X18314040Y-45164852D01*
X18348688Y-45150500D01*
X19055601Y-45150500D01*
X19090249Y-45164852D01*
X21335148Y-47409751D01*
X21349500Y-47444399D01*
X21349500Y-62059309D01*
X21366670Y-62123387D01*
X21380200Y-62173884D01*
X21380202Y-62173890D01*
X21433138Y-62265576D01*
X21439511Y-62276614D01*
X23323386Y-64160489D01*
X23382696Y-64194731D01*
X23426114Y-64219799D01*
X23426116Y-64219799D01*
X23426117Y-64219800D01*
X23540687Y-64250499D01*
X23540688Y-64250500D01*
X23540691Y-64250500D01*
X26159311Y-64250500D01*
X26189430Y-64242428D01*
X26249673Y-64226286D01*
X26273887Y-64219799D01*
X26376614Y-64160489D01*
X26811734Y-63725369D01*
X33798500Y-63725369D01*
X33798500Y-63974631D01*
X33831035Y-64221760D01*
X33831036Y-64221764D01*
X33831037Y-64221771D01*
X33895546Y-64462522D01*
X33895549Y-64462529D01*
X33990937Y-64692816D01*
X33990939Y-64692819D01*
X34115566Y-64908681D01*
X34115576Y-64908696D01*
X34267300Y-65106426D01*
X34267311Y-65106438D01*
X34443561Y-65282688D01*
X34443573Y-65282699D01*
X34641303Y-65434423D01*
X34641312Y-65434429D01*
X34641316Y-65434432D01*
X34857184Y-65559063D01*
X35087471Y-65654451D01*
X35087474Y-65654451D01*
X35087477Y-65654453D01*
X35328228Y-65718962D01*
X35328229Y-65718962D01*
X35328240Y-65718965D01*
X35575369Y-65751500D01*
X35575373Y-65751500D01*
X35824627Y-65751500D01*
X35824631Y-65751500D01*
X36071760Y-65718965D01*
X36312529Y-65654451D01*
X36542816Y-65559063D01*
X36758684Y-65434432D01*
X36758696Y-65434423D01*
X36956426Y-65282699D01*
X36956428Y-65282696D01*
X36956436Y-65282691D01*
X37132691Y-65106436D01*
X37148778Y-65085472D01*
X37284423Y-64908696D01*
X37284424Y-64908693D01*
X37284432Y-64908684D01*
X37409063Y-64692816D01*
X37504451Y-64462529D01*
X37568965Y-64221760D01*
X37601500Y-63974631D01*
X37601500Y-63725369D01*
X37568965Y-63478240D01*
X37504451Y-63237471D01*
X37409063Y-63007184D01*
X37284432Y-62791316D01*
X37284429Y-62791312D01*
X37284423Y-62791303D01*
X37132699Y-62593573D01*
X37132688Y-62593561D01*
X36956438Y-62417311D01*
X36956426Y-62417300D01*
X36758696Y-62265576D01*
X36758681Y-62265566D01*
X36599887Y-62173887D01*
X36542816Y-62140937D01*
X36345749Y-62059309D01*
X36312532Y-62045550D01*
X36312522Y-62045546D01*
X36071771Y-61981037D01*
X36071764Y-61981036D01*
X36071760Y-61981035D01*
X35824631Y-61948500D01*
X35575369Y-61948500D01*
X35328240Y-61981035D01*
X35328236Y-61981035D01*
X35328228Y-61981037D01*
X35087477Y-62045546D01*
X35087467Y-62045550D01*
X34936202Y-62108206D01*
X34857184Y-62140937D01*
X34857181Y-62140938D01*
X34857180Y-62140939D01*
X34641318Y-62265566D01*
X34641303Y-62265576D01*
X34443573Y-62417300D01*
X34443561Y-62417311D01*
X34267311Y-62593561D01*
X34267300Y-62593573D01*
X34115576Y-62791303D01*
X34115566Y-62791318D01*
X33990939Y-63007180D01*
X33895550Y-63237467D01*
X33895546Y-63237477D01*
X33831037Y-63478228D01*
X33831035Y-63478236D01*
X33831035Y-63478240D01*
X33798500Y-63725369D01*
X26811734Y-63725369D01*
X28260489Y-62276614D01*
X28318886Y-62175465D01*
X28319800Y-62173884D01*
X28350499Y-62059312D01*
X28350500Y-62059312D01*
X28350500Y-60396849D01*
X28364852Y-60362201D01*
X30606292Y-58120761D01*
X32860489Y-55866564D01*
X32919798Y-55763837D01*
X32919799Y-55763836D01*
X32950499Y-55649262D01*
X32950500Y-55649262D01*
X32950500Y-45240688D01*
X32921469Y-45132346D01*
X32921468Y-45132342D01*
X32921468Y-45132343D01*
X32919799Y-45126114D01*
X32919799Y-45126113D01*
X32916152Y-45119797D01*
X32902828Y-45096718D01*
X32860489Y-45023386D01*
X30711319Y-42874216D01*
X30696967Y-42839568D01*
X30699076Y-42825347D01*
X30735300Y-42705934D01*
X30755583Y-42500000D01*
X30754769Y-42491740D01*
X30753585Y-42479716D01*
X30735300Y-42294066D01*
X30675232Y-42096046D01*
X30577685Y-41913550D01*
X30446410Y-41753590D01*
X30286450Y-41622315D01*
X30103954Y-41524768D01*
X29905934Y-41464700D01*
X29700000Y-41444417D01*
X29494065Y-41464700D01*
X29494064Y-41464700D01*
X29321616Y-41517011D01*
X29306932Y-41521466D01*
X29296043Y-41524769D01*
X29113548Y-41622316D01*
X28953590Y-41753590D01*
X28822316Y-41913548D01*
X28724769Y-42096043D01*
X28664700Y-42294064D01*
X28664700Y-42294065D01*
X28644417Y-42499999D01*
X28644417Y-42500000D01*
X28664700Y-42705934D01*
X28664700Y-42705935D01*
X28677938Y-42749576D01*
X28721779Y-42894101D01*
X28724769Y-42903956D01*
X28728261Y-42910489D01*
X28822315Y-43086450D01*
X28953590Y-43246410D01*
X29113550Y-43377685D01*
X29296046Y-43475232D01*
X29494066Y-43535300D01*
X29700000Y-43555583D01*
X29905934Y-43535300D01*
X30025345Y-43499077D01*
X30062666Y-43502753D01*
X30074216Y-43511319D01*
X32035148Y-45472251D01*
X32049500Y-45506899D01*
X32049500Y-46634101D01*
X32035148Y-46668749D01*
X32000500Y-46683101D01*
X31965852Y-46668749D01*
X30711319Y-45414216D01*
X30696967Y-45379568D01*
X30699076Y-45365347D01*
X30735300Y-45245934D01*
X30755583Y-45040000D01*
X30735300Y-44834066D01*
X30675232Y-44636046D01*
X30577685Y-44453550D01*
X30446410Y-44293590D01*
X30286450Y-44162315D01*
X30103954Y-44064768D01*
X29905934Y-44004700D01*
X29700000Y-43984417D01*
X29494065Y-44004700D01*
X29494064Y-44004700D01*
X29321616Y-44057011D01*
X29306932Y-44061466D01*
X29296043Y-44064769D01*
X29113548Y-44162316D01*
X28953590Y-44293590D01*
X28822316Y-44453548D01*
X28724769Y-44636043D01*
X28664700Y-44834064D01*
X28664700Y-44834065D01*
X28644417Y-45039999D01*
X28644417Y-45040000D01*
X28664700Y-45245934D01*
X28664700Y-45245935D01*
X28677938Y-45289576D01*
X28724768Y-45443954D01*
X28822315Y-45626450D01*
X28953590Y-45786410D01*
X29113550Y-45917685D01*
X29296046Y-46015232D01*
X29494066Y-46075300D01*
X29700000Y-46095583D01*
X29905934Y-46075300D01*
X30025345Y-46039077D01*
X30062666Y-46042753D01*
X30074216Y-46051319D01*
X31335148Y-47312251D01*
X31349500Y-47346899D01*
X31349500Y-48474101D01*
X31335148Y-48508749D01*
X31300500Y-48523101D01*
X31265852Y-48508749D01*
X30711319Y-47954216D01*
X30696967Y-47919568D01*
X30699076Y-47905347D01*
X30735300Y-47785934D01*
X30755583Y-47580000D01*
X30735300Y-47374066D01*
X30675232Y-47176046D01*
X30577685Y-46993550D01*
X30446410Y-46833590D01*
X30286450Y-46702315D01*
X30103954Y-46604768D01*
X29905934Y-46544700D01*
X29700000Y-46524417D01*
X29494065Y-46544700D01*
X29494064Y-46544700D01*
X29321616Y-46597011D01*
X29306932Y-46601466D01*
X29296043Y-46604769D01*
X29113548Y-46702316D01*
X28953590Y-46833590D01*
X28822316Y-46993548D01*
X28724769Y-47176043D01*
X28664700Y-47374064D01*
X28664700Y-47374065D01*
X28644417Y-47579999D01*
X28644417Y-47580000D01*
X28664700Y-47785934D01*
X28664700Y-47785935D01*
X28677938Y-47829576D01*
X28724768Y-47983954D01*
X28822315Y-48166450D01*
X28953590Y-48326410D01*
X29113550Y-48457685D01*
X29296046Y-48555232D01*
X29494066Y-48615300D01*
X29700000Y-48635583D01*
X29905934Y-48615300D01*
X30025345Y-48579077D01*
X30062666Y-48582753D01*
X30074216Y-48591319D01*
X30635148Y-49152251D01*
X30649500Y-49186899D01*
X30649500Y-49484110D01*
X30635148Y-49518758D01*
X30600500Y-49533110D01*
X30565852Y-49518758D01*
X30562623Y-49515195D01*
X30446412Y-49373592D01*
X30356130Y-49299500D01*
X30286450Y-49242315D01*
X30103954Y-49144768D01*
X29905934Y-49084700D01*
X29700000Y-49064417D01*
X29494065Y-49084700D01*
X29494064Y-49084700D01*
X29321616Y-49137011D01*
X29306932Y-49141466D01*
X29296043Y-49144769D01*
X29113548Y-49242316D01*
X28953590Y-49373590D01*
X28822316Y-49533548D01*
X28724769Y-49716043D01*
X28664700Y-49914064D01*
X28664700Y-49914065D01*
X28644417Y-50119999D01*
X28644417Y-50120000D01*
X28664700Y-50325934D01*
X28664700Y-50325935D01*
X28677938Y-50369576D01*
X28724768Y-50523954D01*
X28822315Y-50706450D01*
X28953590Y-50866410D01*
X29113550Y-50997685D01*
X29296046Y-51095232D01*
X29494066Y-51155300D01*
X29700000Y-51175583D01*
X29905934Y-51155300D01*
X30103954Y-51095232D01*
X30286450Y-50997685D01*
X30446410Y-50866410D01*
X30562622Y-50724803D01*
X30595697Y-50707125D01*
X30631585Y-50718011D01*
X30649264Y-50751086D01*
X30649500Y-50755889D01*
X30649500Y-52024896D01*
X30635148Y-52059544D01*
X30600500Y-52073896D01*
X30565852Y-52059544D01*
X30562623Y-52055982D01*
X30446054Y-51913945D01*
X30286178Y-51782736D01*
X30286171Y-51782731D01*
X30103763Y-51685232D01*
X29950000Y-51638587D01*
X29950000Y-52226988D01*
X29892993Y-52194075D01*
X29765826Y-52160000D01*
X29634174Y-52160000D01*
X29507007Y-52194075D01*
X29450000Y-52226988D01*
X29450000Y-51638587D01*
X29296236Y-51685232D01*
X29113828Y-51782731D01*
X29113821Y-51782736D01*
X28953945Y-51913945D01*
X28822736Y-52073821D01*
X28822731Y-52073828D01*
X28725236Y-52256229D01*
X28725231Y-52256241D01*
X28678589Y-52410000D01*
X29266988Y-52410000D01*
X29234075Y-52467007D01*
X29200000Y-52594174D01*
X29200000Y-52725826D01*
X29234075Y-52852993D01*
X29266988Y-52910000D01*
X28678589Y-52910000D01*
X28725231Y-53063758D01*
X28725236Y-53063770D01*
X28822731Y-53246171D01*
X28822736Y-53246178D01*
X28953945Y-53406054D01*
X29113821Y-53537263D01*
X29113828Y-53537268D01*
X29296229Y-53634763D01*
X29296241Y-53634768D01*
X29450000Y-53681411D01*
X29450000Y-53093012D01*
X29507007Y-53125925D01*
X29634174Y-53160000D01*
X29765826Y-53160000D01*
X29892993Y-53125925D01*
X29950000Y-53093012D01*
X29950000Y-53681410D01*
X30103758Y-53634768D01*
X30103770Y-53634763D01*
X30286171Y-53537268D01*
X30286178Y-53537263D01*
X30446057Y-53406052D01*
X30562623Y-53264018D01*
X30595697Y-53246339D01*
X30631585Y-53257226D01*
X30649264Y-53290300D01*
X30649500Y-53295103D01*
X30649500Y-54803151D01*
X30635148Y-54837799D01*
X26139512Y-59333436D01*
X26139511Y-59333437D01*
X26080201Y-59436163D01*
X26078532Y-59442395D01*
X26078531Y-59442394D01*
X26078531Y-59442398D01*
X26049500Y-59550740D01*
X26049500Y-61213201D01*
X26035148Y-61247849D01*
X25347849Y-61935148D01*
X25313201Y-61949500D01*
X25024268Y-61949500D01*
X24989620Y-61935148D01*
X24975268Y-61900500D01*
X24989620Y-61865852D01*
X25015262Y-61852335D01*
X25073395Y-61841468D01*
X25270453Y-61765128D01*
X25450128Y-61653877D01*
X25606302Y-61511506D01*
X25733656Y-61342862D01*
X25827853Y-61153689D01*
X25885686Y-60950427D01*
X25905185Y-60740000D01*
X25885686Y-60529573D01*
X25827853Y-60326311D01*
X25733656Y-60137138D01*
X25669979Y-60052816D01*
X25606304Y-59968496D01*
X25606301Y-59968493D01*
X25450132Y-59826126D01*
X25450129Y-59826124D01*
X25450128Y-59826123D01*
X25270453Y-59714872D01*
X25270450Y-59714871D01*
X25270449Y-59714870D01*
X25073400Y-59638533D01*
X25073395Y-59638532D01*
X24865664Y-59599700D01*
X24654336Y-59599700D01*
X24497584Y-59629002D01*
X24446599Y-59638533D01*
X24249550Y-59714870D01*
X24069867Y-59826126D01*
X23913698Y-59968493D01*
X23913695Y-59968496D01*
X23786345Y-60137136D01*
X23786342Y-60137140D01*
X23743363Y-60223455D01*
X23715072Y-60248074D01*
X23677659Y-60245477D01*
X23653040Y-60217186D01*
X23650500Y-60201614D01*
X23650500Y-58738385D01*
X23664852Y-58703737D01*
X23699500Y-58689385D01*
X23734148Y-58703737D01*
X23743363Y-58716544D01*
X23786342Y-58802859D01*
X23786345Y-58802863D01*
X23913695Y-58971503D01*
X23913698Y-58971506D01*
X24069867Y-59113873D01*
X24069868Y-59113874D01*
X24069872Y-59113877D01*
X24249547Y-59225128D01*
X24281119Y-59237359D01*
X24446599Y-59301466D01*
X24446600Y-59301466D01*
X24446605Y-59301468D01*
X24654336Y-59340300D01*
X24654338Y-59340300D01*
X24865662Y-59340300D01*
X24865664Y-59340300D01*
X25073395Y-59301468D01*
X25270453Y-59225128D01*
X25450128Y-59113877D01*
X25606302Y-58971506D01*
X25733656Y-58802862D01*
X25827853Y-58613689D01*
X25885686Y-58410427D01*
X25905185Y-58200000D01*
X25885686Y-57989573D01*
X25827853Y-57786311D01*
X25733656Y-57597138D01*
X25606302Y-57428494D01*
X25606301Y-57428493D01*
X25450132Y-57286126D01*
X25450129Y-57286124D01*
X25450128Y-57286123D01*
X25270453Y-57174872D01*
X25270450Y-57174871D01*
X25270449Y-57174870D01*
X25073400Y-57098533D01*
X25073395Y-57098532D01*
X24865664Y-57059700D01*
X24654336Y-57059700D01*
X24497584Y-57089002D01*
X24446599Y-57098533D01*
X24249550Y-57174870D01*
X24069867Y-57286126D01*
X23913698Y-57428493D01*
X23913695Y-57428496D01*
X23786345Y-57597136D01*
X23786342Y-57597140D01*
X23743363Y-57683455D01*
X23715072Y-57708074D01*
X23677659Y-57705477D01*
X23653040Y-57677186D01*
X23650500Y-57661614D01*
X23650500Y-56198385D01*
X23664852Y-56163737D01*
X23699500Y-56149385D01*
X23734148Y-56163737D01*
X23743363Y-56176544D01*
X23786342Y-56262859D01*
X23786343Y-56262861D01*
X23786344Y-56262862D01*
X23814493Y-56300137D01*
X23913695Y-56431503D01*
X23913698Y-56431506D01*
X24069867Y-56573873D01*
X24069868Y-56573874D01*
X24069872Y-56573877D01*
X24249547Y-56685128D01*
X24249550Y-56685129D01*
X24446599Y-56761466D01*
X24446600Y-56761466D01*
X24446605Y-56761468D01*
X24654336Y-56800300D01*
X24654338Y-56800300D01*
X24865662Y-56800300D01*
X24865664Y-56800300D01*
X25073395Y-56761468D01*
X25270453Y-56685128D01*
X25450128Y-56573877D01*
X25606302Y-56431506D01*
X25733656Y-56262862D01*
X25827853Y-56073689D01*
X25885686Y-55870427D01*
X25905185Y-55660000D01*
X25885686Y-55449573D01*
X25827853Y-55246311D01*
X25733656Y-55057138D01*
X25606302Y-54888494D01*
X25512685Y-54803151D01*
X25450132Y-54746126D01*
X25450129Y-54746124D01*
X25450128Y-54746123D01*
X25270453Y-54634872D01*
X25270450Y-54634871D01*
X25270449Y-54634870D01*
X25073400Y-54558533D01*
X25073395Y-54558532D01*
X24865664Y-54519700D01*
X24654336Y-54519700D01*
X24497584Y-54549002D01*
X24446599Y-54558533D01*
X24249550Y-54634870D01*
X24069867Y-54746126D01*
X23913698Y-54888493D01*
X23913695Y-54888496D01*
X23786345Y-55057136D01*
X23786342Y-55057140D01*
X23743363Y-55143455D01*
X23715072Y-55168074D01*
X23677659Y-55165477D01*
X23653040Y-55137186D01*
X23650500Y-55121614D01*
X23650500Y-53657263D01*
X23664852Y-53622615D01*
X23699500Y-53608263D01*
X23734148Y-53622615D01*
X23743363Y-53635422D01*
X23786769Y-53722595D01*
X23786772Y-53722599D01*
X23794118Y-53732327D01*
X24270504Y-53255941D01*
X24286619Y-53316081D01*
X24353498Y-53431920D01*
X24448080Y-53526502D01*
X24563919Y-53593381D01*
X24624057Y-53609494D01*
X24150402Y-54083150D01*
X24150402Y-54083151D01*
X24249774Y-54144679D01*
X24446737Y-54220983D01*
X24654384Y-54259800D01*
X24865616Y-54259800D01*
X25073262Y-54220983D01*
X25270225Y-54144679D01*
X25369596Y-54083151D01*
X25369596Y-54083150D01*
X24895941Y-53609495D01*
X24956081Y-53593381D01*
X25071920Y-53526502D01*
X25166502Y-53431920D01*
X25233381Y-53316081D01*
X25249495Y-53255942D01*
X25725880Y-53732327D01*
X25733230Y-53722595D01*
X25827382Y-53533512D01*
X25827385Y-53533505D01*
X25885192Y-53330337D01*
X25885193Y-53330331D01*
X25904682Y-53120000D01*
X25885193Y-52909668D01*
X25885192Y-52909662D01*
X25827385Y-52706494D01*
X25827382Y-52706487D01*
X25733228Y-52517402D01*
X25725880Y-52507672D01*
X25249494Y-52984057D01*
X25233381Y-52923919D01*
X25166502Y-52808080D01*
X25071920Y-52713498D01*
X24956081Y-52646619D01*
X24895939Y-52630504D01*
X25369596Y-52156848D01*
X25369596Y-52156847D01*
X25270225Y-52095320D01*
X25073262Y-52019016D01*
X24865616Y-51980200D01*
X24654384Y-51980200D01*
X24446737Y-52019016D01*
X24249774Y-52095320D01*
X24150402Y-52156847D01*
X24150402Y-52156848D01*
X24624058Y-52630504D01*
X24563919Y-52646619D01*
X24448080Y-52713498D01*
X24353498Y-52808080D01*
X24286619Y-52923919D01*
X24270504Y-52984058D01*
X23794118Y-52507672D01*
X23794117Y-52507672D01*
X23786772Y-52517398D01*
X23786767Y-52517407D01*
X23743363Y-52604576D01*
X23715072Y-52629195D01*
X23677659Y-52626598D01*
X23653040Y-52598307D01*
X23650500Y-52582735D01*
X23650500Y-51118385D01*
X23664852Y-51083737D01*
X23699500Y-51069385D01*
X23734148Y-51083737D01*
X23743362Y-51096542D01*
X23754238Y-51118385D01*
X23786342Y-51182859D01*
X23786345Y-51182863D01*
X23913695Y-51351503D01*
X23913698Y-51351506D01*
X24069867Y-51493873D01*
X24069868Y-51493874D01*
X24069872Y-51493877D01*
X24249547Y-51605128D01*
X24249550Y-51605129D01*
X24446599Y-51681466D01*
X24446600Y-51681466D01*
X24446605Y-51681468D01*
X24654336Y-51720300D01*
X24654338Y-51720300D01*
X24865662Y-51720300D01*
X24865664Y-51720300D01*
X25073395Y-51681468D01*
X25270453Y-51605128D01*
X25450128Y-51493877D01*
X25606302Y-51351506D01*
X25733656Y-51182862D01*
X25827853Y-50993689D01*
X25885686Y-50790427D01*
X25905185Y-50580000D01*
X25885686Y-50369573D01*
X25827853Y-50166311D01*
X25733656Y-49977138D01*
X25606302Y-49808494D01*
X25606301Y-49808493D01*
X25450132Y-49666126D01*
X25450129Y-49666124D01*
X25450128Y-49666123D01*
X25270453Y-49554872D01*
X25270450Y-49554871D01*
X25270449Y-49554870D01*
X25073400Y-49478533D01*
X25073395Y-49478532D01*
X24865664Y-49439700D01*
X24654336Y-49439700D01*
X24537755Y-49461493D01*
X24446599Y-49478533D01*
X24249550Y-49554870D01*
X24069867Y-49666126D01*
X23913698Y-49808493D01*
X23913695Y-49808496D01*
X23786345Y-49977136D01*
X23786342Y-49977140D01*
X23743363Y-50063455D01*
X23715072Y-50088074D01*
X23677659Y-50085477D01*
X23653040Y-50057186D01*
X23650500Y-50041614D01*
X23650500Y-48578385D01*
X23664852Y-48543737D01*
X23699500Y-48529385D01*
X23734148Y-48543737D01*
X23743363Y-48556544D01*
X23786342Y-48642859D01*
X23786345Y-48642863D01*
X23913695Y-48811503D01*
X23913698Y-48811506D01*
X24069867Y-48953873D01*
X24069868Y-48953874D01*
X24069872Y-48953877D01*
X24249547Y-49065128D01*
X24249550Y-49065129D01*
X24446599Y-49141466D01*
X24446600Y-49141466D01*
X24446605Y-49141468D01*
X24654336Y-49180300D01*
X24654338Y-49180300D01*
X24865662Y-49180300D01*
X24865664Y-49180300D01*
X25073395Y-49141468D01*
X25270453Y-49065128D01*
X25450128Y-48953877D01*
X25606302Y-48811506D01*
X25733656Y-48642862D01*
X25827853Y-48453689D01*
X25885686Y-48250427D01*
X25905185Y-48040000D01*
X25885686Y-47829573D01*
X25827853Y-47626311D01*
X25733656Y-47437138D01*
X25606302Y-47268494D01*
X25606301Y-47268493D01*
X25450132Y-47126126D01*
X25450129Y-47126124D01*
X25450128Y-47126123D01*
X25270453Y-47014872D01*
X25270450Y-47014871D01*
X25270449Y-47014870D01*
X25073400Y-46938533D01*
X25057956Y-46935646D01*
X24865664Y-46899700D01*
X24654336Y-46899700D01*
X24519246Y-46924953D01*
X24446599Y-46938533D01*
X24249550Y-47014870D01*
X24069867Y-47126126D01*
X23913698Y-47268493D01*
X23913695Y-47268496D01*
X23786345Y-47437136D01*
X23786342Y-47437140D01*
X23743363Y-47523455D01*
X23715072Y-47548074D01*
X23677659Y-47545477D01*
X23653040Y-47517186D01*
X23650500Y-47501614D01*
X23650500Y-46038385D01*
X23664852Y-46003737D01*
X23699500Y-45989385D01*
X23734148Y-46003737D01*
X23743362Y-46016542D01*
X23754238Y-46038385D01*
X23786342Y-46102859D01*
X23786345Y-46102863D01*
X23913695Y-46271503D01*
X23913698Y-46271506D01*
X24069867Y-46413873D01*
X24069868Y-46413874D01*
X24069872Y-46413877D01*
X24249547Y-46525128D01*
X24249550Y-46525129D01*
X24446599Y-46601466D01*
X24446600Y-46601466D01*
X24446605Y-46601468D01*
X24654336Y-46640300D01*
X24654338Y-46640300D01*
X24865662Y-46640300D01*
X24865664Y-46640300D01*
X25073395Y-46601468D01*
X25270453Y-46525128D01*
X25450128Y-46413877D01*
X25606302Y-46271506D01*
X25733656Y-46102862D01*
X25827853Y-45913689D01*
X25885686Y-45710427D01*
X25905185Y-45500000D01*
X25885686Y-45289573D01*
X25827853Y-45086311D01*
X25733656Y-44897138D01*
X25628781Y-44758261D01*
X25606304Y-44728496D01*
X25606301Y-44728493D01*
X25450132Y-44586126D01*
X25450129Y-44586124D01*
X25450128Y-44586123D01*
X25270453Y-44474872D01*
X25270450Y-44474871D01*
X25270449Y-44474870D01*
X25073400Y-44398533D01*
X25037061Y-44391740D01*
X24865664Y-44359700D01*
X24654336Y-44359700D01*
X24497584Y-44389002D01*
X24446599Y-44398533D01*
X24249550Y-44474870D01*
X24069867Y-44586126D01*
X23913698Y-44728493D01*
X23913695Y-44728496D01*
X23786345Y-44897136D01*
X23786342Y-44897140D01*
X23743363Y-44983455D01*
X23715072Y-45008074D01*
X23677659Y-45005477D01*
X23653040Y-44977186D01*
X23650500Y-44961614D01*
X23650500Y-43498385D01*
X23664852Y-43463737D01*
X23699500Y-43449385D01*
X23734148Y-43463737D01*
X23743363Y-43476544D01*
X23786342Y-43562859D01*
X23786345Y-43562863D01*
X23913695Y-43731503D01*
X23913698Y-43731506D01*
X24069867Y-43873873D01*
X24069868Y-43873874D01*
X24069872Y-43873877D01*
X24249547Y-43985128D01*
X24249550Y-43985129D01*
X24446599Y-44061466D01*
X24446600Y-44061466D01*
X24446605Y-44061468D01*
X24654336Y-44100300D01*
X24654338Y-44100300D01*
X24865662Y-44100300D01*
X24865664Y-44100300D01*
X25073395Y-44061468D01*
X25270453Y-43985128D01*
X25450128Y-43873877D01*
X25606302Y-43731506D01*
X25733656Y-43562862D01*
X25827853Y-43373689D01*
X25885686Y-43170427D01*
X25905185Y-42960000D01*
X25885686Y-42749573D01*
X25827853Y-42546311D01*
X25733656Y-42357138D01*
X25642028Y-42235803D01*
X25606304Y-42188496D01*
X25606301Y-42188493D01*
X25450132Y-42046126D01*
X25450129Y-42046124D01*
X25450128Y-42046123D01*
X25270453Y-41934872D01*
X25270450Y-41934871D01*
X25270449Y-41934870D01*
X25073400Y-41858533D01*
X25073395Y-41858532D01*
X24865664Y-41819700D01*
X24654336Y-41819700D01*
X24497584Y-41849002D01*
X24446599Y-41858533D01*
X24249550Y-41934870D01*
X24069867Y-42046126D01*
X23913698Y-42188493D01*
X23913695Y-42188496D01*
X23786345Y-42357136D01*
X23786342Y-42357140D01*
X23743363Y-42443455D01*
X23715072Y-42468074D01*
X23677659Y-42465477D01*
X23653040Y-42437186D01*
X23650500Y-42421614D01*
X23650500Y-41440688D01*
X23621469Y-41332346D01*
X23621468Y-41332342D01*
X23621468Y-41332343D01*
X23619799Y-41326114D01*
X23619799Y-41326113D01*
X23616153Y-41319798D01*
X23560494Y-41223392D01*
X23560491Y-41223389D01*
X23560490Y-41223386D01*
X22757104Y-40420000D01*
X23614815Y-40420000D01*
X23634313Y-40630423D01*
X23634314Y-40630429D01*
X23692146Y-40833687D01*
X23692149Y-40833694D01*
X23786342Y-41022859D01*
X23786343Y-41022861D01*
X23786344Y-41022862D01*
X23789011Y-41026394D01*
X23913695Y-41191503D01*
X23913698Y-41191506D01*
X24069867Y-41333873D01*
X24069868Y-41333874D01*
X24069872Y-41333877D01*
X24249547Y-41445128D01*
X24300069Y-41464700D01*
X24446599Y-41521466D01*
X24446600Y-41521466D01*
X24446605Y-41521468D01*
X24654336Y-41560300D01*
X24654338Y-41560300D01*
X24865662Y-41560300D01*
X24865664Y-41560300D01*
X25073395Y-41521468D01*
X25270453Y-41445128D01*
X25450128Y-41333877D01*
X25606302Y-41191506D01*
X25733656Y-41022862D01*
X25827853Y-40833689D01*
X25885686Y-40630427D01*
X25905185Y-40420000D01*
X25885686Y-40209573D01*
X25827853Y-40006311D01*
X25733656Y-39817138D01*
X25652749Y-39710000D01*
X28678589Y-39710000D01*
X29266988Y-39710000D01*
X29234075Y-39767007D01*
X29200000Y-39894174D01*
X29200000Y-40025826D01*
X29234075Y-40152993D01*
X29266988Y-40210000D01*
X28678589Y-40210000D01*
X28725231Y-40363758D01*
X28725236Y-40363770D01*
X28822731Y-40546171D01*
X28822736Y-40546178D01*
X28953945Y-40706054D01*
X29113821Y-40837263D01*
X29113828Y-40837268D01*
X29296229Y-40934763D01*
X29296241Y-40934768D01*
X29450000Y-40981411D01*
X29450000Y-40393012D01*
X29507007Y-40425925D01*
X29634174Y-40460000D01*
X29765826Y-40460000D01*
X29892993Y-40425925D01*
X29950000Y-40393012D01*
X29950000Y-40981410D01*
X30103758Y-40934768D01*
X30103770Y-40934763D01*
X30286171Y-40837268D01*
X30286178Y-40837263D01*
X30446054Y-40706054D01*
X30577263Y-40546178D01*
X30577268Y-40546171D01*
X30674763Y-40363770D01*
X30674768Y-40363758D01*
X30721411Y-40210000D01*
X30133012Y-40210000D01*
X30165925Y-40152993D01*
X30200000Y-40025826D01*
X30200000Y-39894174D01*
X30165925Y-39767007D01*
X30133012Y-39710000D01*
X30721411Y-39710000D01*
X30674768Y-39556241D01*
X30674763Y-39556229D01*
X30577268Y-39373828D01*
X30577263Y-39373821D01*
X30446054Y-39213945D01*
X30286178Y-39082736D01*
X30286171Y-39082731D01*
X30103763Y-38985232D01*
X29950000Y-38938587D01*
X29950000Y-39526988D01*
X29892993Y-39494075D01*
X29765826Y-39460000D01*
X29634174Y-39460000D01*
X29507007Y-39494075D01*
X29450000Y-39526988D01*
X29450000Y-38938587D01*
X29296236Y-38985232D01*
X29113828Y-39082731D01*
X29113821Y-39082736D01*
X28953945Y-39213945D01*
X28822736Y-39373821D01*
X28822731Y-39373828D01*
X28725236Y-39556229D01*
X28725231Y-39556241D01*
X28678589Y-39710000D01*
X25652749Y-39710000D01*
X25606304Y-39648496D01*
X25606301Y-39648493D01*
X25450132Y-39506126D01*
X25450129Y-39506124D01*
X25450128Y-39506123D01*
X25270453Y-39394872D01*
X25270450Y-39394871D01*
X25270449Y-39394870D01*
X25073400Y-39318533D01*
X25050210Y-39314198D01*
X24865664Y-39279700D01*
X24654336Y-39279700D01*
X24497584Y-39309002D01*
X24446599Y-39318533D01*
X24249550Y-39394870D01*
X24069867Y-39506126D01*
X23913698Y-39648493D01*
X23913695Y-39648496D01*
X23786345Y-39817136D01*
X23786342Y-39817140D01*
X23692149Y-40006305D01*
X23692146Y-40006312D01*
X23634314Y-40209570D01*
X23634313Y-40209576D01*
X23614815Y-40420000D01*
X22757104Y-40420000D01*
X20217103Y-37880000D01*
X23614815Y-37880000D01*
X23634313Y-38090423D01*
X23634314Y-38090429D01*
X23692146Y-38293687D01*
X23692149Y-38293694D01*
X23786342Y-38482859D01*
X23786345Y-38482863D01*
X23913695Y-38651503D01*
X23913698Y-38651506D01*
X24069867Y-38793873D01*
X24069868Y-38793874D01*
X24069872Y-38793877D01*
X24249547Y-38905128D01*
X24249550Y-38905129D01*
X24446599Y-38981466D01*
X24446600Y-38981466D01*
X24446605Y-38981468D01*
X24654336Y-39020300D01*
X24654338Y-39020300D01*
X24865662Y-39020300D01*
X24865664Y-39020300D01*
X25073395Y-38981468D01*
X25270453Y-38905128D01*
X25450128Y-38793877D01*
X25606302Y-38651506D01*
X25733656Y-38482862D01*
X25827853Y-38293689D01*
X25885686Y-38090427D01*
X25905185Y-37880000D01*
X25885686Y-37669573D01*
X25827853Y-37466311D01*
X25733656Y-37277138D01*
X25606302Y-37108494D01*
X25585541Y-37089568D01*
X25450132Y-36966126D01*
X25450129Y-36966124D01*
X25450128Y-36966123D01*
X25270453Y-36854872D01*
X25270450Y-36854871D01*
X25270449Y-36854870D01*
X25073400Y-36778533D01*
X25073395Y-36778532D01*
X24865664Y-36739700D01*
X24654336Y-36739700D01*
X24497584Y-36769002D01*
X24446599Y-36778533D01*
X24249550Y-36854870D01*
X24069867Y-36966126D01*
X23913698Y-37108493D01*
X23913695Y-37108496D01*
X23786345Y-37277136D01*
X23786342Y-37277140D01*
X23692149Y-37466305D01*
X23692146Y-37466312D01*
X23634314Y-37669570D01*
X23634313Y-37669576D01*
X23614815Y-37880000D01*
X20217103Y-37880000D01*
X19076614Y-36739511D01*
X19049068Y-36723607D01*
X18973888Y-36680201D01*
X18973886Y-36680200D01*
X18949214Y-36673590D01*
X18919245Y-36665560D01*
X18859311Y-36649500D01*
X18859309Y-36649500D01*
X18411188Y-36649500D01*
X18376540Y-36635148D01*
X18313342Y-36571950D01*
X18313335Y-36571945D01*
X18200308Y-36514355D01*
X18200305Y-36514354D01*
X18200304Y-36514354D01*
X18106519Y-36499500D01*
X18106517Y-36499500D01*
X17493482Y-36499500D01*
X17399696Y-36514353D01*
X17286664Y-36571945D01*
X17286657Y-36571950D01*
X17223460Y-36635148D01*
X17188812Y-36649500D01*
X15965689Y-36649500D01*
X15905754Y-36665560D01*
X15875786Y-36673590D01*
X15851113Y-36680200D01*
X15851111Y-36680201D01*
X15748385Y-36739511D01*
X15748385Y-36739512D01*
X15077749Y-37410148D01*
X15043101Y-37424500D01*
X14616738Y-37424500D01*
X14548605Y-37434427D01*
X14548603Y-37434428D01*
X14443519Y-37485801D01*
X14443515Y-37485803D01*
X14360803Y-37568515D01*
X14360801Y-37568519D01*
X14309428Y-37673603D01*
X14309427Y-37673605D01*
X14299500Y-37741738D01*
X14299500Y-38108261D01*
X14304060Y-38139554D01*
X14309427Y-38176393D01*
X14360802Y-38281483D01*
X14443517Y-38364198D01*
X14548607Y-38415573D01*
X14596884Y-38422606D01*
X14616738Y-38425500D01*
X14616740Y-38425500D01*
X15858262Y-38425500D01*
X15875590Y-38422974D01*
X15926393Y-38415573D01*
X16031483Y-38364198D01*
X16065425Y-38330254D01*
X16100071Y-38315903D01*
X16134719Y-38330254D01*
X16138945Y-38335072D01*
X16171718Y-38377782D01*
X16297159Y-38474036D01*
X16297161Y-38474036D01*
X16297163Y-38474038D01*
X16404545Y-38518517D01*
X16443238Y-38534544D01*
X16547325Y-38548247D01*
X16575577Y-38562180D01*
X17123886Y-39110489D01*
X17158631Y-39130549D01*
X17177788Y-39150736D01*
X17196950Y-39188342D01*
X17196953Y-39188345D01*
X17286657Y-39278049D01*
X17286664Y-39278054D01*
X17399691Y-39335644D01*
X17399692Y-39335644D01*
X17399696Y-39335646D01*
X17493481Y-39350500D01*
X18106518Y-39350499D01*
X18200304Y-39335646D01*
X18261387Y-39304522D01*
X18313335Y-39278054D01*
X18313337Y-39278052D01*
X18313342Y-39278050D01*
X18403050Y-39188342D01*
X18422211Y-39150737D01*
X18460644Y-39075309D01*
X18460644Y-39075307D01*
X18460646Y-39075304D01*
X18475500Y-38981519D01*
X18475499Y-38518482D01*
X18460646Y-38424696D01*
X18455997Y-38415571D01*
X18403054Y-38311664D01*
X18403049Y-38311657D01*
X18313342Y-38221950D01*
X18313335Y-38221945D01*
X18200308Y-38164355D01*
X18200305Y-38164354D01*
X18200304Y-38164354D01*
X18106519Y-38149500D01*
X18106517Y-38149500D01*
X17493482Y-38149500D01*
X17493479Y-38149501D01*
X17469468Y-38153303D01*
X17433001Y-38144546D01*
X17427157Y-38139554D01*
X17212680Y-37925077D01*
X17198747Y-37896825D01*
X17185044Y-37792738D01*
X17124538Y-37646663D01*
X17124535Y-37646658D01*
X17111238Y-37629329D01*
X17101531Y-37593104D01*
X17120283Y-37560626D01*
X17150112Y-37550500D01*
X17188812Y-37550500D01*
X17223460Y-37564852D01*
X17286657Y-37628049D01*
X17286664Y-37628054D01*
X17399691Y-37685644D01*
X17399692Y-37685644D01*
X17399696Y-37685646D01*
X17493481Y-37700500D01*
X18106518Y-37700499D01*
X18200304Y-37685646D01*
X18276822Y-37646658D01*
X18313335Y-37628054D01*
X18313337Y-37628052D01*
X18313342Y-37628050D01*
X18376540Y-37564852D01*
X18411188Y-37550500D01*
X18593101Y-37550500D01*
X18627749Y-37564852D01*
X22735148Y-41672251D01*
X22749500Y-41706899D01*
X22749500Y-42894101D01*
X22735148Y-42928749D01*
X22700500Y-42943101D01*
X22665852Y-42928749D01*
X20276614Y-40539511D01*
X20173888Y-40480201D01*
X20173886Y-40480200D01*
X20149673Y-40473713D01*
X20119551Y-40465642D01*
X20059311Y-40449500D01*
X20059309Y-40449500D01*
X18411188Y-40449500D01*
X18376540Y-40435148D01*
X18313342Y-40371950D01*
X18313335Y-40371945D01*
X18200308Y-40314355D01*
X18200305Y-40314354D01*
X18200304Y-40314354D01*
X18106519Y-40299500D01*
X18106517Y-40299500D01*
X17493482Y-40299500D01*
X17399696Y-40314353D01*
X17286664Y-40371945D01*
X17286657Y-40371950D01*
X17223460Y-40435148D01*
X17188812Y-40449500D01*
X15965688Y-40449500D01*
X15875326Y-40473713D01*
X15851115Y-40480199D01*
X15851110Y-40480201D01*
X15748385Y-40539511D01*
X15748385Y-40539512D01*
X15077749Y-41210148D01*
X15043101Y-41224500D01*
X14616738Y-41224500D01*
X14548605Y-41234427D01*
X14548603Y-41234428D01*
X14443519Y-41285801D01*
X14443515Y-41285803D01*
X14360803Y-41368515D01*
X14360801Y-41368519D01*
X14309428Y-41473603D01*
X14309427Y-41473605D01*
X14299500Y-41541738D01*
X14299500Y-41908261D01*
X14304060Y-41939554D01*
X14309427Y-41976393D01*
X14360802Y-42081483D01*
X14443517Y-42164198D01*
X14548607Y-42215573D01*
X14596884Y-42222606D01*
X14616738Y-42225500D01*
X14616740Y-42225500D01*
X15858262Y-42225500D01*
X15875590Y-42222974D01*
X15926393Y-42215573D01*
X16031483Y-42164198D01*
X16065425Y-42130254D01*
X16100071Y-42115903D01*
X16134719Y-42130254D01*
X16138945Y-42135072D01*
X16171718Y-42177782D01*
X16297159Y-42274036D01*
X16297161Y-42274036D01*
X16297163Y-42274038D01*
X16404545Y-42318517D01*
X16443238Y-42334544D01*
X16547325Y-42348247D01*
X16575577Y-42362180D01*
X17123886Y-42910489D01*
X17158631Y-42930549D01*
X17177788Y-42950736D01*
X17196950Y-42988342D01*
X17196953Y-42988345D01*
X17286657Y-43078049D01*
X17286664Y-43078054D01*
X17399691Y-43135644D01*
X17399692Y-43135644D01*
X17399696Y-43135646D01*
X17493481Y-43150500D01*
X18106518Y-43150499D01*
X18200304Y-43135646D01*
X18261387Y-43104522D01*
X18313335Y-43078054D01*
X18313337Y-43078052D01*
X18313342Y-43078050D01*
X18403050Y-42988342D01*
X18426102Y-42943101D01*
X18460644Y-42875309D01*
X18460644Y-42875307D01*
X18460646Y-42875304D01*
X18475500Y-42781519D01*
X18475499Y-42318482D01*
X18460646Y-42224696D01*
X18455997Y-42215571D01*
X18403054Y-42111664D01*
X18403049Y-42111657D01*
X18313342Y-42021950D01*
X18313335Y-42021945D01*
X18200308Y-41964355D01*
X18200305Y-41964354D01*
X18200304Y-41964354D01*
X18106519Y-41949500D01*
X18106517Y-41949500D01*
X17493482Y-41949500D01*
X17493479Y-41949501D01*
X17469468Y-41953303D01*
X17433001Y-41944546D01*
X17427157Y-41939554D01*
X17212680Y-41725077D01*
X17198747Y-41696825D01*
X17185044Y-41592738D01*
X17124538Y-41446663D01*
X17124535Y-41446658D01*
X17123361Y-41445128D01*
X17111237Y-41429328D01*
X17101531Y-41393104D01*
X17120283Y-41360626D01*
X17150112Y-41350500D01*
X17188812Y-41350500D01*
X17223460Y-41364852D01*
X17286657Y-41428049D01*
X17286664Y-41428054D01*
X17399691Y-41485644D01*
X17399692Y-41485644D01*
X17399696Y-41485646D01*
X17493481Y-41500500D01*
X18106518Y-41500499D01*
X18200304Y-41485646D01*
X18288539Y-41440688D01*
X18313335Y-41428054D01*
X18313337Y-41428052D01*
X18313342Y-41428050D01*
X18376540Y-41364852D01*
X18411188Y-41350500D01*
X19793101Y-41350500D01*
X19827749Y-41364852D01*
X22035148Y-43572251D01*
X22049500Y-43606899D01*
X22049500Y-46731601D01*
X22035148Y-46766249D01*
X22000500Y-46780601D01*
X21965852Y-46766249D01*
X19539114Y-44339511D01*
X19436388Y-44280201D01*
X19436386Y-44280200D01*
X19412173Y-44273713D01*
X19382051Y-44265642D01*
X19321811Y-44249500D01*
X19321809Y-44249500D01*
X18348688Y-44249500D01*
X18314040Y-44235148D01*
X18250842Y-44171950D01*
X18250835Y-44171945D01*
X18137808Y-44114355D01*
X18137805Y-44114354D01*
X18137804Y-44114354D01*
X18044019Y-44099500D01*
X18044017Y-44099500D01*
X17430982Y-44099500D01*
X17337196Y-44114353D01*
X17224164Y-44171945D01*
X17224157Y-44171950D01*
X17160960Y-44235148D01*
X17126312Y-44249500D01*
X16003188Y-44249500D01*
X15912826Y-44273713D01*
X15888615Y-44280199D01*
X15888610Y-44280201D01*
X15785885Y-44339511D01*
X15785885Y-44339512D01*
X15115249Y-45010148D01*
X15080601Y-45024500D01*
X14616738Y-45024500D01*
X14548605Y-45034427D01*
X14548603Y-45034428D01*
X14443519Y-45085801D01*
X14443515Y-45085803D01*
X14360803Y-45168515D01*
X14360801Y-45168519D01*
X14309428Y-45273603D01*
X14309427Y-45273605D01*
X14299500Y-45341738D01*
X14299500Y-45708261D01*
X14303418Y-45735148D01*
X14309427Y-45776393D01*
X14360802Y-45881483D01*
X14443517Y-45964198D01*
X14548607Y-46015573D01*
X14596884Y-46022606D01*
X14616738Y-46025500D01*
X14616740Y-46025500D01*
X15858262Y-46025500D01*
X15875590Y-46022974D01*
X15926393Y-46015573D01*
X16031483Y-45964198D01*
X16065208Y-45930471D01*
X16099854Y-45916120D01*
X16134502Y-45930471D01*
X16138727Y-45935288D01*
X16161532Y-45965008D01*
X16171719Y-45978283D01*
X16241278Y-46031657D01*
X16246097Y-46035883D01*
X16323387Y-46113173D01*
X16426114Y-46172483D01*
X16454758Y-46180158D01*
X16540688Y-46203184D01*
X16540691Y-46203184D01*
X16595785Y-46203184D01*
X16630433Y-46217536D01*
X17063460Y-46650564D01*
X17074411Y-46672044D01*
X17075663Y-46671638D01*
X17076855Y-46675309D01*
X17134445Y-46788335D01*
X17134450Y-46788342D01*
X17224158Y-46878050D01*
X17260246Y-46896437D01*
X17284601Y-46924953D01*
X17287000Y-46940096D01*
X17287000Y-47733285D01*
X17272648Y-47767933D01*
X16905433Y-48135148D01*
X16870785Y-48149500D01*
X12140688Y-48149500D01*
X12026118Y-48180199D01*
X12026112Y-48180202D01*
X11982696Y-48205268D01*
X11923385Y-48239511D01*
X11923385Y-48239512D01*
X10947740Y-49215157D01*
X10913092Y-49229509D01*
X10878444Y-49215157D01*
X6434982Y-44771695D01*
X6342083Y-44709622D01*
X6279307Y-44667677D01*
X6279304Y-44667675D01*
X6279303Y-44667675D01*
X6164689Y-44620201D01*
X6164688Y-44620200D01*
X6106329Y-44596027D01*
X6091095Y-44592996D01*
X6014510Y-44577763D01*
X5922699Y-44559500D01*
X5922694Y-44559500D01*
X5922693Y-44559500D01*
X5101073Y-44559500D01*
X5075278Y-44552161D01*
X4950453Y-44474872D01*
X4950450Y-44474871D01*
X4950449Y-44474870D01*
X4753400Y-44398533D01*
X4717061Y-44391740D01*
X4545664Y-44359700D01*
X4334336Y-44359700D01*
X4177584Y-44389002D01*
X4126599Y-44398533D01*
X3929550Y-44474870D01*
X3749867Y-44586126D01*
X3593698Y-44728493D01*
X3593695Y-44728496D01*
X3466345Y-44897136D01*
X3466342Y-44897140D01*
X3372149Y-45086305D01*
X3372146Y-45086312D01*
X3314314Y-45289570D01*
X3314313Y-45289576D01*
X3294815Y-45500000D01*
X2850000Y-45500000D01*
X2850000Y-42960000D01*
X3294815Y-42960000D01*
X3314313Y-43170423D01*
X3314314Y-43170429D01*
X3372146Y-43373687D01*
X3372149Y-43373694D01*
X3466342Y-43562859D01*
X3466345Y-43562863D01*
X3593695Y-43731503D01*
X3593698Y-43731506D01*
X3749867Y-43873873D01*
X3749868Y-43873874D01*
X3749872Y-43873877D01*
X3929547Y-43985128D01*
X3929550Y-43985129D01*
X4126599Y-44061466D01*
X4126600Y-44061466D01*
X4126605Y-44061468D01*
X4334336Y-44100300D01*
X4334338Y-44100300D01*
X4545662Y-44100300D01*
X4545664Y-44100300D01*
X4753395Y-44061468D01*
X4950453Y-43985128D01*
X5130128Y-43873877D01*
X5286302Y-43731506D01*
X5413656Y-43562862D01*
X5507853Y-43373689D01*
X5565686Y-43170427D01*
X5585185Y-42960000D01*
X5565686Y-42749573D01*
X5507853Y-42546311D01*
X5413656Y-42357138D01*
X5322028Y-42235803D01*
X5286304Y-42188496D01*
X5286301Y-42188493D01*
X5130132Y-42046126D01*
X5130129Y-42046124D01*
X5130128Y-42046123D01*
X4950453Y-41934872D01*
X4950450Y-41934871D01*
X4950449Y-41934870D01*
X4753400Y-41858533D01*
X4753395Y-41858532D01*
X4545664Y-41819700D01*
X4334336Y-41819700D01*
X4177584Y-41849002D01*
X4126599Y-41858533D01*
X3929550Y-41934870D01*
X3749867Y-42046126D01*
X3593698Y-42188493D01*
X3593695Y-42188496D01*
X3466345Y-42357136D01*
X3466342Y-42357140D01*
X3372149Y-42546305D01*
X3372146Y-42546312D01*
X3314314Y-42749570D01*
X3314313Y-42749576D01*
X3294815Y-42960000D01*
X2850000Y-42960000D01*
X2850000Y-40420000D01*
X3294815Y-40420000D01*
X3314313Y-40630423D01*
X3314314Y-40630429D01*
X3372146Y-40833687D01*
X3372149Y-40833694D01*
X3466342Y-41022859D01*
X3466343Y-41022861D01*
X3466344Y-41022862D01*
X3469011Y-41026394D01*
X3593695Y-41191503D01*
X3593698Y-41191506D01*
X3749867Y-41333873D01*
X3749868Y-41333874D01*
X3749872Y-41333877D01*
X3929547Y-41445128D01*
X3980069Y-41464700D01*
X4126599Y-41521466D01*
X4126600Y-41521466D01*
X4126605Y-41521468D01*
X4334336Y-41560300D01*
X4334338Y-41560300D01*
X4545662Y-41560300D01*
X4545664Y-41560300D01*
X4753395Y-41521468D01*
X4868478Y-41476884D01*
X4905968Y-41477750D01*
X4920824Y-41487927D01*
X8493386Y-45060489D01*
X8544244Y-45089852D01*
X8596109Y-45119797D01*
X8596110Y-45119797D01*
X8596113Y-45119799D01*
X8619678Y-45126113D01*
X8642925Y-45132342D01*
X8710689Y-45150500D01*
X8710691Y-45150500D01*
X10126312Y-45150500D01*
X10160960Y-45164852D01*
X10224157Y-45228049D01*
X10224164Y-45228054D01*
X10337191Y-45285644D01*
X10337192Y-45285644D01*
X10337196Y-45285646D01*
X10430981Y-45300500D01*
X11044018Y-45300499D01*
X11137804Y-45285646D01*
X11226039Y-45240688D01*
X11250835Y-45228054D01*
X11250837Y-45228052D01*
X11250842Y-45228050D01*
X11340550Y-45138342D01*
X11343606Y-45132346D01*
X11384414Y-45052255D01*
X11412931Y-45027898D01*
X11428073Y-45025500D01*
X12580300Y-45025500D01*
X12601820Y-45030479D01*
X12621294Y-45039999D01*
X12673607Y-45065573D01*
X12726364Y-45073259D01*
X12741738Y-45075500D01*
X12741740Y-45075500D01*
X12888638Y-45075500D01*
X12923286Y-45089852D01*
X12937638Y-45124500D01*
X12927512Y-45154329D01*
X12875464Y-45222158D01*
X12875461Y-45222163D01*
X12814955Y-45368238D01*
X12794318Y-45525000D01*
X12814955Y-45681761D01*
X12875461Y-45827836D01*
X12875464Y-45827841D01*
X12901874Y-45862259D01*
X12912000Y-45892088D01*
X12912000Y-45925500D01*
X12897648Y-45960148D01*
X12863000Y-45974500D01*
X12741738Y-45974500D01*
X12673605Y-45984427D01*
X12673603Y-45984428D01*
X12568519Y-46035801D01*
X12568515Y-46035803D01*
X12544171Y-46060148D01*
X12509523Y-46074500D01*
X11447884Y-46074500D01*
X11413236Y-46060148D01*
X11399487Y-46033168D01*
X11398146Y-46024696D01*
X11380154Y-45989385D01*
X11340554Y-45911664D01*
X11340549Y-45911657D01*
X11250842Y-45821950D01*
X11250835Y-45821945D01*
X11137808Y-45764355D01*
X11137805Y-45764354D01*
X11137804Y-45764354D01*
X11044019Y-45749500D01*
X11044017Y-45749500D01*
X10430982Y-45749500D01*
X10337196Y-45764353D01*
X10224164Y-45821945D01*
X10224157Y-45821950D01*
X10134450Y-45911657D01*
X10134445Y-45911664D01*
X10076855Y-46024690D01*
X10076855Y-46024692D01*
X10076854Y-46024694D01*
X10076854Y-46024696D01*
X10068839Y-46075300D01*
X10062000Y-46118482D01*
X10062000Y-46581517D01*
X10076853Y-46675303D01*
X10134445Y-46788335D01*
X10134450Y-46788342D01*
X10224157Y-46878049D01*
X10224164Y-46878054D01*
X10337191Y-46935644D01*
X10337192Y-46935644D01*
X10337196Y-46935646D01*
X10430981Y-46950500D01*
X10753438Y-46950499D01*
X10766119Y-46952168D01*
X10786441Y-46957614D01*
X10853189Y-46975500D01*
X10853191Y-46975500D01*
X13983262Y-46975500D01*
X14000590Y-46972974D01*
X14051393Y-46965573D01*
X14156483Y-46914198D01*
X14239198Y-46831483D01*
X14290573Y-46726393D01*
X14300500Y-46658260D01*
X14300500Y-46291740D01*
X14290573Y-46223607D01*
X14239198Y-46118517D01*
X14156483Y-46035802D01*
X14090893Y-46003737D01*
X14051396Y-45984428D01*
X14051394Y-45984427D01*
X13983262Y-45974500D01*
X13983260Y-45974500D01*
X13911362Y-45974500D01*
X13876714Y-45960148D01*
X13862362Y-45925500D01*
X13872488Y-45895671D01*
X13924536Y-45827841D01*
X13985044Y-45681762D01*
X14005682Y-45525000D01*
X13985044Y-45368238D01*
X13950833Y-45285646D01*
X13924538Y-45222163D01*
X13924535Y-45222158D01*
X13921851Y-45218660D01*
X13872487Y-45154328D01*
X13862781Y-45118104D01*
X13881533Y-45085626D01*
X13911362Y-45075500D01*
X13983262Y-45075500D01*
X14000590Y-45072974D01*
X14051393Y-45065573D01*
X14156483Y-45014198D01*
X14239198Y-44931483D01*
X14290573Y-44826393D01*
X14300500Y-44758260D01*
X14300500Y-44391740D01*
X14290573Y-44323607D01*
X14239198Y-44218517D01*
X14156483Y-44135802D01*
X14082226Y-44099500D01*
X14051396Y-44084428D01*
X14051394Y-44084427D01*
X13983262Y-44074500D01*
X13983260Y-44074500D01*
X12741740Y-44074500D01*
X12741738Y-44074500D01*
X12673607Y-44084427D01*
X12673603Y-44084428D01*
X12601820Y-44119521D01*
X12580300Y-44124500D01*
X11169480Y-44124500D01*
X11147235Y-44119159D01*
X11137807Y-44114355D01*
X11137805Y-44114354D01*
X11137804Y-44114354D01*
X11044019Y-44099500D01*
X11044017Y-44099500D01*
X10430982Y-44099500D01*
X10337196Y-44114353D01*
X10224164Y-44171945D01*
X10224157Y-44171950D01*
X10160960Y-44235148D01*
X10126312Y-44249500D01*
X8976899Y-44249500D01*
X8942251Y-44235148D01*
X5535510Y-40828407D01*
X5521158Y-40793759D01*
X5523029Y-40780349D01*
X5565685Y-40630429D01*
X5565686Y-40630427D01*
X5585185Y-40420000D01*
X5565686Y-40209573D01*
X5507853Y-40006311D01*
X5413656Y-39817138D01*
X5332749Y-39710000D01*
X5286304Y-39648496D01*
X5286301Y-39648493D01*
X5130132Y-39506126D01*
X5130129Y-39506124D01*
X5130128Y-39506123D01*
X4950453Y-39394872D01*
X4950450Y-39394871D01*
X4950449Y-39394870D01*
X4753400Y-39318533D01*
X4730210Y-39314198D01*
X4545664Y-39279700D01*
X4334336Y-39279700D01*
X4177584Y-39309002D01*
X4126599Y-39318533D01*
X3929550Y-39394870D01*
X3749867Y-39506126D01*
X3593698Y-39648493D01*
X3593695Y-39648496D01*
X3466345Y-39817136D01*
X3466342Y-39817140D01*
X3372149Y-40006305D01*
X3372146Y-40006312D01*
X3314314Y-40209570D01*
X3314313Y-40209576D01*
X3294815Y-40420000D01*
X2850000Y-40420000D01*
X2850000Y-37880000D01*
X3294815Y-37880000D01*
X3314313Y-38090423D01*
X3314314Y-38090429D01*
X3372146Y-38293687D01*
X3372149Y-38293694D01*
X3466342Y-38482859D01*
X3466345Y-38482863D01*
X3593695Y-38651503D01*
X3593698Y-38651506D01*
X3749867Y-38793873D01*
X3749868Y-38793874D01*
X3749872Y-38793877D01*
X3929547Y-38905128D01*
X3929550Y-38905129D01*
X4126599Y-38981466D01*
X4126600Y-38981466D01*
X4126605Y-38981468D01*
X4334336Y-39020300D01*
X4334338Y-39020300D01*
X4545662Y-39020300D01*
X4545664Y-39020300D01*
X4753395Y-38981468D01*
X4868478Y-38936884D01*
X4905968Y-38937750D01*
X4920823Y-38947926D01*
X7233386Y-41260490D01*
X7336113Y-41319799D01*
X7359678Y-41326113D01*
X7390015Y-41334242D01*
X7450689Y-41350500D01*
X7450691Y-41350500D01*
X10188812Y-41350500D01*
X10223460Y-41364852D01*
X10286657Y-41428049D01*
X10286664Y-41428054D01*
X10399691Y-41485644D01*
X10399692Y-41485644D01*
X10399696Y-41485646D01*
X10493481Y-41500500D01*
X11106518Y-41500499D01*
X11200304Y-41485646D01*
X11288539Y-41440688D01*
X11313335Y-41428054D01*
X11313337Y-41428052D01*
X11313342Y-41428050D01*
X11403050Y-41338342D01*
X11405328Y-41333873D01*
X11446914Y-41252255D01*
X11475431Y-41227898D01*
X11490573Y-41225500D01*
X12580300Y-41225500D01*
X12601820Y-41230479D01*
X12665857Y-41261784D01*
X12673607Y-41265573D01*
X12726364Y-41273259D01*
X12741738Y-41275500D01*
X12741740Y-41275500D01*
X12888638Y-41275500D01*
X12923286Y-41289852D01*
X12937638Y-41324500D01*
X12927512Y-41354329D01*
X12875464Y-41422158D01*
X12875461Y-41422163D01*
X12814955Y-41568238D01*
X12794318Y-41725000D01*
X12814955Y-41881761D01*
X12875461Y-42027836D01*
X12875464Y-42027841D01*
X12901874Y-42062259D01*
X12912000Y-42092088D01*
X12912000Y-42125500D01*
X12897648Y-42160148D01*
X12863000Y-42174500D01*
X12741738Y-42174500D01*
X12673607Y-42184427D01*
X12673603Y-42184428D01*
X12601820Y-42219521D01*
X12580300Y-42224500D01*
X11490573Y-42224500D01*
X11455925Y-42210148D01*
X11446914Y-42197745D01*
X11403054Y-42111664D01*
X11403049Y-42111657D01*
X11313342Y-42021950D01*
X11313335Y-42021945D01*
X11200308Y-41964355D01*
X11200305Y-41964354D01*
X11200304Y-41964354D01*
X11106519Y-41949500D01*
X11106517Y-41949500D01*
X10493482Y-41949500D01*
X10399696Y-41964353D01*
X10286664Y-42021945D01*
X10286657Y-42021950D01*
X10196950Y-42111657D01*
X10196945Y-42111664D01*
X10139355Y-42224690D01*
X10139355Y-42224692D01*
X10139354Y-42224694D01*
X10139354Y-42224696D01*
X10131539Y-42274038D01*
X10124500Y-42318482D01*
X10124500Y-42781517D01*
X10139353Y-42875303D01*
X10196945Y-42988335D01*
X10196950Y-42988342D01*
X10286657Y-43078049D01*
X10286664Y-43078054D01*
X10399691Y-43135644D01*
X10399692Y-43135644D01*
X10399696Y-43135646D01*
X10493481Y-43150500D01*
X11106518Y-43150499D01*
X11200304Y-43135646D01*
X11209735Y-43130841D01*
X11231980Y-43125500D01*
X12580300Y-43125500D01*
X12601820Y-43130479D01*
X12665857Y-43161784D01*
X12673607Y-43165573D01*
X12726364Y-43173259D01*
X12741738Y-43175500D01*
X12741740Y-43175500D01*
X13983262Y-43175500D01*
X14000590Y-43172974D01*
X14051393Y-43165573D01*
X14156483Y-43114198D01*
X14239198Y-43031483D01*
X14290573Y-42926393D01*
X14300500Y-42858260D01*
X14300500Y-42491740D01*
X14290573Y-42423607D01*
X14239198Y-42318517D01*
X14156483Y-42235802D01*
X14078636Y-42197745D01*
X14051396Y-42184428D01*
X14051394Y-42184427D01*
X13983262Y-42174500D01*
X13983260Y-42174500D01*
X13911362Y-42174500D01*
X13876714Y-42160148D01*
X13862362Y-42125500D01*
X13872488Y-42095671D01*
X13924536Y-42027841D01*
X13985044Y-41881762D01*
X14005682Y-41725000D01*
X13985044Y-41568238D01*
X13950833Y-41485646D01*
X13924538Y-41422163D01*
X13924535Y-41422158D01*
X13902241Y-41393104D01*
X13872487Y-41354328D01*
X13862781Y-41318104D01*
X13881533Y-41285626D01*
X13911362Y-41275500D01*
X13983262Y-41275500D01*
X14000590Y-41272974D01*
X14051393Y-41265573D01*
X14156483Y-41214198D01*
X14239198Y-41131483D01*
X14290573Y-41026393D01*
X14300500Y-40958260D01*
X14300500Y-40591740D01*
X14290573Y-40523607D01*
X14239198Y-40418517D01*
X14156483Y-40335802D01*
X14082226Y-40299500D01*
X14051396Y-40284428D01*
X14051394Y-40284427D01*
X13983262Y-40274500D01*
X13983260Y-40274500D01*
X12741740Y-40274500D01*
X12741738Y-40274500D01*
X12673607Y-40284427D01*
X12673603Y-40284428D01*
X12601820Y-40319521D01*
X12580300Y-40324500D01*
X11231980Y-40324500D01*
X11209735Y-40319159D01*
X11200307Y-40314355D01*
X11200305Y-40314354D01*
X11200304Y-40314354D01*
X11106519Y-40299500D01*
X11106517Y-40299500D01*
X10493482Y-40299500D01*
X10399696Y-40314353D01*
X10286664Y-40371945D01*
X10286657Y-40371950D01*
X10223460Y-40435148D01*
X10188812Y-40449500D01*
X7716900Y-40449500D01*
X7682252Y-40435148D01*
X5535510Y-38288406D01*
X5521158Y-38253758D01*
X5523028Y-38240351D01*
X5565686Y-38090427D01*
X5585185Y-37880000D01*
X5565686Y-37669573D01*
X5507853Y-37466311D01*
X5413656Y-37277138D01*
X5286302Y-37108494D01*
X5265541Y-37089568D01*
X5130132Y-36966126D01*
X5130129Y-36966124D01*
X5130128Y-36966123D01*
X4950453Y-36854872D01*
X4950450Y-36854871D01*
X4950449Y-36854870D01*
X4753400Y-36778533D01*
X4753395Y-36778532D01*
X4545664Y-36739700D01*
X4334336Y-36739700D01*
X4177584Y-36769002D01*
X4126599Y-36778533D01*
X3929550Y-36854870D01*
X3749867Y-36966126D01*
X3593698Y-37108493D01*
X3593695Y-37108496D01*
X3466345Y-37277136D01*
X3466342Y-37277140D01*
X3372149Y-37466305D01*
X3372146Y-37466312D01*
X3314314Y-37669570D01*
X3314313Y-37669576D01*
X3294815Y-37880000D01*
X2850000Y-37880000D01*
X2850000Y-35340000D01*
X3294815Y-35340000D01*
X3314313Y-35550423D01*
X3314314Y-35550429D01*
X3372146Y-35753687D01*
X3372149Y-35753694D01*
X3466342Y-35942859D01*
X3466345Y-35942863D01*
X3593695Y-36111503D01*
X3593698Y-36111506D01*
X3749867Y-36253873D01*
X3749868Y-36253874D01*
X3749872Y-36253877D01*
X3929547Y-36365128D01*
X3929550Y-36365129D01*
X4126599Y-36441466D01*
X4126600Y-36441466D01*
X4126605Y-36441468D01*
X4334336Y-36480300D01*
X4334338Y-36480300D01*
X4545662Y-36480300D01*
X4545664Y-36480300D01*
X4753395Y-36441468D01*
X4868478Y-36396884D01*
X4905968Y-36397750D01*
X4920823Y-36407926D01*
X5973386Y-37460490D01*
X6076113Y-37519799D01*
X6100326Y-37526286D01*
X6145292Y-37538335D01*
X6190689Y-37550500D01*
X6190691Y-37550500D01*
X10188812Y-37550500D01*
X10223460Y-37564852D01*
X10286657Y-37628049D01*
X10286664Y-37628054D01*
X10399691Y-37685644D01*
X10399692Y-37685644D01*
X10399696Y-37685646D01*
X10493481Y-37700500D01*
X11106518Y-37700499D01*
X11200304Y-37685646D01*
X11276822Y-37646658D01*
X11313335Y-37628054D01*
X11313337Y-37628052D01*
X11313342Y-37628050D01*
X11403050Y-37538342D01*
X11409194Y-37526285D01*
X11446914Y-37452255D01*
X11475431Y-37427898D01*
X11490573Y-37425500D01*
X12580300Y-37425500D01*
X12601820Y-37430479D01*
X12665857Y-37461784D01*
X12673607Y-37465573D01*
X12726364Y-37473259D01*
X12741738Y-37475500D01*
X12741740Y-37475500D01*
X12844938Y-37475500D01*
X12879586Y-37489852D01*
X12893938Y-37524500D01*
X12883813Y-37554327D01*
X12837964Y-37614080D01*
X12837961Y-37614084D01*
X12777455Y-37760159D01*
X12756818Y-37916921D01*
X12777455Y-38073682D01*
X12837961Y-38219757D01*
X12837964Y-38219762D01*
X12896211Y-38295671D01*
X12905918Y-38331896D01*
X12887166Y-38364374D01*
X12857337Y-38374500D01*
X11465097Y-38374500D01*
X11430449Y-38360148D01*
X11421438Y-38347746D01*
X11403051Y-38311660D01*
X11403050Y-38311658D01*
X11313342Y-38221950D01*
X11313335Y-38221945D01*
X11200308Y-38164355D01*
X11200305Y-38164354D01*
X11200304Y-38164354D01*
X11106519Y-38149500D01*
X11106517Y-38149500D01*
X10493482Y-38149500D01*
X10399696Y-38164353D01*
X10286664Y-38221945D01*
X10286657Y-38221950D01*
X10196950Y-38311657D01*
X10196945Y-38311664D01*
X10139355Y-38424690D01*
X10139355Y-38424692D01*
X10139354Y-38424694D01*
X10139354Y-38424696D01*
X10124500Y-38518481D01*
X10124500Y-38518482D01*
X10124500Y-38981517D01*
X10139353Y-39075303D01*
X10196945Y-39188335D01*
X10196950Y-39188342D01*
X10286657Y-39278049D01*
X10286664Y-39278054D01*
X10399691Y-39335644D01*
X10399692Y-39335644D01*
X10399696Y-39335646D01*
X10493481Y-39350500D01*
X11106518Y-39350499D01*
X11200304Y-39335646D01*
X11242402Y-39314196D01*
X11307867Y-39280841D01*
X11330112Y-39275500D01*
X12509523Y-39275500D01*
X12544171Y-39289852D01*
X12568517Y-39314198D01*
X12673607Y-39365573D01*
X12721884Y-39372606D01*
X12741738Y-39375500D01*
X12741740Y-39375500D01*
X13983262Y-39375500D01*
X14000590Y-39372974D01*
X14051393Y-39365573D01*
X14156483Y-39314198D01*
X14239198Y-39231483D01*
X14290573Y-39126393D01*
X14300500Y-39058260D01*
X14300500Y-38691740D01*
X14290573Y-38623607D01*
X14239198Y-38518517D01*
X14156483Y-38435802D01*
X14103938Y-38410114D01*
X14051396Y-38384428D01*
X14051394Y-38384427D01*
X13983262Y-38374500D01*
X13983260Y-38374500D01*
X13867663Y-38374500D01*
X13833015Y-38360148D01*
X13818663Y-38325500D01*
X13828789Y-38295671D01*
X13849987Y-38268045D01*
X13887036Y-38219762D01*
X13947544Y-38073683D01*
X13968182Y-37916921D01*
X13947544Y-37760159D01*
X13939914Y-37741738D01*
X13887038Y-37614084D01*
X13887037Y-37614083D01*
X13887036Y-37614080D01*
X13841186Y-37554327D01*
X13831481Y-37518104D01*
X13850233Y-37485625D01*
X13880062Y-37475500D01*
X13983262Y-37475500D01*
X14000590Y-37472974D01*
X14051393Y-37465573D01*
X14156483Y-37414198D01*
X14239198Y-37331483D01*
X14290573Y-37226393D01*
X14300500Y-37158260D01*
X14300500Y-36791740D01*
X14290573Y-36723607D01*
X14239198Y-36618517D01*
X14156483Y-36535802D01*
X14082226Y-36499500D01*
X14051396Y-36484428D01*
X14051394Y-36484427D01*
X13983262Y-36474500D01*
X13983260Y-36474500D01*
X12741740Y-36474500D01*
X12741738Y-36474500D01*
X12673607Y-36484427D01*
X12673603Y-36484428D01*
X12601820Y-36519521D01*
X12580300Y-36524500D01*
X11231980Y-36524500D01*
X11209735Y-36519159D01*
X11200307Y-36514355D01*
X11200305Y-36514354D01*
X11200304Y-36514354D01*
X11106519Y-36499500D01*
X11106517Y-36499500D01*
X10493482Y-36499500D01*
X10399696Y-36514353D01*
X10286664Y-36571945D01*
X10286657Y-36571950D01*
X10223460Y-36635148D01*
X10188812Y-36649500D01*
X6456900Y-36649500D01*
X6422252Y-36635148D01*
X5535510Y-35748406D01*
X5521158Y-35713758D01*
X5523028Y-35700351D01*
X5565686Y-35550427D01*
X5585185Y-35340000D01*
X23614815Y-35340000D01*
X23634313Y-35550423D01*
X23634314Y-35550429D01*
X23692146Y-35753687D01*
X23692149Y-35753694D01*
X23786342Y-35942859D01*
X23786345Y-35942863D01*
X23913695Y-36111503D01*
X23913698Y-36111506D01*
X24069867Y-36253873D01*
X24069868Y-36253874D01*
X24069872Y-36253877D01*
X24249547Y-36365128D01*
X24249550Y-36365129D01*
X24446599Y-36441466D01*
X24446600Y-36441466D01*
X24446605Y-36441468D01*
X24654336Y-36480300D01*
X24654338Y-36480300D01*
X24865662Y-36480300D01*
X24865664Y-36480300D01*
X25073395Y-36441468D01*
X25270453Y-36365128D01*
X25450128Y-36253877D01*
X25606302Y-36111506D01*
X25733656Y-35942862D01*
X25827853Y-35753689D01*
X25885686Y-35550427D01*
X25905185Y-35340000D01*
X25885686Y-35129573D01*
X25827853Y-34926311D01*
X25733656Y-34737138D01*
X25606302Y-34568494D01*
X25591120Y-34554654D01*
X25450132Y-34426126D01*
X25450129Y-34426124D01*
X25450128Y-34426123D01*
X25270453Y-34314872D01*
X25270450Y-34314871D01*
X25270449Y-34314870D01*
X25073400Y-34238533D01*
X25073395Y-34238532D01*
X24865664Y-34199700D01*
X24654336Y-34199700D01*
X24497584Y-34229002D01*
X24446599Y-34238533D01*
X24249550Y-34314870D01*
X24069867Y-34426126D01*
X23913698Y-34568493D01*
X23913695Y-34568496D01*
X23786345Y-34737136D01*
X23786342Y-34737140D01*
X23692149Y-34926305D01*
X23692146Y-34926312D01*
X23634314Y-35129570D01*
X23634313Y-35129576D01*
X23614815Y-35340000D01*
X5585185Y-35340000D01*
X5565686Y-35129573D01*
X5507853Y-34926311D01*
X5413656Y-34737138D01*
X5286302Y-34568494D01*
X5271120Y-34554654D01*
X5130132Y-34426126D01*
X5130129Y-34426124D01*
X5130128Y-34426123D01*
X4950453Y-34314872D01*
X4950450Y-34314871D01*
X4950449Y-34314870D01*
X4753400Y-34238533D01*
X4753395Y-34238532D01*
X4545664Y-34199700D01*
X4334336Y-34199700D01*
X4177584Y-34229002D01*
X4126599Y-34238533D01*
X3929550Y-34314870D01*
X3749867Y-34426126D01*
X3593698Y-34568493D01*
X3593695Y-34568496D01*
X3466345Y-34737136D01*
X3466342Y-34737140D01*
X3372149Y-34926305D01*
X3372146Y-34926312D01*
X3314314Y-35129570D01*
X3314313Y-35129576D01*
X3294815Y-35340000D01*
X2850000Y-35340000D01*
X2850000Y-32800000D01*
X3294815Y-32800000D01*
X3314313Y-33010423D01*
X3314314Y-33010429D01*
X3372146Y-33213687D01*
X3372149Y-33213694D01*
X3466342Y-33402859D01*
X3466345Y-33402863D01*
X3593695Y-33571503D01*
X3593698Y-33571506D01*
X3749867Y-33713873D01*
X3749868Y-33713874D01*
X3749872Y-33713877D01*
X3929547Y-33825128D01*
X3929550Y-33825129D01*
X4126599Y-33901466D01*
X4126600Y-33901466D01*
X4126605Y-33901468D01*
X4334336Y-33940300D01*
X4334338Y-33940300D01*
X4545662Y-33940300D01*
X4545664Y-33940300D01*
X4753395Y-33901468D01*
X4950453Y-33825128D01*
X5130128Y-33713877D01*
X5286302Y-33571506D01*
X5413656Y-33402862D01*
X5507853Y-33213689D01*
X5565686Y-33010427D01*
X5585185Y-32800000D01*
X23614815Y-32800000D01*
X23634313Y-33010423D01*
X23634314Y-33010429D01*
X23692146Y-33213687D01*
X23692149Y-33213694D01*
X23786342Y-33402859D01*
X23786345Y-33402863D01*
X23913695Y-33571503D01*
X23913698Y-33571506D01*
X24069867Y-33713873D01*
X24069868Y-33713874D01*
X24069872Y-33713877D01*
X24249547Y-33825128D01*
X24249550Y-33825129D01*
X24446599Y-33901466D01*
X24446600Y-33901466D01*
X24446605Y-33901468D01*
X24654336Y-33940300D01*
X24654338Y-33940300D01*
X24865662Y-33940300D01*
X24865664Y-33940300D01*
X25073395Y-33901468D01*
X25270453Y-33825128D01*
X25450128Y-33713877D01*
X25606302Y-33571506D01*
X25733656Y-33402862D01*
X25827853Y-33213689D01*
X25885686Y-33010427D01*
X25905185Y-32800000D01*
X25885686Y-32589573D01*
X25827853Y-32386311D01*
X25804792Y-32339999D01*
X28644417Y-32339999D01*
X28644417Y-32340000D01*
X28664700Y-32545934D01*
X28664700Y-32545935D01*
X28677938Y-32589576D01*
X28724768Y-32743954D01*
X28822315Y-32926450D01*
X28953590Y-33086410D01*
X29113550Y-33217685D01*
X29296046Y-33315232D01*
X29494066Y-33375300D01*
X29700000Y-33395583D01*
X29905934Y-33375300D01*
X30103954Y-33315232D01*
X30286450Y-33217685D01*
X30446410Y-33086410D01*
X30577685Y-32926450D01*
X30675232Y-32743954D01*
X30735300Y-32545934D01*
X30755583Y-32340000D01*
X30735300Y-32134066D01*
X30675232Y-31936046D01*
X30577685Y-31753550D01*
X30446410Y-31593590D01*
X30286450Y-31462315D01*
X30103954Y-31364768D01*
X29905934Y-31304700D01*
X29700000Y-31284417D01*
X29494065Y-31304700D01*
X29494064Y-31304700D01*
X29321616Y-31357011D01*
X29306932Y-31361466D01*
X29296043Y-31364769D01*
X29113548Y-31462316D01*
X28953590Y-31593590D01*
X28822316Y-31753548D01*
X28724769Y-31936043D01*
X28664700Y-32134064D01*
X28664700Y-32134065D01*
X28644417Y-32339999D01*
X25804792Y-32339999D01*
X25733656Y-32197138D01*
X25669979Y-32112816D01*
X25606304Y-32028496D01*
X25606301Y-32028493D01*
X25450132Y-31886126D01*
X25450129Y-31886124D01*
X25450128Y-31886123D01*
X25270453Y-31774872D01*
X25270450Y-31774871D01*
X25270449Y-31774870D01*
X25073400Y-31698533D01*
X25073395Y-31698532D01*
X24865664Y-31659700D01*
X24654336Y-31659700D01*
X24497584Y-31689002D01*
X24446599Y-31698533D01*
X24249550Y-31774870D01*
X24069867Y-31886126D01*
X23913698Y-32028493D01*
X23913695Y-32028496D01*
X23786345Y-32197136D01*
X23786342Y-32197140D01*
X23692149Y-32386305D01*
X23692146Y-32386312D01*
X23634314Y-32589570D01*
X23634313Y-32589576D01*
X23614815Y-32800000D01*
X5585185Y-32800000D01*
X5565686Y-32589573D01*
X5507853Y-32386311D01*
X5413656Y-32197138D01*
X5349979Y-32112816D01*
X5286304Y-32028496D01*
X5286301Y-32028493D01*
X5130132Y-31886126D01*
X5130129Y-31886124D01*
X5130128Y-31886123D01*
X4950453Y-31774872D01*
X4950450Y-31774871D01*
X4950449Y-31774870D01*
X4753400Y-31698533D01*
X4753395Y-31698532D01*
X4545664Y-31659700D01*
X4334336Y-31659700D01*
X4177584Y-31689002D01*
X4126599Y-31698533D01*
X3929550Y-31774870D01*
X3749867Y-31886126D01*
X3593698Y-32028493D01*
X3593695Y-32028496D01*
X3466345Y-32197136D01*
X3466342Y-32197140D01*
X3372149Y-32386305D01*
X3372146Y-32386312D01*
X3314314Y-32589570D01*
X3314313Y-32589576D01*
X3294815Y-32800000D01*
X2850000Y-32800000D01*
X2850000Y-30260000D01*
X3294815Y-30260000D01*
X3314313Y-30470423D01*
X3314314Y-30470429D01*
X3372146Y-30673687D01*
X3372149Y-30673694D01*
X3466342Y-30862859D01*
X3466345Y-30862863D01*
X3593695Y-31031503D01*
X3593698Y-31031506D01*
X3749867Y-31173873D01*
X3749868Y-31173874D01*
X3749872Y-31173877D01*
X3929547Y-31285128D01*
X3929550Y-31285129D01*
X4126599Y-31361466D01*
X4126600Y-31361466D01*
X4126605Y-31361468D01*
X4334336Y-31400300D01*
X4334338Y-31400300D01*
X4545662Y-31400300D01*
X4545664Y-31400300D01*
X4753395Y-31361468D01*
X4950453Y-31285128D01*
X5130128Y-31173877D01*
X5286302Y-31031506D01*
X5413656Y-30862862D01*
X5507853Y-30673689D01*
X5565686Y-30470427D01*
X5585185Y-30260000D01*
X23614815Y-30260000D01*
X23634313Y-30470423D01*
X23634314Y-30470429D01*
X23692146Y-30673687D01*
X23692149Y-30673694D01*
X23786342Y-30862859D01*
X23786345Y-30862863D01*
X23913695Y-31031503D01*
X23913698Y-31031506D01*
X24069867Y-31173873D01*
X24069868Y-31173874D01*
X24069872Y-31173877D01*
X24249547Y-31285128D01*
X24249550Y-31285129D01*
X24446599Y-31361466D01*
X24446600Y-31361466D01*
X24446605Y-31361468D01*
X24654336Y-31400300D01*
X24654338Y-31400300D01*
X24865662Y-31400300D01*
X24865664Y-31400300D01*
X25073395Y-31361468D01*
X25270453Y-31285128D01*
X25450128Y-31173877D01*
X25606302Y-31031506D01*
X25733656Y-30862862D01*
X25827853Y-30673689D01*
X25885686Y-30470427D01*
X25905185Y-30260000D01*
X25885686Y-30049573D01*
X25827853Y-29846311D01*
X25733656Y-29657138D01*
X25652749Y-29550000D01*
X25606304Y-29488496D01*
X25606301Y-29488493D01*
X25450132Y-29346126D01*
X25450129Y-29346124D01*
X25450128Y-29346123D01*
X25270453Y-29234872D01*
X25270450Y-29234871D01*
X25270449Y-29234870D01*
X25073400Y-29158533D01*
X25073395Y-29158532D01*
X24865664Y-29119700D01*
X24654336Y-29119700D01*
X24497584Y-29149002D01*
X24446599Y-29158533D01*
X24249550Y-29234870D01*
X24069867Y-29346126D01*
X23913698Y-29488493D01*
X23913695Y-29488496D01*
X23786345Y-29657136D01*
X23786342Y-29657140D01*
X23692149Y-29846305D01*
X23692146Y-29846312D01*
X23634314Y-30049570D01*
X23634313Y-30049576D01*
X23614815Y-30260000D01*
X5585185Y-30260000D01*
X5565686Y-30049573D01*
X5507853Y-29846311D01*
X5413656Y-29657138D01*
X5332749Y-29550000D01*
X5286304Y-29488496D01*
X5286301Y-29488493D01*
X5130132Y-29346126D01*
X5130129Y-29346124D01*
X5130128Y-29346123D01*
X4950453Y-29234872D01*
X4950450Y-29234871D01*
X4950449Y-29234870D01*
X4753400Y-29158533D01*
X4753395Y-29158532D01*
X4545664Y-29119700D01*
X4334336Y-29119700D01*
X4177584Y-29149002D01*
X4126599Y-29158533D01*
X3929550Y-29234870D01*
X3749867Y-29346126D01*
X3593698Y-29488493D01*
X3593695Y-29488496D01*
X3466345Y-29657136D01*
X3466342Y-29657140D01*
X3372149Y-29846305D01*
X3372146Y-29846312D01*
X3314314Y-30049570D01*
X3314313Y-30049576D01*
X3294815Y-30260000D01*
X2850000Y-30260000D01*
X2850000Y-27720000D01*
X3294815Y-27720000D01*
X3314313Y-27930423D01*
X3314314Y-27930429D01*
X3372146Y-28133687D01*
X3372149Y-28133694D01*
X3466342Y-28322859D01*
X3466345Y-28322863D01*
X3593695Y-28491503D01*
X3593698Y-28491506D01*
X3749867Y-28633873D01*
X3749868Y-28633874D01*
X3749872Y-28633877D01*
X3929547Y-28745128D01*
X3972077Y-28761604D01*
X4126599Y-28821466D01*
X4126600Y-28821466D01*
X4126605Y-28821468D01*
X4334336Y-28860300D01*
X4334338Y-28860300D01*
X4545662Y-28860300D01*
X4545664Y-28860300D01*
X4753395Y-28821468D01*
X4772203Y-28814182D01*
X17324500Y-28814182D01*
X17324500Y-29277217D01*
X17339353Y-29371003D01*
X17396945Y-29484035D01*
X17396950Y-29484042D01*
X17486657Y-29573749D01*
X17486664Y-29573754D01*
X17599691Y-29631344D01*
X17599692Y-29631344D01*
X17599696Y-29631346D01*
X17693481Y-29646200D01*
X17957421Y-29646199D01*
X17963817Y-29646618D01*
X18000000Y-29651382D01*
X18036183Y-29646618D01*
X18042579Y-29646199D01*
X18306517Y-29646199D01*
X18306518Y-29646199D01*
X18400304Y-29631346D01*
X18461387Y-29600222D01*
X18513335Y-29573754D01*
X18513337Y-29573752D01*
X18513342Y-29573750D01*
X18603050Y-29484042D01*
X18603054Y-29484035D01*
X18660644Y-29371009D01*
X18660644Y-29371007D01*
X18660646Y-29371004D01*
X18675500Y-29277219D01*
X18675499Y-28930305D01*
X28650000Y-28930305D01*
X28650000Y-29550000D01*
X29266988Y-29550000D01*
X29234075Y-29607007D01*
X29200000Y-29734174D01*
X29200000Y-29865826D01*
X29234075Y-29992993D01*
X29266988Y-30050000D01*
X28650000Y-30050000D01*
X28650000Y-30669694D01*
X28661604Y-30728036D01*
X28705807Y-30794192D01*
X28771963Y-30838395D01*
X28830305Y-30850000D01*
X29450000Y-30850000D01*
X29450000Y-30233012D01*
X29507007Y-30265925D01*
X29634174Y-30300000D01*
X29765826Y-30300000D01*
X29892993Y-30265925D01*
X29950000Y-30233012D01*
X29950000Y-30850000D01*
X30569695Y-30850000D01*
X30628036Y-30838395D01*
X30694192Y-30794192D01*
X30738395Y-30728036D01*
X30750000Y-30669694D01*
X30750000Y-30050000D01*
X30133012Y-30050000D01*
X30165925Y-29992993D01*
X30200000Y-29865826D01*
X30200000Y-29734174D01*
X30165925Y-29607007D01*
X30133012Y-29550000D01*
X30750000Y-29550000D01*
X30750000Y-28930305D01*
X30738395Y-28871963D01*
X30694192Y-28805807D01*
X30628036Y-28761604D01*
X30569695Y-28750000D01*
X29950000Y-28750000D01*
X29950000Y-29366988D01*
X29892993Y-29334075D01*
X29765826Y-29300000D01*
X29634174Y-29300000D01*
X29507007Y-29334075D01*
X29450000Y-29366988D01*
X29450000Y-28750000D01*
X28830305Y-28750000D01*
X28771963Y-28761604D01*
X28705807Y-28805807D01*
X28661604Y-28871963D01*
X28650000Y-28930305D01*
X18675499Y-28930305D01*
X18675499Y-28814182D01*
X18660646Y-28720396D01*
X18660643Y-28720390D01*
X18603054Y-28607364D01*
X18603049Y-28607357D01*
X18513342Y-28517650D01*
X18513335Y-28517645D01*
X18400308Y-28460055D01*
X18400305Y-28460054D01*
X18400304Y-28460054D01*
X18306519Y-28445200D01*
X18306517Y-28445200D01*
X18042576Y-28445200D01*
X18036181Y-28444781D01*
X18000000Y-28440018D01*
X17999999Y-28440018D01*
X17963816Y-28444781D01*
X17957421Y-28445200D01*
X17693482Y-28445200D01*
X17599696Y-28460053D01*
X17486664Y-28517645D01*
X17486657Y-28517650D01*
X17396950Y-28607357D01*
X17396945Y-28607364D01*
X17339355Y-28720390D01*
X17339355Y-28720392D01*
X17339354Y-28720394D01*
X17339354Y-28720396D01*
X17325826Y-28805807D01*
X17324500Y-28814182D01*
X4772203Y-28814182D01*
X4950453Y-28745128D01*
X5130128Y-28633877D01*
X5286302Y-28491506D01*
X5413656Y-28322862D01*
X5507853Y-28133689D01*
X5565686Y-27930427D01*
X5585185Y-27720000D01*
X5565686Y-27509573D01*
X5507853Y-27306311D01*
X5413656Y-27117138D01*
X5349979Y-27032816D01*
X5286304Y-26948496D01*
X5286301Y-26948493D01*
X5130132Y-26806126D01*
X5130129Y-26806124D01*
X5130128Y-26806123D01*
X4950453Y-26694872D01*
X4950450Y-26694871D01*
X4950449Y-26694870D01*
X4753400Y-26618533D01*
X4753395Y-26618532D01*
X4545664Y-26579700D01*
X4334336Y-26579700D01*
X4177584Y-26609002D01*
X4126599Y-26618533D01*
X3929550Y-26694870D01*
X3749867Y-26806126D01*
X3593698Y-26948493D01*
X3593695Y-26948496D01*
X3466345Y-27117136D01*
X3466342Y-27117140D01*
X3372149Y-27306305D01*
X3372146Y-27306312D01*
X3314314Y-27509570D01*
X3314313Y-27509576D01*
X3294815Y-27720000D01*
X2850000Y-27720000D01*
X2850000Y-22640000D01*
X3294815Y-22640000D01*
X3314313Y-22850423D01*
X3314314Y-22850429D01*
X3372146Y-23053687D01*
X3372149Y-23053694D01*
X3466342Y-23242859D01*
X3466345Y-23242863D01*
X3593695Y-23411503D01*
X3593698Y-23411506D01*
X3749867Y-23553873D01*
X3749868Y-23553874D01*
X3749872Y-23553877D01*
X3929547Y-23665128D01*
X3956228Y-23675464D01*
X4126599Y-23741466D01*
X4126600Y-23741466D01*
X4126605Y-23741468D01*
X4334336Y-23780300D01*
X4334338Y-23780300D01*
X4545662Y-23780300D01*
X4545664Y-23780300D01*
X4753395Y-23741468D01*
X4950453Y-23665128D01*
X5130128Y-23553877D01*
X5286302Y-23411506D01*
X5413656Y-23242862D01*
X5507853Y-23053689D01*
X5541312Y-22936090D01*
X5564598Y-22906693D01*
X5588442Y-22900500D01*
X11469101Y-22900500D01*
X11503749Y-22914852D01*
X11518101Y-22949500D01*
X11503749Y-22984148D01*
X10977747Y-23510148D01*
X10943099Y-23524500D01*
X10693482Y-23524500D01*
X10599696Y-23539353D01*
X10486664Y-23596945D01*
X10486657Y-23596950D01*
X10396950Y-23686657D01*
X10396945Y-23686664D01*
X10339355Y-23799690D01*
X10339355Y-23799692D01*
X10324500Y-23893482D01*
X10324500Y-24506517D01*
X10339353Y-24600303D01*
X10396945Y-24713335D01*
X10396950Y-24713342D01*
X10449460Y-24765852D01*
X10463812Y-24800500D01*
X10449460Y-24835148D01*
X10414812Y-24849500D01*
X5568526Y-24849500D01*
X5533878Y-24835148D01*
X5521397Y-24813910D01*
X5507854Y-24766313D01*
X5413657Y-24577140D01*
X5413656Y-24577139D01*
X5413656Y-24577138D01*
X5308883Y-24438396D01*
X5286304Y-24408496D01*
X5286301Y-24408493D01*
X5130132Y-24266126D01*
X5130129Y-24266124D01*
X5130128Y-24266123D01*
X4950453Y-24154872D01*
X4950450Y-24154871D01*
X4950449Y-24154870D01*
X4753400Y-24078533D01*
X4753395Y-24078532D01*
X4545664Y-24039700D01*
X4334336Y-24039700D01*
X4177584Y-24069002D01*
X4126599Y-24078533D01*
X3929550Y-24154870D01*
X3749867Y-24266126D01*
X3593698Y-24408493D01*
X3593695Y-24408496D01*
X3466345Y-24577136D01*
X3466342Y-24577140D01*
X3372149Y-24766305D01*
X3372146Y-24766312D01*
X3314314Y-24969570D01*
X3314313Y-24969576D01*
X3294815Y-25180000D01*
X3314313Y-25390423D01*
X3314314Y-25390429D01*
X3372146Y-25593687D01*
X3372149Y-25593694D01*
X3466342Y-25782859D01*
X3466345Y-25782863D01*
X3593695Y-25951503D01*
X3593698Y-25951506D01*
X3749867Y-26093873D01*
X3749868Y-26093874D01*
X3749872Y-26093877D01*
X3929547Y-26205128D01*
X3929550Y-26205129D01*
X4126599Y-26281466D01*
X4126600Y-26281466D01*
X4126605Y-26281468D01*
X4334336Y-26320300D01*
X4334338Y-26320300D01*
X4545662Y-26320300D01*
X4545664Y-26320300D01*
X4753395Y-26281468D01*
X4950453Y-26205128D01*
X5130128Y-26093877D01*
X5286302Y-25951506D01*
X5413656Y-25782862D01*
X5416248Y-25777657D01*
X5444540Y-25753039D01*
X5460110Y-25750500D01*
X15509311Y-25750500D01*
X15539430Y-25742428D01*
X15599673Y-25726286D01*
X15623887Y-25719799D01*
X15726614Y-25660489D01*
X16272252Y-25114851D01*
X16306900Y-25100499D01*
X16359311Y-25100499D01*
X16429427Y-25081710D01*
X16473886Y-25069798D01*
X16576614Y-25010489D01*
X16576613Y-25010489D01*
X16579396Y-25008883D01*
X16579752Y-25009501D01*
X16606265Y-25000500D01*
X17115500Y-25000500D01*
X17150148Y-25014852D01*
X17164500Y-25049500D01*
X17164500Y-25179248D01*
X17176133Y-25237731D01*
X17198290Y-25270891D01*
X17220448Y-25304053D01*
X17228239Y-25309259D01*
X17249074Y-25340442D01*
X17241756Y-25377224D01*
X17228239Y-25390741D01*
X17220448Y-25395946D01*
X17176133Y-25462269D01*
X17164500Y-25520752D01*
X17164500Y-26220648D01*
X17176133Y-26279131D01*
X17177695Y-26281468D01*
X17220447Y-26345452D01*
X17247012Y-26363201D01*
X17286769Y-26389767D01*
X17345252Y-26401400D01*
X17500500Y-26401400D01*
X17535148Y-26415752D01*
X17549500Y-26450400D01*
X17549500Y-26805603D01*
X17535148Y-26840251D01*
X17522746Y-26849262D01*
X17486660Y-26867648D01*
X17486654Y-26867653D01*
X17396950Y-26957357D01*
X17396945Y-26957364D01*
X17339355Y-27070390D01*
X17339355Y-27070392D01*
X17324500Y-27164182D01*
X17324500Y-27627217D01*
X17339353Y-27721003D01*
X17396945Y-27834035D01*
X17396950Y-27834042D01*
X17486657Y-27923749D01*
X17486664Y-27923754D01*
X17599691Y-27981344D01*
X17599692Y-27981344D01*
X17599696Y-27981346D01*
X17693481Y-27996200D01*
X18306518Y-27996199D01*
X18400304Y-27981346D01*
X18500246Y-27930423D01*
X18513335Y-27923754D01*
X18513337Y-27923752D01*
X18513342Y-27923750D01*
X18603050Y-27834042D01*
X18603054Y-27834035D01*
X18660644Y-27721009D01*
X18660644Y-27721007D01*
X18660646Y-27721004D01*
X18660805Y-27720000D01*
X23614815Y-27720000D01*
X23634313Y-27930423D01*
X23634314Y-27930429D01*
X23692146Y-28133687D01*
X23692149Y-28133694D01*
X23786342Y-28322859D01*
X23786345Y-28322863D01*
X23913695Y-28491503D01*
X23913698Y-28491506D01*
X24069867Y-28633873D01*
X24069868Y-28633874D01*
X24069872Y-28633877D01*
X24249547Y-28745128D01*
X24292077Y-28761604D01*
X24446599Y-28821466D01*
X24446600Y-28821466D01*
X24446605Y-28821468D01*
X24654336Y-28860300D01*
X24654338Y-28860300D01*
X24865662Y-28860300D01*
X24865664Y-28860300D01*
X25073395Y-28821468D01*
X25270453Y-28745128D01*
X25450128Y-28633877D01*
X25606302Y-28491506D01*
X25733656Y-28322862D01*
X25827853Y-28133689D01*
X25885686Y-27930427D01*
X25905185Y-27720000D01*
X25885686Y-27509573D01*
X25827853Y-27306311D01*
X25733656Y-27117138D01*
X25669979Y-27032816D01*
X25606304Y-26948496D01*
X25606301Y-26948493D01*
X25450132Y-26806126D01*
X25450129Y-26806124D01*
X25450128Y-26806123D01*
X25270453Y-26694872D01*
X25270450Y-26694871D01*
X25270449Y-26694870D01*
X25073400Y-26618533D01*
X25073395Y-26618532D01*
X24865664Y-26579700D01*
X24654336Y-26579700D01*
X24497584Y-26609002D01*
X24446599Y-26618533D01*
X24249550Y-26694870D01*
X24069867Y-26806126D01*
X23913698Y-26948493D01*
X23913695Y-26948496D01*
X23786345Y-27117136D01*
X23786342Y-27117140D01*
X23692149Y-27306305D01*
X23692146Y-27306312D01*
X23634314Y-27509570D01*
X23634313Y-27509576D01*
X23614815Y-27720000D01*
X18660805Y-27720000D01*
X18675500Y-27627219D01*
X18675499Y-27164182D01*
X18660646Y-27070396D01*
X18660643Y-27070390D01*
X18603054Y-26957364D01*
X18603049Y-26957357D01*
X18513345Y-26867653D01*
X18513342Y-26867650D01*
X18513340Y-26867649D01*
X18513339Y-26867648D01*
X18477254Y-26849262D01*
X18452898Y-26820744D01*
X18450500Y-26805603D01*
X18450500Y-26450400D01*
X18464852Y-26415752D01*
X18499500Y-26401400D01*
X18654745Y-26401400D01*
X18654748Y-26401400D01*
X18713231Y-26389767D01*
X18779552Y-26345452D01*
X18823867Y-26279131D01*
X18835500Y-26220648D01*
X18835500Y-25520752D01*
X18823867Y-25462269D01*
X18797301Y-25422512D01*
X18779552Y-25395947D01*
X18771761Y-25390742D01*
X18750926Y-25359560D01*
X18758242Y-25322777D01*
X18771761Y-25309258D01*
X18779552Y-25304052D01*
X18823867Y-25237731D01*
X18835350Y-25180000D01*
X23614815Y-25180000D01*
X23634313Y-25390423D01*
X23634314Y-25390429D01*
X23692146Y-25593687D01*
X23692149Y-25593694D01*
X23786342Y-25782859D01*
X23786345Y-25782863D01*
X23913695Y-25951503D01*
X23913698Y-25951506D01*
X24069867Y-26093873D01*
X24069868Y-26093874D01*
X24069872Y-26093877D01*
X24249547Y-26205128D01*
X24249550Y-26205129D01*
X24446599Y-26281466D01*
X24446600Y-26281466D01*
X24446605Y-26281468D01*
X24654336Y-26320300D01*
X24654338Y-26320300D01*
X24865662Y-26320300D01*
X24865664Y-26320300D01*
X25073395Y-26281468D01*
X25270453Y-26205128D01*
X25450128Y-26093877D01*
X25606302Y-25951506D01*
X25733656Y-25782862D01*
X25827853Y-25593689D01*
X25885686Y-25390427D01*
X25905185Y-25180000D01*
X25885686Y-24969573D01*
X25827853Y-24766311D01*
X25733656Y-24577138D01*
X25628883Y-24438396D01*
X25606304Y-24408496D01*
X25606301Y-24408493D01*
X25450132Y-24266126D01*
X25450129Y-24266124D01*
X25450128Y-24266123D01*
X25270453Y-24154872D01*
X25270450Y-24154871D01*
X25270449Y-24154870D01*
X25073400Y-24078533D01*
X25073395Y-24078532D01*
X24865664Y-24039700D01*
X24654336Y-24039700D01*
X24497584Y-24069002D01*
X24446599Y-24078533D01*
X24249550Y-24154870D01*
X24069867Y-24266126D01*
X23913698Y-24408493D01*
X23913695Y-24408496D01*
X23786345Y-24577136D01*
X23786342Y-24577140D01*
X23692149Y-24766305D01*
X23692146Y-24766312D01*
X23634314Y-24969570D01*
X23634313Y-24969576D01*
X23614815Y-25180000D01*
X18835350Y-25180000D01*
X18835500Y-25179248D01*
X18835500Y-25049500D01*
X18849852Y-25014852D01*
X18884500Y-25000500D01*
X19909311Y-25000500D01*
X19952043Y-24989049D01*
X20016146Y-24971873D01*
X20023887Y-24969799D01*
X20126614Y-24910489D01*
X22397103Y-22640000D01*
X23614815Y-22640000D01*
X23634313Y-22850423D01*
X23634314Y-22850429D01*
X23692146Y-23053687D01*
X23692149Y-23053694D01*
X23786342Y-23242859D01*
X23786345Y-23242863D01*
X23913695Y-23411503D01*
X23913698Y-23411506D01*
X24069867Y-23553873D01*
X24069868Y-23553874D01*
X24069872Y-23553877D01*
X24249547Y-23665128D01*
X24276228Y-23675464D01*
X24446599Y-23741466D01*
X24446600Y-23741466D01*
X24446605Y-23741468D01*
X24654336Y-23780300D01*
X24654338Y-23780300D01*
X24865662Y-23780300D01*
X24865664Y-23780300D01*
X25073395Y-23741468D01*
X25270453Y-23665128D01*
X25450128Y-23553877D01*
X25606302Y-23411506D01*
X25733656Y-23242862D01*
X25827853Y-23053689D01*
X25885686Y-22850427D01*
X25905185Y-22640000D01*
X25885686Y-22429573D01*
X25827853Y-22226311D01*
X25733656Y-22037138D01*
X25606302Y-21868494D01*
X25606301Y-21868493D01*
X25450132Y-21726126D01*
X25450129Y-21726124D01*
X25450128Y-21726123D01*
X25270453Y-21614872D01*
X25270450Y-21614871D01*
X25270449Y-21614870D01*
X25073400Y-21538533D01*
X25073395Y-21538532D01*
X24865664Y-21499700D01*
X24654336Y-21499700D01*
X24497584Y-21529002D01*
X24446599Y-21538533D01*
X24249550Y-21614870D01*
X24069867Y-21726126D01*
X23913698Y-21868493D01*
X23913695Y-21868496D01*
X23786345Y-22037136D01*
X23786342Y-22037140D01*
X23692149Y-22226305D01*
X23692146Y-22226312D01*
X23634314Y-22429570D01*
X23634313Y-22429576D01*
X23614815Y-22640000D01*
X22397103Y-22640000D01*
X23722251Y-21314852D01*
X23756899Y-21300500D01*
X25193101Y-21300500D01*
X25227749Y-21314852D01*
X32285148Y-28372251D01*
X32299500Y-28406899D01*
X32299500Y-31623100D01*
X32285148Y-31657748D01*
X30074216Y-33868679D01*
X30039568Y-33883031D01*
X30025345Y-33880921D01*
X29905939Y-33844701D01*
X29905934Y-33844700D01*
X29700000Y-33824417D01*
X29494065Y-33844700D01*
X29494064Y-33844700D01*
X29367704Y-33883031D01*
X29306932Y-33901466D01*
X29296043Y-33904769D01*
X29113548Y-34002316D01*
X28953590Y-34133590D01*
X28822316Y-34293548D01*
X28724769Y-34476043D01*
X28664700Y-34674064D01*
X28664700Y-34674065D01*
X28644417Y-34879999D01*
X28644417Y-34880000D01*
X28664700Y-35085934D01*
X28664700Y-35085935D01*
X28677938Y-35129576D01*
X28724768Y-35283954D01*
X28822315Y-35466450D01*
X28953590Y-35626410D01*
X29113550Y-35757685D01*
X29296046Y-35855232D01*
X29494066Y-35915300D01*
X29700000Y-35935583D01*
X29905934Y-35915300D01*
X30103954Y-35855232D01*
X30286450Y-35757685D01*
X30446410Y-35626410D01*
X30577685Y-35466450D01*
X30675232Y-35283954D01*
X30735300Y-35085934D01*
X30755583Y-34880000D01*
X30735300Y-34674066D01*
X30699077Y-34554653D01*
X30702753Y-34517332D01*
X30711316Y-34505785D01*
X33110489Y-32106614D01*
X33169798Y-32003887D01*
X33169799Y-32003886D01*
X33200499Y-31889312D01*
X33200500Y-31889312D01*
X33200500Y-28140688D01*
X33171469Y-28032346D01*
X33171468Y-28032342D01*
X33171468Y-28032343D01*
X33169799Y-28026114D01*
X33169799Y-28026113D01*
X33152529Y-27996200D01*
X33110494Y-27923392D01*
X33110491Y-27923389D01*
X33110490Y-27923386D01*
X25676614Y-20489511D01*
X25573888Y-20430201D01*
X25573886Y-20430200D01*
X25549673Y-20423713D01*
X25519551Y-20415642D01*
X25459311Y-20399500D01*
X25459309Y-20399500D01*
X23490691Y-20399500D01*
X23490688Y-20399500D01*
X23400326Y-20423713D01*
X23376115Y-20430199D01*
X23376110Y-20430201D01*
X23273385Y-20489511D01*
X23273385Y-20489512D01*
X19677749Y-24085148D01*
X19643101Y-24099500D01*
X16140687Y-24099500D01*
X16140071Y-24099581D01*
X16133679Y-24100000D01*
X15691211Y-24100000D01*
X15723213Y-24172479D01*
X15740733Y-24189999D01*
X15755085Y-24224647D01*
X15740733Y-24259295D01*
X15722794Y-24277233D01*
X15677415Y-24380006D01*
X15674500Y-24405134D01*
X15674500Y-24418100D01*
X15660148Y-24452748D01*
X15277749Y-24835148D01*
X15243101Y-24849500D01*
X14840601Y-24849500D01*
X14805953Y-24835148D01*
X14791601Y-24800500D01*
X14795776Y-24780708D01*
X14822584Y-24719993D01*
X14822583Y-24719993D01*
X14822585Y-24719991D01*
X14825500Y-24694865D01*
X14825499Y-24405136D01*
X14822585Y-24380009D01*
X14777206Y-24277235D01*
X14777205Y-24277234D01*
X14777205Y-24277233D01*
X14759267Y-24259296D01*
X14744914Y-24224648D01*
X14759265Y-24190000D01*
X14776786Y-24172479D01*
X14808789Y-24100000D01*
X14366321Y-24100000D01*
X14359929Y-24099581D01*
X14359313Y-24099500D01*
X14359309Y-24099500D01*
X13224499Y-24099500D01*
X13189851Y-24085148D01*
X13175499Y-24050500D01*
X13175499Y-23893482D01*
X13160646Y-23799699D01*
X13160646Y-23799696D01*
X13146403Y-23771744D01*
X13143462Y-23734358D01*
X13167819Y-23705840D01*
X13190064Y-23700500D01*
X14359313Y-23700500D01*
X14359929Y-23700419D01*
X14366321Y-23700000D01*
X14808788Y-23700000D01*
X14776786Y-23627520D01*
X14759266Y-23610000D01*
X14744914Y-23575352D01*
X14759265Y-23540705D01*
X14777206Y-23522765D01*
X14822585Y-23419991D01*
X14825500Y-23394865D01*
X14825499Y-23105136D01*
X14822585Y-23080009D01*
X14806239Y-23042990D01*
X14777204Y-22977230D01*
X14777175Y-22977188D01*
X14777165Y-22977142D01*
X14775372Y-22973081D01*
X14776229Y-22972702D01*
X14769437Y-22940492D01*
X14789914Y-22909073D01*
X14817602Y-22900500D01*
X15193101Y-22900500D01*
X15227749Y-22914852D01*
X15660148Y-23347252D01*
X15674500Y-23381897D01*
X15674500Y-23394857D01*
X15674501Y-23394867D01*
X15677415Y-23419992D01*
X15722794Y-23522766D01*
X15740732Y-23540703D01*
X15755085Y-23575351D01*
X15740734Y-23609999D01*
X15723213Y-23627520D01*
X15691211Y-23700000D01*
X16133679Y-23700000D01*
X16140071Y-23700419D01*
X16140687Y-23700500D01*
X16140691Y-23700500D01*
X19309311Y-23700500D01*
X19371599Y-23683809D01*
X19402744Y-23675464D01*
X19402745Y-23675464D01*
X19407212Y-23674266D01*
X19423887Y-23669799D01*
X19526614Y-23610489D01*
X23122251Y-20014852D01*
X23156899Y-20000500D01*
X25743101Y-20000500D01*
X25777749Y-20014852D01*
X33635148Y-27872251D01*
X33649500Y-27906899D01*
X33649500Y-32843100D01*
X33635148Y-32877748D01*
X30097233Y-36415662D01*
X30062585Y-36430014D01*
X30048361Y-36427904D01*
X29905935Y-36384700D01*
X29700000Y-36364417D01*
X29494065Y-36384700D01*
X29494064Y-36384700D01*
X29344684Y-36430014D01*
X29306932Y-36441466D01*
X29296043Y-36444769D01*
X29113548Y-36542316D01*
X28953590Y-36673590D01*
X28822316Y-36833548D01*
X28724769Y-37016043D01*
X28664700Y-37214064D01*
X28664700Y-37214065D01*
X28644417Y-37419999D01*
X28644417Y-37420000D01*
X28664700Y-37625934D01*
X28664700Y-37625935D01*
X28677938Y-37669576D01*
X28724768Y-37823954D01*
X28822315Y-38006450D01*
X28953590Y-38166410D01*
X29113550Y-38297685D01*
X29296046Y-38395232D01*
X29494066Y-38455300D01*
X29700000Y-38475583D01*
X29905934Y-38455300D01*
X30103954Y-38395232D01*
X30286450Y-38297685D01*
X30446410Y-38166410D01*
X30577685Y-38006450D01*
X30675232Y-37823954D01*
X30735300Y-37625934D01*
X30755583Y-37420000D01*
X30735300Y-37214066D01*
X30706059Y-37117671D01*
X30709735Y-37080350D01*
X30718298Y-37068803D01*
X34460489Y-33326614D01*
X34519799Y-33223887D01*
X34537109Y-33159284D01*
X34550500Y-33109309D01*
X34550500Y-27640691D01*
X34550500Y-27640688D01*
X34519800Y-27526118D01*
X34519799Y-27526114D01*
X34504003Y-27498754D01*
X34460490Y-27423387D01*
X26226614Y-19189511D01*
X26123888Y-19130201D01*
X26123886Y-19130200D01*
X26099673Y-19123713D01*
X26069551Y-19115642D01*
X26009311Y-19099500D01*
X26009309Y-19099500D01*
X22890691Y-19099500D01*
X22890688Y-19099500D01*
X22800326Y-19123713D01*
X22776115Y-19130199D01*
X22776110Y-19130201D01*
X22673385Y-19189511D01*
X22673385Y-19189512D01*
X19077749Y-22785148D01*
X19043101Y-22799500D01*
X18884500Y-22799500D01*
X18849852Y-22785148D01*
X18835500Y-22750500D01*
X18835500Y-22575055D01*
X18835500Y-22575052D01*
X18823867Y-22516569D01*
X18797301Y-22476812D01*
X18779552Y-22450247D01*
X18771761Y-22445042D01*
X18750926Y-22413860D01*
X18758242Y-22377077D01*
X18771761Y-22363558D01*
X18779552Y-22358352D01*
X18823867Y-22292031D01*
X18835500Y-22233548D01*
X18835500Y-21533652D01*
X18823867Y-21475169D01*
X18797301Y-21435412D01*
X18779552Y-21408847D01*
X18739795Y-21382282D01*
X18713231Y-21364533D01*
X18654748Y-21352900D01*
X18654745Y-21352900D01*
X18499500Y-21352900D01*
X18464852Y-21338548D01*
X18450500Y-21303900D01*
X18450500Y-20940096D01*
X18464852Y-20905448D01*
X18477250Y-20896439D01*
X18513342Y-20878050D01*
X18603050Y-20788342D01*
X18638400Y-20718965D01*
X18660644Y-20675309D01*
X18660644Y-20675307D01*
X18660646Y-20675304D01*
X18675500Y-20581519D01*
X18675499Y-20118482D01*
X18660646Y-20024696D01*
X18655630Y-20014852D01*
X18603054Y-19911664D01*
X18603049Y-19911657D01*
X18513342Y-19821950D01*
X18513335Y-19821945D01*
X18400308Y-19764355D01*
X18400305Y-19764354D01*
X18400304Y-19764354D01*
X18306519Y-19749500D01*
X18306517Y-19749500D01*
X17693482Y-19749500D01*
X17599696Y-19764353D01*
X17486664Y-19821945D01*
X17486657Y-19821950D01*
X17396950Y-19911657D01*
X17396945Y-19911664D01*
X17339355Y-20024690D01*
X17339355Y-20024692D01*
X17339354Y-20024694D01*
X17339354Y-20024696D01*
X17324500Y-20118481D01*
X17324500Y-20118482D01*
X17324500Y-20581517D01*
X17339353Y-20675303D01*
X17396945Y-20788335D01*
X17396950Y-20788342D01*
X17486658Y-20878050D01*
X17522746Y-20896437D01*
X17547101Y-20924953D01*
X17549500Y-20940096D01*
X17549500Y-21303900D01*
X17535148Y-21338548D01*
X17500500Y-21352900D01*
X17345252Y-21352900D01*
X17286769Y-21364533D01*
X17220447Y-21408847D01*
X17176133Y-21475169D01*
X17164500Y-21533652D01*
X17164500Y-22233548D01*
X17176133Y-22292031D01*
X17198290Y-22325191D01*
X17220448Y-22358353D01*
X17228239Y-22363559D01*
X17249074Y-22394742D01*
X17241756Y-22431524D01*
X17228239Y-22445041D01*
X17220448Y-22450246D01*
X17176133Y-22516569D01*
X17164500Y-22575052D01*
X17164500Y-22575055D01*
X17164500Y-22750500D01*
X17150148Y-22785148D01*
X17115500Y-22799500D01*
X16406900Y-22799500D01*
X16372252Y-22785148D01*
X15676615Y-22089512D01*
X15676614Y-22089511D01*
X15573888Y-22030201D01*
X15573886Y-22030200D01*
X15549673Y-22023713D01*
X15519551Y-22015642D01*
X15459311Y-21999500D01*
X15459309Y-21999500D01*
X5409632Y-21999500D01*
X5374984Y-21985148D01*
X5370529Y-21980029D01*
X5286304Y-21868496D01*
X5286301Y-21868493D01*
X5130132Y-21726126D01*
X5130129Y-21726124D01*
X5130128Y-21726123D01*
X4950453Y-21614872D01*
X4950450Y-21614871D01*
X4950449Y-21614870D01*
X4753400Y-21538533D01*
X4753395Y-21538532D01*
X4545664Y-21499700D01*
X4334336Y-21499700D01*
X4177584Y-21529002D01*
X4126599Y-21538533D01*
X3929550Y-21614870D01*
X3749867Y-21726126D01*
X3593698Y-21868493D01*
X3593695Y-21868496D01*
X3466345Y-22037136D01*
X3466342Y-22037140D01*
X3372149Y-22226305D01*
X3372146Y-22226312D01*
X3314314Y-22429570D01*
X3314313Y-22429576D01*
X3294815Y-22640000D01*
X2850000Y-22640000D01*
X2850000Y-18725369D01*
X3798500Y-18725369D01*
X3798500Y-18974631D01*
X3831035Y-19221760D01*
X3831036Y-19221764D01*
X3831037Y-19221771D01*
X3895546Y-19462522D01*
X3895549Y-19462529D01*
X3990937Y-19692816D01*
X4023664Y-19749501D01*
X4115566Y-19908681D01*
X4115576Y-19908696D01*
X4267300Y-20106426D01*
X4267311Y-20106438D01*
X4443561Y-20282688D01*
X4443573Y-20282699D01*
X4641303Y-20434423D01*
X4641312Y-20434429D01*
X4641316Y-20434432D01*
X4857184Y-20559063D01*
X5087471Y-20654451D01*
X5087474Y-20654451D01*
X5087477Y-20654453D01*
X5328228Y-20718962D01*
X5328229Y-20718962D01*
X5328240Y-20718965D01*
X5575369Y-20751500D01*
X5575373Y-20751500D01*
X5824627Y-20751500D01*
X5824631Y-20751500D01*
X6071760Y-20718965D01*
X6234705Y-20675304D01*
X6312522Y-20654453D01*
X6312522Y-20654452D01*
X6312529Y-20654451D01*
X6542816Y-20559063D01*
X6758684Y-20434432D01*
X6764198Y-20430201D01*
X6956426Y-20282699D01*
X6956428Y-20282696D01*
X6956436Y-20282691D01*
X7132691Y-20106436D01*
X7282146Y-19911664D01*
X7284423Y-19908696D01*
X7284424Y-19908693D01*
X7284432Y-19908684D01*
X7409063Y-19692816D01*
X7504451Y-19462529D01*
X7568965Y-19221760D01*
X7601500Y-18974631D01*
X7601500Y-18725369D01*
X7568965Y-18478240D01*
X7568962Y-18478228D01*
X7566351Y-18468482D01*
X17324500Y-18468482D01*
X17324500Y-18931517D01*
X17339353Y-19025303D01*
X17396945Y-19138335D01*
X17396950Y-19138342D01*
X17486657Y-19228049D01*
X17486664Y-19228054D01*
X17599691Y-19285644D01*
X17599692Y-19285644D01*
X17599696Y-19285646D01*
X17693481Y-19300500D01*
X17957421Y-19300499D01*
X17963817Y-19300918D01*
X18000000Y-19305682D01*
X18036183Y-19300918D01*
X18042579Y-19300499D01*
X18306517Y-19300499D01*
X18306518Y-19300499D01*
X18400304Y-19285646D01*
X18461387Y-19254522D01*
X18513335Y-19228054D01*
X18513337Y-19228052D01*
X18513342Y-19228050D01*
X18603050Y-19138342D01*
X18603054Y-19138335D01*
X18660644Y-19025309D01*
X18660644Y-19025307D01*
X18660646Y-19025304D01*
X18675500Y-18931519D01*
X18675499Y-18468482D01*
X18660646Y-18374696D01*
X18648408Y-18350677D01*
X18603054Y-18261664D01*
X18603049Y-18261657D01*
X18513342Y-18171950D01*
X18513335Y-18171945D01*
X18400308Y-18114355D01*
X18400305Y-18114354D01*
X18400304Y-18114354D01*
X18306519Y-18099500D01*
X18306517Y-18099500D01*
X18042576Y-18099500D01*
X18036181Y-18099081D01*
X18000000Y-18094318D01*
X17999999Y-18094318D01*
X17963816Y-18099081D01*
X17957421Y-18099500D01*
X17693482Y-18099500D01*
X17599696Y-18114353D01*
X17486664Y-18171945D01*
X17486657Y-18171950D01*
X17396950Y-18261657D01*
X17396945Y-18261664D01*
X17339355Y-18374690D01*
X17339355Y-18374692D01*
X17324500Y-18468482D01*
X7566351Y-18468482D01*
X7504453Y-18237477D01*
X7504449Y-18237467D01*
X7477309Y-18171945D01*
X7409063Y-18007184D01*
X7284432Y-17791316D01*
X7284429Y-17791312D01*
X7284423Y-17791303D01*
X7132699Y-17593573D01*
X7132688Y-17593561D01*
X6956438Y-17417311D01*
X6956426Y-17417300D01*
X6758696Y-17265576D01*
X6758681Y-17265566D01*
X6583696Y-17164539D01*
X6542816Y-17140937D01*
X6368409Y-17068695D01*
X6312532Y-17045550D01*
X6312522Y-17045546D01*
X6071771Y-16981037D01*
X6071764Y-16981036D01*
X6071760Y-16981035D01*
X5824631Y-16948500D01*
X5575369Y-16948500D01*
X5328240Y-16981035D01*
X5328236Y-16981035D01*
X5328228Y-16981037D01*
X5087477Y-17045546D01*
X5087467Y-17045550D01*
X4936202Y-17108206D01*
X4857184Y-17140937D01*
X4857181Y-17140938D01*
X4857180Y-17140939D01*
X4641318Y-17265566D01*
X4641303Y-17265576D01*
X4443573Y-17417300D01*
X4443561Y-17417311D01*
X4267311Y-17593561D01*
X4267300Y-17593573D01*
X4115576Y-17791303D01*
X4115566Y-17791318D01*
X3990939Y-18007180D01*
X3895550Y-18237467D01*
X3895546Y-18237477D01*
X3831037Y-18478228D01*
X3831035Y-18478236D01*
X3831035Y-18478240D01*
X3798500Y-18725369D01*
X2850000Y-18725369D01*
X2850000Y-18350677D01*
X2851227Y-18339778D01*
X2912462Y-18071360D01*
X2913977Y-18066102D01*
X3023342Y-17753401D01*
X3025428Y-17748362D01*
X3169101Y-17449866D01*
X3171745Y-17445079D01*
X3347921Y-17164539D01*
X3351080Y-17160084D01*
X3557537Y-16901032D01*
X3561185Y-16896946D01*
X3795350Y-16662614D01*
X3799418Y-16658976D01*
X4058335Y-16452323D01*
X4062786Y-16449162D01*
X4343197Y-16272788D01*
X4347976Y-16270143D01*
X4646380Y-16126252D01*
X4651424Y-16124160D01*
X4964042Y-16014572D01*
X4969284Y-16013059D01*
X5239390Y-15951234D01*
X5250323Y-15950000D01*
X38501000Y-15950000D01*
X38535648Y-15964352D01*
G37*
%TD.AperFunction*%
%TD*%
M02*
