%TF.GenerationSoftware,KiCad,Pcbnew,8.0.5*%
%TF.CreationDate,2024-09-27T01:52:58-04:00*%
%TF.ProjectId,BREAD_Loaf,42524541-445f-44c6-9f61-662e6b696361,rev?*%
%TF.SameCoordinates,PX2fdfdc0PY36746e0*%
%TF.FileFunction,Legend,Bot*%
%TF.FilePolarity,Positive*%
%FSLAX46Y46*%
G04 Gerber Fmt 4.6, Leading zero omitted, Abs format (unit mm)*
G04 Created by KiCad (PCBNEW 8.0.5) date 2024-09-27 01:52:58*
%MOMM*%
%LPD*%
G01*
G04 APERTURE LIST*
%ADD10C,0.150000*%
%ADD11C,0.120000*%
%ADD12C,0.152400*%
G04 APERTURE END LIST*
D10*
X15721428Y-19059875D02*
X15721428Y-18059875D01*
X15292857Y-18155113D02*
X15245238Y-18107494D01*
X15245238Y-18107494D02*
X15150000Y-18059875D01*
X15150000Y-18059875D02*
X14911905Y-18059875D01*
X14911905Y-18059875D02*
X14816667Y-18107494D01*
X14816667Y-18107494D02*
X14769048Y-18155113D01*
X14769048Y-18155113D02*
X14721429Y-18250351D01*
X14721429Y-18250351D02*
X14721429Y-18345589D01*
X14721429Y-18345589D02*
X14769048Y-18488446D01*
X14769048Y-18488446D02*
X15340476Y-19059875D01*
X15340476Y-19059875D02*
X14721429Y-19059875D01*
X13721429Y-18964636D02*
X13769048Y-19012256D01*
X13769048Y-19012256D02*
X13911905Y-19059875D01*
X13911905Y-19059875D02*
X14007143Y-19059875D01*
X14007143Y-19059875D02*
X14150000Y-19012256D01*
X14150000Y-19012256D02*
X14245238Y-18917017D01*
X14245238Y-18917017D02*
X14292857Y-18821779D01*
X14292857Y-18821779D02*
X14340476Y-18631303D01*
X14340476Y-18631303D02*
X14340476Y-18488446D01*
X14340476Y-18488446D02*
X14292857Y-18297970D01*
X14292857Y-18297970D02*
X14245238Y-18202732D01*
X14245238Y-18202732D02*
X14150000Y-18107494D01*
X14150000Y-18107494D02*
X14007143Y-18059875D01*
X14007143Y-18059875D02*
X13911905Y-18059875D01*
X13911905Y-18059875D02*
X13769048Y-18107494D01*
X13769048Y-18107494D02*
X13721429Y-18155113D01*
X12578571Y-18774160D02*
X12102381Y-18774160D01*
X12673809Y-19059875D02*
X12340476Y-18059875D01*
X12340476Y-18059875D02*
X12007143Y-19059875D01*
X11245238Y-19012256D02*
X11340476Y-19059875D01*
X11340476Y-19059875D02*
X11530952Y-19059875D01*
X11530952Y-19059875D02*
X11626190Y-19012256D01*
X11626190Y-19012256D02*
X11673809Y-18964636D01*
X11673809Y-18964636D02*
X11721428Y-18869398D01*
X11721428Y-18869398D02*
X11721428Y-18583684D01*
X11721428Y-18583684D02*
X11673809Y-18488446D01*
X11673809Y-18488446D02*
X11626190Y-18440827D01*
X11626190Y-18440827D02*
X11530952Y-18393208D01*
X11530952Y-18393208D02*
X11340476Y-18393208D01*
X11340476Y-18393208D02*
X11245238Y-18440827D01*
X10388095Y-19012256D02*
X10483333Y-19059875D01*
X10483333Y-19059875D02*
X10673809Y-19059875D01*
X10673809Y-19059875D02*
X10769047Y-19012256D01*
X10769047Y-19012256D02*
X10816666Y-18964636D01*
X10816666Y-18964636D02*
X10864285Y-18869398D01*
X10864285Y-18869398D02*
X10864285Y-18583684D01*
X10864285Y-18583684D02*
X10816666Y-18488446D01*
X10816666Y-18488446D02*
X10769047Y-18440827D01*
X10769047Y-18440827D02*
X10673809Y-18393208D01*
X10673809Y-18393208D02*
X10483333Y-18393208D01*
X10483333Y-18393208D02*
X10388095Y-18440827D01*
X9578571Y-19012256D02*
X9673809Y-19059875D01*
X9673809Y-19059875D02*
X9864285Y-19059875D01*
X9864285Y-19059875D02*
X9959523Y-19012256D01*
X9959523Y-19012256D02*
X10007142Y-18917017D01*
X10007142Y-18917017D02*
X10007142Y-18536065D01*
X10007142Y-18536065D02*
X9959523Y-18440827D01*
X9959523Y-18440827D02*
X9864285Y-18393208D01*
X9864285Y-18393208D02*
X9673809Y-18393208D01*
X9673809Y-18393208D02*
X9578571Y-18440827D01*
X9578571Y-18440827D02*
X9530952Y-18536065D01*
X9530952Y-18536065D02*
X9530952Y-18631303D01*
X9530952Y-18631303D02*
X10007142Y-18726541D01*
X8959523Y-19059875D02*
X9054761Y-19012256D01*
X9054761Y-19012256D02*
X9102380Y-18917017D01*
X9102380Y-18917017D02*
X9102380Y-18059875D01*
X8578570Y-18964636D02*
X8530951Y-19012256D01*
X8530951Y-19012256D02*
X8578570Y-19059875D01*
X8578570Y-19059875D02*
X8626189Y-19012256D01*
X8626189Y-19012256D02*
X8578570Y-18964636D01*
X8578570Y-18964636D02*
X8578570Y-19059875D01*
X15316666Y-20669819D02*
X15316666Y-19669819D01*
X15316666Y-19669819D02*
X14935714Y-19669819D01*
X14935714Y-19669819D02*
X14840476Y-19717438D01*
X14840476Y-19717438D02*
X14792857Y-19765057D01*
X14792857Y-19765057D02*
X14745238Y-19860295D01*
X14745238Y-19860295D02*
X14745238Y-20003152D01*
X14745238Y-20003152D02*
X14792857Y-20098390D01*
X14792857Y-20098390D02*
X14840476Y-20146009D01*
X14840476Y-20146009D02*
X14935714Y-20193628D01*
X14935714Y-20193628D02*
X15316666Y-20193628D01*
X13888095Y-20003152D02*
X13888095Y-20669819D01*
X14316666Y-20003152D02*
X14316666Y-20526961D01*
X14316666Y-20526961D02*
X14269047Y-20622200D01*
X14269047Y-20622200D02*
X14173809Y-20669819D01*
X14173809Y-20669819D02*
X14030952Y-20669819D01*
X14030952Y-20669819D02*
X13935714Y-20622200D01*
X13935714Y-20622200D02*
X13888095Y-20574580D01*
X13269047Y-20669819D02*
X13364285Y-20622200D01*
X13364285Y-20622200D02*
X13411904Y-20526961D01*
X13411904Y-20526961D02*
X13411904Y-19669819D01*
X12745237Y-20669819D02*
X12840475Y-20622200D01*
X12840475Y-20622200D02*
X12888094Y-20526961D01*
X12888094Y-20526961D02*
X12888094Y-19669819D01*
X12364284Y-20288866D02*
X11602380Y-20288866D01*
X10697618Y-20003152D02*
X10697618Y-20669819D01*
X11126189Y-20003152D02*
X11126189Y-20526961D01*
X11126189Y-20526961D02*
X11078570Y-20622200D01*
X11078570Y-20622200D02*
X10983332Y-20669819D01*
X10983332Y-20669819D02*
X10840475Y-20669819D01*
X10840475Y-20669819D02*
X10745237Y-20622200D01*
X10745237Y-20622200D02*
X10697618Y-20574580D01*
X10221427Y-20003152D02*
X10221427Y-21003152D01*
X10221427Y-20050771D02*
X10126189Y-20003152D01*
X10126189Y-20003152D02*
X9935713Y-20003152D01*
X9935713Y-20003152D02*
X9840475Y-20050771D01*
X9840475Y-20050771D02*
X9792856Y-20098390D01*
X9792856Y-20098390D02*
X9745237Y-20193628D01*
X9745237Y-20193628D02*
X9745237Y-20479342D01*
X9745237Y-20479342D02*
X9792856Y-20574580D01*
X9792856Y-20574580D02*
X9840475Y-20622200D01*
X9840475Y-20622200D02*
X9935713Y-20669819D01*
X9935713Y-20669819D02*
X10126189Y-20669819D01*
X10126189Y-20669819D02*
X10221427Y-20622200D01*
X9364284Y-20622200D02*
X9269046Y-20669819D01*
X9269046Y-20669819D02*
X9078570Y-20669819D01*
X9078570Y-20669819D02*
X8983332Y-20622200D01*
X8983332Y-20622200D02*
X8935713Y-20526961D01*
X8935713Y-20526961D02*
X8935713Y-20479342D01*
X8935713Y-20479342D02*
X8983332Y-20384104D01*
X8983332Y-20384104D02*
X9078570Y-20336485D01*
X9078570Y-20336485D02*
X9221427Y-20336485D01*
X9221427Y-20336485D02*
X9316665Y-20288866D01*
X9316665Y-20288866D02*
X9364284Y-20193628D01*
X9364284Y-20193628D02*
X9364284Y-20146009D01*
X9364284Y-20146009D02*
X9316665Y-20050771D01*
X9316665Y-20050771D02*
X9221427Y-20003152D01*
X9221427Y-20003152D02*
X9078570Y-20003152D01*
X9078570Y-20003152D02*
X8983332Y-20050771D01*
X7575000Y-17450000D02*
X9225000Y-17450000D01*
X9825000Y-17450000D02*
X11475000Y-17450000D01*
X12075000Y-17450000D02*
X13725000Y-17450000D01*
X14325000Y-17450000D02*
X15975000Y-17450000D01*
X16575000Y-17450000D02*
X18225000Y-17450000D01*
X18825000Y-17450000D02*
X20475000Y-17450000D01*
X21075000Y-17450000D02*
X21525000Y-17450000D01*
X21525000Y-17450000D02*
X21525000Y-19100000D01*
X21525000Y-19700000D02*
X21525000Y-21350000D01*
X21525000Y-21950000D02*
X21525000Y-23600000D01*
X21525000Y-24200000D02*
X21525000Y-25850000D01*
X21525000Y-26450000D02*
X21525000Y-28100000D01*
X21525000Y-28700000D02*
X21525000Y-30350000D01*
X21525000Y-30950000D02*
X21525000Y-31850000D01*
X21525000Y-31850000D02*
X19875000Y-31850000D01*
X19275000Y-31850000D02*
X17625000Y-31850000D01*
X17025000Y-31850000D02*
X15375000Y-31850000D01*
X14775000Y-31850000D02*
X13125000Y-31850000D01*
X12525000Y-31850000D02*
X10875000Y-31850000D01*
X10275000Y-31850000D02*
X8625000Y-31850000D01*
X8025000Y-31850000D02*
X7575000Y-31850000D01*
X7575000Y-31850000D02*
X7575000Y-30200000D01*
X7575000Y-29600000D02*
X7575000Y-27950000D01*
X7575000Y-27350000D02*
X7575000Y-25700000D01*
X7575000Y-25100000D02*
X7575000Y-23450000D01*
X7575000Y-22850000D02*
X7575000Y-21200000D01*
X7575000Y-20600000D02*
X7575000Y-18950000D01*
X7575000Y-18350000D02*
X7575000Y-17450000D01*
X9955827Y-25624200D02*
X9841541Y-25662295D01*
X9841541Y-25662295D02*
X9651065Y-25662295D01*
X9651065Y-25662295D02*
X9574874Y-25624200D01*
X9574874Y-25624200D02*
X9536779Y-25586104D01*
X9536779Y-25586104D02*
X9498684Y-25509914D01*
X9498684Y-25509914D02*
X9498684Y-25433723D01*
X9498684Y-25433723D02*
X9536779Y-25357533D01*
X9536779Y-25357533D02*
X9574874Y-25319438D01*
X9574874Y-25319438D02*
X9651065Y-25281342D01*
X9651065Y-25281342D02*
X9803446Y-25243247D01*
X9803446Y-25243247D02*
X9879636Y-25205152D01*
X9879636Y-25205152D02*
X9917731Y-25167057D01*
X9917731Y-25167057D02*
X9955827Y-25090866D01*
X9955827Y-25090866D02*
X9955827Y-25014676D01*
X9955827Y-25014676D02*
X9917731Y-24938485D01*
X9917731Y-24938485D02*
X9879636Y-24900390D01*
X9879636Y-24900390D02*
X9803446Y-24862295D01*
X9803446Y-24862295D02*
X9612969Y-24862295D01*
X9612969Y-24862295D02*
X9498684Y-24900390D01*
X8698683Y-25586104D02*
X8736779Y-25624200D01*
X8736779Y-25624200D02*
X8851064Y-25662295D01*
X8851064Y-25662295D02*
X8927255Y-25662295D01*
X8927255Y-25662295D02*
X9041541Y-25624200D01*
X9041541Y-25624200D02*
X9117731Y-25548009D01*
X9117731Y-25548009D02*
X9155826Y-25471819D01*
X9155826Y-25471819D02*
X9193922Y-25319438D01*
X9193922Y-25319438D02*
X9193922Y-25205152D01*
X9193922Y-25205152D02*
X9155826Y-25052771D01*
X9155826Y-25052771D02*
X9117731Y-24976580D01*
X9117731Y-24976580D02*
X9041541Y-24900390D01*
X9041541Y-24900390D02*
X8927255Y-24862295D01*
X8927255Y-24862295D02*
X8851064Y-24862295D01*
X8851064Y-24862295D02*
X8736779Y-24900390D01*
X8736779Y-24900390D02*
X8698683Y-24938485D01*
X7974874Y-25662295D02*
X8355826Y-25662295D01*
X8355826Y-25662295D02*
X8355826Y-24862295D01*
X9993922Y-22824200D02*
X9879636Y-22862295D01*
X9879636Y-22862295D02*
X9689160Y-22862295D01*
X9689160Y-22862295D02*
X9612969Y-22824200D01*
X9612969Y-22824200D02*
X9574874Y-22786104D01*
X9574874Y-22786104D02*
X9536779Y-22709914D01*
X9536779Y-22709914D02*
X9536779Y-22633723D01*
X9536779Y-22633723D02*
X9574874Y-22557533D01*
X9574874Y-22557533D02*
X9612969Y-22519438D01*
X9612969Y-22519438D02*
X9689160Y-22481342D01*
X9689160Y-22481342D02*
X9841541Y-22443247D01*
X9841541Y-22443247D02*
X9917731Y-22405152D01*
X9917731Y-22405152D02*
X9955826Y-22367057D01*
X9955826Y-22367057D02*
X9993922Y-22290866D01*
X9993922Y-22290866D02*
X9993922Y-22214676D01*
X9993922Y-22214676D02*
X9955826Y-22138485D01*
X9955826Y-22138485D02*
X9917731Y-22100390D01*
X9917731Y-22100390D02*
X9841541Y-22062295D01*
X9841541Y-22062295D02*
X9651064Y-22062295D01*
X9651064Y-22062295D02*
X9536779Y-22100390D01*
X9193921Y-22862295D02*
X9193921Y-22062295D01*
X9193921Y-22062295D02*
X9003445Y-22062295D01*
X9003445Y-22062295D02*
X8889159Y-22100390D01*
X8889159Y-22100390D02*
X8812969Y-22176580D01*
X8812969Y-22176580D02*
X8774874Y-22252771D01*
X8774874Y-22252771D02*
X8736778Y-22405152D01*
X8736778Y-22405152D02*
X8736778Y-22519438D01*
X8736778Y-22519438D02*
X8774874Y-22671819D01*
X8774874Y-22671819D02*
X8812969Y-22748009D01*
X8812969Y-22748009D02*
X8889159Y-22824200D01*
X8889159Y-22824200D02*
X9003445Y-22862295D01*
X9003445Y-22862295D02*
X9193921Y-22862295D01*
X8432017Y-22633723D02*
X8051064Y-22633723D01*
X8508207Y-22862295D02*
X8241540Y-22062295D01*
X8241540Y-22062295D02*
X7974874Y-22862295D01*
X7575000Y-33125000D02*
X9225000Y-33125000D01*
X9825000Y-33125000D02*
X11475000Y-33125000D01*
X12075000Y-33125000D02*
X13725000Y-33125000D01*
X14325000Y-33125000D02*
X15975000Y-33125000D01*
X16575000Y-33125000D02*
X18225000Y-33125000D01*
X18825000Y-33125000D02*
X20475000Y-33125000D01*
X21075000Y-33125000D02*
X21575000Y-33125000D01*
X21575000Y-33125000D02*
X21575000Y-34775000D01*
X21575000Y-35375000D02*
X21575000Y-37025000D01*
X21575000Y-37625000D02*
X21575000Y-39275000D01*
X21575000Y-39875000D02*
X21575000Y-41525000D01*
X21575000Y-42125000D02*
X21575000Y-43775000D01*
X21575000Y-44375000D02*
X21575000Y-46025000D01*
X21575000Y-46625000D02*
X21575000Y-47525000D01*
X21575000Y-47525000D02*
X19925000Y-47525000D01*
X19325000Y-47525000D02*
X17675000Y-47525000D01*
X17075000Y-47525000D02*
X15425000Y-47525000D01*
X14825000Y-47525000D02*
X13175000Y-47525000D01*
X12575000Y-47525000D02*
X10925000Y-47525000D01*
X10325000Y-47525000D02*
X8675000Y-47525000D01*
X8075000Y-47525000D02*
X7575000Y-47525000D01*
X7575000Y-47525000D02*
X7575000Y-45875000D01*
X7575000Y-45275000D02*
X7575000Y-43625000D01*
X7575000Y-43025000D02*
X7575000Y-41375000D01*
X7575000Y-40775000D02*
X7575000Y-39125000D01*
X7575000Y-38525000D02*
X7575000Y-36875000D01*
X7575000Y-36275000D02*
X7575000Y-34625000D01*
X7575000Y-34025000D02*
X7575000Y-33125000D01*
D11*
X7450000Y-48350000D02*
X8770000Y-48350000D01*
X9250000Y-48350000D02*
X10570000Y-48350000D01*
X11050000Y-48350000D02*
X12370000Y-48350000D01*
X12850000Y-48350000D02*
X14170000Y-48350000D01*
X14650000Y-48350000D02*
X15970000Y-48350000D01*
X16450000Y-48350000D02*
X17770000Y-48350000D01*
X18250000Y-48350000D02*
X19570000Y-48350000D01*
X20050000Y-48350000D02*
X21370000Y-48350000D01*
X21450000Y-48350000D02*
X21450000Y-49670000D01*
X21450000Y-50150000D02*
X21450000Y-51470000D01*
X21450000Y-51950000D02*
X21450000Y-53270000D01*
X21450000Y-53750000D02*
X21450000Y-55070000D01*
X21450000Y-55550000D02*
X21450000Y-56870000D01*
X21450000Y-57350000D02*
X21450000Y-58670000D01*
X21450000Y-59150000D02*
X21450000Y-60470000D01*
X21450000Y-60950000D02*
X21450000Y-62270000D01*
X21450000Y-62750000D02*
X21450000Y-64070000D01*
X21450000Y-64550000D02*
X21450000Y-65150000D01*
X21450000Y-65150000D02*
X20130000Y-65150000D01*
X19650000Y-65150000D02*
X18330000Y-65150000D01*
X17850000Y-65150000D02*
X16530000Y-65150000D01*
X16050000Y-65150000D02*
X14730000Y-65150000D01*
X14250000Y-65150000D02*
X12930000Y-65150000D01*
X12450000Y-65150000D02*
X11130000Y-65150000D01*
X10650000Y-65150000D02*
X9330000Y-65150000D01*
X8850000Y-65150000D02*
X7530000Y-65150000D01*
X7450000Y-65150000D02*
X7450000Y-63830000D01*
X7450000Y-63350000D02*
X7450000Y-62030000D01*
X7450000Y-61550000D02*
X7450000Y-60230000D01*
X7450000Y-59750000D02*
X7450000Y-58430000D01*
X7450000Y-57950000D02*
X7450000Y-56630000D01*
X7450000Y-56150000D02*
X7450000Y-54830000D01*
X7450000Y-54350000D02*
X7450000Y-53030000D01*
X7450000Y-52550000D02*
X7450000Y-51230000D01*
X7450000Y-50750000D02*
X7450000Y-49430000D01*
X7450000Y-48950000D02*
X7450000Y-48350000D01*
D10*
X16261904Y-62809875D02*
X16833332Y-62809875D01*
X16547618Y-62809875D02*
X16547618Y-61809875D01*
X16547618Y-61809875D02*
X16642856Y-61952732D01*
X16642856Y-61952732D02*
X16738094Y-62047970D01*
X16738094Y-62047970D02*
X16833332Y-62095589D01*
X15880951Y-61905113D02*
X15833332Y-61857494D01*
X15833332Y-61857494D02*
X15738094Y-61809875D01*
X15738094Y-61809875D02*
X15499999Y-61809875D01*
X15499999Y-61809875D02*
X15404761Y-61857494D01*
X15404761Y-61857494D02*
X15357142Y-61905113D01*
X15357142Y-61905113D02*
X15309523Y-62000351D01*
X15309523Y-62000351D02*
X15309523Y-62095589D01*
X15309523Y-62095589D02*
X15357142Y-62238446D01*
X15357142Y-62238446D02*
X15928570Y-62809875D01*
X15928570Y-62809875D02*
X15309523Y-62809875D01*
X15023808Y-61809875D02*
X14690475Y-62809875D01*
X14690475Y-62809875D02*
X14357142Y-61809875D01*
X14023808Y-62428922D02*
X13261904Y-62428922D01*
X12785713Y-62143208D02*
X12023809Y-62428922D01*
X12023809Y-62428922D02*
X12785713Y-62714636D01*
X11071428Y-61809875D02*
X11547618Y-61809875D01*
X11547618Y-61809875D02*
X11595237Y-62286065D01*
X11595237Y-62286065D02*
X11547618Y-62238446D01*
X11547618Y-62238446D02*
X11452380Y-62190827D01*
X11452380Y-62190827D02*
X11214285Y-62190827D01*
X11214285Y-62190827D02*
X11119047Y-62238446D01*
X11119047Y-62238446D02*
X11071428Y-62286065D01*
X11071428Y-62286065D02*
X11023809Y-62381303D01*
X11023809Y-62381303D02*
X11023809Y-62619398D01*
X11023809Y-62619398D02*
X11071428Y-62714636D01*
X11071428Y-62714636D02*
X11119047Y-62762256D01*
X11119047Y-62762256D02*
X11214285Y-62809875D01*
X11214285Y-62809875D02*
X11452380Y-62809875D01*
X11452380Y-62809875D02*
X11547618Y-62762256D01*
X11547618Y-62762256D02*
X11595237Y-62714636D01*
X10738094Y-61809875D02*
X10404761Y-62809875D01*
X10404761Y-62809875D02*
X10071428Y-61809875D01*
X16285715Y-64419819D02*
X16619048Y-63943628D01*
X16857143Y-64419819D02*
X16857143Y-63419819D01*
X16857143Y-63419819D02*
X16476191Y-63419819D01*
X16476191Y-63419819D02*
X16380953Y-63467438D01*
X16380953Y-63467438D02*
X16333334Y-63515057D01*
X16333334Y-63515057D02*
X16285715Y-63610295D01*
X16285715Y-63610295D02*
X16285715Y-63753152D01*
X16285715Y-63753152D02*
X16333334Y-63848390D01*
X16333334Y-63848390D02*
X16380953Y-63896009D01*
X16380953Y-63896009D02*
X16476191Y-63943628D01*
X16476191Y-63943628D02*
X16857143Y-63943628D01*
X15476191Y-64372200D02*
X15571429Y-64419819D01*
X15571429Y-64419819D02*
X15761905Y-64419819D01*
X15761905Y-64419819D02*
X15857143Y-64372200D01*
X15857143Y-64372200D02*
X15904762Y-64276961D01*
X15904762Y-64276961D02*
X15904762Y-63896009D01*
X15904762Y-63896009D02*
X15857143Y-63800771D01*
X15857143Y-63800771D02*
X15761905Y-63753152D01*
X15761905Y-63753152D02*
X15571429Y-63753152D01*
X15571429Y-63753152D02*
X15476191Y-63800771D01*
X15476191Y-63800771D02*
X15428572Y-63896009D01*
X15428572Y-63896009D02*
X15428572Y-63991247D01*
X15428572Y-63991247D02*
X15904762Y-64086485D01*
X14571429Y-63753152D02*
X14571429Y-64562676D01*
X14571429Y-64562676D02*
X14619048Y-64657914D01*
X14619048Y-64657914D02*
X14666667Y-64705533D01*
X14666667Y-64705533D02*
X14761905Y-64753152D01*
X14761905Y-64753152D02*
X14904762Y-64753152D01*
X14904762Y-64753152D02*
X15000000Y-64705533D01*
X14571429Y-64372200D02*
X14666667Y-64419819D01*
X14666667Y-64419819D02*
X14857143Y-64419819D01*
X14857143Y-64419819D02*
X14952381Y-64372200D01*
X14952381Y-64372200D02*
X15000000Y-64324580D01*
X15000000Y-64324580D02*
X15047619Y-64229342D01*
X15047619Y-64229342D02*
X15047619Y-63943628D01*
X15047619Y-63943628D02*
X15000000Y-63848390D01*
X15000000Y-63848390D02*
X14952381Y-63800771D01*
X14952381Y-63800771D02*
X14857143Y-63753152D01*
X14857143Y-63753152D02*
X14666667Y-63753152D01*
X14666667Y-63753152D02*
X14571429Y-63800771D01*
X13666667Y-63753152D02*
X13666667Y-64419819D01*
X14095238Y-63753152D02*
X14095238Y-64276961D01*
X14095238Y-64276961D02*
X14047619Y-64372200D01*
X14047619Y-64372200D02*
X13952381Y-64419819D01*
X13952381Y-64419819D02*
X13809524Y-64419819D01*
X13809524Y-64419819D02*
X13714286Y-64372200D01*
X13714286Y-64372200D02*
X13666667Y-64324580D01*
X13047619Y-64419819D02*
X13142857Y-64372200D01*
X13142857Y-64372200D02*
X13190476Y-64276961D01*
X13190476Y-64276961D02*
X13190476Y-63419819D01*
X12238095Y-64419819D02*
X12238095Y-63896009D01*
X12238095Y-63896009D02*
X12285714Y-63800771D01*
X12285714Y-63800771D02*
X12380952Y-63753152D01*
X12380952Y-63753152D02*
X12571428Y-63753152D01*
X12571428Y-63753152D02*
X12666666Y-63800771D01*
X12238095Y-64372200D02*
X12333333Y-64419819D01*
X12333333Y-64419819D02*
X12571428Y-64419819D01*
X12571428Y-64419819D02*
X12666666Y-64372200D01*
X12666666Y-64372200D02*
X12714285Y-64276961D01*
X12714285Y-64276961D02*
X12714285Y-64181723D01*
X12714285Y-64181723D02*
X12666666Y-64086485D01*
X12666666Y-64086485D02*
X12571428Y-64038866D01*
X12571428Y-64038866D02*
X12333333Y-64038866D01*
X12333333Y-64038866D02*
X12238095Y-63991247D01*
X11904761Y-63753152D02*
X11523809Y-63753152D01*
X11761904Y-63419819D02*
X11761904Y-64276961D01*
X11761904Y-64276961D02*
X11714285Y-64372200D01*
X11714285Y-64372200D02*
X11619047Y-64419819D01*
X11619047Y-64419819D02*
X11523809Y-64419819D01*
X11047618Y-64419819D02*
X11142856Y-64372200D01*
X11142856Y-64372200D02*
X11190475Y-64324580D01*
X11190475Y-64324580D02*
X11238094Y-64229342D01*
X11238094Y-64229342D02*
X11238094Y-63943628D01*
X11238094Y-63943628D02*
X11190475Y-63848390D01*
X11190475Y-63848390D02*
X11142856Y-63800771D01*
X11142856Y-63800771D02*
X11047618Y-63753152D01*
X11047618Y-63753152D02*
X10904761Y-63753152D01*
X10904761Y-63753152D02*
X10809523Y-63800771D01*
X10809523Y-63800771D02*
X10761904Y-63848390D01*
X10761904Y-63848390D02*
X10714285Y-63943628D01*
X10714285Y-63943628D02*
X10714285Y-64229342D01*
X10714285Y-64229342D02*
X10761904Y-64324580D01*
X10761904Y-64324580D02*
X10809523Y-64372200D01*
X10809523Y-64372200D02*
X10904761Y-64419819D01*
X10904761Y-64419819D02*
X11047618Y-64419819D01*
X10285713Y-64419819D02*
X10285713Y-63753152D01*
X10285713Y-63943628D02*
X10238094Y-63848390D01*
X10238094Y-63848390D02*
X10190475Y-63800771D01*
X10190475Y-63800771D02*
X10095237Y-63753152D01*
X10095237Y-63753152D02*
X9999999Y-63753152D01*
X18752382Y-35394819D02*
X19228572Y-35394819D01*
X19228572Y-35394819D02*
X19228572Y-34394819D01*
X18038096Y-35347200D02*
X18133334Y-35394819D01*
X18133334Y-35394819D02*
X18323810Y-35394819D01*
X18323810Y-35394819D02*
X18419048Y-35347200D01*
X18419048Y-35347200D02*
X18466667Y-35251961D01*
X18466667Y-35251961D02*
X18466667Y-34871009D01*
X18466667Y-34871009D02*
X18419048Y-34775771D01*
X18419048Y-34775771D02*
X18323810Y-34728152D01*
X18323810Y-34728152D02*
X18133334Y-34728152D01*
X18133334Y-34728152D02*
X18038096Y-34775771D01*
X18038096Y-34775771D02*
X17990477Y-34871009D01*
X17990477Y-34871009D02*
X17990477Y-34966247D01*
X17990477Y-34966247D02*
X18466667Y-35061485D01*
X17657143Y-34728152D02*
X17419048Y-35394819D01*
X17419048Y-35394819D02*
X17180953Y-34728152D01*
X16419048Y-35347200D02*
X16514286Y-35394819D01*
X16514286Y-35394819D02*
X16704762Y-35394819D01*
X16704762Y-35394819D02*
X16800000Y-35347200D01*
X16800000Y-35347200D02*
X16847619Y-35251961D01*
X16847619Y-35251961D02*
X16847619Y-34871009D01*
X16847619Y-34871009D02*
X16800000Y-34775771D01*
X16800000Y-34775771D02*
X16704762Y-34728152D01*
X16704762Y-34728152D02*
X16514286Y-34728152D01*
X16514286Y-34728152D02*
X16419048Y-34775771D01*
X16419048Y-34775771D02*
X16371429Y-34871009D01*
X16371429Y-34871009D02*
X16371429Y-34966247D01*
X16371429Y-34966247D02*
X16847619Y-35061485D01*
X15800000Y-35394819D02*
X15895238Y-35347200D01*
X15895238Y-35347200D02*
X15942857Y-35251961D01*
X15942857Y-35251961D02*
X15942857Y-34394819D01*
X14704761Y-35347200D02*
X14561904Y-35394819D01*
X14561904Y-35394819D02*
X14323809Y-35394819D01*
X14323809Y-35394819D02*
X14228571Y-35347200D01*
X14228571Y-35347200D02*
X14180952Y-35299580D01*
X14180952Y-35299580D02*
X14133333Y-35204342D01*
X14133333Y-35204342D02*
X14133333Y-35109104D01*
X14133333Y-35109104D02*
X14180952Y-35013866D01*
X14180952Y-35013866D02*
X14228571Y-34966247D01*
X14228571Y-34966247D02*
X14323809Y-34918628D01*
X14323809Y-34918628D02*
X14514285Y-34871009D01*
X14514285Y-34871009D02*
X14609523Y-34823390D01*
X14609523Y-34823390D02*
X14657142Y-34775771D01*
X14657142Y-34775771D02*
X14704761Y-34680533D01*
X14704761Y-34680533D02*
X14704761Y-34585295D01*
X14704761Y-34585295D02*
X14657142Y-34490057D01*
X14657142Y-34490057D02*
X14609523Y-34442438D01*
X14609523Y-34442438D02*
X14514285Y-34394819D01*
X14514285Y-34394819D02*
X14276190Y-34394819D01*
X14276190Y-34394819D02*
X14133333Y-34442438D01*
X13704761Y-35394819D02*
X13704761Y-34394819D01*
X13276190Y-35394819D02*
X13276190Y-34871009D01*
X13276190Y-34871009D02*
X13323809Y-34775771D01*
X13323809Y-34775771D02*
X13419047Y-34728152D01*
X13419047Y-34728152D02*
X13561904Y-34728152D01*
X13561904Y-34728152D02*
X13657142Y-34775771D01*
X13657142Y-34775771D02*
X13704761Y-34823390D01*
X12799999Y-35394819D02*
X12799999Y-34728152D01*
X12799999Y-34394819D02*
X12847618Y-34442438D01*
X12847618Y-34442438D02*
X12799999Y-34490057D01*
X12799999Y-34490057D02*
X12752380Y-34442438D01*
X12752380Y-34442438D02*
X12799999Y-34394819D01*
X12799999Y-34394819D02*
X12799999Y-34490057D01*
X12466666Y-34728152D02*
X12085714Y-34728152D01*
X12323809Y-35394819D02*
X12323809Y-34537676D01*
X12323809Y-34537676D02*
X12276190Y-34442438D01*
X12276190Y-34442438D02*
X12180952Y-34394819D01*
X12180952Y-34394819D02*
X12085714Y-34394819D01*
X11895237Y-34728152D02*
X11514285Y-34728152D01*
X11752380Y-34394819D02*
X11752380Y-35251961D01*
X11752380Y-35251961D02*
X11704761Y-35347200D01*
X11704761Y-35347200D02*
X11609523Y-35394819D01*
X11609523Y-35394819D02*
X11514285Y-35394819D01*
X10799999Y-35347200D02*
X10895237Y-35394819D01*
X10895237Y-35394819D02*
X11085713Y-35394819D01*
X11085713Y-35394819D02*
X11180951Y-35347200D01*
X11180951Y-35347200D02*
X11228570Y-35251961D01*
X11228570Y-35251961D02*
X11228570Y-34871009D01*
X11228570Y-34871009D02*
X11180951Y-34775771D01*
X11180951Y-34775771D02*
X11085713Y-34728152D01*
X11085713Y-34728152D02*
X10895237Y-34728152D01*
X10895237Y-34728152D02*
X10799999Y-34775771D01*
X10799999Y-34775771D02*
X10752380Y-34871009D01*
X10752380Y-34871009D02*
X10752380Y-34966247D01*
X10752380Y-34966247D02*
X11228570Y-35061485D01*
X10323808Y-35394819D02*
X10323808Y-34728152D01*
X10323808Y-34918628D02*
X10276189Y-34823390D01*
X10276189Y-34823390D02*
X10228570Y-34775771D01*
X10228570Y-34775771D02*
X10133332Y-34728152D01*
X10133332Y-34728152D02*
X10038094Y-34728152D01*
X9752379Y-35347200D02*
X9657141Y-35394819D01*
X9657141Y-35394819D02*
X9466665Y-35394819D01*
X9466665Y-35394819D02*
X9371427Y-35347200D01*
X9371427Y-35347200D02*
X9323808Y-35251961D01*
X9323808Y-35251961D02*
X9323808Y-35204342D01*
X9323808Y-35204342D02*
X9371427Y-35109104D01*
X9371427Y-35109104D02*
X9466665Y-35061485D01*
X9466665Y-35061485D02*
X9609522Y-35061485D01*
X9609522Y-35061485D02*
X9704760Y-35013866D01*
X9704760Y-35013866D02*
X9752379Y-34918628D01*
X9752379Y-34918628D02*
X9752379Y-34871009D01*
X9752379Y-34871009D02*
X9704760Y-34775771D01*
X9704760Y-34775771D02*
X9609522Y-34728152D01*
X9609522Y-34728152D02*
X9466665Y-34728152D01*
X9466665Y-34728152D02*
X9371427Y-34775771D01*
X15611904Y-25704819D02*
X15611904Y-26514342D01*
X15611904Y-26514342D02*
X15564285Y-26609580D01*
X15564285Y-26609580D02*
X15516666Y-26657200D01*
X15516666Y-26657200D02*
X15421428Y-26704819D01*
X15421428Y-26704819D02*
X15230952Y-26704819D01*
X15230952Y-26704819D02*
X15135714Y-26657200D01*
X15135714Y-26657200D02*
X15088095Y-26609580D01*
X15088095Y-26609580D02*
X15040476Y-26514342D01*
X15040476Y-26514342D02*
X15040476Y-25704819D01*
X14611904Y-25800057D02*
X14564285Y-25752438D01*
X14564285Y-25752438D02*
X14469047Y-25704819D01*
X14469047Y-25704819D02*
X14230952Y-25704819D01*
X14230952Y-25704819D02*
X14135714Y-25752438D01*
X14135714Y-25752438D02*
X14088095Y-25800057D01*
X14088095Y-25800057D02*
X14040476Y-25895295D01*
X14040476Y-25895295D02*
X14040476Y-25990533D01*
X14040476Y-25990533D02*
X14088095Y-26133390D01*
X14088095Y-26133390D02*
X14659523Y-26704819D01*
X14659523Y-26704819D02*
X14040476Y-26704819D01*
X19904819Y-28033333D02*
X19428628Y-27700000D01*
X19904819Y-27461905D02*
X18904819Y-27461905D01*
X18904819Y-27461905D02*
X18904819Y-27842857D01*
X18904819Y-27842857D02*
X18952438Y-27938095D01*
X18952438Y-27938095D02*
X19000057Y-27985714D01*
X19000057Y-27985714D02*
X19095295Y-28033333D01*
X19095295Y-28033333D02*
X19238152Y-28033333D01*
X19238152Y-28033333D02*
X19333390Y-27985714D01*
X19333390Y-27985714D02*
X19381009Y-27938095D01*
X19381009Y-27938095D02*
X19428628Y-27842857D01*
X19428628Y-27842857D02*
X19428628Y-27461905D01*
X19904819Y-28509524D02*
X19904819Y-28700000D01*
X19904819Y-28700000D02*
X19857200Y-28795238D01*
X19857200Y-28795238D02*
X19809580Y-28842857D01*
X19809580Y-28842857D02*
X19666723Y-28938095D01*
X19666723Y-28938095D02*
X19476247Y-28985714D01*
X19476247Y-28985714D02*
X19095295Y-28985714D01*
X19095295Y-28985714D02*
X19000057Y-28938095D01*
X19000057Y-28938095D02*
X18952438Y-28890476D01*
X18952438Y-28890476D02*
X18904819Y-28795238D01*
X18904819Y-28795238D02*
X18904819Y-28604762D01*
X18904819Y-28604762D02*
X18952438Y-28509524D01*
X18952438Y-28509524D02*
X19000057Y-28461905D01*
X19000057Y-28461905D02*
X19095295Y-28414286D01*
X19095295Y-28414286D02*
X19333390Y-28414286D01*
X19333390Y-28414286D02*
X19428628Y-28461905D01*
X19428628Y-28461905D02*
X19476247Y-28509524D01*
X19476247Y-28509524D02*
X19523866Y-28604762D01*
X19523866Y-28604762D02*
X19523866Y-28795238D01*
X19523866Y-28795238D02*
X19476247Y-28890476D01*
X19476247Y-28890476D02*
X19428628Y-28938095D01*
X19428628Y-28938095D02*
X19333390Y-28985714D01*
X19904819Y-19383333D02*
X19428628Y-19050000D01*
X19904819Y-18811905D02*
X18904819Y-18811905D01*
X18904819Y-18811905D02*
X18904819Y-19192857D01*
X18904819Y-19192857D02*
X18952438Y-19288095D01*
X18952438Y-19288095D02*
X19000057Y-19335714D01*
X19000057Y-19335714D02*
X19095295Y-19383333D01*
X19095295Y-19383333D02*
X19238152Y-19383333D01*
X19238152Y-19383333D02*
X19333390Y-19335714D01*
X19333390Y-19335714D02*
X19381009Y-19288095D01*
X19381009Y-19288095D02*
X19428628Y-19192857D01*
X19428628Y-19192857D02*
X19428628Y-18811905D01*
X19333390Y-19954762D02*
X19285771Y-19859524D01*
X19285771Y-19859524D02*
X19238152Y-19811905D01*
X19238152Y-19811905D02*
X19142914Y-19764286D01*
X19142914Y-19764286D02*
X19095295Y-19764286D01*
X19095295Y-19764286D02*
X19000057Y-19811905D01*
X19000057Y-19811905D02*
X18952438Y-19859524D01*
X18952438Y-19859524D02*
X18904819Y-19954762D01*
X18904819Y-19954762D02*
X18904819Y-20145238D01*
X18904819Y-20145238D02*
X18952438Y-20240476D01*
X18952438Y-20240476D02*
X19000057Y-20288095D01*
X19000057Y-20288095D02*
X19095295Y-20335714D01*
X19095295Y-20335714D02*
X19142914Y-20335714D01*
X19142914Y-20335714D02*
X19238152Y-20288095D01*
X19238152Y-20288095D02*
X19285771Y-20240476D01*
X19285771Y-20240476D02*
X19333390Y-20145238D01*
X19333390Y-20145238D02*
X19333390Y-19954762D01*
X19333390Y-19954762D02*
X19381009Y-19859524D01*
X19381009Y-19859524D02*
X19428628Y-19811905D01*
X19428628Y-19811905D02*
X19523866Y-19764286D01*
X19523866Y-19764286D02*
X19714342Y-19764286D01*
X19714342Y-19764286D02*
X19809580Y-19811905D01*
X19809580Y-19811905D02*
X19857200Y-19859524D01*
X19857200Y-19859524D02*
X19904819Y-19954762D01*
X19904819Y-19954762D02*
X19904819Y-20145238D01*
X19904819Y-20145238D02*
X19857200Y-20240476D01*
X19857200Y-20240476D02*
X19809580Y-20288095D01*
X19809580Y-20288095D02*
X19714342Y-20335714D01*
X19714342Y-20335714D02*
X19523866Y-20335714D01*
X19523866Y-20335714D02*
X19428628Y-20288095D01*
X19428628Y-20288095D02*
X19381009Y-20240476D01*
X19381009Y-20240476D02*
X19333390Y-20145238D01*
X11916666Y-23204819D02*
X12249999Y-22728628D01*
X12488094Y-23204819D02*
X12488094Y-22204819D01*
X12488094Y-22204819D02*
X12107142Y-22204819D01*
X12107142Y-22204819D02*
X12011904Y-22252438D01*
X12011904Y-22252438D02*
X11964285Y-22300057D01*
X11964285Y-22300057D02*
X11916666Y-22395295D01*
X11916666Y-22395295D02*
X11916666Y-22538152D01*
X11916666Y-22538152D02*
X11964285Y-22633390D01*
X11964285Y-22633390D02*
X12011904Y-22681009D01*
X12011904Y-22681009D02*
X12107142Y-22728628D01*
X12107142Y-22728628D02*
X12488094Y-22728628D01*
X11583332Y-22204819D02*
X10916666Y-22204819D01*
X10916666Y-22204819D02*
X11345237Y-23204819D01*
X30033333Y-26554819D02*
X30033333Y-27269104D01*
X30033333Y-27269104D02*
X30080952Y-27411961D01*
X30080952Y-27411961D02*
X30176190Y-27507200D01*
X30176190Y-27507200D02*
X30319047Y-27554819D01*
X30319047Y-27554819D02*
X30414285Y-27554819D01*
X29033333Y-27554819D02*
X29604761Y-27554819D01*
X29319047Y-27554819D02*
X29319047Y-26554819D01*
X29319047Y-26554819D02*
X29414285Y-26697676D01*
X29414285Y-26697676D02*
X29509523Y-26792914D01*
X29509523Y-26792914D02*
X29604761Y-26840533D01*
X19754819Y-41558333D02*
X19278628Y-41225000D01*
X19754819Y-40986905D02*
X18754819Y-40986905D01*
X18754819Y-40986905D02*
X18754819Y-41367857D01*
X18754819Y-41367857D02*
X18802438Y-41463095D01*
X18802438Y-41463095D02*
X18850057Y-41510714D01*
X18850057Y-41510714D02*
X18945295Y-41558333D01*
X18945295Y-41558333D02*
X19088152Y-41558333D01*
X19088152Y-41558333D02*
X19183390Y-41510714D01*
X19183390Y-41510714D02*
X19231009Y-41463095D01*
X19231009Y-41463095D02*
X19278628Y-41367857D01*
X19278628Y-41367857D02*
X19278628Y-40986905D01*
X18754819Y-42463095D02*
X18754819Y-41986905D01*
X18754819Y-41986905D02*
X19231009Y-41939286D01*
X19231009Y-41939286D02*
X19183390Y-41986905D01*
X19183390Y-41986905D02*
X19135771Y-42082143D01*
X19135771Y-42082143D02*
X19135771Y-42320238D01*
X19135771Y-42320238D02*
X19183390Y-42415476D01*
X19183390Y-42415476D02*
X19231009Y-42463095D01*
X19231009Y-42463095D02*
X19326247Y-42510714D01*
X19326247Y-42510714D02*
X19564342Y-42510714D01*
X19564342Y-42510714D02*
X19659580Y-42463095D01*
X19659580Y-42463095D02*
X19707200Y-42415476D01*
X19707200Y-42415476D02*
X19754819Y-42320238D01*
X19754819Y-42320238D02*
X19754819Y-42082143D01*
X19754819Y-42082143D02*
X19707200Y-41986905D01*
X19707200Y-41986905D02*
X19659580Y-41939286D01*
X19754819Y-37758333D02*
X19278628Y-37425000D01*
X19754819Y-37186905D02*
X18754819Y-37186905D01*
X18754819Y-37186905D02*
X18754819Y-37567857D01*
X18754819Y-37567857D02*
X18802438Y-37663095D01*
X18802438Y-37663095D02*
X18850057Y-37710714D01*
X18850057Y-37710714D02*
X18945295Y-37758333D01*
X18945295Y-37758333D02*
X19088152Y-37758333D01*
X19088152Y-37758333D02*
X19183390Y-37710714D01*
X19183390Y-37710714D02*
X19231009Y-37663095D01*
X19231009Y-37663095D02*
X19278628Y-37567857D01*
X19278628Y-37567857D02*
X19278628Y-37186905D01*
X18754819Y-38615476D02*
X18754819Y-38425000D01*
X18754819Y-38425000D02*
X18802438Y-38329762D01*
X18802438Y-38329762D02*
X18850057Y-38282143D01*
X18850057Y-38282143D02*
X18992914Y-38186905D01*
X18992914Y-38186905D02*
X19183390Y-38139286D01*
X19183390Y-38139286D02*
X19564342Y-38139286D01*
X19564342Y-38139286D02*
X19659580Y-38186905D01*
X19659580Y-38186905D02*
X19707200Y-38234524D01*
X19707200Y-38234524D02*
X19754819Y-38329762D01*
X19754819Y-38329762D02*
X19754819Y-38520238D01*
X19754819Y-38520238D02*
X19707200Y-38615476D01*
X19707200Y-38615476D02*
X19659580Y-38663095D01*
X19659580Y-38663095D02*
X19564342Y-38710714D01*
X19564342Y-38710714D02*
X19326247Y-38710714D01*
X19326247Y-38710714D02*
X19231009Y-38663095D01*
X19231009Y-38663095D02*
X19183390Y-38615476D01*
X19183390Y-38615476D02*
X19135771Y-38520238D01*
X19135771Y-38520238D02*
X19135771Y-38329762D01*
X19135771Y-38329762D02*
X19183390Y-38234524D01*
X19183390Y-38234524D02*
X19231009Y-38186905D01*
X19231009Y-38186905D02*
X19326247Y-38139286D01*
X16095238Y-43525057D02*
X16190476Y-43477438D01*
X16190476Y-43477438D02*
X16285714Y-43382200D01*
X16285714Y-43382200D02*
X16428571Y-43239342D01*
X16428571Y-43239342D02*
X16523809Y-43191723D01*
X16523809Y-43191723D02*
X16619047Y-43191723D01*
X16571428Y-43429819D02*
X16666666Y-43382200D01*
X16666666Y-43382200D02*
X16761904Y-43286961D01*
X16761904Y-43286961D02*
X16809523Y-43096485D01*
X16809523Y-43096485D02*
X16809523Y-42763152D01*
X16809523Y-42763152D02*
X16761904Y-42572676D01*
X16761904Y-42572676D02*
X16666666Y-42477438D01*
X16666666Y-42477438D02*
X16571428Y-42429819D01*
X16571428Y-42429819D02*
X16380952Y-42429819D01*
X16380952Y-42429819D02*
X16285714Y-42477438D01*
X16285714Y-42477438D02*
X16190476Y-42572676D01*
X16190476Y-42572676D02*
X16142857Y-42763152D01*
X16142857Y-42763152D02*
X16142857Y-43096485D01*
X16142857Y-43096485D02*
X16190476Y-43286961D01*
X16190476Y-43286961D02*
X16285714Y-43382200D01*
X16285714Y-43382200D02*
X16380952Y-43429819D01*
X16380952Y-43429819D02*
X16571428Y-43429819D01*
X15761904Y-42525057D02*
X15714285Y-42477438D01*
X15714285Y-42477438D02*
X15619047Y-42429819D01*
X15619047Y-42429819D02*
X15380952Y-42429819D01*
X15380952Y-42429819D02*
X15285714Y-42477438D01*
X15285714Y-42477438D02*
X15238095Y-42525057D01*
X15238095Y-42525057D02*
X15190476Y-42620295D01*
X15190476Y-42620295D02*
X15190476Y-42715533D01*
X15190476Y-42715533D02*
X15238095Y-42858390D01*
X15238095Y-42858390D02*
X15809523Y-43429819D01*
X15809523Y-43429819D02*
X15190476Y-43429819D01*
X16095238Y-39725057D02*
X16190476Y-39677438D01*
X16190476Y-39677438D02*
X16285714Y-39582200D01*
X16285714Y-39582200D02*
X16428571Y-39439342D01*
X16428571Y-39439342D02*
X16523809Y-39391723D01*
X16523809Y-39391723D02*
X16619047Y-39391723D01*
X16571428Y-39629819D02*
X16666666Y-39582200D01*
X16666666Y-39582200D02*
X16761904Y-39486961D01*
X16761904Y-39486961D02*
X16809523Y-39296485D01*
X16809523Y-39296485D02*
X16809523Y-38963152D01*
X16809523Y-38963152D02*
X16761904Y-38772676D01*
X16761904Y-38772676D02*
X16666666Y-38677438D01*
X16666666Y-38677438D02*
X16571428Y-38629819D01*
X16571428Y-38629819D02*
X16380952Y-38629819D01*
X16380952Y-38629819D02*
X16285714Y-38677438D01*
X16285714Y-38677438D02*
X16190476Y-38772676D01*
X16190476Y-38772676D02*
X16142857Y-38963152D01*
X16142857Y-38963152D02*
X16142857Y-39296485D01*
X16142857Y-39296485D02*
X16190476Y-39486961D01*
X16190476Y-39486961D02*
X16285714Y-39582200D01*
X16285714Y-39582200D02*
X16380952Y-39629819D01*
X16380952Y-39629819D02*
X16571428Y-39629819D01*
X15809523Y-38629819D02*
X15190476Y-38629819D01*
X15190476Y-38629819D02*
X15523809Y-39010771D01*
X15523809Y-39010771D02*
X15380952Y-39010771D01*
X15380952Y-39010771D02*
X15285714Y-39058390D01*
X15285714Y-39058390D02*
X15238095Y-39106009D01*
X15238095Y-39106009D02*
X15190476Y-39201247D01*
X15190476Y-39201247D02*
X15190476Y-39439342D01*
X15190476Y-39439342D02*
X15238095Y-39534580D01*
X15238095Y-39534580D02*
X15285714Y-39582200D01*
X15285714Y-39582200D02*
X15380952Y-39629819D01*
X15380952Y-39629819D02*
X15666666Y-39629819D01*
X15666666Y-39629819D02*
X15761904Y-39582200D01*
X15761904Y-39582200D02*
X15809523Y-39534580D01*
X9824819Y-41558333D02*
X9348628Y-41225000D01*
X9824819Y-40986905D02*
X8824819Y-40986905D01*
X8824819Y-40986905D02*
X8824819Y-41367857D01*
X8824819Y-41367857D02*
X8872438Y-41463095D01*
X8872438Y-41463095D02*
X8920057Y-41510714D01*
X8920057Y-41510714D02*
X9015295Y-41558333D01*
X9015295Y-41558333D02*
X9158152Y-41558333D01*
X9158152Y-41558333D02*
X9253390Y-41510714D01*
X9253390Y-41510714D02*
X9301009Y-41463095D01*
X9301009Y-41463095D02*
X9348628Y-41367857D01*
X9348628Y-41367857D02*
X9348628Y-40986905D01*
X8920057Y-41939286D02*
X8872438Y-41986905D01*
X8872438Y-41986905D02*
X8824819Y-42082143D01*
X8824819Y-42082143D02*
X8824819Y-42320238D01*
X8824819Y-42320238D02*
X8872438Y-42415476D01*
X8872438Y-42415476D02*
X8920057Y-42463095D01*
X8920057Y-42463095D02*
X9015295Y-42510714D01*
X9015295Y-42510714D02*
X9110533Y-42510714D01*
X9110533Y-42510714D02*
X9253390Y-42463095D01*
X9253390Y-42463095D02*
X9824819Y-41891667D01*
X9824819Y-41891667D02*
X9824819Y-42510714D01*
X19692319Y-45358333D02*
X19216128Y-45025000D01*
X19692319Y-44786905D02*
X18692319Y-44786905D01*
X18692319Y-44786905D02*
X18692319Y-45167857D01*
X18692319Y-45167857D02*
X18739938Y-45263095D01*
X18739938Y-45263095D02*
X18787557Y-45310714D01*
X18787557Y-45310714D02*
X18882795Y-45358333D01*
X18882795Y-45358333D02*
X19025652Y-45358333D01*
X19025652Y-45358333D02*
X19120890Y-45310714D01*
X19120890Y-45310714D02*
X19168509Y-45263095D01*
X19168509Y-45263095D02*
X19216128Y-45167857D01*
X19216128Y-45167857D02*
X19216128Y-44786905D01*
X19025652Y-46215476D02*
X19692319Y-46215476D01*
X18644700Y-45977381D02*
X19358985Y-45739286D01*
X19358985Y-45739286D02*
X19358985Y-46358333D01*
X11266666Y-50759580D02*
X11314285Y-50807200D01*
X11314285Y-50807200D02*
X11457142Y-50854819D01*
X11457142Y-50854819D02*
X11552380Y-50854819D01*
X11552380Y-50854819D02*
X11695237Y-50807200D01*
X11695237Y-50807200D02*
X11790475Y-50711961D01*
X11790475Y-50711961D02*
X11838094Y-50616723D01*
X11838094Y-50616723D02*
X11885713Y-50426247D01*
X11885713Y-50426247D02*
X11885713Y-50283390D01*
X11885713Y-50283390D02*
X11838094Y-50092914D01*
X11838094Y-50092914D02*
X11790475Y-49997676D01*
X11790475Y-49997676D02*
X11695237Y-49902438D01*
X11695237Y-49902438D02*
X11552380Y-49854819D01*
X11552380Y-49854819D02*
X11457142Y-49854819D01*
X11457142Y-49854819D02*
X11314285Y-49902438D01*
X11314285Y-49902438D02*
X11266666Y-49950057D01*
X10885713Y-49950057D02*
X10838094Y-49902438D01*
X10838094Y-49902438D02*
X10742856Y-49854819D01*
X10742856Y-49854819D02*
X10504761Y-49854819D01*
X10504761Y-49854819D02*
X10409523Y-49902438D01*
X10409523Y-49902438D02*
X10361904Y-49950057D01*
X10361904Y-49950057D02*
X10314285Y-50045295D01*
X10314285Y-50045295D02*
X10314285Y-50140533D01*
X10314285Y-50140533D02*
X10361904Y-50283390D01*
X10361904Y-50283390D02*
X10933332Y-50854819D01*
X10933332Y-50854819D02*
X10314285Y-50854819D01*
X9824819Y-37758333D02*
X9348628Y-37425000D01*
X9824819Y-37186905D02*
X8824819Y-37186905D01*
X8824819Y-37186905D02*
X8824819Y-37567857D01*
X8824819Y-37567857D02*
X8872438Y-37663095D01*
X8872438Y-37663095D02*
X8920057Y-37710714D01*
X8920057Y-37710714D02*
X9015295Y-37758333D01*
X9015295Y-37758333D02*
X9158152Y-37758333D01*
X9158152Y-37758333D02*
X9253390Y-37710714D01*
X9253390Y-37710714D02*
X9301009Y-37663095D01*
X9301009Y-37663095D02*
X9348628Y-37567857D01*
X9348628Y-37567857D02*
X9348628Y-37186905D01*
X8824819Y-38091667D02*
X8824819Y-38710714D01*
X8824819Y-38710714D02*
X9205771Y-38377381D01*
X9205771Y-38377381D02*
X9205771Y-38520238D01*
X9205771Y-38520238D02*
X9253390Y-38615476D01*
X9253390Y-38615476D02*
X9301009Y-38663095D01*
X9301009Y-38663095D02*
X9396247Y-38710714D01*
X9396247Y-38710714D02*
X9634342Y-38710714D01*
X9634342Y-38710714D02*
X9729580Y-38663095D01*
X9729580Y-38663095D02*
X9777200Y-38615476D01*
X9777200Y-38615476D02*
X9824819Y-38520238D01*
X9824819Y-38520238D02*
X9824819Y-38234524D01*
X9824819Y-38234524D02*
X9777200Y-38139286D01*
X9777200Y-38139286D02*
X9729580Y-38091667D01*
X8716666Y-57559580D02*
X8764285Y-57607200D01*
X8764285Y-57607200D02*
X8907142Y-57654819D01*
X8907142Y-57654819D02*
X9002380Y-57654819D01*
X9002380Y-57654819D02*
X9145237Y-57607200D01*
X9145237Y-57607200D02*
X9240475Y-57511961D01*
X9240475Y-57511961D02*
X9288094Y-57416723D01*
X9288094Y-57416723D02*
X9335713Y-57226247D01*
X9335713Y-57226247D02*
X9335713Y-57083390D01*
X9335713Y-57083390D02*
X9288094Y-56892914D01*
X9288094Y-56892914D02*
X9240475Y-56797676D01*
X9240475Y-56797676D02*
X9145237Y-56702438D01*
X9145237Y-56702438D02*
X9002380Y-56654819D01*
X9002380Y-56654819D02*
X8907142Y-56654819D01*
X8907142Y-56654819D02*
X8764285Y-56702438D01*
X8764285Y-56702438D02*
X8716666Y-56750057D01*
X8383332Y-56654819D02*
X7764285Y-56654819D01*
X7764285Y-56654819D02*
X8097618Y-57035771D01*
X8097618Y-57035771D02*
X7954761Y-57035771D01*
X7954761Y-57035771D02*
X7859523Y-57083390D01*
X7859523Y-57083390D02*
X7811904Y-57131009D01*
X7811904Y-57131009D02*
X7764285Y-57226247D01*
X7764285Y-57226247D02*
X7764285Y-57464342D01*
X7764285Y-57464342D02*
X7811904Y-57559580D01*
X7811904Y-57559580D02*
X7859523Y-57607200D01*
X7859523Y-57607200D02*
X7954761Y-57654819D01*
X7954761Y-57654819D02*
X8240475Y-57654819D01*
X8240475Y-57654819D02*
X8335713Y-57607200D01*
X8335713Y-57607200D02*
X8383332Y-57559580D01*
X17266666Y-59409580D02*
X17314285Y-59457200D01*
X17314285Y-59457200D02*
X17457142Y-59504819D01*
X17457142Y-59504819D02*
X17552380Y-59504819D01*
X17552380Y-59504819D02*
X17695237Y-59457200D01*
X17695237Y-59457200D02*
X17790475Y-59361961D01*
X17790475Y-59361961D02*
X17838094Y-59266723D01*
X17838094Y-59266723D02*
X17885713Y-59076247D01*
X17885713Y-59076247D02*
X17885713Y-58933390D01*
X17885713Y-58933390D02*
X17838094Y-58742914D01*
X17838094Y-58742914D02*
X17790475Y-58647676D01*
X17790475Y-58647676D02*
X17695237Y-58552438D01*
X17695237Y-58552438D02*
X17552380Y-58504819D01*
X17552380Y-58504819D02*
X17457142Y-58504819D01*
X17457142Y-58504819D02*
X17314285Y-58552438D01*
X17314285Y-58552438D02*
X17266666Y-58600057D01*
X16314285Y-59504819D02*
X16885713Y-59504819D01*
X16599999Y-59504819D02*
X16599999Y-58504819D01*
X16599999Y-58504819D02*
X16695237Y-58647676D01*
X16695237Y-58647676D02*
X16790475Y-58742914D01*
X16790475Y-58742914D02*
X16885713Y-58790533D01*
X9762319Y-45358333D02*
X9286128Y-45025000D01*
X9762319Y-44786905D02*
X8762319Y-44786905D01*
X8762319Y-44786905D02*
X8762319Y-45167857D01*
X8762319Y-45167857D02*
X8809938Y-45263095D01*
X8809938Y-45263095D02*
X8857557Y-45310714D01*
X8857557Y-45310714D02*
X8952795Y-45358333D01*
X8952795Y-45358333D02*
X9095652Y-45358333D01*
X9095652Y-45358333D02*
X9190890Y-45310714D01*
X9190890Y-45310714D02*
X9238509Y-45263095D01*
X9238509Y-45263095D02*
X9286128Y-45167857D01*
X9286128Y-45167857D02*
X9286128Y-44786905D01*
X9762319Y-46310714D02*
X9762319Y-45739286D01*
X9762319Y-46025000D02*
X8762319Y-46025000D01*
X8762319Y-46025000D02*
X8905176Y-45929762D01*
X8905176Y-45929762D02*
X9000414Y-45834524D01*
X9000414Y-45834524D02*
X9048033Y-45739286D01*
X8716666Y-60359580D02*
X8764285Y-60407200D01*
X8764285Y-60407200D02*
X8907142Y-60454819D01*
X8907142Y-60454819D02*
X9002380Y-60454819D01*
X9002380Y-60454819D02*
X9145237Y-60407200D01*
X9145237Y-60407200D02*
X9240475Y-60311961D01*
X9240475Y-60311961D02*
X9288094Y-60216723D01*
X9288094Y-60216723D02*
X9335713Y-60026247D01*
X9335713Y-60026247D02*
X9335713Y-59883390D01*
X9335713Y-59883390D02*
X9288094Y-59692914D01*
X9288094Y-59692914D02*
X9240475Y-59597676D01*
X9240475Y-59597676D02*
X9145237Y-59502438D01*
X9145237Y-59502438D02*
X9002380Y-59454819D01*
X9002380Y-59454819D02*
X8907142Y-59454819D01*
X8907142Y-59454819D02*
X8764285Y-59502438D01*
X8764285Y-59502438D02*
X8716666Y-59550057D01*
X7859523Y-59788152D02*
X7859523Y-60454819D01*
X8097618Y-59407200D02*
X8335713Y-60121485D01*
X8335713Y-60121485D02*
X7716666Y-60121485D01*
X19061904Y-51054819D02*
X19061904Y-51864342D01*
X19061904Y-51864342D02*
X19014285Y-51959580D01*
X19014285Y-51959580D02*
X18966666Y-52007200D01*
X18966666Y-52007200D02*
X18871428Y-52054819D01*
X18871428Y-52054819D02*
X18680952Y-52054819D01*
X18680952Y-52054819D02*
X18585714Y-52007200D01*
X18585714Y-52007200D02*
X18538095Y-51959580D01*
X18538095Y-51959580D02*
X18490476Y-51864342D01*
X18490476Y-51864342D02*
X18490476Y-51054819D01*
X17490476Y-52054819D02*
X18061904Y-52054819D01*
X17776190Y-52054819D02*
X17776190Y-51054819D01*
X17776190Y-51054819D02*
X17871428Y-51197676D01*
X17871428Y-51197676D02*
X17966666Y-51292914D01*
X17966666Y-51292914D02*
X18061904Y-51340533D01*
X8766666Y-54354819D02*
X9242856Y-54354819D01*
X9242856Y-54354819D02*
X9242856Y-53354819D01*
X7909523Y-54354819D02*
X8480951Y-54354819D01*
X8195237Y-54354819D02*
X8195237Y-53354819D01*
X8195237Y-53354819D02*
X8290475Y-53497676D01*
X8290475Y-53497676D02*
X8385713Y-53592914D01*
X8385713Y-53592914D02*
X8480951Y-53640533D01*
X15995238Y-47325057D02*
X16090476Y-47277438D01*
X16090476Y-47277438D02*
X16185714Y-47182200D01*
X16185714Y-47182200D02*
X16328571Y-47039342D01*
X16328571Y-47039342D02*
X16423809Y-46991723D01*
X16423809Y-46991723D02*
X16519047Y-46991723D01*
X16471428Y-47229819D02*
X16566666Y-47182200D01*
X16566666Y-47182200D02*
X16661904Y-47086961D01*
X16661904Y-47086961D02*
X16709523Y-46896485D01*
X16709523Y-46896485D02*
X16709523Y-46563152D01*
X16709523Y-46563152D02*
X16661904Y-46372676D01*
X16661904Y-46372676D02*
X16566666Y-46277438D01*
X16566666Y-46277438D02*
X16471428Y-46229819D01*
X16471428Y-46229819D02*
X16280952Y-46229819D01*
X16280952Y-46229819D02*
X16185714Y-46277438D01*
X16185714Y-46277438D02*
X16090476Y-46372676D01*
X16090476Y-46372676D02*
X16042857Y-46563152D01*
X16042857Y-46563152D02*
X16042857Y-46896485D01*
X16042857Y-46896485D02*
X16090476Y-47086961D01*
X16090476Y-47086961D02*
X16185714Y-47182200D01*
X16185714Y-47182200D02*
X16280952Y-47229819D01*
X16280952Y-47229819D02*
X16471428Y-47229819D01*
X15090476Y-47229819D02*
X15661904Y-47229819D01*
X15376190Y-47229819D02*
X15376190Y-46229819D01*
X15376190Y-46229819D02*
X15471428Y-46372676D01*
X15471428Y-46372676D02*
X15566666Y-46467914D01*
X15566666Y-46467914D02*
X15661904Y-46515533D01*
D11*
%TO.C,U2*%
X15950000Y-25060000D02*
X14540000Y-25060000D01*
X15950000Y-22740000D02*
X14550000Y-22740000D01*
X14410000Y-25340000D02*
X13930000Y-25340000D01*
X14170000Y-25010000D01*
X14410000Y-25340000D01*
G36*
X14410000Y-25340000D02*
G01*
X13930000Y-25340000D01*
X14170000Y-25010000D01*
X14410000Y-25340000D01*
G37*
%TO.C,R9*%
X18522500Y-27983442D02*
X18522500Y-28457958D01*
X17477500Y-27983442D02*
X17477500Y-28457958D01*
%TO.C,R8*%
X18522500Y-19762258D02*
X18522500Y-19287742D01*
X17477500Y-19762258D02*
X17477500Y-19287742D01*
%TO.C,R7*%
X11512742Y-23677500D02*
X11987258Y-23677500D01*
X11512742Y-24722500D02*
X11987258Y-24722500D01*
D12*
%TO.C,JP2*%
X18558800Y-26569200D02*
X17441200Y-26569200D01*
X19016000Y-24588000D02*
X19016000Y-26112000D01*
X16984000Y-26112000D02*
X16984000Y-24588000D01*
X18558800Y-24130800D02*
X17441200Y-24130800D01*
X19016000Y-26112000D02*
G75*
G02*
X18558800Y-26569200I-457201J1D01*
G01*
X17441200Y-26569200D02*
G75*
G02*
X16984000Y-26112000I1J457201D01*
G01*
X18558800Y-24130800D02*
G75*
G02*
X19016000Y-24588000I0J-457200D01*
G01*
X16984000Y-24588000D02*
G75*
G02*
X17441200Y-24130800I457197J3D01*
G01*
%TO.C,JP1*%
X19016000Y-23166300D02*
G75*
G02*
X18558800Y-23623500I-457197J-3D01*
G01*
X17441200Y-23623500D02*
G75*
G02*
X16984000Y-23166300I0J457200D01*
G01*
X18558800Y-21185100D02*
G75*
G02*
X19016000Y-21642300I-1J-457201D01*
G01*
X16984000Y-21642300D02*
G75*
G02*
X17441200Y-21185100I457201J-1D01*
G01*
X17441200Y-23623500D02*
X18558800Y-23623500D01*
X19016000Y-21642300D02*
X19016000Y-23166300D01*
X16984000Y-23166300D02*
X16984000Y-21642300D01*
X17441200Y-21185100D02*
X18558800Y-21185100D01*
D11*
%TO.C,J1*%
X28590000Y-28470000D02*
X28590000Y-29800000D01*
X29700000Y-28470000D02*
X28590000Y-28470000D01*
X31160000Y-28470000D02*
X31160000Y-53990000D01*
X31160000Y-29440000D02*
X30810000Y-29440000D01*
X31160000Y-30160000D02*
X30810000Y-30160000D01*
X31160000Y-31980000D02*
X30750000Y-31980000D01*
X31160000Y-32700000D02*
X30750000Y-32700000D01*
X31160000Y-34520000D02*
X30750000Y-34520000D01*
X31160000Y-35240000D02*
X30750000Y-35240000D01*
X31160000Y-37060000D02*
X30750000Y-37060000D01*
X31160000Y-37780000D02*
X30750000Y-37780000D01*
X31160000Y-39600000D02*
X30750000Y-39600000D01*
X31160000Y-40320000D02*
X30750000Y-40320000D01*
X31160000Y-42140000D02*
X30750000Y-42140000D01*
X31160000Y-42860000D02*
X30750000Y-42860000D01*
X31160000Y-44680000D02*
X30750000Y-44680000D01*
X31160000Y-45400000D02*
X30750000Y-45400000D01*
X31160000Y-47220000D02*
X30750000Y-47220000D01*
X31160000Y-47940000D02*
X30750000Y-47940000D01*
X31160000Y-49760000D02*
X30750000Y-49760000D01*
X31160000Y-50480000D02*
X30750000Y-50480000D01*
X31160000Y-52300000D02*
X30750000Y-52300000D01*
X31160000Y-53020000D02*
X30750000Y-53020000D01*
X39790000Y-28470000D02*
X31160000Y-28470000D01*
X39790000Y-28470000D02*
X39790000Y-53990000D01*
X39790000Y-28590000D02*
X31160000Y-28590000D01*
X39790000Y-28708095D02*
X31160000Y-28708095D01*
X39790000Y-28826190D02*
X31160000Y-28826190D01*
X39790000Y-28944285D02*
X31160000Y-28944285D01*
X39790000Y-29062380D02*
X31160000Y-29062380D01*
X39790000Y-29180475D02*
X31160000Y-29180475D01*
X39790000Y-29298570D02*
X31160000Y-29298570D01*
X39790000Y-29416665D02*
X31160000Y-29416665D01*
X39790000Y-29534760D02*
X31160000Y-29534760D01*
X39790000Y-29652855D02*
X31160000Y-29652855D01*
X39790000Y-29770950D02*
X31160000Y-29770950D01*
X39790000Y-29889045D02*
X31160000Y-29889045D01*
X39790000Y-30007140D02*
X31160000Y-30007140D01*
X39790000Y-30125235D02*
X31160000Y-30125235D01*
X39790000Y-30243330D02*
X31160000Y-30243330D01*
X39790000Y-30361425D02*
X31160000Y-30361425D01*
X39790000Y-30479520D02*
X31160000Y-30479520D01*
X39790000Y-30597615D02*
X31160000Y-30597615D01*
X39790000Y-30715710D02*
X31160000Y-30715710D01*
X39790000Y-30833805D02*
X31160000Y-30833805D01*
X39790000Y-30951900D02*
X31160000Y-30951900D01*
X39790000Y-31070000D02*
X31160000Y-31070000D01*
X39790000Y-33610000D02*
X31160000Y-33610000D01*
X39790000Y-36150000D02*
X31160000Y-36150000D01*
X39790000Y-38690000D02*
X31160000Y-38690000D01*
X39790000Y-41230000D02*
X31160000Y-41230000D01*
X39790000Y-43770000D02*
X31160000Y-43770000D01*
X39790000Y-46310000D02*
X31160000Y-46310000D01*
X39790000Y-48850000D02*
X31160000Y-48850000D01*
X39790000Y-51390000D02*
X31160000Y-51390000D01*
X39790000Y-53990000D02*
X31160000Y-53990000D01*
%TO.C,R5*%
X17277500Y-41487742D02*
X17277500Y-41962258D01*
X18322500Y-41487742D02*
X18322500Y-41962258D01*
%TO.C,R6*%
X17277500Y-37687742D02*
X17277500Y-38162258D01*
X18322500Y-37687742D02*
X18322500Y-38162258D01*
%TO.C,Q2*%
X14300000Y-40165000D02*
X13650000Y-40165000D01*
X14300000Y-40165000D02*
X14950000Y-40165000D01*
X14300000Y-43285000D02*
X12625000Y-43285000D01*
X14300000Y-43285000D02*
X14950000Y-43285000D01*
%TO.C,Q3*%
X14300000Y-36365000D02*
X13650000Y-36365000D01*
X14300000Y-36365000D02*
X14950000Y-36365000D01*
X14300000Y-39485000D02*
X12625000Y-39485000D01*
X14300000Y-39485000D02*
X14950000Y-39485000D01*
%TO.C,R2*%
X10277500Y-41487742D02*
X10277500Y-41962258D01*
X11322500Y-41487742D02*
X11322500Y-41962258D01*
%TO.C,R4*%
X17215000Y-45287742D02*
X17215000Y-45762258D01*
X18260000Y-45287742D02*
X18260000Y-45762258D01*
%TO.C,C2*%
X13788748Y-49490000D02*
X15211252Y-49490000D01*
X13788748Y-51310000D02*
X15211252Y-51310000D01*
%TO.C,R3*%
X10277500Y-37687742D02*
X10277500Y-38162258D01*
X11322500Y-37687742D02*
X11322500Y-38162258D01*
%TO.C,C3*%
X12511252Y-56290000D02*
X11088748Y-56290000D01*
X12511252Y-58110000D02*
X11088748Y-58110000D01*
%TO.C,C1*%
X16388748Y-56290000D02*
X17811252Y-56290000D01*
X16388748Y-58110000D02*
X17811252Y-58110000D01*
%TO.C,R1*%
X10215000Y-45287742D02*
X10215000Y-45762258D01*
X11260000Y-45287742D02*
X11260000Y-45762258D01*
%TO.C,C4*%
X12511252Y-59190000D02*
X11088748Y-59190000D01*
X12511252Y-61010000D02*
X11088748Y-61010000D01*
%TO.C,U1*%
X16900000Y-52340000D02*
X16100000Y-52340000D01*
X16900000Y-52340000D02*
X18700000Y-52340000D01*
X16900000Y-55460000D02*
X16100000Y-55460000D01*
X16900000Y-55460000D02*
X17700000Y-55460000D01*
%TO.C,L1*%
X12402064Y-52540000D02*
X11197936Y-52540000D01*
X12402064Y-55260000D02*
X11197936Y-55260000D01*
%TO.C,Q1*%
X14300000Y-43965000D02*
X13650000Y-43965000D01*
X14300000Y-43965000D02*
X14950000Y-43965000D01*
X14300000Y-47085000D02*
X12625000Y-47085000D01*
X14300000Y-47085000D02*
X14950000Y-47085000D01*
%TD*%
M02*
