%TF.GenerationSoftware,KiCad,Pcbnew,8.0.5*%
%TF.CreationDate,2024-09-27T01:52:58-04:00*%
%TF.ProjectId,BREAD_Loaf,42524541-445f-44c6-9f61-662e6b696361,rev?*%
%TF.SameCoordinates,PX2fdfdc0PY36746e0*%
%TF.FileFunction,Legend,Top*%
%TF.FilePolarity,Positive*%
%FSLAX46Y46*%
G04 Gerber Fmt 4.6, Leading zero omitted, Abs format (unit mm)*
G04 Created by KiCad (PCBNEW 8.0.5) date 2024-09-27 01:52:58*
%MOMM*%
%LPD*%
G01*
G04 APERTURE LIST*
%ADD10C,0.150000*%
%ADD11C,0.100000*%
%ADD12C,0.177800*%
%ADD13C,0.200000*%
%ADD14C,0.010000*%
%ADD15C,0.000000*%
G04 APERTURE END LIST*
D10*
X34158458Y-42443247D02*
X34425124Y-42443247D01*
X34539410Y-42862295D02*
X34158458Y-42862295D01*
X34158458Y-42862295D02*
X34158458Y-42062295D01*
X34158458Y-42062295D02*
X34539410Y-42062295D01*
X34844172Y-42824200D02*
X34958458Y-42862295D01*
X34958458Y-42862295D02*
X35148934Y-42862295D01*
X35148934Y-42862295D02*
X35225125Y-42824200D01*
X35225125Y-42824200D02*
X35263220Y-42786104D01*
X35263220Y-42786104D02*
X35301315Y-42709914D01*
X35301315Y-42709914D02*
X35301315Y-42633723D01*
X35301315Y-42633723D02*
X35263220Y-42557533D01*
X35263220Y-42557533D02*
X35225125Y-42519438D01*
X35225125Y-42519438D02*
X35148934Y-42481342D01*
X35148934Y-42481342D02*
X34996553Y-42443247D01*
X34996553Y-42443247D02*
X34920363Y-42405152D01*
X34920363Y-42405152D02*
X34882268Y-42367057D01*
X34882268Y-42367057D02*
X34844172Y-42290866D01*
X34844172Y-42290866D02*
X34844172Y-42214676D01*
X34844172Y-42214676D02*
X34882268Y-42138485D01*
X34882268Y-42138485D02*
X34920363Y-42100390D01*
X34920363Y-42100390D02*
X34996553Y-42062295D01*
X34996553Y-42062295D02*
X35187030Y-42062295D01*
X35187030Y-42062295D02*
X35301315Y-42100390D01*
X35529887Y-42062295D02*
X35987030Y-42062295D01*
X35758458Y-42862295D02*
X35758458Y-42062295D01*
X36406078Y-42062295D02*
X36558459Y-42062295D01*
X36558459Y-42062295D02*
X36634649Y-42100390D01*
X36634649Y-42100390D02*
X36710840Y-42176580D01*
X36710840Y-42176580D02*
X36748935Y-42328961D01*
X36748935Y-42328961D02*
X36748935Y-42595628D01*
X36748935Y-42595628D02*
X36710840Y-42748009D01*
X36710840Y-42748009D02*
X36634649Y-42824200D01*
X36634649Y-42824200D02*
X36558459Y-42862295D01*
X36558459Y-42862295D02*
X36406078Y-42862295D01*
X36406078Y-42862295D02*
X36329887Y-42824200D01*
X36329887Y-42824200D02*
X36253697Y-42748009D01*
X36253697Y-42748009D02*
X36215601Y-42595628D01*
X36215601Y-42595628D02*
X36215601Y-42328961D01*
X36215601Y-42328961D02*
X36253697Y-42176580D01*
X36253697Y-42176580D02*
X36329887Y-42100390D01*
X36329887Y-42100390D02*
X36406078Y-42062295D01*
X37091792Y-42862295D02*
X37091792Y-42062295D01*
X37091792Y-42062295D02*
X37396554Y-42062295D01*
X37396554Y-42062295D02*
X37472744Y-42100390D01*
X37472744Y-42100390D02*
X37510839Y-42138485D01*
X37510839Y-42138485D02*
X37548935Y-42214676D01*
X37548935Y-42214676D02*
X37548935Y-42328961D01*
X37548935Y-42328961D02*
X37510839Y-42405152D01*
X37510839Y-42405152D02*
X37472744Y-42443247D01*
X37472744Y-42443247D02*
X37396554Y-42481342D01*
X37396554Y-42481342D02*
X37091792Y-42481342D01*
X36101315Y-50512295D02*
X35644172Y-50512295D01*
X35872744Y-50512295D02*
X35872744Y-49712295D01*
X35872744Y-49712295D02*
X35796553Y-49826580D01*
X35796553Y-49826580D02*
X35720363Y-49902771D01*
X35720363Y-49902771D02*
X35644172Y-49940866D01*
X36406077Y-49788485D02*
X36444173Y-49750390D01*
X36444173Y-49750390D02*
X36520363Y-49712295D01*
X36520363Y-49712295D02*
X36710839Y-49712295D01*
X36710839Y-49712295D02*
X36787030Y-49750390D01*
X36787030Y-49750390D02*
X36825125Y-49788485D01*
X36825125Y-49788485D02*
X36863220Y-49864676D01*
X36863220Y-49864676D02*
X36863220Y-49940866D01*
X36863220Y-49940866D02*
X36825125Y-50055152D01*
X36825125Y-50055152D02*
X36367982Y-50512295D01*
X36367982Y-50512295D02*
X36863220Y-50512295D01*
X37091792Y-49712295D02*
X37358459Y-50512295D01*
X37358459Y-50512295D02*
X37625125Y-49712295D01*
X36101315Y-32712295D02*
X35644172Y-32712295D01*
X35872744Y-32712295D02*
X35872744Y-31912295D01*
X35872744Y-31912295D02*
X35796553Y-32026580D01*
X35796553Y-32026580D02*
X35720363Y-32102771D01*
X35720363Y-32102771D02*
X35644172Y-32140866D01*
X36406077Y-31988485D02*
X36444173Y-31950390D01*
X36444173Y-31950390D02*
X36520363Y-31912295D01*
X36520363Y-31912295D02*
X36710839Y-31912295D01*
X36710839Y-31912295D02*
X36787030Y-31950390D01*
X36787030Y-31950390D02*
X36825125Y-31988485D01*
X36825125Y-31988485D02*
X36863220Y-32064676D01*
X36863220Y-32064676D02*
X36863220Y-32140866D01*
X36863220Y-32140866D02*
X36825125Y-32255152D01*
X36825125Y-32255152D02*
X36367982Y-32712295D01*
X36367982Y-32712295D02*
X36863220Y-32712295D01*
X37091792Y-31912295D02*
X37358459Y-32712295D01*
X37358459Y-32712295D02*
X37625125Y-31912295D01*
X34767982Y-45374200D02*
X34882268Y-45412295D01*
X34882268Y-45412295D02*
X35072744Y-45412295D01*
X35072744Y-45412295D02*
X35148935Y-45374200D01*
X35148935Y-45374200D02*
X35187030Y-45336104D01*
X35187030Y-45336104D02*
X35225125Y-45259914D01*
X35225125Y-45259914D02*
X35225125Y-45183723D01*
X35225125Y-45183723D02*
X35187030Y-45107533D01*
X35187030Y-45107533D02*
X35148935Y-45069438D01*
X35148935Y-45069438D02*
X35072744Y-45031342D01*
X35072744Y-45031342D02*
X34920363Y-44993247D01*
X34920363Y-44993247D02*
X34844173Y-44955152D01*
X34844173Y-44955152D02*
X34806078Y-44917057D01*
X34806078Y-44917057D02*
X34767982Y-44840866D01*
X34767982Y-44840866D02*
X34767982Y-44764676D01*
X34767982Y-44764676D02*
X34806078Y-44688485D01*
X34806078Y-44688485D02*
X34844173Y-44650390D01*
X34844173Y-44650390D02*
X34920363Y-44612295D01*
X34920363Y-44612295D02*
X35110840Y-44612295D01*
X35110840Y-44612295D02*
X35225125Y-44650390D01*
X35720364Y-45031342D02*
X35720364Y-45412295D01*
X35453697Y-44612295D02*
X35720364Y-45031342D01*
X35720364Y-45031342D02*
X35987030Y-44612295D01*
X36253697Y-45412295D02*
X36253697Y-44612295D01*
X36253697Y-44612295D02*
X36710840Y-45412295D01*
X36710840Y-45412295D02*
X36710840Y-44612295D01*
X37548935Y-45336104D02*
X37510839Y-45374200D01*
X37510839Y-45374200D02*
X37396554Y-45412295D01*
X37396554Y-45412295D02*
X37320363Y-45412295D01*
X37320363Y-45412295D02*
X37206077Y-45374200D01*
X37206077Y-45374200D02*
X37129887Y-45298009D01*
X37129887Y-45298009D02*
X37091792Y-45221819D01*
X37091792Y-45221819D02*
X37053696Y-45069438D01*
X37053696Y-45069438D02*
X37053696Y-44955152D01*
X37053696Y-44955152D02*
X37091792Y-44802771D01*
X37091792Y-44802771D02*
X37129887Y-44726580D01*
X37129887Y-44726580D02*
X37206077Y-44650390D01*
X37206077Y-44650390D02*
X37320363Y-44612295D01*
X37320363Y-44612295D02*
X37396554Y-44612295D01*
X37396554Y-44612295D02*
X37510839Y-44650390D01*
X37510839Y-44650390D02*
X37548935Y-44688485D01*
X35872744Y-52250390D02*
X35796554Y-52212295D01*
X35796554Y-52212295D02*
X35682268Y-52212295D01*
X35682268Y-52212295D02*
X35567982Y-52250390D01*
X35567982Y-52250390D02*
X35491792Y-52326580D01*
X35491792Y-52326580D02*
X35453697Y-52402771D01*
X35453697Y-52402771D02*
X35415601Y-52555152D01*
X35415601Y-52555152D02*
X35415601Y-52669438D01*
X35415601Y-52669438D02*
X35453697Y-52821819D01*
X35453697Y-52821819D02*
X35491792Y-52898009D01*
X35491792Y-52898009D02*
X35567982Y-52974200D01*
X35567982Y-52974200D02*
X35682268Y-53012295D01*
X35682268Y-53012295D02*
X35758459Y-53012295D01*
X35758459Y-53012295D02*
X35872744Y-52974200D01*
X35872744Y-52974200D02*
X35910840Y-52936104D01*
X35910840Y-52936104D02*
X35910840Y-52669438D01*
X35910840Y-52669438D02*
X35758459Y-52669438D01*
X36253697Y-53012295D02*
X36253697Y-52212295D01*
X36253697Y-52212295D02*
X36710840Y-53012295D01*
X36710840Y-53012295D02*
X36710840Y-52212295D01*
X37091792Y-53012295D02*
X37091792Y-52212295D01*
X37091792Y-52212295D02*
X37282268Y-52212295D01*
X37282268Y-52212295D02*
X37396554Y-52250390D01*
X37396554Y-52250390D02*
X37472744Y-52326580D01*
X37472744Y-52326580D02*
X37510839Y-52402771D01*
X37510839Y-52402771D02*
X37548935Y-52555152D01*
X37548935Y-52555152D02*
X37548935Y-52669438D01*
X37548935Y-52669438D02*
X37510839Y-52821819D01*
X37510839Y-52821819D02*
X37472744Y-52898009D01*
X37472744Y-52898009D02*
X37396554Y-52974200D01*
X37396554Y-52974200D02*
X37282268Y-53012295D01*
X37282268Y-53012295D02*
X37091792Y-53012295D01*
X16546846Y-33012969D02*
X16546846Y-32536779D01*
X16546846Y-32536779D02*
X17546846Y-32536779D01*
X16546846Y-33489160D02*
X16594466Y-33393922D01*
X16594466Y-33393922D02*
X16642085Y-33346303D01*
X16642085Y-33346303D02*
X16737323Y-33298684D01*
X16737323Y-33298684D02*
X17023037Y-33298684D01*
X17023037Y-33298684D02*
X17118275Y-33346303D01*
X17118275Y-33346303D02*
X17165894Y-33393922D01*
X17165894Y-33393922D02*
X17213513Y-33489160D01*
X17213513Y-33489160D02*
X17213513Y-33632017D01*
X17213513Y-33632017D02*
X17165894Y-33727255D01*
X17165894Y-33727255D02*
X17118275Y-33774874D01*
X17118275Y-33774874D02*
X17023037Y-33822493D01*
X17023037Y-33822493D02*
X16737323Y-33822493D01*
X16737323Y-33822493D02*
X16642085Y-33774874D01*
X16642085Y-33774874D02*
X16594466Y-33727255D01*
X16594466Y-33727255D02*
X16546846Y-33632017D01*
X16546846Y-33632017D02*
X16546846Y-33489160D01*
X16546846Y-34679636D02*
X17070656Y-34679636D01*
X17070656Y-34679636D02*
X17165894Y-34632017D01*
X17165894Y-34632017D02*
X17213513Y-34536779D01*
X17213513Y-34536779D02*
X17213513Y-34346303D01*
X17213513Y-34346303D02*
X17165894Y-34251065D01*
X16594466Y-34679636D02*
X16546846Y-34584398D01*
X16546846Y-34584398D02*
X16546846Y-34346303D01*
X16546846Y-34346303D02*
X16594466Y-34251065D01*
X16594466Y-34251065D02*
X16689704Y-34203446D01*
X16689704Y-34203446D02*
X16784942Y-34203446D01*
X16784942Y-34203446D02*
X16880180Y-34251065D01*
X16880180Y-34251065D02*
X16927799Y-34346303D01*
X16927799Y-34346303D02*
X16927799Y-34584398D01*
X16927799Y-34584398D02*
X16975418Y-34679636D01*
X17213513Y-35012970D02*
X17213513Y-35393922D01*
X16546846Y-35155827D02*
X17403989Y-35155827D01*
X17403989Y-35155827D02*
X17499227Y-35203446D01*
X17499227Y-35203446D02*
X17546846Y-35298684D01*
X17546846Y-35298684D02*
X17546846Y-35393922D01*
X17070656Y-36822494D02*
X17023037Y-36965351D01*
X17023037Y-36965351D02*
X16975418Y-37012970D01*
X16975418Y-37012970D02*
X16880180Y-37060589D01*
X16880180Y-37060589D02*
X16737323Y-37060589D01*
X16737323Y-37060589D02*
X16642085Y-37012970D01*
X16642085Y-37012970D02*
X16594466Y-36965351D01*
X16594466Y-36965351D02*
X16546846Y-36870113D01*
X16546846Y-36870113D02*
X16546846Y-36489161D01*
X16546846Y-36489161D02*
X17546846Y-36489161D01*
X17546846Y-36489161D02*
X17546846Y-36822494D01*
X17546846Y-36822494D02*
X17499227Y-36917732D01*
X17499227Y-36917732D02*
X17451608Y-36965351D01*
X17451608Y-36965351D02*
X17356370Y-37012970D01*
X17356370Y-37012970D02*
X17261132Y-37012970D01*
X17261132Y-37012970D02*
X17165894Y-36965351D01*
X17165894Y-36965351D02*
X17118275Y-36917732D01*
X17118275Y-36917732D02*
X17070656Y-36822494D01*
X17070656Y-36822494D02*
X17070656Y-36489161D01*
X16546846Y-37917732D02*
X17070656Y-37917732D01*
X17070656Y-37917732D02*
X17165894Y-37870113D01*
X17165894Y-37870113D02*
X17213513Y-37774875D01*
X17213513Y-37774875D02*
X17213513Y-37584399D01*
X17213513Y-37584399D02*
X17165894Y-37489161D01*
X16594466Y-37917732D02*
X16546846Y-37822494D01*
X16546846Y-37822494D02*
X16546846Y-37584399D01*
X16546846Y-37584399D02*
X16594466Y-37489161D01*
X16594466Y-37489161D02*
X16689704Y-37441542D01*
X16689704Y-37441542D02*
X16784942Y-37441542D01*
X16784942Y-37441542D02*
X16880180Y-37489161D01*
X16880180Y-37489161D02*
X16927799Y-37584399D01*
X16927799Y-37584399D02*
X16927799Y-37822494D01*
X16927799Y-37822494D02*
X16975418Y-37917732D01*
X16594466Y-38822494D02*
X16546846Y-38727256D01*
X16546846Y-38727256D02*
X16546846Y-38536780D01*
X16546846Y-38536780D02*
X16594466Y-38441542D01*
X16594466Y-38441542D02*
X16642085Y-38393923D01*
X16642085Y-38393923D02*
X16737323Y-38346304D01*
X16737323Y-38346304D02*
X17023037Y-38346304D01*
X17023037Y-38346304D02*
X17118275Y-38393923D01*
X17118275Y-38393923D02*
X17165894Y-38441542D01*
X17165894Y-38441542D02*
X17213513Y-38536780D01*
X17213513Y-38536780D02*
X17213513Y-38727256D01*
X17213513Y-38727256D02*
X17165894Y-38822494D01*
X16546846Y-39251066D02*
X17546846Y-39251066D01*
X16927799Y-39346304D02*
X16546846Y-39632018D01*
X17213513Y-39632018D02*
X16832561Y-39251066D01*
X17213513Y-40060590D02*
X16213513Y-40060590D01*
X17165894Y-40060590D02*
X17213513Y-40155828D01*
X17213513Y-40155828D02*
X17213513Y-40346304D01*
X17213513Y-40346304D02*
X17165894Y-40441542D01*
X17165894Y-40441542D02*
X17118275Y-40489161D01*
X17118275Y-40489161D02*
X17023037Y-40536780D01*
X17023037Y-40536780D02*
X16737323Y-40536780D01*
X16737323Y-40536780D02*
X16642085Y-40489161D01*
X16642085Y-40489161D02*
X16594466Y-40441542D01*
X16594466Y-40441542D02*
X16546846Y-40346304D01*
X16546846Y-40346304D02*
X16546846Y-40155828D01*
X16546846Y-40155828D02*
X16594466Y-40060590D01*
X16546846Y-41108209D02*
X16594466Y-41012971D01*
X16594466Y-41012971D02*
X16689704Y-40965352D01*
X16689704Y-40965352D02*
X17546846Y-40965352D01*
X16546846Y-41917733D02*
X17070656Y-41917733D01*
X17070656Y-41917733D02*
X17165894Y-41870114D01*
X17165894Y-41870114D02*
X17213513Y-41774876D01*
X17213513Y-41774876D02*
X17213513Y-41584400D01*
X17213513Y-41584400D02*
X17165894Y-41489162D01*
X16594466Y-41917733D02*
X16546846Y-41822495D01*
X16546846Y-41822495D02*
X16546846Y-41584400D01*
X16546846Y-41584400D02*
X16594466Y-41489162D01*
X16594466Y-41489162D02*
X16689704Y-41441543D01*
X16689704Y-41441543D02*
X16784942Y-41441543D01*
X16784942Y-41441543D02*
X16880180Y-41489162D01*
X16880180Y-41489162D02*
X16927799Y-41584400D01*
X16927799Y-41584400D02*
X16927799Y-41822495D01*
X16927799Y-41822495D02*
X16975418Y-41917733D01*
X17213513Y-42393924D02*
X16546846Y-42393924D01*
X17118275Y-42393924D02*
X17165894Y-42441543D01*
X17165894Y-42441543D02*
X17213513Y-42536781D01*
X17213513Y-42536781D02*
X17213513Y-42679638D01*
X17213513Y-42679638D02*
X17165894Y-42774876D01*
X17165894Y-42774876D02*
X17070656Y-42822495D01*
X17070656Y-42822495D02*
X16546846Y-42822495D01*
X16594466Y-43679638D02*
X16546846Y-43584400D01*
X16546846Y-43584400D02*
X16546846Y-43393924D01*
X16546846Y-43393924D02*
X16594466Y-43298686D01*
X16594466Y-43298686D02*
X16689704Y-43251067D01*
X16689704Y-43251067D02*
X17070656Y-43251067D01*
X17070656Y-43251067D02*
X17165894Y-43298686D01*
X17165894Y-43298686D02*
X17213513Y-43393924D01*
X17213513Y-43393924D02*
X17213513Y-43584400D01*
X17213513Y-43584400D02*
X17165894Y-43679638D01*
X17165894Y-43679638D02*
X17070656Y-43727257D01*
X17070656Y-43727257D02*
X16975418Y-43727257D01*
X16975418Y-43727257D02*
X16880180Y-43251067D01*
X15460712Y-32536779D02*
X15460712Y-32870112D01*
X14936902Y-33012969D02*
X14936902Y-32536779D01*
X14936902Y-32536779D02*
X15936902Y-32536779D01*
X15936902Y-32536779D02*
X15936902Y-33012969D01*
X14984522Y-33393922D02*
X14936902Y-33536779D01*
X14936902Y-33536779D02*
X14936902Y-33774874D01*
X14936902Y-33774874D02*
X14984522Y-33870112D01*
X14984522Y-33870112D02*
X15032141Y-33917731D01*
X15032141Y-33917731D02*
X15127379Y-33965350D01*
X15127379Y-33965350D02*
X15222617Y-33965350D01*
X15222617Y-33965350D02*
X15317855Y-33917731D01*
X15317855Y-33917731D02*
X15365474Y-33870112D01*
X15365474Y-33870112D02*
X15413093Y-33774874D01*
X15413093Y-33774874D02*
X15460712Y-33584398D01*
X15460712Y-33584398D02*
X15508331Y-33489160D01*
X15508331Y-33489160D02*
X15555950Y-33441541D01*
X15555950Y-33441541D02*
X15651188Y-33393922D01*
X15651188Y-33393922D02*
X15746426Y-33393922D01*
X15746426Y-33393922D02*
X15841664Y-33441541D01*
X15841664Y-33441541D02*
X15889283Y-33489160D01*
X15889283Y-33489160D02*
X15936902Y-33584398D01*
X15936902Y-33584398D02*
X15936902Y-33822493D01*
X15936902Y-33822493D02*
X15889283Y-33965350D01*
X14936902Y-34393922D02*
X15936902Y-34393922D01*
X15936902Y-34393922D02*
X15936902Y-34774874D01*
X15936902Y-34774874D02*
X15889283Y-34870112D01*
X15889283Y-34870112D02*
X15841664Y-34917731D01*
X15841664Y-34917731D02*
X15746426Y-34965350D01*
X15746426Y-34965350D02*
X15603569Y-34965350D01*
X15603569Y-34965350D02*
X15508331Y-34917731D01*
X15508331Y-34917731D02*
X15460712Y-34870112D01*
X15460712Y-34870112D02*
X15413093Y-34774874D01*
X15413093Y-34774874D02*
X15413093Y-34393922D01*
X15936902Y-35298684D02*
X15936902Y-35917731D01*
X15936902Y-35917731D02*
X15555950Y-35584398D01*
X15555950Y-35584398D02*
X15555950Y-35727255D01*
X15555950Y-35727255D02*
X15508331Y-35822493D01*
X15508331Y-35822493D02*
X15460712Y-35870112D01*
X15460712Y-35870112D02*
X15365474Y-35917731D01*
X15365474Y-35917731D02*
X15127379Y-35917731D01*
X15127379Y-35917731D02*
X15032141Y-35870112D01*
X15032141Y-35870112D02*
X14984522Y-35822493D01*
X14984522Y-35822493D02*
X14936902Y-35727255D01*
X14936902Y-35727255D02*
X14936902Y-35441541D01*
X14936902Y-35441541D02*
X14984522Y-35346303D01*
X14984522Y-35346303D02*
X15032141Y-35298684D01*
X15841664Y-36298684D02*
X15889283Y-36346303D01*
X15889283Y-36346303D02*
X15936902Y-36441541D01*
X15936902Y-36441541D02*
X15936902Y-36679636D01*
X15936902Y-36679636D02*
X15889283Y-36774874D01*
X15889283Y-36774874D02*
X15841664Y-36822493D01*
X15841664Y-36822493D02*
X15746426Y-36870112D01*
X15746426Y-36870112D02*
X15651188Y-36870112D01*
X15651188Y-36870112D02*
X15508331Y-36822493D01*
X15508331Y-36822493D02*
X14936902Y-36251065D01*
X14936902Y-36251065D02*
X14936902Y-36870112D01*
X15936902Y-37917732D02*
X15936902Y-38489160D01*
X14936902Y-38203446D02*
X15936902Y-38203446D01*
X14936902Y-38822494D02*
X15936902Y-38822494D01*
X14936902Y-39251065D02*
X15460712Y-39251065D01*
X15460712Y-39251065D02*
X15555950Y-39203446D01*
X15555950Y-39203446D02*
X15603569Y-39108208D01*
X15603569Y-39108208D02*
X15603569Y-38965351D01*
X15603569Y-38965351D02*
X15555950Y-38870113D01*
X15555950Y-38870113D02*
X15508331Y-38822494D01*
X14936902Y-39727256D02*
X15603569Y-39727256D01*
X15936902Y-39727256D02*
X15889283Y-39679637D01*
X15889283Y-39679637D02*
X15841664Y-39727256D01*
X15841664Y-39727256D02*
X15889283Y-39774875D01*
X15889283Y-39774875D02*
X15936902Y-39727256D01*
X15936902Y-39727256D02*
X15841664Y-39727256D01*
X15603569Y-40203446D02*
X14936902Y-40203446D01*
X15508331Y-40203446D02*
X15555950Y-40251065D01*
X15555950Y-40251065D02*
X15603569Y-40346303D01*
X15603569Y-40346303D02*
X15603569Y-40489160D01*
X15603569Y-40489160D02*
X15555950Y-40584398D01*
X15555950Y-40584398D02*
X15460712Y-40632017D01*
X15460712Y-40632017D02*
X14936902Y-40632017D01*
X15603569Y-41536779D02*
X14794045Y-41536779D01*
X14794045Y-41536779D02*
X14698807Y-41489160D01*
X14698807Y-41489160D02*
X14651188Y-41441541D01*
X14651188Y-41441541D02*
X14603569Y-41346303D01*
X14603569Y-41346303D02*
X14603569Y-41203446D01*
X14603569Y-41203446D02*
X14651188Y-41108208D01*
X14984522Y-41536779D02*
X14936902Y-41441541D01*
X14936902Y-41441541D02*
X14936902Y-41251065D01*
X14936902Y-41251065D02*
X14984522Y-41155827D01*
X14984522Y-41155827D02*
X15032141Y-41108208D01*
X15032141Y-41108208D02*
X15127379Y-41060589D01*
X15127379Y-41060589D02*
X15413093Y-41060589D01*
X15413093Y-41060589D02*
X15508331Y-41108208D01*
X15508331Y-41108208D02*
X15555950Y-41155827D01*
X15555950Y-41155827D02*
X15603569Y-41251065D01*
X15603569Y-41251065D02*
X15603569Y-41441541D01*
X15603569Y-41441541D02*
X15555950Y-41536779D01*
X14936902Y-42774875D02*
X15936902Y-42774875D01*
X15936902Y-42774875D02*
X15936902Y-43155827D01*
X15936902Y-43155827D02*
X15889283Y-43251065D01*
X15889283Y-43251065D02*
X15841664Y-43298684D01*
X15841664Y-43298684D02*
X15746426Y-43346303D01*
X15746426Y-43346303D02*
X15603569Y-43346303D01*
X15603569Y-43346303D02*
X15508331Y-43298684D01*
X15508331Y-43298684D02*
X15460712Y-43251065D01*
X15460712Y-43251065D02*
X15413093Y-43155827D01*
X15413093Y-43155827D02*
X15413093Y-42774875D01*
X14936902Y-43917732D02*
X14984522Y-43822494D01*
X14984522Y-43822494D02*
X15079760Y-43774875D01*
X15079760Y-43774875D02*
X15936902Y-43774875D01*
X15603569Y-44727256D02*
X14936902Y-44727256D01*
X15603569Y-44298685D02*
X15079760Y-44298685D01*
X15079760Y-44298685D02*
X14984522Y-44346304D01*
X14984522Y-44346304D02*
X14936902Y-44441542D01*
X14936902Y-44441542D02*
X14936902Y-44584399D01*
X14936902Y-44584399D02*
X14984522Y-44679637D01*
X14984522Y-44679637D02*
X15032141Y-44727256D01*
X14984522Y-45155828D02*
X14936902Y-45251066D01*
X14936902Y-45251066D02*
X14936902Y-45441542D01*
X14936902Y-45441542D02*
X14984522Y-45536780D01*
X14984522Y-45536780D02*
X15079760Y-45584399D01*
X15079760Y-45584399D02*
X15127379Y-45584399D01*
X15127379Y-45584399D02*
X15222617Y-45536780D01*
X15222617Y-45536780D02*
X15270236Y-45441542D01*
X15270236Y-45441542D02*
X15270236Y-45298685D01*
X15270236Y-45298685D02*
X15317855Y-45203447D01*
X15317855Y-45203447D02*
X15413093Y-45155828D01*
X15413093Y-45155828D02*
X15460712Y-45155828D01*
X15460712Y-45155828D02*
X15555950Y-45203447D01*
X15555950Y-45203447D02*
X15603569Y-45298685D01*
X15603569Y-45298685D02*
X15603569Y-45441542D01*
X15603569Y-45441542D02*
X15555950Y-45536780D01*
X13326958Y-33012969D02*
X13326958Y-32536779D01*
X13326958Y-32536779D02*
X14326958Y-32536779D01*
X14326958Y-33536779D02*
X14326958Y-33727255D01*
X14326958Y-33727255D02*
X14279339Y-33822493D01*
X14279339Y-33822493D02*
X14184101Y-33917731D01*
X14184101Y-33917731D02*
X13993625Y-33965350D01*
X13993625Y-33965350D02*
X13660292Y-33965350D01*
X13660292Y-33965350D02*
X13469816Y-33917731D01*
X13469816Y-33917731D02*
X13374578Y-33822493D01*
X13374578Y-33822493D02*
X13326958Y-33727255D01*
X13326958Y-33727255D02*
X13326958Y-33536779D01*
X13326958Y-33536779D02*
X13374578Y-33441541D01*
X13374578Y-33441541D02*
X13469816Y-33346303D01*
X13469816Y-33346303D02*
X13660292Y-33298684D01*
X13660292Y-33298684D02*
X13993625Y-33298684D01*
X13993625Y-33298684D02*
X14184101Y-33346303D01*
X14184101Y-33346303D02*
X14279339Y-33441541D01*
X14279339Y-33441541D02*
X14326958Y-33536779D01*
X13612673Y-34346303D02*
X13612673Y-34822493D01*
X13326958Y-34251065D02*
X14326958Y-34584398D01*
X14326958Y-34584398D02*
X13326958Y-34917731D01*
X13850768Y-35584398D02*
X13850768Y-35251065D01*
X13326958Y-35251065D02*
X14326958Y-35251065D01*
X14326958Y-35251065D02*
X14326958Y-35727255D01*
X13231720Y-35870113D02*
X13231720Y-36632017D01*
X13850768Y-36870113D02*
X13850768Y-37203446D01*
X13326958Y-37346303D02*
X13326958Y-36870113D01*
X13326958Y-36870113D02*
X14326958Y-36870113D01*
X14326958Y-36870113D02*
X14326958Y-37346303D01*
X13374578Y-37727256D02*
X13326958Y-37870113D01*
X13326958Y-37870113D02*
X13326958Y-38108208D01*
X13326958Y-38108208D02*
X13374578Y-38203446D01*
X13374578Y-38203446D02*
X13422197Y-38251065D01*
X13422197Y-38251065D02*
X13517435Y-38298684D01*
X13517435Y-38298684D02*
X13612673Y-38298684D01*
X13612673Y-38298684D02*
X13707911Y-38251065D01*
X13707911Y-38251065D02*
X13755530Y-38203446D01*
X13755530Y-38203446D02*
X13803149Y-38108208D01*
X13803149Y-38108208D02*
X13850768Y-37917732D01*
X13850768Y-37917732D02*
X13898387Y-37822494D01*
X13898387Y-37822494D02*
X13946006Y-37774875D01*
X13946006Y-37774875D02*
X14041244Y-37727256D01*
X14041244Y-37727256D02*
X14136482Y-37727256D01*
X14136482Y-37727256D02*
X14231720Y-37774875D01*
X14231720Y-37774875D02*
X14279339Y-37822494D01*
X14279339Y-37822494D02*
X14326958Y-37917732D01*
X14326958Y-37917732D02*
X14326958Y-38155827D01*
X14326958Y-38155827D02*
X14279339Y-38298684D01*
X13326958Y-38727256D02*
X14326958Y-38727256D01*
X14326958Y-38727256D02*
X14326958Y-39108208D01*
X14326958Y-39108208D02*
X14279339Y-39203446D01*
X14279339Y-39203446D02*
X14231720Y-39251065D01*
X14231720Y-39251065D02*
X14136482Y-39298684D01*
X14136482Y-39298684D02*
X13993625Y-39298684D01*
X13993625Y-39298684D02*
X13898387Y-39251065D01*
X13898387Y-39251065D02*
X13850768Y-39203446D01*
X13850768Y-39203446D02*
X13803149Y-39108208D01*
X13803149Y-39108208D02*
X13803149Y-38727256D01*
X14326958Y-39584399D02*
X14326958Y-40155827D01*
X13326958Y-39870113D02*
X14326958Y-39870113D01*
X13326958Y-40489161D02*
X14326958Y-40489161D01*
X14326958Y-40489161D02*
X14326958Y-40870113D01*
X14326958Y-40870113D02*
X14279339Y-40965351D01*
X14279339Y-40965351D02*
X14231720Y-41012970D01*
X14231720Y-41012970D02*
X14136482Y-41060589D01*
X14136482Y-41060589D02*
X13993625Y-41060589D01*
X13993625Y-41060589D02*
X13898387Y-41012970D01*
X13898387Y-41012970D02*
X13850768Y-40965351D01*
X13850768Y-40965351D02*
X13803149Y-40870113D01*
X13803149Y-40870113D02*
X13803149Y-40489161D01*
X11717014Y-33108207D02*
X12193205Y-32774874D01*
X11717014Y-32536779D02*
X12717014Y-32536779D01*
X12717014Y-32536779D02*
X12717014Y-32917731D01*
X12717014Y-32917731D02*
X12669395Y-33012969D01*
X12669395Y-33012969D02*
X12621776Y-33060588D01*
X12621776Y-33060588D02*
X12526538Y-33108207D01*
X12526538Y-33108207D02*
X12383681Y-33108207D01*
X12383681Y-33108207D02*
X12288443Y-33060588D01*
X12288443Y-33060588D02*
X12240824Y-33012969D01*
X12240824Y-33012969D02*
X12193205Y-32917731D01*
X12193205Y-32917731D02*
X12193205Y-32536779D01*
X12717014Y-33727255D02*
X12717014Y-33822493D01*
X12717014Y-33822493D02*
X12669395Y-33917731D01*
X12669395Y-33917731D02*
X12621776Y-33965350D01*
X12621776Y-33965350D02*
X12526538Y-34012969D01*
X12526538Y-34012969D02*
X12336062Y-34060588D01*
X12336062Y-34060588D02*
X12097967Y-34060588D01*
X12097967Y-34060588D02*
X11907491Y-34012969D01*
X11907491Y-34012969D02*
X11812253Y-33965350D01*
X11812253Y-33965350D02*
X11764634Y-33917731D01*
X11764634Y-33917731D02*
X11717014Y-33822493D01*
X11717014Y-33822493D02*
X11717014Y-33727255D01*
X11717014Y-33727255D02*
X11764634Y-33632017D01*
X11764634Y-33632017D02*
X11812253Y-33584398D01*
X11812253Y-33584398D02*
X11907491Y-33536779D01*
X11907491Y-33536779D02*
X12097967Y-33489160D01*
X12097967Y-33489160D02*
X12336062Y-33489160D01*
X12336062Y-33489160D02*
X12526538Y-33536779D01*
X12526538Y-33536779D02*
X12621776Y-33584398D01*
X12621776Y-33584398D02*
X12669395Y-33632017D01*
X12669395Y-33632017D02*
X12717014Y-33727255D01*
X12621776Y-35203446D02*
X12669395Y-35251065D01*
X12669395Y-35251065D02*
X12717014Y-35346303D01*
X12717014Y-35346303D02*
X12717014Y-35584398D01*
X12717014Y-35584398D02*
X12669395Y-35679636D01*
X12669395Y-35679636D02*
X12621776Y-35727255D01*
X12621776Y-35727255D02*
X12526538Y-35774874D01*
X12526538Y-35774874D02*
X12431300Y-35774874D01*
X12431300Y-35774874D02*
X12288443Y-35727255D01*
X12288443Y-35727255D02*
X11717014Y-35155827D01*
X11717014Y-35155827D02*
X11717014Y-35774874D01*
X12717014Y-36393922D02*
X12717014Y-36489160D01*
X12717014Y-36489160D02*
X12669395Y-36584398D01*
X12669395Y-36584398D02*
X12621776Y-36632017D01*
X12621776Y-36632017D02*
X12526538Y-36679636D01*
X12526538Y-36679636D02*
X12336062Y-36727255D01*
X12336062Y-36727255D02*
X12097967Y-36727255D01*
X12097967Y-36727255D02*
X11907491Y-36679636D01*
X11907491Y-36679636D02*
X11812253Y-36632017D01*
X11812253Y-36632017D02*
X11764634Y-36584398D01*
X11764634Y-36584398D02*
X11717014Y-36489160D01*
X11717014Y-36489160D02*
X11717014Y-36393922D01*
X11717014Y-36393922D02*
X11764634Y-36298684D01*
X11764634Y-36298684D02*
X11812253Y-36251065D01*
X11812253Y-36251065D02*
X11907491Y-36203446D01*
X11907491Y-36203446D02*
X12097967Y-36155827D01*
X12097967Y-36155827D02*
X12336062Y-36155827D01*
X12336062Y-36155827D02*
X12526538Y-36203446D01*
X12526538Y-36203446D02*
X12621776Y-36251065D01*
X12621776Y-36251065D02*
X12669395Y-36298684D01*
X12669395Y-36298684D02*
X12717014Y-36393922D01*
X12621776Y-37108208D02*
X12669395Y-37155827D01*
X12669395Y-37155827D02*
X12717014Y-37251065D01*
X12717014Y-37251065D02*
X12717014Y-37489160D01*
X12717014Y-37489160D02*
X12669395Y-37584398D01*
X12669395Y-37584398D02*
X12621776Y-37632017D01*
X12621776Y-37632017D02*
X12526538Y-37679636D01*
X12526538Y-37679636D02*
X12431300Y-37679636D01*
X12431300Y-37679636D02*
X12288443Y-37632017D01*
X12288443Y-37632017D02*
X11717014Y-37060589D01*
X11717014Y-37060589D02*
X11717014Y-37679636D01*
X12383681Y-38536779D02*
X11717014Y-38536779D01*
X12764634Y-38298684D02*
X12050348Y-38060589D01*
X12050348Y-38060589D02*
X12050348Y-38679636D01*
X35872744Y-39600390D02*
X35796554Y-39562295D01*
X35796554Y-39562295D02*
X35682268Y-39562295D01*
X35682268Y-39562295D02*
X35567982Y-39600390D01*
X35567982Y-39600390D02*
X35491792Y-39676580D01*
X35491792Y-39676580D02*
X35453697Y-39752771D01*
X35453697Y-39752771D02*
X35415601Y-39905152D01*
X35415601Y-39905152D02*
X35415601Y-40019438D01*
X35415601Y-40019438D02*
X35453697Y-40171819D01*
X35453697Y-40171819D02*
X35491792Y-40248009D01*
X35491792Y-40248009D02*
X35567982Y-40324200D01*
X35567982Y-40324200D02*
X35682268Y-40362295D01*
X35682268Y-40362295D02*
X35758459Y-40362295D01*
X35758459Y-40362295D02*
X35872744Y-40324200D01*
X35872744Y-40324200D02*
X35910840Y-40286104D01*
X35910840Y-40286104D02*
X35910840Y-40019438D01*
X35910840Y-40019438D02*
X35758459Y-40019438D01*
X36253697Y-40362295D02*
X36253697Y-39562295D01*
X36253697Y-39562295D02*
X36710840Y-40362295D01*
X36710840Y-40362295D02*
X36710840Y-39562295D01*
X37091792Y-40362295D02*
X37091792Y-39562295D01*
X37091792Y-39562295D02*
X37282268Y-39562295D01*
X37282268Y-39562295D02*
X37396554Y-39600390D01*
X37396554Y-39600390D02*
X37472744Y-39676580D01*
X37472744Y-39676580D02*
X37510839Y-39752771D01*
X37510839Y-39752771D02*
X37548935Y-39905152D01*
X37548935Y-39905152D02*
X37548935Y-40019438D01*
X37548935Y-40019438D02*
X37510839Y-40171819D01*
X37510839Y-40171819D02*
X37472744Y-40248009D01*
X37472744Y-40248009D02*
X37396554Y-40324200D01*
X37396554Y-40324200D02*
X37282268Y-40362295D01*
X37282268Y-40362295D02*
X37091792Y-40362295D01*
X35606077Y-37774200D02*
X35720363Y-37812295D01*
X35720363Y-37812295D02*
X35910839Y-37812295D01*
X35910839Y-37812295D02*
X35987030Y-37774200D01*
X35987030Y-37774200D02*
X36025125Y-37736104D01*
X36025125Y-37736104D02*
X36063220Y-37659914D01*
X36063220Y-37659914D02*
X36063220Y-37583723D01*
X36063220Y-37583723D02*
X36025125Y-37507533D01*
X36025125Y-37507533D02*
X35987030Y-37469438D01*
X35987030Y-37469438D02*
X35910839Y-37431342D01*
X35910839Y-37431342D02*
X35758458Y-37393247D01*
X35758458Y-37393247D02*
X35682268Y-37355152D01*
X35682268Y-37355152D02*
X35644173Y-37317057D01*
X35644173Y-37317057D02*
X35606077Y-37240866D01*
X35606077Y-37240866D02*
X35606077Y-37164676D01*
X35606077Y-37164676D02*
X35644173Y-37088485D01*
X35644173Y-37088485D02*
X35682268Y-37050390D01*
X35682268Y-37050390D02*
X35758458Y-37012295D01*
X35758458Y-37012295D02*
X35948935Y-37012295D01*
X35948935Y-37012295D02*
X36063220Y-37050390D01*
X36406078Y-37812295D02*
X36406078Y-37012295D01*
X36406078Y-37012295D02*
X36596554Y-37012295D01*
X36596554Y-37012295D02*
X36710840Y-37050390D01*
X36710840Y-37050390D02*
X36787030Y-37126580D01*
X36787030Y-37126580D02*
X36825125Y-37202771D01*
X36825125Y-37202771D02*
X36863221Y-37355152D01*
X36863221Y-37355152D02*
X36863221Y-37469438D01*
X36863221Y-37469438D02*
X36825125Y-37621819D01*
X36825125Y-37621819D02*
X36787030Y-37698009D01*
X36787030Y-37698009D02*
X36710840Y-37774200D01*
X36710840Y-37774200D02*
X36596554Y-37812295D01*
X36596554Y-37812295D02*
X36406078Y-37812295D01*
X37167982Y-37583723D02*
X37548935Y-37583723D01*
X37091792Y-37812295D02*
X37358459Y-37012295D01*
X37358459Y-37012295D02*
X37625125Y-37812295D01*
X35644172Y-35224200D02*
X35758458Y-35262295D01*
X35758458Y-35262295D02*
X35948934Y-35262295D01*
X35948934Y-35262295D02*
X36025125Y-35224200D01*
X36025125Y-35224200D02*
X36063220Y-35186104D01*
X36063220Y-35186104D02*
X36101315Y-35109914D01*
X36101315Y-35109914D02*
X36101315Y-35033723D01*
X36101315Y-35033723D02*
X36063220Y-34957533D01*
X36063220Y-34957533D02*
X36025125Y-34919438D01*
X36025125Y-34919438D02*
X35948934Y-34881342D01*
X35948934Y-34881342D02*
X35796553Y-34843247D01*
X35796553Y-34843247D02*
X35720363Y-34805152D01*
X35720363Y-34805152D02*
X35682268Y-34767057D01*
X35682268Y-34767057D02*
X35644172Y-34690866D01*
X35644172Y-34690866D02*
X35644172Y-34614676D01*
X35644172Y-34614676D02*
X35682268Y-34538485D01*
X35682268Y-34538485D02*
X35720363Y-34500390D01*
X35720363Y-34500390D02*
X35796553Y-34462295D01*
X35796553Y-34462295D02*
X35987030Y-34462295D01*
X35987030Y-34462295D02*
X36101315Y-34500390D01*
X36901316Y-35186104D02*
X36863220Y-35224200D01*
X36863220Y-35224200D02*
X36748935Y-35262295D01*
X36748935Y-35262295D02*
X36672744Y-35262295D01*
X36672744Y-35262295D02*
X36558458Y-35224200D01*
X36558458Y-35224200D02*
X36482268Y-35148009D01*
X36482268Y-35148009D02*
X36444173Y-35071819D01*
X36444173Y-35071819D02*
X36406077Y-34919438D01*
X36406077Y-34919438D02*
X36406077Y-34805152D01*
X36406077Y-34805152D02*
X36444173Y-34652771D01*
X36444173Y-34652771D02*
X36482268Y-34576580D01*
X36482268Y-34576580D02*
X36558458Y-34500390D01*
X36558458Y-34500390D02*
X36672744Y-34462295D01*
X36672744Y-34462295D02*
X36748935Y-34462295D01*
X36748935Y-34462295D02*
X36863220Y-34500390D01*
X36863220Y-34500390D02*
X36901316Y-34538485D01*
X37625125Y-35262295D02*
X37244173Y-35262295D01*
X37244173Y-35262295D02*
X37244173Y-34462295D01*
X35872744Y-29400390D02*
X35796554Y-29362295D01*
X35796554Y-29362295D02*
X35682268Y-29362295D01*
X35682268Y-29362295D02*
X35567982Y-29400390D01*
X35567982Y-29400390D02*
X35491792Y-29476580D01*
X35491792Y-29476580D02*
X35453697Y-29552771D01*
X35453697Y-29552771D02*
X35415601Y-29705152D01*
X35415601Y-29705152D02*
X35415601Y-29819438D01*
X35415601Y-29819438D02*
X35453697Y-29971819D01*
X35453697Y-29971819D02*
X35491792Y-30048009D01*
X35491792Y-30048009D02*
X35567982Y-30124200D01*
X35567982Y-30124200D02*
X35682268Y-30162295D01*
X35682268Y-30162295D02*
X35758459Y-30162295D01*
X35758459Y-30162295D02*
X35872744Y-30124200D01*
X35872744Y-30124200D02*
X35910840Y-30086104D01*
X35910840Y-30086104D02*
X35910840Y-29819438D01*
X35910840Y-29819438D02*
X35758459Y-29819438D01*
X36253697Y-30162295D02*
X36253697Y-29362295D01*
X36253697Y-29362295D02*
X36710840Y-30162295D01*
X36710840Y-30162295D02*
X36710840Y-29362295D01*
X37091792Y-30162295D02*
X37091792Y-29362295D01*
X37091792Y-29362295D02*
X37282268Y-29362295D01*
X37282268Y-29362295D02*
X37396554Y-29400390D01*
X37396554Y-29400390D02*
X37472744Y-29476580D01*
X37472744Y-29476580D02*
X37510839Y-29552771D01*
X37510839Y-29552771D02*
X37548935Y-29705152D01*
X37548935Y-29705152D02*
X37548935Y-29819438D01*
X37548935Y-29819438D02*
X37510839Y-29971819D01*
X37510839Y-29971819D02*
X37472744Y-30048009D01*
X37472744Y-30048009D02*
X37396554Y-30124200D01*
X37396554Y-30124200D02*
X37282268Y-30162295D01*
X37282268Y-30162295D02*
X37091792Y-30162295D01*
X36063221Y-47962295D02*
X36063221Y-47162295D01*
X36444173Y-47962295D02*
X36444173Y-47162295D01*
X36444173Y-47162295D02*
X36901316Y-47962295D01*
X36901316Y-47962295D02*
X36901316Y-47162295D01*
X37167982Y-47162295D02*
X37625125Y-47162295D01*
X37396553Y-47962295D02*
X37396553Y-47162295D01*
D11*
X20175830Y-51395238D02*
X21175830Y-51395238D01*
X20699640Y-51395238D02*
X20699640Y-51966666D01*
X20175830Y-51966666D02*
X21175830Y-51966666D01*
X20223450Y-52823809D02*
X20175830Y-52728571D01*
X20175830Y-52728571D02*
X20175830Y-52538095D01*
X20175830Y-52538095D02*
X20223450Y-52442857D01*
X20223450Y-52442857D02*
X20318688Y-52395238D01*
X20318688Y-52395238D02*
X20699640Y-52395238D01*
X20699640Y-52395238D02*
X20794878Y-52442857D01*
X20794878Y-52442857D02*
X20842497Y-52538095D01*
X20842497Y-52538095D02*
X20842497Y-52728571D01*
X20842497Y-52728571D02*
X20794878Y-52823809D01*
X20794878Y-52823809D02*
X20699640Y-52871428D01*
X20699640Y-52871428D02*
X20604402Y-52871428D01*
X20604402Y-52871428D02*
X20509164Y-52395238D01*
X20175830Y-53728571D02*
X20699640Y-53728571D01*
X20699640Y-53728571D02*
X20794878Y-53680952D01*
X20794878Y-53680952D02*
X20842497Y-53585714D01*
X20842497Y-53585714D02*
X20842497Y-53395238D01*
X20842497Y-53395238D02*
X20794878Y-53300000D01*
X20223450Y-53728571D02*
X20175830Y-53633333D01*
X20175830Y-53633333D02*
X20175830Y-53395238D01*
X20175830Y-53395238D02*
X20223450Y-53300000D01*
X20223450Y-53300000D02*
X20318688Y-53252381D01*
X20318688Y-53252381D02*
X20413926Y-53252381D01*
X20413926Y-53252381D02*
X20509164Y-53300000D01*
X20509164Y-53300000D02*
X20556783Y-53395238D01*
X20556783Y-53395238D02*
X20556783Y-53633333D01*
X20556783Y-53633333D02*
X20604402Y-53728571D01*
X20842497Y-54061905D02*
X20842497Y-54442857D01*
X21175830Y-54204762D02*
X20318688Y-54204762D01*
X20318688Y-54204762D02*
X20223450Y-54252381D01*
X20223450Y-54252381D02*
X20175830Y-54347619D01*
X20175830Y-54347619D02*
X20175830Y-54442857D01*
X20223450Y-55490477D02*
X20175830Y-55633334D01*
X20175830Y-55633334D02*
X20175830Y-55871429D01*
X20175830Y-55871429D02*
X20223450Y-55966667D01*
X20223450Y-55966667D02*
X20271069Y-56014286D01*
X20271069Y-56014286D02*
X20366307Y-56061905D01*
X20366307Y-56061905D02*
X20461545Y-56061905D01*
X20461545Y-56061905D02*
X20556783Y-56014286D01*
X20556783Y-56014286D02*
X20604402Y-55966667D01*
X20604402Y-55966667D02*
X20652021Y-55871429D01*
X20652021Y-55871429D02*
X20699640Y-55680953D01*
X20699640Y-55680953D02*
X20747259Y-55585715D01*
X20747259Y-55585715D02*
X20794878Y-55538096D01*
X20794878Y-55538096D02*
X20890116Y-55490477D01*
X20890116Y-55490477D02*
X20985354Y-55490477D01*
X20985354Y-55490477D02*
X21080592Y-55538096D01*
X21080592Y-55538096D02*
X21128211Y-55585715D01*
X21128211Y-55585715D02*
X21175830Y-55680953D01*
X21175830Y-55680953D02*
X21175830Y-55919048D01*
X21175830Y-55919048D02*
X21128211Y-56061905D01*
X20175830Y-56490477D02*
X20842497Y-56490477D01*
X21175830Y-56490477D02*
X21128211Y-56442858D01*
X21128211Y-56442858D02*
X21080592Y-56490477D01*
X21080592Y-56490477D02*
X21128211Y-56538096D01*
X21128211Y-56538096D02*
X21175830Y-56490477D01*
X21175830Y-56490477D02*
X21080592Y-56490477D01*
X20842497Y-56966667D02*
X20175830Y-56966667D01*
X20747259Y-56966667D02*
X20794878Y-57014286D01*
X20794878Y-57014286D02*
X20842497Y-57109524D01*
X20842497Y-57109524D02*
X20842497Y-57252381D01*
X20842497Y-57252381D02*
X20794878Y-57347619D01*
X20794878Y-57347619D02*
X20699640Y-57395238D01*
X20699640Y-57395238D02*
X20175830Y-57395238D01*
X20175830Y-57871429D02*
X21175830Y-57871429D01*
X20556783Y-57966667D02*
X20175830Y-58252381D01*
X20842497Y-58252381D02*
X20461545Y-57871429D01*
D12*
%TO.C,D1*%
X16323000Y-66350000D02*
X11323000Y-66350000D01*
X16323000Y-66150000D02*
X16323000Y-66350000D01*
X16323000Y-62850000D02*
X16323000Y-64550000D01*
X16323000Y-61350000D02*
X16323000Y-61150000D01*
X16323000Y-61150000D02*
X11323000Y-61150000D01*
X11323000Y-66350000D02*
X11323000Y-66150000D01*
X11323000Y-64650000D02*
X11323000Y-63650000D01*
X11323000Y-63650000D02*
X13923000Y-61150000D01*
X11323000Y-63650000D02*
X11323000Y-62850000D01*
X11323000Y-61150000D02*
X11323000Y-61350000D01*
D13*
X11448000Y-60756250D02*
G75*
G02*
X11248000Y-60756250I-100000J0D01*
G01*
X11248000Y-60756250D02*
G75*
G02*
X11448000Y-60756250I100000J0D01*
G01*
D14*
%TO.C,Logo1*%
X14405717Y-24583548D02*
X14509316Y-24586143D01*
X14598477Y-24590279D01*
X14666773Y-24595962D01*
X14707779Y-24603194D01*
X14716171Y-24607554D01*
X14724637Y-24631827D01*
X14738410Y-24687099D01*
X14756295Y-24767863D01*
X14777097Y-24868613D01*
X14799622Y-24983842D01*
X14811427Y-25046623D01*
X14833694Y-25165738D01*
X14853866Y-25271960D01*
X14870930Y-25360098D01*
X14883876Y-25424959D01*
X14891690Y-25461351D01*
X14893423Y-25467341D01*
X14912955Y-25477464D01*
X14960002Y-25498863D01*
X15027842Y-25528686D01*
X15109754Y-25564080D01*
X15199017Y-25602193D01*
X15288910Y-25640172D01*
X15372710Y-25675165D01*
X15443698Y-25704319D01*
X15495151Y-25724782D01*
X15520348Y-25733702D01*
X15521449Y-25733868D01*
X15541326Y-25723756D01*
X15587068Y-25695408D01*
X15654128Y-25651802D01*
X15737961Y-25595919D01*
X15834019Y-25530738D01*
X15889195Y-25492846D01*
X15990364Y-25423800D01*
X16082215Y-25362475D01*
X16160101Y-25311862D01*
X16219376Y-25274954D01*
X16255394Y-25254743D01*
X16263468Y-25251824D01*
X16282261Y-25264372D01*
X16322388Y-25299062D01*
X16379352Y-25351462D01*
X16448660Y-25417141D01*
X16525814Y-25491669D01*
X16606320Y-25570612D01*
X16685682Y-25649542D01*
X16759405Y-25724025D01*
X16822993Y-25789631D01*
X16871951Y-25841929D01*
X16901784Y-25876486D01*
X16908903Y-25888047D01*
X16898892Y-25906871D01*
X16870767Y-25951894D01*
X16827391Y-26018738D01*
X16771627Y-26103026D01*
X16706339Y-26200381D01*
X16656599Y-26273818D01*
X16404294Y-26644858D01*
X16659290Y-27263430D01*
X17103914Y-27347250D01*
X17548538Y-27431071D01*
X17548538Y-28356519D01*
X17103914Y-28440339D01*
X16659290Y-28524160D01*
X16531792Y-28833445D01*
X16404294Y-29142731D01*
X16656599Y-29513771D01*
X16726849Y-29617682D01*
X16789573Y-29711612D01*
X16841907Y-29791177D01*
X16880988Y-29851995D01*
X16903952Y-29889682D01*
X16908903Y-29899946D01*
X16896169Y-29918435D01*
X16860963Y-29957945D01*
X16807783Y-30014047D01*
X16741127Y-30082312D01*
X16665491Y-30158311D01*
X16585373Y-30237617D01*
X16505271Y-30315800D01*
X16429681Y-30388432D01*
X16363100Y-30451084D01*
X16310027Y-30499328D01*
X16274958Y-30528735D01*
X16263222Y-30535766D01*
X16241585Y-30525648D01*
X16194183Y-30497284D01*
X16125652Y-30453654D01*
X16040630Y-30397743D01*
X15943752Y-30332531D01*
X15888495Y-30294744D01*
X15787597Y-30225868D01*
X15696546Y-30164665D01*
X15619875Y-30114103D01*
X15562117Y-30077153D01*
X15527802Y-30056783D01*
X15520591Y-30053722D01*
X15500097Y-30060661D01*
X15452332Y-30079576D01*
X15384013Y-30107612D01*
X15301856Y-30141916D01*
X15212575Y-30179634D01*
X15122887Y-30217912D01*
X15039507Y-30253895D01*
X14969151Y-30284731D01*
X14918535Y-30307564D01*
X14894374Y-30319542D01*
X14893423Y-30320249D01*
X14888809Y-30339056D01*
X14878517Y-30389143D01*
X14863558Y-30465318D01*
X14844944Y-30562390D01*
X14823686Y-30675168D01*
X14811427Y-30740967D01*
X14788483Y-30861475D01*
X14766650Y-30970322D01*
X14747123Y-31062001D01*
X14731097Y-31131006D01*
X14719766Y-31171829D01*
X14716171Y-31180036D01*
X14691839Y-31188073D01*
X14636886Y-31194558D01*
X14557737Y-31199495D01*
X14460819Y-31202889D01*
X14352558Y-31204743D01*
X14239380Y-31205063D01*
X14127710Y-31203852D01*
X14023977Y-31201115D01*
X13934604Y-31196856D01*
X13866019Y-31191080D01*
X13824648Y-31183792D01*
X13816035Y-31179420D01*
X13805712Y-31153289D01*
X13790953Y-31097918D01*
X13773493Y-31020632D01*
X13755065Y-30928755D01*
X13749104Y-30896683D01*
X13720779Y-30742049D01*
X13697969Y-30619900D01*
X13679765Y-30526198D01*
X13665262Y-30456909D01*
X13653553Y-30407996D01*
X13643730Y-30375422D01*
X13634889Y-30355153D01*
X13626121Y-30343151D01*
X13624388Y-30341472D01*
X13596474Y-30324709D01*
X13542150Y-30299139D01*
X13468068Y-30267313D01*
X13380880Y-30231785D01*
X13287237Y-30195108D01*
X13193793Y-30159836D01*
X13107198Y-30128521D01*
X13034105Y-30103718D01*
X12981167Y-30087979D01*
X12955034Y-30083857D01*
X12954119Y-30084201D01*
X12932759Y-30098166D01*
X12885761Y-30129847D01*
X12818018Y-30175916D01*
X12734422Y-30233043D01*
X12639863Y-30297898D01*
X12612991Y-30316368D01*
X12515570Y-30382224D01*
X12426682Y-30440175D01*
X12351433Y-30487063D01*
X12294925Y-30519732D01*
X12262264Y-30535025D01*
X12258252Y-30535766D01*
X12237161Y-30522917D01*
X12195381Y-30487413D01*
X12137400Y-30433818D01*
X12067710Y-30366696D01*
X11990800Y-30290612D01*
X11911162Y-30210129D01*
X11833284Y-30129812D01*
X11761659Y-30054224D01*
X11700775Y-29987930D01*
X11655124Y-29935494D01*
X11629195Y-29901480D01*
X11624962Y-29892070D01*
X11634933Y-29870168D01*
X11661825Y-29825325D01*
X11701109Y-29764846D01*
X11732728Y-29718314D01*
X11790747Y-29634000D01*
X11859061Y-29534151D01*
X11927266Y-29433998D01*
X11963770Y-29380152D01*
X12087045Y-29197896D01*
X12004325Y-29044906D01*
X11968086Y-28975207D01*
X11939919Y-28915939D01*
X11923854Y-28875836D01*
X11921619Y-28865628D01*
X11938123Y-28853354D01*
X11984763Y-28829138D01*
X12057236Y-28794788D01*
X12151239Y-28752113D01*
X12262471Y-28702919D01*
X12386630Y-28649015D01*
X12519413Y-28592209D01*
X12656518Y-28534307D01*
X12793643Y-28477118D01*
X12926487Y-28422449D01*
X13050747Y-28372109D01*
X13162120Y-28327905D01*
X13256306Y-28291644D01*
X13329001Y-28265134D01*
X13375904Y-28250183D01*
X13392012Y-28247779D01*
X13412559Y-28266836D01*
X13445912Y-28308561D01*
X13485143Y-28364231D01*
X13488246Y-28368903D01*
X13603422Y-28512789D01*
X13737792Y-28628808D01*
X13887061Y-28715955D01*
X14046932Y-28773224D01*
X14213108Y-28799611D01*
X14381293Y-28794110D01*
X14547190Y-28755715D01*
X14706503Y-28683420D01*
X14741358Y-28662151D01*
X14882108Y-28551521D01*
X14995131Y-28420827D01*
X15079842Y-28274589D01*
X15135651Y-28117333D01*
X15161971Y-27953582D01*
X15158215Y-27787858D01*
X15123795Y-27624687D01*
X15058122Y-27468590D01*
X14960610Y-27324092D01*
X14921032Y-27279394D01*
X14797142Y-27165637D01*
X14666721Y-27082743D01*
X14520530Y-27025881D01*
X14375757Y-26994212D01*
X14212985Y-26986394D01*
X14049405Y-27012463D01*
X13890547Y-27069770D01*
X13741939Y-27155669D01*
X13609110Y-27267511D01*
X13497589Y-27402648D01*
X13485834Y-27420408D01*
X13447337Y-27476675D01*
X13413982Y-27519448D01*
X13392685Y-27539897D01*
X13392012Y-27540194D01*
X13368974Y-27535804D01*
X13316688Y-27518401D01*
X13239455Y-27489793D01*
X13141577Y-27451790D01*
X13027354Y-27406199D01*
X12901087Y-27354828D01*
X12767078Y-27299487D01*
X12629627Y-27241983D01*
X12493037Y-27184126D01*
X12361608Y-27127723D01*
X12239640Y-27074583D01*
X12131436Y-27026515D01*
X12041296Y-26985326D01*
X11973522Y-26952826D01*
X11932415Y-26930822D01*
X11921619Y-26921961D01*
X11930026Y-26894885D01*
X11952573Y-26844222D01*
X11985232Y-26778708D01*
X12004325Y-26742684D01*
X12087045Y-26589693D01*
X11963770Y-26407437D01*
X11900617Y-26314400D01*
X11831118Y-26212540D01*
X11765680Y-26117087D01*
X11732728Y-26069275D01*
X11687572Y-26002030D01*
X11651788Y-25945089D01*
X11629907Y-25905879D01*
X11625282Y-25893144D01*
X11637760Y-25874608D01*
X11672593Y-25833584D01*
X11726167Y-25774050D01*
X11794862Y-25699983D01*
X11875064Y-25615360D01*
X11926559Y-25561840D01*
X12018559Y-25468206D01*
X12100846Y-25387284D01*
X12169900Y-25322348D01*
X12222201Y-25276667D01*
X12254229Y-25253514D01*
X12260729Y-25251293D01*
X12285451Y-25261601D01*
X12335440Y-25290086D01*
X12405633Y-25333588D01*
X12490970Y-25388948D01*
X12586389Y-25453005D01*
X12612991Y-25471222D01*
X12709678Y-25537598D01*
X12796728Y-25597147D01*
X12869250Y-25646541D01*
X12922352Y-25682450D01*
X12951142Y-25701544D01*
X12954119Y-25703389D01*
X12977063Y-25700630D01*
X13027509Y-25685987D01*
X13098804Y-25662012D01*
X13184298Y-25631259D01*
X13277338Y-25596281D01*
X13371271Y-25559632D01*
X13459446Y-25523864D01*
X13535211Y-25491531D01*
X13591914Y-25465187D01*
X13622902Y-25447383D01*
X13624388Y-25446118D01*
X13633244Y-25435231D01*
X13642002Y-25416843D01*
X13651568Y-25386919D01*
X13662849Y-25341422D01*
X13676752Y-25276316D01*
X13694182Y-25187564D01*
X13716047Y-25071132D01*
X13743254Y-24922983D01*
X13749104Y-24890907D01*
X13767471Y-24795839D01*
X13785440Y-24712960D01*
X13801276Y-24649595D01*
X13813245Y-24613067D01*
X13816035Y-24608169D01*
X13840773Y-24600098D01*
X13896055Y-24593538D01*
X13975456Y-24588492D01*
X14072549Y-24584966D01*
X14180907Y-24582964D01*
X14294105Y-24582489D01*
X14405717Y-24583548D01*
G36*
X14405717Y-24583548D02*
G01*
X14509316Y-24586143D01*
X14598477Y-24590279D01*
X14666773Y-24595962D01*
X14707779Y-24603194D01*
X14716171Y-24607554D01*
X14724637Y-24631827D01*
X14738410Y-24687099D01*
X14756295Y-24767863D01*
X14777097Y-24868613D01*
X14799622Y-24983842D01*
X14811427Y-25046623D01*
X14833694Y-25165738D01*
X14853866Y-25271960D01*
X14870930Y-25360098D01*
X14883876Y-25424959D01*
X14891690Y-25461351D01*
X14893423Y-25467341D01*
X14912955Y-25477464D01*
X14960002Y-25498863D01*
X15027842Y-25528686D01*
X15109754Y-25564080D01*
X15199017Y-25602193D01*
X15288910Y-25640172D01*
X15372710Y-25675165D01*
X15443698Y-25704319D01*
X15495151Y-25724782D01*
X15520348Y-25733702D01*
X15521449Y-25733868D01*
X15541326Y-25723756D01*
X15587068Y-25695408D01*
X15654128Y-25651802D01*
X15737961Y-25595919D01*
X15834019Y-25530738D01*
X15889195Y-25492846D01*
X15990364Y-25423800D01*
X16082215Y-25362475D01*
X16160101Y-25311862D01*
X16219376Y-25274954D01*
X16255394Y-25254743D01*
X16263468Y-25251824D01*
X16282261Y-25264372D01*
X16322388Y-25299062D01*
X16379352Y-25351462D01*
X16448660Y-25417141D01*
X16525814Y-25491669D01*
X16606320Y-25570612D01*
X16685682Y-25649542D01*
X16759405Y-25724025D01*
X16822993Y-25789631D01*
X16871951Y-25841929D01*
X16901784Y-25876486D01*
X16908903Y-25888047D01*
X16898892Y-25906871D01*
X16870767Y-25951894D01*
X16827391Y-26018738D01*
X16771627Y-26103026D01*
X16706339Y-26200381D01*
X16656599Y-26273818D01*
X16404294Y-26644858D01*
X16659290Y-27263430D01*
X17103914Y-27347250D01*
X17548538Y-27431071D01*
X17548538Y-28356519D01*
X17103914Y-28440339D01*
X16659290Y-28524160D01*
X16531792Y-28833445D01*
X16404294Y-29142731D01*
X16656599Y-29513771D01*
X16726849Y-29617682D01*
X16789573Y-29711612D01*
X16841907Y-29791177D01*
X16880988Y-29851995D01*
X16903952Y-29889682D01*
X16908903Y-29899946D01*
X16896169Y-29918435D01*
X16860963Y-29957945D01*
X16807783Y-30014047D01*
X16741127Y-30082312D01*
X16665491Y-30158311D01*
X16585373Y-30237617D01*
X16505271Y-30315800D01*
X16429681Y-30388432D01*
X16363100Y-30451084D01*
X16310027Y-30499328D01*
X16274958Y-30528735D01*
X16263222Y-30535766D01*
X16241585Y-30525648D01*
X16194183Y-30497284D01*
X16125652Y-30453654D01*
X16040630Y-30397743D01*
X15943752Y-30332531D01*
X15888495Y-30294744D01*
X15787597Y-30225868D01*
X15696546Y-30164665D01*
X15619875Y-30114103D01*
X15562117Y-30077153D01*
X15527802Y-30056783D01*
X15520591Y-30053722D01*
X15500097Y-30060661D01*
X15452332Y-30079576D01*
X15384013Y-30107612D01*
X15301856Y-30141916D01*
X15212575Y-30179634D01*
X15122887Y-30217912D01*
X15039507Y-30253895D01*
X14969151Y-30284731D01*
X14918535Y-30307564D01*
X14894374Y-30319542D01*
X14893423Y-30320249D01*
X14888809Y-30339056D01*
X14878517Y-30389143D01*
X14863558Y-30465318D01*
X14844944Y-30562390D01*
X14823686Y-30675168D01*
X14811427Y-30740967D01*
X14788483Y-30861475D01*
X14766650Y-30970322D01*
X14747123Y-31062001D01*
X14731097Y-31131006D01*
X14719766Y-31171829D01*
X14716171Y-31180036D01*
X14691839Y-31188073D01*
X14636886Y-31194558D01*
X14557737Y-31199495D01*
X14460819Y-31202889D01*
X14352558Y-31204743D01*
X14239380Y-31205063D01*
X14127710Y-31203852D01*
X14023977Y-31201115D01*
X13934604Y-31196856D01*
X13866019Y-31191080D01*
X13824648Y-31183792D01*
X13816035Y-31179420D01*
X13805712Y-31153289D01*
X13790953Y-31097918D01*
X13773493Y-31020632D01*
X13755065Y-30928755D01*
X13749104Y-30896683D01*
X13720779Y-30742049D01*
X13697969Y-30619900D01*
X13679765Y-30526198D01*
X13665262Y-30456909D01*
X13653553Y-30407996D01*
X13643730Y-30375422D01*
X13634889Y-30355153D01*
X13626121Y-30343151D01*
X13624388Y-30341472D01*
X13596474Y-30324709D01*
X13542150Y-30299139D01*
X13468068Y-30267313D01*
X13380880Y-30231785D01*
X13287237Y-30195108D01*
X13193793Y-30159836D01*
X13107198Y-30128521D01*
X13034105Y-30103718D01*
X12981167Y-30087979D01*
X12955034Y-30083857D01*
X12954119Y-30084201D01*
X12932759Y-30098166D01*
X12885761Y-30129847D01*
X12818018Y-30175916D01*
X12734422Y-30233043D01*
X12639863Y-30297898D01*
X12612991Y-30316368D01*
X12515570Y-30382224D01*
X12426682Y-30440175D01*
X12351433Y-30487063D01*
X12294925Y-30519732D01*
X12262264Y-30535025D01*
X12258252Y-30535766D01*
X12237161Y-30522917D01*
X12195381Y-30487413D01*
X12137400Y-30433818D01*
X12067710Y-30366696D01*
X11990800Y-30290612D01*
X11911162Y-30210129D01*
X11833284Y-30129812D01*
X11761659Y-30054224D01*
X11700775Y-29987930D01*
X11655124Y-29935494D01*
X11629195Y-29901480D01*
X11624962Y-29892070D01*
X11634933Y-29870168D01*
X11661825Y-29825325D01*
X11701109Y-29764846D01*
X11732728Y-29718314D01*
X11790747Y-29634000D01*
X11859061Y-29534151D01*
X11927266Y-29433998D01*
X11963770Y-29380152D01*
X12087045Y-29197896D01*
X12004325Y-29044906D01*
X11968086Y-28975207D01*
X11939919Y-28915939D01*
X11923854Y-28875836D01*
X11921619Y-28865628D01*
X11938123Y-28853354D01*
X11984763Y-28829138D01*
X12057236Y-28794788D01*
X12151239Y-28752113D01*
X12262471Y-28702919D01*
X12386630Y-28649015D01*
X12519413Y-28592209D01*
X12656518Y-28534307D01*
X12793643Y-28477118D01*
X12926487Y-28422449D01*
X13050747Y-28372109D01*
X13162120Y-28327905D01*
X13256306Y-28291644D01*
X13329001Y-28265134D01*
X13375904Y-28250183D01*
X13392012Y-28247779D01*
X13412559Y-28266836D01*
X13445912Y-28308561D01*
X13485143Y-28364231D01*
X13488246Y-28368903D01*
X13603422Y-28512789D01*
X13737792Y-28628808D01*
X13887061Y-28715955D01*
X14046932Y-28773224D01*
X14213108Y-28799611D01*
X14381293Y-28794110D01*
X14547190Y-28755715D01*
X14706503Y-28683420D01*
X14741358Y-28662151D01*
X14882108Y-28551521D01*
X14995131Y-28420827D01*
X15079842Y-28274589D01*
X15135651Y-28117333D01*
X15161971Y-27953582D01*
X15158215Y-27787858D01*
X15123795Y-27624687D01*
X15058122Y-27468590D01*
X14960610Y-27324092D01*
X14921032Y-27279394D01*
X14797142Y-27165637D01*
X14666721Y-27082743D01*
X14520530Y-27025881D01*
X14375757Y-26994212D01*
X14212985Y-26986394D01*
X14049405Y-27012463D01*
X13890547Y-27069770D01*
X13741939Y-27155669D01*
X13609110Y-27267511D01*
X13497589Y-27402648D01*
X13485834Y-27420408D01*
X13447337Y-27476675D01*
X13413982Y-27519448D01*
X13392685Y-27539897D01*
X13392012Y-27540194D01*
X13368974Y-27535804D01*
X13316688Y-27518401D01*
X13239455Y-27489793D01*
X13141577Y-27451790D01*
X13027354Y-27406199D01*
X12901087Y-27354828D01*
X12767078Y-27299487D01*
X12629627Y-27241983D01*
X12493037Y-27184126D01*
X12361608Y-27127723D01*
X12239640Y-27074583D01*
X12131436Y-27026515D01*
X12041296Y-26985326D01*
X11973522Y-26952826D01*
X11932415Y-26930822D01*
X11921619Y-26921961D01*
X11930026Y-26894885D01*
X11952573Y-26844222D01*
X11985232Y-26778708D01*
X12004325Y-26742684D01*
X12087045Y-26589693D01*
X11963770Y-26407437D01*
X11900617Y-26314400D01*
X11831118Y-26212540D01*
X11765680Y-26117087D01*
X11732728Y-26069275D01*
X11687572Y-26002030D01*
X11651788Y-25945089D01*
X11629907Y-25905879D01*
X11625282Y-25893144D01*
X11637760Y-25874608D01*
X11672593Y-25833584D01*
X11726167Y-25774050D01*
X11794862Y-25699983D01*
X11875064Y-25615360D01*
X11926559Y-25561840D01*
X12018559Y-25468206D01*
X12100846Y-25387284D01*
X12169900Y-25322348D01*
X12222201Y-25276667D01*
X12254229Y-25253514D01*
X12260729Y-25251293D01*
X12285451Y-25261601D01*
X12335440Y-25290086D01*
X12405633Y-25333588D01*
X12490970Y-25388948D01*
X12586389Y-25453005D01*
X12612991Y-25471222D01*
X12709678Y-25537598D01*
X12796728Y-25597147D01*
X12869250Y-25646541D01*
X12922352Y-25682450D01*
X12951142Y-25701544D01*
X12954119Y-25703389D01*
X12977063Y-25700630D01*
X13027509Y-25685987D01*
X13098804Y-25662012D01*
X13184298Y-25631259D01*
X13277338Y-25596281D01*
X13371271Y-25559632D01*
X13459446Y-25523864D01*
X13535211Y-25491531D01*
X13591914Y-25465187D01*
X13622902Y-25447383D01*
X13624388Y-25446118D01*
X13633244Y-25435231D01*
X13642002Y-25416843D01*
X13651568Y-25386919D01*
X13662849Y-25341422D01*
X13676752Y-25276316D01*
X13694182Y-25187564D01*
X13716047Y-25071132D01*
X13743254Y-24922983D01*
X13749104Y-24890907D01*
X13767471Y-24795839D01*
X13785440Y-24712960D01*
X13801276Y-24649595D01*
X13813245Y-24613067D01*
X13816035Y-24608169D01*
X13840773Y-24600098D01*
X13896055Y-24593538D01*
X13975456Y-24588492D01*
X14072549Y-24584966D01*
X14180907Y-24582964D01*
X14294105Y-24582489D01*
X14405717Y-24583548D01*
G37*
D15*
%TO.C,demo\u002A\u002A*%
G36*
X33825242Y-57333230D02*
G01*
X33828967Y-57333502D01*
X33832642Y-57333948D01*
X33836253Y-57334570D01*
X33839789Y-57335367D01*
X33843236Y-57336340D01*
X33846581Y-57337490D01*
X33849810Y-57338817D01*
X33852912Y-57340322D01*
X33855873Y-57342005D01*
X33858681Y-57343867D01*
X33860022Y-57344865D01*
X33861321Y-57345909D01*
X33862574Y-57346997D01*
X33863781Y-57348130D01*
X33864940Y-57349308D01*
X33866049Y-57350531D01*
X33867106Y-57351800D01*
X33868111Y-57353114D01*
X33870566Y-57356814D01*
X33872769Y-57360828D01*
X33874723Y-57365131D01*
X33876433Y-57369698D01*
X33877902Y-57374502D01*
X33879136Y-57379519D01*
X33880139Y-57384722D01*
X33880914Y-57390086D01*
X33881468Y-57395586D01*
X33881803Y-57401195D01*
X33881837Y-57412640D01*
X33881050Y-57424217D01*
X33879479Y-57435721D01*
X33877159Y-57446947D01*
X33874124Y-57457690D01*
X33872349Y-57462817D01*
X33870409Y-57467746D01*
X33868308Y-57472452D01*
X33866050Y-57476909D01*
X33863640Y-57481091D01*
X33861082Y-57484974D01*
X33858380Y-57488531D01*
X33855539Y-57491737D01*
X33852564Y-57494566D01*
X33849458Y-57496993D01*
X33846226Y-57498991D01*
X33842872Y-57500536D01*
X33841953Y-57500823D01*
X33840960Y-57501007D01*
X33839893Y-57501091D01*
X33838754Y-57501075D01*
X33836272Y-57500751D01*
X33833529Y-57500043D01*
X33830541Y-57498963D01*
X33827324Y-57497519D01*
X33823895Y-57495723D01*
X33820268Y-57493584D01*
X33816461Y-57491111D01*
X33812488Y-57488316D01*
X33808367Y-57485207D01*
X33804113Y-57481795D01*
X33799743Y-57478090D01*
X33795271Y-57474101D01*
X33790715Y-57469839D01*
X33786090Y-57465314D01*
X33778008Y-57456982D01*
X33770864Y-57449064D01*
X33764649Y-57441517D01*
X33761888Y-57437869D01*
X33759355Y-57434298D01*
X33757050Y-57430798D01*
X33754972Y-57427364D01*
X33753119Y-57423990D01*
X33751491Y-57420671D01*
X33750087Y-57417402D01*
X33748905Y-57414177D01*
X33747945Y-57410991D01*
X33747205Y-57407838D01*
X33746683Y-57404713D01*
X33746381Y-57401611D01*
X33746295Y-57398526D01*
X33746424Y-57395453D01*
X33746769Y-57392387D01*
X33747328Y-57389321D01*
X33748099Y-57386251D01*
X33749081Y-57383172D01*
X33750274Y-57380077D01*
X33751677Y-57376962D01*
X33753288Y-57373821D01*
X33755105Y-57370648D01*
X33757129Y-57367439D01*
X33759358Y-57364188D01*
X33761791Y-57360889D01*
X33764427Y-57357537D01*
X33766836Y-57354764D01*
X33769428Y-57352154D01*
X33772190Y-57349710D01*
X33775109Y-57347432D01*
X33778172Y-57345320D01*
X33781367Y-57343374D01*
X33784681Y-57341596D01*
X33788100Y-57339986D01*
X33791611Y-57338544D01*
X33795202Y-57337271D01*
X33798860Y-57336167D01*
X33802571Y-57335233D01*
X33806323Y-57334470D01*
X33810103Y-57333878D01*
X33813898Y-57333457D01*
X33817695Y-57333208D01*
X33821481Y-57333132D01*
X33825242Y-57333230D01*
G37*
G36*
X34117229Y-57761581D02*
G01*
X34123144Y-57762146D01*
X34128886Y-57763059D01*
X34134447Y-57764311D01*
X34139820Y-57765890D01*
X34144995Y-57767787D01*
X34149966Y-57769990D01*
X34154725Y-57772490D01*
X34159262Y-57775277D01*
X34163572Y-57778339D01*
X34167645Y-57781666D01*
X34171474Y-57785248D01*
X34175050Y-57789075D01*
X34178366Y-57793136D01*
X34181415Y-57797421D01*
X34184187Y-57801919D01*
X34186675Y-57806620D01*
X34188872Y-57811514D01*
X34190768Y-57816590D01*
X34192357Y-57821838D01*
X34193631Y-57827247D01*
X34194581Y-57832807D01*
X34195199Y-57838507D01*
X34195478Y-57844338D01*
X34195409Y-57850289D01*
X34194986Y-57856349D01*
X34194199Y-57862508D01*
X34193041Y-57868755D01*
X34191504Y-57875081D01*
X34189580Y-57881475D01*
X34188209Y-57885374D01*
X34186677Y-57889271D01*
X34185000Y-57893141D01*
X34183195Y-57896959D01*
X34181277Y-57900700D01*
X34179264Y-57904340D01*
X34177172Y-57907853D01*
X34175017Y-57911216D01*
X34172816Y-57914403D01*
X34170585Y-57917390D01*
X34168341Y-57920152D01*
X34166101Y-57922664D01*
X34163880Y-57924901D01*
X34161694Y-57926840D01*
X34160621Y-57927689D01*
X34159562Y-57928454D01*
X34158520Y-57929132D01*
X34157498Y-57929720D01*
X34149867Y-57933851D01*
X34146774Y-57935467D01*
X34144020Y-57936772D01*
X34141500Y-57937758D01*
X34139105Y-57938418D01*
X34137922Y-57938622D01*
X34136730Y-57938742D01*
X34135516Y-57938775D01*
X34134267Y-57938722D01*
X34131610Y-57938351D01*
X34128653Y-57937619D01*
X34125287Y-57936520D01*
X34121407Y-57935044D01*
X34111677Y-57930931D01*
X34098608Y-57925213D01*
X34094414Y-57923280D01*
X34090391Y-57921209D01*
X34086541Y-57919003D01*
X34082864Y-57916664D01*
X34079360Y-57914194D01*
X34076032Y-57911596D01*
X34072880Y-57908873D01*
X34069904Y-57906028D01*
X34067107Y-57903061D01*
X34064488Y-57899977D01*
X34062049Y-57896778D01*
X34059791Y-57893466D01*
X34057714Y-57890043D01*
X34055820Y-57886513D01*
X34054110Y-57882878D01*
X34052584Y-57879139D01*
X34051244Y-57875301D01*
X34050090Y-57871364D01*
X34049123Y-57867332D01*
X34048345Y-57863208D01*
X34047756Y-57858993D01*
X34047357Y-57854691D01*
X34047135Y-57845832D01*
X34047684Y-57836653D01*
X34049013Y-57827173D01*
X34051130Y-57817413D01*
X34054043Y-57807391D01*
X34056113Y-57801250D01*
X34058136Y-57795695D01*
X34060142Y-57790694D01*
X34062162Y-57786218D01*
X34063187Y-57784166D01*
X34064226Y-57782234D01*
X34065284Y-57780418D01*
X34066364Y-57778713D01*
X34067470Y-57777115D01*
X34068607Y-57775622D01*
X34069777Y-57774229D01*
X34070985Y-57772931D01*
X34072234Y-57771726D01*
X34073528Y-57770609D01*
X34074872Y-57769577D01*
X34076268Y-57768625D01*
X34077721Y-57767750D01*
X34079234Y-57766948D01*
X34080812Y-57766215D01*
X34082457Y-57765547D01*
X34084174Y-57764940D01*
X34085967Y-57764391D01*
X34087840Y-57763895D01*
X34089795Y-57763449D01*
X34093971Y-57762689D01*
X34098526Y-57762081D01*
X34104912Y-57761538D01*
X34111149Y-57761375D01*
X34117229Y-57761581D01*
G37*
G36*
X33819560Y-57655857D02*
G01*
X33820918Y-57655920D01*
X33822269Y-57656016D01*
X33823615Y-57656145D01*
X33824955Y-57656306D01*
X33826289Y-57656499D01*
X33827617Y-57656723D01*
X33827617Y-57656724D01*
X33832211Y-57657752D01*
X33836719Y-57659149D01*
X33841131Y-57660899D01*
X33845441Y-57662989D01*
X33849639Y-57665406D01*
X33853718Y-57668136D01*
X33857670Y-57671164D01*
X33861486Y-57674478D01*
X33865160Y-57678063D01*
X33868682Y-57681905D01*
X33875239Y-57690307D01*
X33881094Y-57699575D01*
X33886182Y-57709597D01*
X33890439Y-57720264D01*
X33893801Y-57731466D01*
X33896202Y-57743092D01*
X33897579Y-57755032D01*
X33897863Y-57761086D01*
X33897866Y-57767177D01*
X33897582Y-57773291D01*
X33897001Y-57779415D01*
X33896115Y-57785535D01*
X33894917Y-57791637D01*
X33893398Y-57797708D01*
X33891551Y-57803733D01*
X33890238Y-57807491D01*
X33888800Y-57811332D01*
X33887250Y-57815228D01*
X33885603Y-57819152D01*
X33883873Y-57823075D01*
X33882074Y-57826969D01*
X33880222Y-57830807D01*
X33878329Y-57834561D01*
X33876411Y-57838202D01*
X33874483Y-57841703D01*
X33872557Y-57845036D01*
X33870649Y-57848172D01*
X33868773Y-57851085D01*
X33866943Y-57853746D01*
X33865174Y-57856127D01*
X33863480Y-57858200D01*
X33861652Y-57860168D01*
X33859673Y-57862025D01*
X33857552Y-57863770D01*
X33855297Y-57865403D01*
X33852918Y-57866924D01*
X33850423Y-57868331D01*
X33847821Y-57869625D01*
X33845121Y-57870804D01*
X33839463Y-57872818D01*
X33833518Y-57874369D01*
X33827357Y-57875453D01*
X33821052Y-57876065D01*
X33814672Y-57876202D01*
X33808287Y-57875859D01*
X33801970Y-57875032D01*
X33795789Y-57873717D01*
X33789817Y-57871909D01*
X33786931Y-57870820D01*
X33784123Y-57869605D01*
X33781402Y-57868266D01*
X33778778Y-57866801D01*
X33776259Y-57865210D01*
X33773853Y-57863492D01*
X33769329Y-57859652D01*
X33765046Y-57855197D01*
X33761011Y-57850149D01*
X33757231Y-57844532D01*
X33753714Y-57838369D01*
X33750466Y-57831682D01*
X33747496Y-57824495D01*
X33744811Y-57816831D01*
X33742418Y-57808713D01*
X33740325Y-57800163D01*
X33738539Y-57791205D01*
X33737068Y-57781863D01*
X33735918Y-57772158D01*
X33735098Y-57762114D01*
X33734615Y-57751754D01*
X33734475Y-57741101D01*
X33734559Y-57729380D01*
X33734791Y-57719034D01*
X33735264Y-57709953D01*
X33736071Y-57702027D01*
X33736630Y-57698464D01*
X33737306Y-57695148D01*
X33738113Y-57692066D01*
X33739062Y-57689204D01*
X33740164Y-57686549D01*
X33741431Y-57684086D01*
X33742874Y-57681803D01*
X33744507Y-57679685D01*
X33746339Y-57677719D01*
X33748382Y-57675891D01*
X33750649Y-57674186D01*
X33753151Y-57672593D01*
X33755899Y-57671096D01*
X33758905Y-57669682D01*
X33762181Y-57668338D01*
X33765739Y-57667049D01*
X33773745Y-57664584D01*
X33783016Y-57662176D01*
X33793646Y-57659717D01*
X33805727Y-57657096D01*
X33807129Y-57656814D01*
X33808527Y-57656568D01*
X33809921Y-57656358D01*
X33811311Y-57656183D01*
X33812698Y-57656043D01*
X33814080Y-57655937D01*
X33815457Y-57655866D01*
X33816830Y-57655830D01*
X33818198Y-57655826D01*
X33819560Y-57655857D01*
G37*
G36*
X30457239Y-56918143D02*
G01*
X30470480Y-56920527D01*
X30483214Y-56923611D01*
X30495428Y-56927363D01*
X30507109Y-56931754D01*
X30518245Y-56936752D01*
X30528823Y-56942325D01*
X30538831Y-56948443D01*
X30548255Y-56955074D01*
X30557084Y-56962187D01*
X30565303Y-56969750D01*
X30572902Y-56977734D01*
X30579867Y-56986106D01*
X30586185Y-56994836D01*
X30591844Y-57003892D01*
X30596831Y-57013244D01*
X30601133Y-57022859D01*
X30604739Y-57032707D01*
X30607634Y-57042756D01*
X30609807Y-57052976D01*
X30611245Y-57063336D01*
X30611935Y-57073803D01*
X30611864Y-57084348D01*
X30611020Y-57094938D01*
X30609391Y-57105543D01*
X30606963Y-57116131D01*
X30603723Y-57126672D01*
X30599660Y-57137134D01*
X30594761Y-57147486D01*
X30589012Y-57157697D01*
X30582402Y-57167735D01*
X30574917Y-57177570D01*
X30566545Y-57187171D01*
X30560037Y-57193908D01*
X30553444Y-57200141D01*
X30546559Y-57205956D01*
X30539173Y-57211439D01*
X30531080Y-57216675D01*
X30522072Y-57221750D01*
X30511942Y-57226750D01*
X30500482Y-57231761D01*
X30487484Y-57236869D01*
X30472742Y-57242159D01*
X30437192Y-57253631D01*
X30392174Y-57266864D01*
X30336027Y-57282545D01*
X30303058Y-57291853D01*
X30267755Y-57302244D01*
X30194541Y-57324879D01*
X30125164Y-57347653D01*
X30094658Y-57358218D01*
X30068405Y-57367770D01*
X30043645Y-57376844D01*
X30020482Y-57384848D01*
X29998859Y-57391788D01*
X29978721Y-57397668D01*
X29960010Y-57402493D01*
X29942671Y-57406267D01*
X29934497Y-57407761D01*
X29926646Y-57408994D01*
X29919108Y-57409967D01*
X29911879Y-57410681D01*
X29904949Y-57411135D01*
X29898313Y-57411330D01*
X29891963Y-57411268D01*
X29885892Y-57410948D01*
X29880094Y-57410371D01*
X29874560Y-57409538D01*
X29869284Y-57408449D01*
X29864259Y-57407105D01*
X29859478Y-57405507D01*
X29854934Y-57403655D01*
X29850619Y-57401549D01*
X29846527Y-57399191D01*
X29842651Y-57396580D01*
X29838983Y-57393718D01*
X29835516Y-57390605D01*
X29832244Y-57387241D01*
X29823534Y-57377116D01*
X29815746Y-57366886D01*
X29808878Y-57356555D01*
X29802928Y-57346130D01*
X29797892Y-57335615D01*
X29793769Y-57325016D01*
X29790555Y-57314339D01*
X29788248Y-57303588D01*
X29786847Y-57292770D01*
X29786347Y-57281889D01*
X29786746Y-57270951D01*
X29788043Y-57259961D01*
X29790234Y-57248926D01*
X29793317Y-57237849D01*
X29797289Y-57226737D01*
X29802148Y-57215594D01*
X29807891Y-57204427D01*
X29814515Y-57193241D01*
X29822019Y-57182041D01*
X29830399Y-57170832D01*
X29839653Y-57159620D01*
X29849778Y-57148410D01*
X29860772Y-57137208D01*
X29872633Y-57126019D01*
X29885357Y-57114848D01*
X29898942Y-57103701D01*
X29913386Y-57092583D01*
X29928685Y-57081499D01*
X29961843Y-57059458D01*
X29998394Y-57037619D01*
X30022115Y-57025028D01*
X30048513Y-57012595D01*
X30077158Y-57000432D01*
X30107616Y-56988652D01*
X30139455Y-56977368D01*
X30172243Y-56966692D01*
X30205549Y-56956737D01*
X30238938Y-56947615D01*
X30271981Y-56939439D01*
X30304243Y-56932321D01*
X30335294Y-56926374D01*
X30364700Y-56921710D01*
X30392030Y-56918443D01*
X30416851Y-56916684D01*
X30438732Y-56916547D01*
X30457239Y-56918143D01*
G37*
G36*
X34113946Y-57466720D02*
G01*
X34116907Y-57466955D01*
X34119841Y-57467309D01*
X34122745Y-57467785D01*
X34125614Y-57468384D01*
X34128445Y-57469107D01*
X34131234Y-57469958D01*
X34133979Y-57470937D01*
X34136674Y-57472046D01*
X34139317Y-57473288D01*
X34141905Y-57474664D01*
X34144432Y-57476176D01*
X34146897Y-57477825D01*
X34149295Y-57479615D01*
X34151622Y-57481546D01*
X34153876Y-57483620D01*
X34156052Y-57485840D01*
X34161549Y-57492291D01*
X34166549Y-57499269D01*
X34171039Y-57506701D01*
X34175006Y-57514514D01*
X34178439Y-57522635D01*
X34181324Y-57530992D01*
X34183651Y-57539512D01*
X34185405Y-57548123D01*
X34186576Y-57556750D01*
X34187150Y-57565322D01*
X34187116Y-57573766D01*
X34186461Y-57582009D01*
X34185172Y-57589978D01*
X34183238Y-57597601D01*
X34182025Y-57601260D01*
X34180646Y-57604805D01*
X34179099Y-57608227D01*
X34177384Y-57611517D01*
X34175015Y-57615565D01*
X34172627Y-57619219D01*
X34170170Y-57622502D01*
X34167591Y-57625437D01*
X34164838Y-57628047D01*
X34161859Y-57630354D01*
X34158601Y-57632380D01*
X34155014Y-57634149D01*
X34151045Y-57635684D01*
X34146642Y-57637006D01*
X34141753Y-57638139D01*
X34136326Y-57639106D01*
X34130309Y-57639928D01*
X34123650Y-57640629D01*
X34116298Y-57641231D01*
X34108199Y-57641758D01*
X34099662Y-57642213D01*
X34091972Y-57642510D01*
X34085054Y-57642626D01*
X34078835Y-57642536D01*
X34075964Y-57642406D01*
X34073240Y-57642216D01*
X34070654Y-57641962D01*
X34068197Y-57641641D01*
X34065859Y-57641250D01*
X34063631Y-57640787D01*
X34061504Y-57640248D01*
X34059468Y-57639629D01*
X34057515Y-57638929D01*
X34055635Y-57638144D01*
X34053818Y-57637271D01*
X34052057Y-57636307D01*
X34050341Y-57635248D01*
X34048661Y-57634093D01*
X34047008Y-57632837D01*
X34045373Y-57631477D01*
X34043746Y-57630012D01*
X34042118Y-57628437D01*
X34040481Y-57626750D01*
X34038824Y-57624947D01*
X34035417Y-57620982D01*
X34031821Y-57616519D01*
X34029546Y-57613483D01*
X34027335Y-57610250D01*
X34025200Y-57606848D01*
X34023152Y-57603308D01*
X34021203Y-57599658D01*
X34019364Y-57595925D01*
X34017646Y-57592140D01*
X34016061Y-57588331D01*
X34014621Y-57584526D01*
X34013336Y-57580755D01*
X34012218Y-57577046D01*
X34011279Y-57573428D01*
X34010531Y-57569929D01*
X34009983Y-57566579D01*
X34009649Y-57563407D01*
X34009539Y-57560440D01*
X34009712Y-57555400D01*
X34010206Y-57550435D01*
X34011007Y-57545550D01*
X34012103Y-57540753D01*
X34013483Y-57536050D01*
X34015135Y-57531446D01*
X34017046Y-57526947D01*
X34019205Y-57522560D01*
X34021599Y-57518291D01*
X34024217Y-57514146D01*
X34027046Y-57510130D01*
X34030074Y-57506252D01*
X34033289Y-57502515D01*
X34036680Y-57498927D01*
X34040234Y-57495494D01*
X34043939Y-57492221D01*
X34047783Y-57489115D01*
X34051754Y-57486182D01*
X34055840Y-57483428D01*
X34060029Y-57480860D01*
X34064309Y-57478483D01*
X34068668Y-57476303D01*
X34073094Y-57474327D01*
X34077574Y-57472561D01*
X34082097Y-57471011D01*
X34086651Y-57469683D01*
X34091224Y-57468583D01*
X34095803Y-57467717D01*
X34100377Y-57467092D01*
X34104933Y-57466713D01*
X34109460Y-57466587D01*
X34113946Y-57466720D01*
G37*
G36*
X32741461Y-56940943D02*
G01*
X32764725Y-56941698D01*
X32788667Y-56943118D01*
X32813087Y-56945199D01*
X32837781Y-56947937D01*
X32862548Y-56951330D01*
X32887186Y-56955373D01*
X32911494Y-56960063D01*
X32935268Y-56965396D01*
X32966930Y-56973833D01*
X32998992Y-56983906D01*
X33031194Y-56995460D01*
X33063278Y-57008341D01*
X33094982Y-57022392D01*
X33126047Y-57037458D01*
X33156213Y-57053385D01*
X33185220Y-57070016D01*
X33212808Y-57087197D01*
X33238717Y-57104772D01*
X33262688Y-57122586D01*
X33284459Y-57140484D01*
X33303772Y-57158310D01*
X33320367Y-57175909D01*
X33327563Y-57184575D01*
X33333983Y-57193126D01*
X33339592Y-57201542D01*
X33344360Y-57209805D01*
X33348551Y-57218619D01*
X33352225Y-57228202D01*
X33355381Y-57238440D01*
X33358016Y-57249219D01*
X33360127Y-57260425D01*
X33361712Y-57271944D01*
X33362769Y-57283660D01*
X33363294Y-57295460D01*
X33363286Y-57307231D01*
X33362742Y-57318856D01*
X33361659Y-57330223D01*
X33360035Y-57341217D01*
X33357868Y-57351724D01*
X33355155Y-57361630D01*
X33351893Y-57370819D01*
X33348081Y-57379179D01*
X33341063Y-57391480D01*
X33333422Y-57402422D01*
X33329359Y-57407384D01*
X33325131Y-57412008D01*
X33320734Y-57416295D01*
X33316166Y-57420245D01*
X33311422Y-57423858D01*
X33306501Y-57427136D01*
X33301399Y-57430078D01*
X33296113Y-57432685D01*
X33290640Y-57434958D01*
X33284976Y-57436897D01*
X33279119Y-57438503D01*
X33273065Y-57439777D01*
X33266811Y-57440718D01*
X33260355Y-57441328D01*
X33253693Y-57441607D01*
X33246822Y-57441556D01*
X33232440Y-57440465D01*
X33217185Y-57438058D01*
X33201032Y-57434342D01*
X33183956Y-57429319D01*
X33165932Y-57422995D01*
X33146935Y-57415374D01*
X33104895Y-57398030D01*
X33064182Y-57382297D01*
X33023887Y-57367890D01*
X32983100Y-57354526D01*
X32940913Y-57341918D01*
X32896417Y-57329784D01*
X32848701Y-57317839D01*
X32796858Y-57305799D01*
X32767642Y-57299059D01*
X32739246Y-57292178D01*
X32712374Y-57285350D01*
X32687729Y-57278768D01*
X32666014Y-57272624D01*
X32647932Y-57267111D01*
X32634186Y-57262423D01*
X32629158Y-57260449D01*
X32625479Y-57258753D01*
X32614503Y-57252552D01*
X32604162Y-57245726D01*
X32594458Y-57238319D01*
X32585396Y-57230371D01*
X32576978Y-57221926D01*
X32569207Y-57213025D01*
X32562086Y-57203710D01*
X32555617Y-57194023D01*
X32549805Y-57184006D01*
X32544652Y-57173702D01*
X32540161Y-57163151D01*
X32536334Y-57152398D01*
X32533176Y-57141482D01*
X32530689Y-57130447D01*
X32528876Y-57119335D01*
X32527739Y-57108187D01*
X32527283Y-57097045D01*
X32527510Y-57085952D01*
X32528423Y-57074950D01*
X32530025Y-57064081D01*
X32532319Y-57053386D01*
X32535308Y-57042908D01*
X32538994Y-57032688D01*
X32543383Y-57022770D01*
X32548475Y-57013194D01*
X32554274Y-57004004D01*
X32560783Y-56995240D01*
X32568005Y-56986946D01*
X32575943Y-56979162D01*
X32584601Y-56971932D01*
X32593980Y-56965296D01*
X32604085Y-56959298D01*
X32609057Y-56956861D01*
X32614630Y-56954598D01*
X32620777Y-56952508D01*
X32627473Y-56950592D01*
X32634693Y-56948848D01*
X32642412Y-56947277D01*
X32650604Y-56945878D01*
X32659244Y-56944650D01*
X32677768Y-56942706D01*
X32697780Y-56941443D01*
X32719079Y-56940856D01*
X32741461Y-56940943D01*
G37*
G36*
X31071551Y-58616904D02*
G01*
X31076388Y-58617345D01*
X31081197Y-58618133D01*
X31085976Y-58619269D01*
X31090722Y-58620752D01*
X31095434Y-58622581D01*
X31100108Y-58624756D01*
X31104744Y-58627276D01*
X31109338Y-58630140D01*
X31113890Y-58633348D01*
X31118397Y-58636900D01*
X31122856Y-58640794D01*
X31127266Y-58645031D01*
X31131625Y-58649609D01*
X31135931Y-58654528D01*
X31140181Y-58659787D01*
X31144374Y-58665386D01*
X31148507Y-58671324D01*
X31152579Y-58677601D01*
X31156587Y-58684216D01*
X31167157Y-58701189D01*
X31178402Y-58717133D01*
X31190395Y-58732089D01*
X31203209Y-58746102D01*
X31216917Y-58759214D01*
X31231593Y-58771470D01*
X31247308Y-58782911D01*
X31264138Y-58793581D01*
X31282153Y-58803524D01*
X31301429Y-58812783D01*
X31322037Y-58821400D01*
X31344051Y-58829420D01*
X31367544Y-58836884D01*
X31392589Y-58843837D01*
X31419260Y-58850322D01*
X31447628Y-58856381D01*
X31472033Y-58860897D01*
X31496083Y-58864586D01*
X31519792Y-58867449D01*
X31543172Y-58869484D01*
X31566237Y-58870690D01*
X31589000Y-58871066D01*
X31611473Y-58870611D01*
X31633670Y-58869325D01*
X31655603Y-58867206D01*
X31677286Y-58864253D01*
X31698732Y-58860466D01*
X31719953Y-58855842D01*
X31740962Y-58850382D01*
X31761773Y-58844085D01*
X31782399Y-58836948D01*
X31802852Y-58828972D01*
X31815377Y-58823718D01*
X31827018Y-58818626D01*
X31837876Y-58813627D01*
X31848051Y-58808652D01*
X31857644Y-58803633D01*
X31866757Y-58798499D01*
X31875490Y-58793181D01*
X31883944Y-58787611D01*
X31892221Y-58781720D01*
X31900420Y-58775437D01*
X31908642Y-58768695D01*
X31916990Y-58761423D01*
X31925563Y-58753553D01*
X31934462Y-58745015D01*
X31943789Y-58735741D01*
X31953644Y-58725661D01*
X31964463Y-58714511D01*
X31974151Y-58704656D01*
X31982819Y-58696028D01*
X31990579Y-58688556D01*
X31997544Y-58682172D01*
X32000763Y-58679366D01*
X32003825Y-58676807D01*
X32006744Y-58674485D01*
X32009534Y-58672391D01*
X32012209Y-58670518D01*
X32014783Y-58668857D01*
X32017271Y-58667399D01*
X32019685Y-58666135D01*
X32022041Y-58665057D01*
X32024351Y-58664156D01*
X32026631Y-58663423D01*
X32028893Y-58662851D01*
X32031153Y-58662429D01*
X32033424Y-58662151D01*
X32035720Y-58662006D01*
X32038055Y-58661987D01*
X32040443Y-58662084D01*
X32042898Y-58662290D01*
X32048065Y-58662991D01*
X32053669Y-58664021D01*
X32063949Y-58666408D01*
X32073519Y-58669304D01*
X32082382Y-58672693D01*
X32090537Y-58676557D01*
X32097987Y-58680882D01*
X32104732Y-58685650D01*
X32110774Y-58690844D01*
X32116113Y-58696449D01*
X32120751Y-58702448D01*
X32124688Y-58708824D01*
X32127927Y-58715561D01*
X32130468Y-58722643D01*
X32132312Y-58730053D01*
X32133461Y-58737775D01*
X32133915Y-58745792D01*
X32133676Y-58754088D01*
X32132745Y-58762646D01*
X32131122Y-58771450D01*
X32128810Y-58780484D01*
X32125809Y-58789731D01*
X32122121Y-58799174D01*
X32117746Y-58808797D01*
X32112686Y-58818585D01*
X32106941Y-58828519D01*
X32100514Y-58838584D01*
X32093404Y-58848764D01*
X32085614Y-58859042D01*
X32077144Y-58869401D01*
X32067996Y-58879825D01*
X32058170Y-58890298D01*
X32047668Y-58900803D01*
X32036492Y-58911324D01*
X32006411Y-58936794D01*
X31974289Y-58960143D01*
X31940243Y-58981344D01*
X31904390Y-59000373D01*
X31866848Y-59017207D01*
X31827733Y-59031819D01*
X31787163Y-59044186D01*
X31745255Y-59054283D01*
X31702126Y-59062085D01*
X31657894Y-59067568D01*
X31612674Y-59070706D01*
X31566586Y-59071476D01*
X31519745Y-59069852D01*
X31472269Y-59065811D01*
X31424275Y-59059326D01*
X31375881Y-59050375D01*
X31353771Y-59045449D01*
X31332150Y-59040062D01*
X31311031Y-59034226D01*
X31290428Y-59027952D01*
X31270354Y-59021251D01*
X31250824Y-59014135D01*
X31231850Y-59006614D01*
X31213446Y-58998700D01*
X31195626Y-58990405D01*
X31178403Y-58981739D01*
X31161791Y-58972714D01*
X31145803Y-58963341D01*
X31130453Y-58953631D01*
X31115755Y-58943596D01*
X31101722Y-58933247D01*
X31088368Y-58922594D01*
X31075706Y-58911651D01*
X31063750Y-58900427D01*
X31052513Y-58888933D01*
X31042009Y-58877182D01*
X31032252Y-58865185D01*
X31023255Y-58852952D01*
X31015031Y-58840495D01*
X31007595Y-58827826D01*
X31000960Y-58814955D01*
X30995139Y-58801894D01*
X30990146Y-58788653D01*
X30985995Y-58775245D01*
X30982698Y-58761681D01*
X30980271Y-58747972D01*
X30978725Y-58734128D01*
X30978076Y-58720162D01*
X30978023Y-58712321D01*
X30978109Y-58705173D01*
X30978359Y-58698656D01*
X30978795Y-58692708D01*
X30979090Y-58689928D01*
X30979441Y-58687266D01*
X30979850Y-58684716D01*
X30980320Y-58682269D01*
X30980854Y-58679918D01*
X30981455Y-58677655D01*
X30982126Y-58675472D01*
X30982870Y-58673361D01*
X30983690Y-58671315D01*
X30984588Y-58669326D01*
X30985568Y-58667386D01*
X30986632Y-58665487D01*
X30987784Y-58663622D01*
X30989026Y-58661783D01*
X30990361Y-58659962D01*
X30991793Y-58658151D01*
X30993323Y-58656342D01*
X30994956Y-58654529D01*
X30998539Y-58650855D01*
X31002564Y-58647067D01*
X31007056Y-58643102D01*
X31012068Y-58638967D01*
X31017079Y-58635187D01*
X31022087Y-58631762D01*
X31027091Y-58628692D01*
X31032087Y-58625975D01*
X31037075Y-58623611D01*
X31042051Y-58621600D01*
X31047013Y-58619941D01*
X31051960Y-58618633D01*
X31056890Y-58617676D01*
X31061799Y-58617069D01*
X31066687Y-58616812D01*
X31071551Y-58616904D01*
G37*
G36*
X30226780Y-57645086D02*
G01*
X30252414Y-57645809D01*
X30292147Y-57647367D01*
X30308818Y-57648216D01*
X30323723Y-57649194D01*
X30337139Y-57650360D01*
X30349340Y-57651778D01*
X30360602Y-57653508D01*
X30371198Y-57655611D01*
X30381405Y-57658150D01*
X30391497Y-57661184D01*
X30401749Y-57664776D01*
X30412436Y-57668988D01*
X30423833Y-57673879D01*
X30436214Y-57679512D01*
X30465032Y-57693248D01*
X30503591Y-57713180D01*
X30540290Y-57734788D01*
X30575126Y-57758070D01*
X30608096Y-57783022D01*
X30639199Y-57809641D01*
X30668430Y-57837923D01*
X30695789Y-57867866D01*
X30721272Y-57899465D01*
X30744877Y-57932719D01*
X30766601Y-57967622D01*
X30786443Y-58004173D01*
X30804399Y-58042368D01*
X30820467Y-58082204D01*
X30834644Y-58123677D01*
X30846929Y-58166784D01*
X30857318Y-58211521D01*
X30861994Y-58235596D01*
X30865904Y-58259066D01*
X30869044Y-58282005D01*
X30871411Y-58304490D01*
X30873000Y-58326594D01*
X30873806Y-58348394D01*
X30873827Y-58369965D01*
X30873057Y-58391382D01*
X30871494Y-58412720D01*
X30869132Y-58434055D01*
X30865968Y-58455462D01*
X30861997Y-58477015D01*
X30857216Y-58498792D01*
X30851621Y-58520866D01*
X30845207Y-58543313D01*
X30837970Y-58566208D01*
X30823410Y-58605793D01*
X30806309Y-58644333D01*
X30786811Y-58681692D01*
X30765062Y-58717732D01*
X30741209Y-58752316D01*
X30715396Y-58785305D01*
X30687769Y-58816562D01*
X30658473Y-58845951D01*
X30627655Y-58873333D01*
X30595460Y-58898570D01*
X30562033Y-58921527D01*
X30527521Y-58942064D01*
X30492068Y-58960044D01*
X30455820Y-58975331D01*
X30418923Y-58987786D01*
X30381523Y-58997272D01*
X30368574Y-58999668D01*
X30354003Y-59001749D01*
X30338032Y-59003515D01*
X30320884Y-59004967D01*
X30283945Y-59006923D01*
X30244966Y-59007615D01*
X30205725Y-59007039D01*
X30168002Y-59005195D01*
X30133577Y-59002077D01*
X30118156Y-59000041D01*
X30104227Y-58997685D01*
X30098868Y-58996504D01*
X30092663Y-58994863D01*
X30078013Y-58990321D01*
X30060875Y-58984297D01*
X30041844Y-58977025D01*
X30021517Y-58968741D01*
X30000491Y-58959682D01*
X29979362Y-58950083D01*
X29958727Y-58940180D01*
X29937489Y-58929328D01*
X29917203Y-58918210D01*
X29897798Y-58906759D01*
X29879200Y-58894911D01*
X29861336Y-58882598D01*
X29844134Y-58869754D01*
X29827522Y-58856314D01*
X29811426Y-58842209D01*
X29795775Y-58827376D01*
X29780495Y-58811746D01*
X29765514Y-58795255D01*
X29750760Y-58777835D01*
X29736159Y-58759421D01*
X29721639Y-58739946D01*
X29707127Y-58719344D01*
X29692552Y-58697549D01*
X29676276Y-58671469D01*
X29661389Y-58645205D01*
X29647885Y-58618723D01*
X29635754Y-58591988D01*
X29624991Y-58564965D01*
X29615587Y-58537618D01*
X29607535Y-58509914D01*
X29600827Y-58481817D01*
X29595457Y-58453292D01*
X29591416Y-58424304D01*
X29588698Y-58394818D01*
X29587294Y-58364800D01*
X29587197Y-58334214D01*
X29588401Y-58303026D01*
X29590896Y-58271201D01*
X29594677Y-58238703D01*
X29601823Y-58193718D01*
X29610945Y-58150208D01*
X29622023Y-58108205D01*
X29623804Y-58102665D01*
X29802608Y-58102665D01*
X29802882Y-58114867D01*
X29803701Y-58127012D01*
X29805056Y-58139080D01*
X29806936Y-58151049D01*
X29809332Y-58162899D01*
X29812234Y-58174609D01*
X29815633Y-58186158D01*
X29819518Y-58197525D01*
X29823880Y-58208690D01*
X29828709Y-58219632D01*
X29833996Y-58230329D01*
X29839730Y-58240761D01*
X29845903Y-58250906D01*
X29852503Y-58260745D01*
X29859522Y-58270257D01*
X29866950Y-58279419D01*
X29874776Y-58288213D01*
X29882992Y-58296616D01*
X29891587Y-58304607D01*
X29900552Y-58312167D01*
X29909877Y-58319274D01*
X29919552Y-58325907D01*
X29929567Y-58332046D01*
X29939913Y-58337669D01*
X29950580Y-58342756D01*
X29961559Y-58347286D01*
X29972201Y-58350866D01*
X29983629Y-58353823D01*
X29995731Y-58356164D01*
X30008395Y-58357897D01*
X30021507Y-58359029D01*
X30034956Y-58359568D01*
X30048629Y-58359521D01*
X30062414Y-58358896D01*
X30076197Y-58357699D01*
X30089868Y-58355939D01*
X30103313Y-58353622D01*
X30116420Y-58350756D01*
X30129077Y-58347349D01*
X30141171Y-58343408D01*
X30152590Y-58338940D01*
X30163221Y-58333953D01*
X30179182Y-58325143D01*
X30194142Y-58315634D01*
X30208111Y-58305411D01*
X30221097Y-58294462D01*
X30233106Y-58282773D01*
X30244148Y-58270331D01*
X30254231Y-58257122D01*
X30263362Y-58243133D01*
X30271550Y-58228350D01*
X30278803Y-58212759D01*
X30285129Y-58196348D01*
X30290536Y-58179103D01*
X30295033Y-58161011D01*
X30298627Y-58142057D01*
X30301327Y-58122229D01*
X30303140Y-58101513D01*
X30303821Y-58086737D01*
X30303935Y-58072273D01*
X30303490Y-58058130D01*
X30302494Y-58044319D01*
X30300955Y-58030850D01*
X30298883Y-58017734D01*
X30296285Y-58004981D01*
X30293171Y-57992601D01*
X30289547Y-57980604D01*
X30285424Y-57969001D01*
X30280809Y-57957803D01*
X30275711Y-57947020D01*
X30270138Y-57936661D01*
X30264099Y-57926738D01*
X30257602Y-57917261D01*
X30250655Y-57908240D01*
X30243268Y-57899685D01*
X30235448Y-57891607D01*
X30227204Y-57884017D01*
X30218545Y-57876924D01*
X30209478Y-57870338D01*
X30200013Y-57864272D01*
X30190157Y-57858733D01*
X30179920Y-57853734D01*
X30169310Y-57849284D01*
X30158334Y-57845394D01*
X30147002Y-57842074D01*
X30135323Y-57839334D01*
X30123303Y-57837185D01*
X30110953Y-57835638D01*
X30098280Y-57834701D01*
X30085293Y-57834387D01*
X30073577Y-57834625D01*
X30061940Y-57835332D01*
X30050395Y-57836499D01*
X30038955Y-57838117D01*
X30027632Y-57840178D01*
X30016439Y-57842671D01*
X30005389Y-57845588D01*
X29994495Y-57848919D01*
X29983769Y-57852655D01*
X29973225Y-57856788D01*
X29962875Y-57861308D01*
X29952731Y-57866206D01*
X29942807Y-57871472D01*
X29933116Y-57877098D01*
X29923669Y-57883075D01*
X29914481Y-57889393D01*
X29905563Y-57896043D01*
X29896929Y-57903016D01*
X29888590Y-57910303D01*
X29880561Y-57917894D01*
X29872853Y-57925781D01*
X29865480Y-57933955D01*
X29858455Y-57942406D01*
X29851789Y-57951125D01*
X29845496Y-57960104D01*
X29839589Y-57969332D01*
X29834080Y-57978800D01*
X29828982Y-57988501D01*
X29824308Y-57998423D01*
X29820071Y-58008559D01*
X29816283Y-58018899D01*
X29812958Y-58029435D01*
X29809757Y-58041538D01*
X29807159Y-58053710D01*
X29805155Y-58065929D01*
X29803735Y-58078176D01*
X29802889Y-58090428D01*
X29802608Y-58102665D01*
X29623804Y-58102665D01*
X29635035Y-58067741D01*
X29649961Y-58028848D01*
X29666782Y-57991557D01*
X29685476Y-57955899D01*
X29706023Y-57921905D01*
X29716985Y-57905543D01*
X29728403Y-57889608D01*
X29740274Y-57874106D01*
X29752595Y-57859039D01*
X29765364Y-57844412D01*
X29778579Y-57830229D01*
X29792237Y-57816494D01*
X29806335Y-57803210D01*
X29820871Y-57790382D01*
X29835842Y-57778013D01*
X29851246Y-57766108D01*
X29867080Y-57754670D01*
X29883341Y-57743703D01*
X29900028Y-57733212D01*
X29917137Y-57723200D01*
X29934666Y-57713671D01*
X29955429Y-57703038D01*
X29975181Y-57693447D01*
X29994113Y-57684859D01*
X30012416Y-57677231D01*
X30030280Y-57670523D01*
X30047896Y-57664695D01*
X30065455Y-57659705D01*
X30083148Y-57655513D01*
X30101166Y-57652078D01*
X30119700Y-57649360D01*
X30138940Y-57647317D01*
X30159077Y-57645909D01*
X30180302Y-57645095D01*
X30202806Y-57644834D01*
X30226780Y-57645086D01*
G37*
G36*
X32945661Y-57676949D02*
G01*
X32955327Y-57677144D01*
X32964807Y-57677497D01*
X32978726Y-57678336D01*
X32992349Y-57679557D01*
X33005751Y-57681176D01*
X33019004Y-57683210D01*
X33032183Y-57685674D01*
X33045361Y-57688583D01*
X33058611Y-57691955D01*
X33072008Y-57695803D01*
X33085626Y-57700146D01*
X33099537Y-57704998D01*
X33113815Y-57710374D01*
X33128535Y-57716292D01*
X33159593Y-57729814D01*
X33193299Y-57745689D01*
X33221603Y-57759847D01*
X33234442Y-57766649D01*
X33246567Y-57773381D01*
X33258100Y-57780133D01*
X33269161Y-57786990D01*
X33279872Y-57794040D01*
X33290353Y-57801372D01*
X33300727Y-57809071D01*
X33311113Y-57817226D01*
X33321634Y-57825923D01*
X33332410Y-57835250D01*
X33343563Y-57845295D01*
X33355213Y-57856144D01*
X33380492Y-57880606D01*
X33405869Y-57906092D01*
X33416993Y-57917688D01*
X33427211Y-57928707D01*
X33436627Y-57939292D01*
X33445344Y-57949585D01*
X33453465Y-57959726D01*
X33461094Y-57969858D01*
X33468334Y-57980122D01*
X33475287Y-57990660D01*
X33482059Y-58001613D01*
X33488751Y-58013124D01*
X33495467Y-58025334D01*
X33502311Y-58038384D01*
X33516793Y-58067572D01*
X33527969Y-58091378D01*
X33538213Y-58114593D01*
X33547542Y-58137297D01*
X33555975Y-58159569D01*
X33563527Y-58181489D01*
X33570218Y-58203138D01*
X33576062Y-58224596D01*
X33581079Y-58245941D01*
X33585286Y-58267255D01*
X33588699Y-58288617D01*
X33591335Y-58310107D01*
X33593213Y-58331805D01*
X33594350Y-58353792D01*
X33594762Y-58376146D01*
X33594466Y-58398948D01*
X33593482Y-58422279D01*
X33590832Y-58455633D01*
X33586652Y-58488668D01*
X33580960Y-58521343D01*
X33573776Y-58553617D01*
X33565116Y-58585449D01*
X33555001Y-58616799D01*
X33543449Y-58647625D01*
X33530478Y-58677887D01*
X33516107Y-58707543D01*
X33500355Y-58736554D01*
X33483241Y-58764878D01*
X33464783Y-58792474D01*
X33445000Y-58819302D01*
X33423911Y-58845321D01*
X33401533Y-58870489D01*
X33377887Y-58894767D01*
X33360854Y-58911114D01*
X33344018Y-58926523D01*
X33327332Y-58941023D01*
X33310746Y-58954642D01*
X33294211Y-58967411D01*
X33277680Y-58979357D01*
X33261102Y-58990511D01*
X33244430Y-59000901D01*
X33227614Y-59010557D01*
X33210606Y-59019507D01*
X33193357Y-59027781D01*
X33175818Y-59035408D01*
X33157941Y-59042417D01*
X33139676Y-59048837D01*
X33120976Y-59054698D01*
X33101790Y-59060028D01*
X33066018Y-59068801D01*
X33049098Y-59072488D01*
X33032691Y-59075718D01*
X33016699Y-59078502D01*
X33001023Y-59080845D01*
X32985565Y-59082758D01*
X32970227Y-59084248D01*
X32954910Y-59085324D01*
X32939516Y-59085993D01*
X32923946Y-59086264D01*
X32908102Y-59086146D01*
X32891886Y-59085646D01*
X32875198Y-59084772D01*
X32840019Y-59081939D01*
X32806770Y-59077684D01*
X32773988Y-59071445D01*
X32741724Y-59063287D01*
X32710025Y-59053277D01*
X32678940Y-59041480D01*
X32648521Y-59027964D01*
X32618814Y-59012795D01*
X32589870Y-58996038D01*
X32561738Y-58977760D01*
X32534467Y-58958028D01*
X32508106Y-58936907D01*
X32482705Y-58914465D01*
X32458312Y-58890766D01*
X32434977Y-58865878D01*
X32412749Y-58839866D01*
X32391678Y-58812798D01*
X32371812Y-58784739D01*
X32353200Y-58755755D01*
X32335893Y-58725913D01*
X32319939Y-58695279D01*
X32305387Y-58663920D01*
X32292286Y-58631901D01*
X32280686Y-58599289D01*
X32270636Y-58566151D01*
X32262186Y-58532551D01*
X32255383Y-58498558D01*
X32250279Y-58464236D01*
X32246921Y-58429653D01*
X32245359Y-58394874D01*
X32245642Y-58359967D01*
X32247819Y-58324996D01*
X32251941Y-58290028D01*
X32257107Y-58258138D01*
X32263136Y-58227318D01*
X32270056Y-58197513D01*
X32275263Y-58178346D01*
X32470946Y-58178346D01*
X32471343Y-58187331D01*
X32472077Y-58196303D01*
X32473141Y-58205250D01*
X32474528Y-58214162D01*
X32476233Y-58223029D01*
X32478248Y-58231840D01*
X32480566Y-58240585D01*
X32483182Y-58249254D01*
X32486087Y-58257836D01*
X32489276Y-58266320D01*
X32492742Y-58274696D01*
X32496479Y-58282955D01*
X32500478Y-58291085D01*
X32504735Y-58299076D01*
X32509242Y-58306918D01*
X32513993Y-58314600D01*
X32518980Y-58322112D01*
X32524198Y-58329444D01*
X32529639Y-58336584D01*
X32535297Y-58343524D01*
X32541165Y-58350252D01*
X32547237Y-58356757D01*
X32553506Y-58363031D01*
X32559965Y-58369061D01*
X32566608Y-58374838D01*
X32573427Y-58380352D01*
X32580417Y-58385591D01*
X32587570Y-58390546D01*
X32594880Y-58395206D01*
X32602341Y-58399561D01*
X32609945Y-58403600D01*
X32617686Y-58407314D01*
X32628939Y-58411856D01*
X32641258Y-58415790D01*
X32654491Y-58419116D01*
X32668486Y-58421834D01*
X32683092Y-58423945D01*
X32698156Y-58425447D01*
X32713528Y-58426342D01*
X32729054Y-58426630D01*
X32744583Y-58426310D01*
X32759963Y-58425384D01*
X32775043Y-58423850D01*
X32789671Y-58421710D01*
X32803693Y-58418964D01*
X32816960Y-58415611D01*
X32829319Y-58411651D01*
X32840618Y-58407086D01*
X32851139Y-58401805D01*
X32861690Y-58395532D01*
X32872219Y-58388327D01*
X32882675Y-58380251D01*
X32893007Y-58371364D01*
X32903164Y-58361727D01*
X32913095Y-58351400D01*
X32922749Y-58340444D01*
X32932074Y-58328919D01*
X32941020Y-58316886D01*
X32949536Y-58304405D01*
X32957569Y-58291537D01*
X32965070Y-58278342D01*
X32971987Y-58264880D01*
X32978269Y-58251213D01*
X32983865Y-58237401D01*
X32988556Y-58223936D01*
X32992507Y-58210380D01*
X32995731Y-58196758D01*
X32998239Y-58183096D01*
X33000045Y-58169422D01*
X33001158Y-58155761D01*
X33001592Y-58142140D01*
X33001359Y-58128584D01*
X33000470Y-58115120D01*
X32998937Y-58101775D01*
X32996772Y-58088574D01*
X32993987Y-58075545D01*
X32990595Y-58062712D01*
X32986606Y-58050103D01*
X32982034Y-58037744D01*
X32976889Y-58025660D01*
X32971185Y-58013879D01*
X32964932Y-58002427D01*
X32958143Y-57991329D01*
X32950829Y-57980612D01*
X32943004Y-57970302D01*
X32934677Y-57960426D01*
X32925863Y-57951010D01*
X32916572Y-57942080D01*
X32906816Y-57933663D01*
X32896607Y-57925784D01*
X32885958Y-57918470D01*
X32874881Y-57911747D01*
X32863386Y-57905642D01*
X32851486Y-57900180D01*
X32839194Y-57895388D01*
X32826521Y-57891293D01*
X32817974Y-57888951D01*
X32809439Y-57886895D01*
X32800919Y-57885121D01*
X32792419Y-57883625D01*
X32783941Y-57882405D01*
X32775489Y-57881456D01*
X32767068Y-57880775D01*
X32758680Y-57880358D01*
X32758680Y-57880359D01*
X32744097Y-57880257D01*
X32729655Y-57880941D01*
X32715377Y-57882390D01*
X32701284Y-57884589D01*
X32687398Y-57887518D01*
X32673741Y-57891161D01*
X32660336Y-57895500D01*
X32647204Y-57900517D01*
X32634366Y-57906195D01*
X32621845Y-57912515D01*
X32609664Y-57919460D01*
X32597843Y-57927012D01*
X32586404Y-57935154D01*
X32575370Y-57943868D01*
X32564763Y-57953136D01*
X32554604Y-57962941D01*
X32544916Y-57973264D01*
X32535720Y-57984089D01*
X32527038Y-57995397D01*
X32518892Y-58007171D01*
X32511304Y-58019393D01*
X32504297Y-58032045D01*
X32497891Y-58045110D01*
X32492109Y-58058570D01*
X32486973Y-58072407D01*
X32482505Y-58086604D01*
X32478726Y-58101143D01*
X32475659Y-58116006D01*
X32473326Y-58131175D01*
X32471748Y-58146634D01*
X32470947Y-58162363D01*
X32470946Y-58178346D01*
X32275263Y-58178346D01*
X32277893Y-58168666D01*
X32286677Y-58140720D01*
X32296434Y-58113618D01*
X32307192Y-58087305D01*
X32318979Y-58061724D01*
X32331822Y-58036817D01*
X32345749Y-58012529D01*
X32360787Y-57988803D01*
X32376965Y-57965582D01*
X32394310Y-57942809D01*
X32412850Y-57920428D01*
X32432612Y-57898383D01*
X32453623Y-57876617D01*
X32476942Y-57854174D01*
X32500635Y-57833119D01*
X32524720Y-57813441D01*
X32549218Y-57795131D01*
X32574149Y-57778181D01*
X32599531Y-57762580D01*
X32625385Y-57748321D01*
X32651731Y-57735395D01*
X32678587Y-57723791D01*
X32705974Y-57713500D01*
X32733911Y-57704515D01*
X32762418Y-57696825D01*
X32791515Y-57690422D01*
X32821221Y-57685297D01*
X32851555Y-57681439D01*
X32882538Y-57678841D01*
X32893778Y-57678186D01*
X32904702Y-57677660D01*
X32915330Y-57677269D01*
X32925684Y-57677016D01*
X32935788Y-57676908D01*
X32945661Y-57676949D01*
G37*
G36*
X33044693Y-55637692D02*
G01*
X33182148Y-55643401D01*
X33321241Y-55652109D01*
X33463514Y-55663885D01*
X33610506Y-55678800D01*
X33763758Y-55696922D01*
X33924810Y-55718320D01*
X34035238Y-55735197D01*
X34148540Y-55755407D01*
X34264040Y-55778789D01*
X34381063Y-55805185D01*
X34498931Y-55834433D01*
X34616969Y-55866374D01*
X34734502Y-55900849D01*
X34850852Y-55937697D01*
X34964614Y-55976374D01*
X35072745Y-56015781D01*
X35175557Y-56056055D01*
X35273362Y-56097331D01*
X35366474Y-56139748D01*
X35455204Y-56183441D01*
X35539865Y-56228548D01*
X35620769Y-56275206D01*
X35685787Y-56315192D01*
X35715815Y-56334508D01*
X35744540Y-56353656D01*
X35772229Y-56372850D01*
X35799144Y-56392301D01*
X35825551Y-56412222D01*
X35851713Y-56432826D01*
X35877895Y-56454326D01*
X35904361Y-56476933D01*
X35931377Y-56500861D01*
X35959205Y-56526322D01*
X36018358Y-56582695D01*
X36083935Y-56647752D01*
X36133019Y-56698208D01*
X36179193Y-56747861D01*
X36222572Y-56796899D01*
X36263273Y-56845510D01*
X36301409Y-56893883D01*
X36337099Y-56942206D01*
X36370456Y-56990668D01*
X36401597Y-57039458D01*
X36430637Y-57088764D01*
X36457693Y-57138774D01*
X36482879Y-57189678D01*
X36506312Y-57241664D01*
X36528107Y-57294921D01*
X36548381Y-57349636D01*
X36567248Y-57405999D01*
X36584824Y-57464198D01*
X36597720Y-57513619D01*
X36608765Y-57565237D01*
X36617965Y-57618699D01*
X36625325Y-57673658D01*
X36630849Y-57729764D01*
X36634544Y-57786667D01*
X36636414Y-57844017D01*
X36636464Y-57901465D01*
X36634700Y-57958661D01*
X36631127Y-58015256D01*
X36625750Y-58070901D01*
X36618574Y-58125245D01*
X36609605Y-58177939D01*
X36598847Y-58228633D01*
X36586306Y-58276979D01*
X36571988Y-58322626D01*
X36559886Y-58354961D01*
X36544928Y-58390227D01*
X36527541Y-58427602D01*
X36508152Y-58466260D01*
X36487188Y-58505377D01*
X36465078Y-58544130D01*
X36442249Y-58581693D01*
X36419129Y-58617244D01*
X36405485Y-58636713D01*
X36390205Y-58657179D01*
X36373540Y-58678381D01*
X36355735Y-58700063D01*
X36337042Y-58721966D01*
X36317708Y-58743830D01*
X36297981Y-58765398D01*
X36278111Y-58786410D01*
X36258346Y-58806609D01*
X36238935Y-58825737D01*
X36220126Y-58843533D01*
X36202167Y-58859741D01*
X36185309Y-58874101D01*
X36169799Y-58886355D01*
X36155885Y-58896244D01*
X36143817Y-58903510D01*
X36098383Y-58927612D01*
X36106486Y-58986895D01*
X36108267Y-59005411D01*
X36110220Y-59035456D01*
X36114387Y-59123853D01*
X36118479Y-59239517D01*
X36121989Y-59369880D01*
X36129389Y-59693560D01*
X36230965Y-59750528D01*
X36326979Y-59805712D01*
X36371597Y-59832456D01*
X36414201Y-59858814D01*
X36454976Y-59884923D01*
X36494105Y-59910918D01*
X36531773Y-59936933D01*
X36568165Y-59963105D01*
X36603463Y-59989567D01*
X36637853Y-60016457D01*
X36671519Y-60043908D01*
X36704645Y-60072056D01*
X36737416Y-60101037D01*
X36770014Y-60130985D01*
X36802626Y-60162036D01*
X36835434Y-60194326D01*
X36885551Y-60245921D01*
X36909199Y-60271450D01*
X36931946Y-60296852D01*
X36953823Y-60322166D01*
X36974859Y-60347433D01*
X36995083Y-60372691D01*
X37014527Y-60397981D01*
X37033219Y-60423342D01*
X37051190Y-60448814D01*
X37068468Y-60474436D01*
X37085086Y-60500248D01*
X37101071Y-60526290D01*
X37116454Y-60552600D01*
X37131265Y-60579220D01*
X37145534Y-60606187D01*
X37163943Y-60642683D01*
X37180846Y-60677931D01*
X37196287Y-60712094D01*
X37210308Y-60745333D01*
X37222951Y-60777811D01*
X37234258Y-60809688D01*
X37244272Y-60841128D01*
X37253036Y-60872292D01*
X37260592Y-60903342D01*
X37266982Y-60934440D01*
X37272249Y-60965747D01*
X37276435Y-60997426D01*
X37279583Y-61029638D01*
X37281735Y-61062546D01*
X37282933Y-61096311D01*
X37283220Y-61131095D01*
X37282848Y-61160298D01*
X37281976Y-61188215D01*
X37280581Y-61214957D01*
X37278639Y-61240637D01*
X37276126Y-61265367D01*
X37273019Y-61289260D01*
X37269295Y-61312427D01*
X37264928Y-61334981D01*
X37259897Y-61357034D01*
X37254177Y-61378698D01*
X37247745Y-61400085D01*
X37240577Y-61421308D01*
X37232649Y-61442480D01*
X37223939Y-61463711D01*
X37214421Y-61485115D01*
X37204073Y-61506803D01*
X37197428Y-61520064D01*
X37190916Y-61532553D01*
X37184448Y-61544388D01*
X37177934Y-61555687D01*
X37171284Y-61566568D01*
X37164410Y-61577150D01*
X37157222Y-61587550D01*
X37149630Y-61597886D01*
X37141546Y-61608276D01*
X37132880Y-61618839D01*
X37123542Y-61629693D01*
X37113444Y-61640954D01*
X37102496Y-61652742D01*
X37090608Y-61665175D01*
X37063657Y-61692446D01*
X37044003Y-61711589D01*
X37024595Y-61729613D01*
X37005317Y-61746591D01*
X36986052Y-61762592D01*
X36966684Y-61777688D01*
X36947095Y-61791948D01*
X36927169Y-61805444D01*
X36906789Y-61818246D01*
X36885838Y-61830425D01*
X36864199Y-61842052D01*
X36841755Y-61853197D01*
X36818389Y-61863932D01*
X36793985Y-61874326D01*
X36768426Y-61884451D01*
X36741595Y-61894377D01*
X36713374Y-61904175D01*
X36686929Y-61912842D01*
X36675267Y-61916393D01*
X36664354Y-61919457D01*
X36653973Y-61922058D01*
X36643905Y-61924221D01*
X36633932Y-61925972D01*
X36623835Y-61927335D01*
X36613397Y-61928336D01*
X36602399Y-61928999D01*
X36590623Y-61929351D01*
X36577851Y-61929415D01*
X36548445Y-61928783D01*
X36512436Y-61927305D01*
X36478290Y-61925454D01*
X36448613Y-61923105D01*
X36435008Y-61921659D01*
X36421987Y-61919985D01*
X36409373Y-61918050D01*
X36396989Y-61915818D01*
X36384658Y-61913256D01*
X36372201Y-61910328D01*
X36359442Y-61907002D01*
X36346203Y-61903241D01*
X36317574Y-61894281D01*
X36284894Y-61883173D01*
X36230695Y-61864218D01*
X36209228Y-61856740D01*
X36191153Y-61850529D01*
X36176199Y-61845537D01*
X36169809Y-61843482D01*
X36164097Y-61841714D01*
X36159030Y-61840226D01*
X36154573Y-61839011D01*
X36150694Y-61838065D01*
X36147358Y-61837381D01*
X36144532Y-61836951D01*
X36142180Y-61836772D01*
X36141173Y-61836774D01*
X36140271Y-61836836D01*
X36139471Y-61836957D01*
X36138769Y-61837137D01*
X36138160Y-61837374D01*
X36137640Y-61837669D01*
X36137205Y-61838020D01*
X36136852Y-61838426D01*
X36136574Y-61838887D01*
X36136369Y-61839402D01*
X36136232Y-61839970D01*
X36136158Y-61840591D01*
X36136186Y-61841986D01*
X36136418Y-61843582D01*
X36136820Y-61845373D01*
X36137358Y-61847351D01*
X36140200Y-61857025D01*
X36141703Y-61867004D01*
X36143366Y-61885710D01*
X36146955Y-61944974D01*
X36150525Y-62026167D01*
X36153635Y-62120637D01*
X36155542Y-62194123D01*
X36156609Y-62252952D01*
X36156695Y-62300192D01*
X36156324Y-62320423D01*
X36155655Y-62338908D01*
X36154669Y-62356029D01*
X36153348Y-62372169D01*
X36151674Y-62387712D01*
X36149630Y-62403041D01*
X36147197Y-62418539D01*
X36144357Y-62434591D01*
X36137389Y-62469887D01*
X36118211Y-62549857D01*
X36094137Y-62627527D01*
X36065250Y-62702802D01*
X36031635Y-62775586D01*
X35993374Y-62845787D01*
X35950554Y-62913309D01*
X35903258Y-62978058D01*
X35851569Y-63039940D01*
X35795573Y-63098860D01*
X35735354Y-63154725D01*
X35670995Y-63207438D01*
X35602582Y-63256907D01*
X35530197Y-63303036D01*
X35453926Y-63345731D01*
X35373852Y-63384899D01*
X35290061Y-63420443D01*
X35189886Y-63455094D01*
X35044205Y-63499443D01*
X34868630Y-63549362D01*
X34678777Y-63600723D01*
X34490259Y-63649398D01*
X34318689Y-63691259D01*
X34179683Y-63722178D01*
X34088852Y-63738026D01*
X34025352Y-63745179D01*
X34024546Y-64110303D01*
X34024234Y-64179396D01*
X34023608Y-64240850D01*
X34022639Y-64295277D01*
X34021300Y-64343290D01*
X34019561Y-64385504D01*
X34017395Y-64422531D01*
X34014772Y-64454984D01*
X34011664Y-64483477D01*
X34008043Y-64508623D01*
X34003880Y-64531036D01*
X33999146Y-64551328D01*
X33993814Y-64570113D01*
X33987854Y-64588004D01*
X33981238Y-64605614D01*
X33973938Y-64623558D01*
X33965924Y-64642447D01*
X33953867Y-64668295D01*
X33939948Y-64694060D01*
X33924343Y-64719615D01*
X33907221Y-64744838D01*
X33888758Y-64769603D01*
X33869125Y-64793787D01*
X33848494Y-64817266D01*
X33827039Y-64839914D01*
X33804933Y-64861608D01*
X33782347Y-64882224D01*
X33759454Y-64901638D01*
X33736428Y-64919724D01*
X33713441Y-64936360D01*
X33690666Y-64951420D01*
X33668274Y-64964780D01*
X33646440Y-64976317D01*
X33625558Y-64986028D01*
X33603739Y-64995089D01*
X33581103Y-65003478D01*
X33557775Y-65011175D01*
X33533876Y-65018158D01*
X33509529Y-65024406D01*
X33484857Y-65029897D01*
X33459981Y-65034611D01*
X33435024Y-65038526D01*
X33410109Y-65041621D01*
X33385359Y-65043875D01*
X33360895Y-65045266D01*
X33336840Y-65045773D01*
X33313317Y-65045376D01*
X33290447Y-65044052D01*
X33268355Y-65041781D01*
X33222810Y-65034349D01*
X33178665Y-65023834D01*
X33135988Y-65010297D01*
X33094848Y-64993798D01*
X33055313Y-64974397D01*
X33017452Y-64952153D01*
X32981334Y-64927127D01*
X32947027Y-64899377D01*
X32914601Y-64868965D01*
X32884123Y-64835951D01*
X32855663Y-64800393D01*
X32829289Y-64762352D01*
X32805070Y-64721887D01*
X32783075Y-64679059D01*
X32763372Y-64633928D01*
X32746030Y-64586553D01*
X32733151Y-64543955D01*
X32722554Y-64499575D01*
X32714065Y-64451674D01*
X32707509Y-64398514D01*
X32702714Y-64338356D01*
X32699504Y-64269460D01*
X32697705Y-64190088D01*
X32697144Y-64098501D01*
X32697144Y-64084070D01*
X32864540Y-64084070D01*
X32864750Y-64104514D01*
X32865559Y-64126158D01*
X32866937Y-64149012D01*
X32871286Y-64198381D01*
X32877556Y-64252693D01*
X32893323Y-64383743D01*
X32899508Y-64433635D01*
X32902544Y-64455702D01*
X32905684Y-64476241D01*
X32909033Y-64495548D01*
X32912696Y-64513917D01*
X32916779Y-64531641D01*
X32921387Y-64549014D01*
X32926625Y-64566331D01*
X32932598Y-64583887D01*
X32939413Y-64601974D01*
X32947175Y-64620887D01*
X32954388Y-64636467D01*
X32962581Y-64651664D01*
X32971717Y-64666459D01*
X32981760Y-64680834D01*
X32992674Y-64694772D01*
X33004424Y-64708254D01*
X33030287Y-64733775D01*
X33059062Y-64757251D01*
X33090460Y-64778537D01*
X33124196Y-64797486D01*
X33159981Y-64813952D01*
X33197530Y-64827789D01*
X33236553Y-64838850D01*
X33276766Y-64846989D01*
X33317879Y-64852059D01*
X33359607Y-64853916D01*
X33401661Y-64852411D01*
X33443755Y-64847399D01*
X33485602Y-64838734D01*
X33499350Y-64834836D01*
X33513889Y-64829934D01*
X33529064Y-64824121D01*
X33544720Y-64817484D01*
X33560703Y-64810115D01*
X33576857Y-64802102D01*
X33593028Y-64793537D01*
X33609062Y-64784507D01*
X33624802Y-64775104D01*
X33640095Y-64765417D01*
X33654786Y-64755536D01*
X33668719Y-64745551D01*
X33681741Y-64735550D01*
X33693695Y-64725625D01*
X33704428Y-64715865D01*
X33713784Y-64706360D01*
X33731295Y-64684601D01*
X33747232Y-64662776D01*
X33761656Y-64640879D01*
X33774633Y-64618907D01*
X33786223Y-64596853D01*
X33796491Y-64574714D01*
X33805498Y-64552483D01*
X33813308Y-64530157D01*
X33819984Y-64507729D01*
X33825588Y-64485196D01*
X33833833Y-64439792D01*
X33838545Y-64393904D01*
X33840228Y-64347494D01*
X33839383Y-64300522D01*
X33836515Y-64252947D01*
X33826716Y-64155832D01*
X33814852Y-64055832D01*
X33809403Y-64004651D01*
X33804946Y-63952630D01*
X32894547Y-63952628D01*
X32888021Y-63962667D01*
X32882363Y-63973827D01*
X32877542Y-63986116D01*
X32873529Y-63999544D01*
X32870294Y-64014119D01*
X32867807Y-64029851D01*
X32866039Y-64046747D01*
X32864960Y-64064817D01*
X32864540Y-64084070D01*
X32697144Y-64084070D01*
X32697144Y-63869181D01*
X32588665Y-63862008D01*
X32468600Y-63852443D01*
X32298785Y-63837087D01*
X32121112Y-63819867D01*
X31977477Y-63804710D01*
X31961371Y-63802987D01*
X31946031Y-63801557D01*
X31931817Y-63800438D01*
X31919087Y-63799648D01*
X31908199Y-63799207D01*
X31903557Y-63799123D01*
X31899510Y-63799134D01*
X31896103Y-63799240D01*
X31893380Y-63799446D01*
X31891385Y-63799752D01*
X31890676Y-63799944D01*
X31890165Y-63800162D01*
X31889356Y-63802012D01*
X31888570Y-63806542D01*
X31887083Y-63823086D01*
X31884559Y-63882190D01*
X31882854Y-63968518D01*
X31882227Y-64073117D01*
X31882041Y-64140052D01*
X31881424Y-64200738D01*
X31880290Y-64255687D01*
X31878552Y-64305409D01*
X31876123Y-64350414D01*
X31872916Y-64391214D01*
X31868844Y-64428317D01*
X31863820Y-64462235D01*
X31857757Y-64493479D01*
X31850569Y-64522558D01*
X31842168Y-64549983D01*
X31832468Y-64576265D01*
X31821382Y-64601914D01*
X31808823Y-64627441D01*
X31794703Y-64653356D01*
X31778937Y-64680170D01*
X31761999Y-64707098D01*
X31744639Y-64732633D01*
X31726813Y-64756813D01*
X31708476Y-64779673D01*
X31689585Y-64801250D01*
X31670094Y-64821582D01*
X31649958Y-64840703D01*
X31629135Y-64858651D01*
X31607579Y-64875462D01*
X31585245Y-64891173D01*
X31562090Y-64905819D01*
X31538069Y-64919438D01*
X31513137Y-64932067D01*
X31487251Y-64943740D01*
X31460365Y-64954496D01*
X31432436Y-64964370D01*
X31406907Y-64972506D01*
X31383846Y-64978961D01*
X31372785Y-64981618D01*
X31361793Y-64983928D01*
X31350687Y-64985914D01*
X31339285Y-64987602D01*
X31327403Y-64989014D01*
X31314861Y-64990176D01*
X31287059Y-64991846D01*
X31254419Y-64992805D01*
X31215477Y-64993247D01*
X31189410Y-64993239D01*
X31165238Y-64992870D01*
X31142760Y-64992092D01*
X31121775Y-64990860D01*
X31102083Y-64989127D01*
X31083482Y-64986847D01*
X31065772Y-64983974D01*
X31048752Y-64980463D01*
X31032221Y-64976266D01*
X31015979Y-64971339D01*
X30999824Y-64965634D01*
X30983556Y-64959105D01*
X30966974Y-64951707D01*
X30949877Y-64943394D01*
X30932065Y-64934118D01*
X30913336Y-64923835D01*
X30886195Y-64907527D01*
X30859746Y-64889472D01*
X30834038Y-64869735D01*
X30809119Y-64848380D01*
X30785037Y-64825471D01*
X30761840Y-64801074D01*
X30739577Y-64775254D01*
X30718296Y-64748075D01*
X30698045Y-64719601D01*
X30678872Y-64689898D01*
X30660826Y-64659030D01*
X30643954Y-64627062D01*
X30628306Y-64594059D01*
X30613928Y-64560085D01*
X30600870Y-64525205D01*
X30589180Y-64489484D01*
X30581778Y-64463606D01*
X30576065Y-64437886D01*
X30571792Y-64408068D01*
X30568710Y-64369895D01*
X30566569Y-64319113D01*
X30565120Y-64251463D01*
X30564711Y-64205844D01*
X30728136Y-64205844D01*
X30730142Y-64287141D01*
X30732212Y-64324159D01*
X30735078Y-64358170D01*
X30738801Y-64388732D01*
X30743445Y-64415404D01*
X30751375Y-64448842D01*
X30760941Y-64481019D01*
X30772107Y-64511893D01*
X30784839Y-64541423D01*
X30799102Y-64569566D01*
X30814860Y-64596282D01*
X30832080Y-64621530D01*
X30850725Y-64645267D01*
X30870762Y-64667452D01*
X30892154Y-64688044D01*
X30914868Y-64707001D01*
X30938868Y-64724283D01*
X30951340Y-64732282D01*
X30964120Y-64739846D01*
X30977204Y-64746971D01*
X30990588Y-64753650D01*
X31004267Y-64759880D01*
X31018237Y-64765654D01*
X31032494Y-64770968D01*
X31047033Y-64775816D01*
X31068670Y-64782319D01*
X31089882Y-64788093D01*
X31110694Y-64793137D01*
X31131133Y-64797453D01*
X31151222Y-64801043D01*
X31170989Y-64803908D01*
X31190457Y-64806050D01*
X31209653Y-64807469D01*
X31228601Y-64808168D01*
X31247328Y-64808147D01*
X31265858Y-64807408D01*
X31284217Y-64805953D01*
X31302431Y-64803782D01*
X31320524Y-64800898D01*
X31338522Y-64797301D01*
X31356451Y-64792993D01*
X31372509Y-64788614D01*
X31387825Y-64784024D01*
X31402463Y-64779186D01*
X31416487Y-64774064D01*
X31429960Y-64768621D01*
X31442947Y-64762820D01*
X31455511Y-64756627D01*
X31467717Y-64750004D01*
X31479629Y-64742915D01*
X31491310Y-64735324D01*
X31502825Y-64727195D01*
X31514237Y-64718490D01*
X31525610Y-64709174D01*
X31537009Y-64699211D01*
X31548497Y-64688564D01*
X31560139Y-64677196D01*
X31571767Y-64665284D01*
X31582631Y-64653546D01*
X31592768Y-64641919D01*
X31602213Y-64630337D01*
X31611004Y-64618736D01*
X31619175Y-64607051D01*
X31626763Y-64595219D01*
X31633803Y-64583174D01*
X31640332Y-64570852D01*
X31646386Y-64558188D01*
X31652000Y-64545118D01*
X31657210Y-64531578D01*
X31662053Y-64517503D01*
X31666564Y-64502828D01*
X31670780Y-64487489D01*
X31674737Y-64471421D01*
X31700805Y-63852026D01*
X31514529Y-63831074D01*
X31361947Y-63815133D01*
X31235745Y-63803204D01*
X31128612Y-63794291D01*
X30942302Y-63781517D01*
X30744519Y-63768831D01*
X30734688Y-63935631D01*
X30730910Y-64026561D01*
X30728559Y-64117809D01*
X30728136Y-64205844D01*
X30564711Y-64205844D01*
X30563300Y-64048540D01*
X30561956Y-63906981D01*
X30559969Y-63790171D01*
X30558818Y-63744833D01*
X30557606Y-63710225D01*
X30556368Y-63687863D01*
X30555749Y-63681747D01*
X30555135Y-63679260D01*
X30553750Y-63678583D01*
X30550865Y-63677779D01*
X30540921Y-63675828D01*
X30525947Y-63673490D01*
X30506587Y-63670849D01*
X30457283Y-63664991D01*
X30398163Y-63658920D01*
X30316219Y-63649923D01*
X30236547Y-63638793D01*
X30159053Y-63625494D01*
X30083640Y-63609988D01*
X30010216Y-63592239D01*
X29938684Y-63572211D01*
X29868951Y-63549868D01*
X29800921Y-63525173D01*
X29734500Y-63498089D01*
X29669592Y-63468580D01*
X29606104Y-63436610D01*
X29543940Y-63402142D01*
X29483006Y-63365140D01*
X29423206Y-63325567D01*
X29364447Y-63283387D01*
X29306633Y-63238564D01*
X29259558Y-63198156D01*
X29213735Y-63153813D01*
X29169342Y-63105865D01*
X29126559Y-63054645D01*
X29085566Y-63000486D01*
X29046541Y-62943721D01*
X29009663Y-62884682D01*
X28975112Y-62823700D01*
X28943067Y-62761110D01*
X28913707Y-62697242D01*
X28887211Y-62632431D01*
X28863759Y-62567007D01*
X28843529Y-62501305D01*
X28826700Y-62435655D01*
X28813453Y-62370391D01*
X28803966Y-62305845D01*
X28801676Y-62282067D01*
X28799470Y-62250907D01*
X28795524Y-62171734D01*
X28792553Y-62078919D01*
X28790985Y-61983053D01*
X28789993Y-61894164D01*
X28788594Y-61820342D01*
X28787800Y-61791485D01*
X28786974Y-61769280D01*
X28786140Y-61754688D01*
X28785727Y-61750547D01*
X28785321Y-61748670D01*
X28784993Y-61748362D01*
X28784416Y-61748144D01*
X28782539Y-61747966D01*
X28779743Y-61748124D01*
X28776080Y-61748604D01*
X28766360Y-61750477D01*
X28753798Y-61753479D01*
X28738811Y-61757501D01*
X28721816Y-61762439D01*
X28703233Y-61768185D01*
X28683477Y-61774632D01*
X28653100Y-61784539D01*
X28626996Y-61792247D01*
X28614950Y-61795363D01*
X28603257Y-61798031D01*
X28591678Y-61800288D01*
X28579974Y-61802166D01*
X28567907Y-61803700D01*
X28555238Y-61804924D01*
X28541729Y-61805873D01*
X28527141Y-61806580D01*
X28493774Y-61807409D01*
X28453228Y-61807684D01*
X28413560Y-61807564D01*
X28380702Y-61806886D01*
X28366318Y-61806272D01*
X28353027Y-61805439D01*
X28340624Y-61804360D01*
X28328907Y-61803008D01*
X28317672Y-61801358D01*
X28306716Y-61799382D01*
X28295835Y-61797054D01*
X28284826Y-61794347D01*
X28273486Y-61791235D01*
X28261611Y-61787691D01*
X28235442Y-61779200D01*
X28198390Y-61765497D01*
X28161983Y-61749570D01*
X28126340Y-61731532D01*
X28091578Y-61711493D01*
X28057816Y-61689565D01*
X28025170Y-61665858D01*
X27993759Y-61640482D01*
X27963700Y-61613551D01*
X27935111Y-61585173D01*
X27908109Y-61555460D01*
X27882812Y-61524524D01*
X27859338Y-61492475D01*
X27837804Y-61459424D01*
X27818329Y-61425483D01*
X27801029Y-61390761D01*
X27786023Y-61355371D01*
X27770997Y-61313925D01*
X27758016Y-61272405D01*
X27747080Y-61230718D01*
X27738190Y-61188776D01*
X27731345Y-61146488D01*
X27726548Y-61103763D01*
X27723799Y-61060510D01*
X27723568Y-61046083D01*
X27893497Y-61046083D01*
X27893649Y-61072150D01*
X27894361Y-61096617D01*
X27895671Y-61119701D01*
X27897622Y-61141618D01*
X27900253Y-61162584D01*
X27903606Y-61182818D01*
X27907720Y-61202535D01*
X27912636Y-61221952D01*
X27918395Y-61241286D01*
X27925037Y-61260753D01*
X27932602Y-61280570D01*
X27941132Y-61300955D01*
X27950667Y-61322123D01*
X27961246Y-61344291D01*
X27970659Y-61362820D01*
X27980431Y-61380608D01*
X27990587Y-61397684D01*
X28001156Y-61414077D01*
X28012165Y-61429816D01*
X28023639Y-61444930D01*
X28035607Y-61459448D01*
X28048095Y-61473398D01*
X28061130Y-61486809D01*
X28074739Y-61499710D01*
X28088949Y-61512131D01*
X28103787Y-61524099D01*
X28119280Y-61535645D01*
X28135454Y-61546796D01*
X28152338Y-61557581D01*
X28169957Y-61568030D01*
X28195912Y-61582024D01*
X28222210Y-61594531D01*
X28248826Y-61605549D01*
X28275733Y-61615075D01*
X28302905Y-61623105D01*
X28330315Y-61629638D01*
X28357938Y-61634670D01*
X28385747Y-61638200D01*
X28413715Y-61640224D01*
X28441817Y-61640740D01*
X28470025Y-61639745D01*
X28498314Y-61637237D01*
X28526657Y-61633213D01*
X28555029Y-61627670D01*
X28583401Y-61620605D01*
X28611749Y-61612017D01*
X28626532Y-61606958D01*
X28642275Y-61601249D01*
X28658494Y-61595086D01*
X28674704Y-61588664D01*
X28690422Y-61582179D01*
X28705163Y-61575828D01*
X28718443Y-61569806D01*
X28729778Y-61564309D01*
X28779243Y-61539256D01*
X28778913Y-61388092D01*
X28780008Y-60523504D01*
X28780191Y-60246122D01*
X28779640Y-60018264D01*
X28778462Y-59863497D01*
X28777671Y-59820888D01*
X28776763Y-59805388D01*
X28776762Y-59805388D01*
X28775532Y-59804605D01*
X28773815Y-59804218D01*
X28768962Y-59804609D01*
X28762282Y-59806511D01*
X28753857Y-59809875D01*
X28743768Y-59814652D01*
X28732095Y-59820792D01*
X28704322Y-59836964D01*
X28671186Y-59857996D01*
X28633332Y-59883492D01*
X28591407Y-59913058D01*
X28546058Y-59946299D01*
X28489513Y-59989749D01*
X28435501Y-60033849D01*
X28384011Y-60078612D01*
X28335033Y-60124052D01*
X28288555Y-60170183D01*
X28244568Y-60217018D01*
X28203061Y-60264570D01*
X28164023Y-60312854D01*
X28127443Y-60361883D01*
X28093311Y-60411671D01*
X28061617Y-60462230D01*
X28032350Y-60513576D01*
X28005498Y-60565721D01*
X27981053Y-60618679D01*
X27959002Y-60672464D01*
X27939336Y-60727089D01*
X27927237Y-60763861D01*
X27917762Y-60794996D01*
X27913891Y-60809146D01*
X27910532Y-60822723D01*
X27907640Y-60836005D01*
X27905165Y-60849272D01*
X27903061Y-60862801D01*
X27901280Y-60876872D01*
X27899774Y-60891764D01*
X27898496Y-60907755D01*
X27896432Y-60944148D01*
X27894708Y-60988282D01*
X27893864Y-61018200D01*
X27893497Y-61046083D01*
X27723568Y-61046083D01*
X27723098Y-61016640D01*
X27724446Y-60972061D01*
X27727844Y-60926684D01*
X27733292Y-60880417D01*
X27740791Y-60833171D01*
X27750343Y-60784855D01*
X27761947Y-60735379D01*
X27775604Y-60684652D01*
X27791315Y-60632583D01*
X27803660Y-60596393D01*
X27817926Y-60559537D01*
X27834044Y-60522122D01*
X27851945Y-60484252D01*
X27871561Y-60446032D01*
X27892824Y-60407570D01*
X27915664Y-60368969D01*
X27940013Y-60330335D01*
X27965803Y-60291775D01*
X27992965Y-60253392D01*
X28021431Y-60215293D01*
X28051131Y-60177583D01*
X28081998Y-60140368D01*
X28113964Y-60103753D01*
X28146958Y-60067843D01*
X28180914Y-60032744D01*
X28210880Y-60003110D01*
X28241517Y-59973883D01*
X28272752Y-59945117D01*
X28304511Y-59916869D01*
X28336721Y-59889193D01*
X28369310Y-59862145D01*
X28402205Y-59835781D01*
X28435333Y-59810155D01*
X28468620Y-59785323D01*
X28501995Y-59761341D01*
X28535384Y-59738264D01*
X28568715Y-59716147D01*
X28601914Y-59695046D01*
X28634908Y-59675016D01*
X28667626Y-59656112D01*
X28699993Y-59638391D01*
X28791894Y-59589484D01*
X28791894Y-58956985D01*
X28716963Y-58874572D01*
X28690669Y-58844819D01*
X28664859Y-58813954D01*
X28639611Y-58782105D01*
X28615000Y-58749402D01*
X28591104Y-58715972D01*
X28567999Y-58681945D01*
X28545761Y-58647449D01*
X28524467Y-58612613D01*
X28504193Y-58577564D01*
X28485016Y-58542433D01*
X28467013Y-58507346D01*
X28450259Y-58472434D01*
X28434832Y-58437824D01*
X28420807Y-58403645D01*
X28408262Y-58370026D01*
X28397272Y-58337095D01*
X28386886Y-58300228D01*
X28377726Y-58260169D01*
X28369802Y-58217323D01*
X28363121Y-58172095D01*
X28357691Y-58124889D01*
X28353520Y-58076110D01*
X28350615Y-58026162D01*
X28348985Y-57975451D01*
X28348734Y-57938643D01*
X28507816Y-57938643D01*
X28507819Y-57982475D01*
X28509121Y-58024978D01*
X28511758Y-58065789D01*
X28515764Y-58104547D01*
X28521171Y-58140890D01*
X28527830Y-58176130D01*
X28535430Y-58211080D01*
X28543957Y-58245702D01*
X28553395Y-58279961D01*
X28563729Y-58313819D01*
X28574944Y-58347239D01*
X28587024Y-58380186D01*
X28599955Y-58412621D01*
X28613721Y-58444509D01*
X28628306Y-58475813D01*
X28643696Y-58506495D01*
X28659874Y-58536519D01*
X28676827Y-58565849D01*
X28694539Y-58594448D01*
X28712993Y-58622278D01*
X28732176Y-58649304D01*
X28741421Y-58661444D01*
X28752266Y-58674908D01*
X28777958Y-58704981D01*
X28807656Y-58737864D01*
X28839765Y-58771898D01*
X28872688Y-58805425D01*
X28904829Y-58836786D01*
X28934592Y-58864322D01*
X28948082Y-58876137D01*
X28960380Y-58886374D01*
X28966661Y-58891455D01*
X28972139Y-58895963D01*
X28976839Y-58899979D01*
X28980788Y-58903587D01*
X28982488Y-58905263D01*
X28984011Y-58906868D01*
X28985360Y-58908412D01*
X28986537Y-58909906D01*
X28987545Y-58911359D01*
X28988390Y-58912782D01*
X28989072Y-58914185D01*
X28989597Y-58915579D01*
X28989966Y-58916973D01*
X28990184Y-58918379D01*
X28990254Y-58919806D01*
X28990179Y-58921265D01*
X28989962Y-58922765D01*
X28989607Y-58924319D01*
X28989117Y-58925934D01*
X28988495Y-58927623D01*
X28987744Y-58929395D01*
X28986868Y-58931261D01*
X28984754Y-58935314D01*
X28982179Y-58939865D01*
X28979169Y-58944996D01*
X28977366Y-58948293D01*
X28975554Y-58952079D01*
X28973746Y-58956308D01*
X28971952Y-58960936D01*
X28968459Y-58971213D01*
X28965170Y-58982555D01*
X28962180Y-58994608D01*
X28959584Y-59007016D01*
X28957477Y-59019426D01*
X28955956Y-59031482D01*
X28949812Y-59473734D01*
X28946624Y-60374883D01*
X28947027Y-61314919D01*
X28951657Y-61873830D01*
X28957586Y-62032258D01*
X28961197Y-62102154D01*
X28965352Y-62166504D01*
X28970132Y-62225806D01*
X28975622Y-62280559D01*
X28981906Y-62331260D01*
X28989067Y-62378410D01*
X28997187Y-62422505D01*
X29006352Y-62464045D01*
X29016644Y-62503529D01*
X29028147Y-62541454D01*
X29040944Y-62578321D01*
X29055119Y-62614626D01*
X29070756Y-62650869D01*
X29087938Y-62687548D01*
X29123782Y-62755890D01*
X29163756Y-62821800D01*
X29207710Y-62885164D01*
X29255492Y-62945870D01*
X29306951Y-63003804D01*
X29361935Y-63058853D01*
X29420295Y-63110903D01*
X29481878Y-63159841D01*
X29546535Y-63205555D01*
X29614113Y-63247930D01*
X29684461Y-63286854D01*
X29757429Y-63322213D01*
X29832866Y-63353894D01*
X29910620Y-63381783D01*
X29990541Y-63405768D01*
X30072477Y-63425735D01*
X30152744Y-63442283D01*
X30234929Y-63456945D01*
X30329189Y-63470883D01*
X30445683Y-63485259D01*
X30786011Y-63519969D01*
X31337185Y-63570367D01*
X31797560Y-63612453D01*
X32014221Y-63632094D01*
X32215602Y-63649556D01*
X32394140Y-63665087D01*
X32569257Y-63681469D01*
X32730264Y-63697666D01*
X32866477Y-63712643D01*
X32937432Y-63719806D01*
X33007867Y-63724731D01*
X33077283Y-63727421D01*
X33145181Y-63727882D01*
X33211064Y-63726119D01*
X33274432Y-63722138D01*
X33334788Y-63715942D01*
X33363681Y-63712015D01*
X33391634Y-63707537D01*
X33460026Y-63694104D01*
X33527163Y-63677745D01*
X33592881Y-63658558D01*
X33657019Y-63636640D01*
X33719413Y-63612090D01*
X33779902Y-63585003D01*
X33838323Y-63555478D01*
X33868427Y-63538405D01*
X34170153Y-63538405D01*
X34170219Y-63538703D01*
X34170480Y-63538803D01*
X34183897Y-63536265D01*
X34215256Y-63529353D01*
X34313086Y-63506640D01*
X34371585Y-63492411D01*
X34430617Y-63477440D01*
X34483304Y-63463503D01*
X34522768Y-63452380D01*
X34561760Y-63441429D01*
X34613162Y-63427965D01*
X34670289Y-63413696D01*
X34726456Y-63400331D01*
X34771865Y-63389358D01*
X34822087Y-63376316D01*
X34934851Y-63344649D01*
X35060506Y-63306572D01*
X35194810Y-63263327D01*
X35231270Y-63250820D01*
X35266152Y-63237929D01*
X35299613Y-63224555D01*
X35331810Y-63210600D01*
X35362899Y-63195965D01*
X35393039Y-63180552D01*
X35422386Y-63164262D01*
X35451098Y-63146999D01*
X35479332Y-63128662D01*
X35507244Y-63109155D01*
X35534993Y-63088378D01*
X35562736Y-63066233D01*
X35590629Y-63042623D01*
X35618831Y-63017448D01*
X35647497Y-62990610D01*
X35676785Y-62962011D01*
X35698849Y-62939790D01*
X35719350Y-62918566D01*
X35738394Y-62898191D01*
X35756085Y-62878517D01*
X35772526Y-62859396D01*
X35787822Y-62840679D01*
X35802076Y-62822219D01*
X35815393Y-62803867D01*
X35827876Y-62785475D01*
X35839631Y-62766894D01*
X35850760Y-62747976D01*
X35861368Y-62728573D01*
X35871559Y-62708537D01*
X35881436Y-62687720D01*
X35891105Y-62665973D01*
X35900669Y-62643147D01*
X35919755Y-62594107D01*
X35927807Y-62571298D01*
X35934927Y-62549226D01*
X35941163Y-62527590D01*
X35946563Y-62506086D01*
X35951173Y-62484411D01*
X35955042Y-62462264D01*
X35958215Y-62439341D01*
X35960741Y-62415341D01*
X35962668Y-62389960D01*
X35964041Y-62362896D01*
X35965319Y-62302510D01*
X35964954Y-62231762D01*
X35963144Y-62056030D01*
X35962288Y-61886170D01*
X35962068Y-61853003D01*
X35961506Y-61822283D01*
X35960638Y-61794665D01*
X35959503Y-61770806D01*
X35958139Y-61751363D01*
X35957383Y-61743503D01*
X35956583Y-61736993D01*
X35955745Y-61731916D01*
X35954873Y-61728353D01*
X35954426Y-61727165D01*
X35953973Y-61726386D01*
X35953513Y-61726027D01*
X35953048Y-61726098D01*
X35952592Y-61726356D01*
X35952161Y-61726552D01*
X35951753Y-61726688D01*
X35951371Y-61726765D01*
X35951013Y-61726784D01*
X35950679Y-61726745D01*
X35950371Y-61726650D01*
X35950087Y-61726500D01*
X35949829Y-61726296D01*
X35949596Y-61726039D01*
X35949388Y-61725731D01*
X35949205Y-61725372D01*
X35948917Y-61724506D01*
X35948733Y-61723450D01*
X35948653Y-61722213D01*
X35948679Y-61720803D01*
X35948811Y-61719230D01*
X35949050Y-61717501D01*
X35949399Y-61715626D01*
X35949856Y-61713614D01*
X35950425Y-61711472D01*
X35951105Y-61709210D01*
X35951535Y-61707814D01*
X35951923Y-61706462D01*
X35952271Y-61705156D01*
X35952577Y-61703895D01*
X35952842Y-61702679D01*
X35953065Y-61701508D01*
X35953248Y-61700382D01*
X35953389Y-61699300D01*
X35953488Y-61698263D01*
X35953546Y-61697270D01*
X35953563Y-61696322D01*
X35953538Y-61695419D01*
X35953472Y-61694560D01*
X35953365Y-61693745D01*
X35953215Y-61692974D01*
X35953025Y-61692247D01*
X35952793Y-61691565D01*
X35952519Y-61690926D01*
X35952203Y-61690331D01*
X35951846Y-61689780D01*
X35951447Y-61689273D01*
X35951007Y-61688809D01*
X35950525Y-61688389D01*
X35950001Y-61688012D01*
X35949435Y-61687679D01*
X35948828Y-61687389D01*
X35948179Y-61687142D01*
X35947488Y-61686939D01*
X35946755Y-61686778D01*
X35945980Y-61686661D01*
X35945163Y-61686587D01*
X35944304Y-61686555D01*
X35942329Y-61686510D01*
X35940620Y-61686421D01*
X35939176Y-61686281D01*
X35938554Y-61686191D01*
X35937998Y-61686086D01*
X35937509Y-61685966D01*
X35937087Y-61685829D01*
X35936731Y-61685676D01*
X35936442Y-61685505D01*
X35936219Y-61685316D01*
X35936064Y-61685108D01*
X35935974Y-61684880D01*
X35935952Y-61684632D01*
X35935997Y-61684363D01*
X35936108Y-61684072D01*
X35936286Y-61683759D01*
X35936531Y-61683422D01*
X35936843Y-61683062D01*
X35937222Y-61682676D01*
X35937667Y-61682266D01*
X35938180Y-61681829D01*
X35939407Y-61680875D01*
X35940901Y-61679809D01*
X35942665Y-61678624D01*
X35944697Y-61677315D01*
X35947375Y-61674699D01*
X35949042Y-61670937D01*
X35949729Y-61666078D01*
X35949471Y-61660176D01*
X35946249Y-61645443D01*
X35939637Y-61627152D01*
X35929897Y-61605714D01*
X35917294Y-61581540D01*
X35902088Y-61555044D01*
X35884543Y-61526636D01*
X35864921Y-61496730D01*
X35843486Y-61465737D01*
X35820499Y-61434069D01*
X35796223Y-61402138D01*
X35770920Y-61370356D01*
X35744855Y-61339136D01*
X35718288Y-61308888D01*
X35691483Y-61280027D01*
X35601135Y-61223104D01*
X35509032Y-61167082D01*
X35416621Y-61111167D01*
X35325354Y-61054566D01*
X35236680Y-60996487D01*
X35193768Y-60966645D01*
X35152049Y-60936136D01*
X35111702Y-60904862D01*
X35072910Y-60872722D01*
X35035853Y-60839618D01*
X35000713Y-60805451D01*
X34965146Y-60766782D01*
X34932780Y-60726234D01*
X34903627Y-60683860D01*
X34877698Y-60639713D01*
X34855006Y-60593846D01*
X34835561Y-60546311D01*
X34819375Y-60497160D01*
X34806459Y-60446447D01*
X34796826Y-60394225D01*
X34790487Y-60340545D01*
X34787452Y-60285461D01*
X34787735Y-60229026D01*
X34788798Y-60212031D01*
X34941894Y-60212031D01*
X34941942Y-60248951D01*
X34943870Y-60286562D01*
X34947678Y-60324918D01*
X34953364Y-60364072D01*
X34960927Y-60404080D01*
X34970365Y-60444996D01*
X34981678Y-60486873D01*
X34994863Y-60529768D01*
X35001698Y-60550081D01*
X35008483Y-60568519D01*
X35015450Y-60585304D01*
X35022831Y-60600661D01*
X35030856Y-60614811D01*
X35039757Y-60627979D01*
X35049764Y-60640388D01*
X35061110Y-60652261D01*
X35074024Y-60663822D01*
X35088739Y-60675293D01*
X35105485Y-60686898D01*
X35124494Y-60698860D01*
X35145997Y-60711402D01*
X35170225Y-60724749D01*
X35227780Y-60754746D01*
X35291901Y-60787828D01*
X35353951Y-60820572D01*
X35406850Y-60849197D01*
X35427655Y-60860783D01*
X35443518Y-60869922D01*
X35479820Y-60892221D01*
X35515840Y-60915954D01*
X35551615Y-60941156D01*
X35587182Y-60967864D01*
X35622578Y-60996112D01*
X35657841Y-61025938D01*
X35693008Y-61057378D01*
X35728115Y-61090466D01*
X35763199Y-61125239D01*
X35798298Y-61161733D01*
X35833449Y-61199985D01*
X35868689Y-61240028D01*
X35904054Y-61281901D01*
X35939583Y-61325638D01*
X35975311Y-61371276D01*
X36011277Y-61418850D01*
X36037627Y-61453644D01*
X36063088Y-61485890D01*
X36087805Y-61515705D01*
X36111926Y-61543204D01*
X36135594Y-61568504D01*
X36158957Y-61591721D01*
X36182158Y-61612970D01*
X36205345Y-61632368D01*
X36228661Y-61650030D01*
X36252254Y-61666073D01*
X36276269Y-61680612D01*
X36300850Y-61693765D01*
X36326144Y-61705645D01*
X36352297Y-61716371D01*
X36379453Y-61726057D01*
X36407759Y-61734820D01*
X36422242Y-61738462D01*
X36437903Y-61741409D01*
X36454599Y-61743672D01*
X36472186Y-61745261D01*
X36490521Y-61746185D01*
X36509460Y-61746453D01*
X36528860Y-61746075D01*
X36548577Y-61745062D01*
X36568467Y-61743421D01*
X36588387Y-61741164D01*
X36608194Y-61738300D01*
X36627743Y-61734838D01*
X36646891Y-61730787D01*
X36665495Y-61726159D01*
X36683411Y-61720961D01*
X36700496Y-61715204D01*
X36741387Y-61699150D01*
X36780253Y-61681428D01*
X36817055Y-61662081D01*
X36851753Y-61641155D01*
X36884307Y-61618692D01*
X36914678Y-61594737D01*
X36942827Y-61569333D01*
X36968713Y-61542526D01*
X36992297Y-61514358D01*
X37013539Y-61484874D01*
X37032400Y-61454118D01*
X37048840Y-61422134D01*
X37062820Y-61388966D01*
X37074299Y-61354657D01*
X37083238Y-61319253D01*
X37089599Y-61282796D01*
X37091987Y-61262639D01*
X37093875Y-61240973D01*
X37095273Y-61218050D01*
X37096192Y-61194119D01*
X37096635Y-61144236D01*
X37095291Y-61093324D01*
X37092247Y-61043386D01*
X37087590Y-60996423D01*
X37084684Y-60974683D01*
X37081408Y-60954437D01*
X37077771Y-60935935D01*
X37073786Y-60919428D01*
X37068618Y-60901575D01*
X37062378Y-60882293D01*
X37047051Y-60840250D01*
X37028553Y-60794917D01*
X37007633Y-60747910D01*
X36985038Y-60700846D01*
X36961516Y-60655340D01*
X36937816Y-60613009D01*
X36926132Y-60593540D01*
X36914684Y-60575470D01*
X36894172Y-60545699D01*
X36868793Y-60511471D01*
X36839848Y-60474361D01*
X36808639Y-60435940D01*
X36776469Y-60397783D01*
X36744638Y-60361460D01*
X36714450Y-60328547D01*
X36687205Y-60300614D01*
X36663800Y-60278291D01*
X36637951Y-60254894D01*
X36580197Y-60205812D01*
X36516505Y-60155231D01*
X36449433Y-60105013D01*
X36381540Y-60057020D01*
X36315386Y-60013115D01*
X36253530Y-59975160D01*
X36225014Y-59958996D01*
X36198532Y-59945018D01*
X36150880Y-59921867D01*
X36100728Y-59899220D01*
X36048501Y-59877194D01*
X35994622Y-59855901D01*
X35939514Y-59835458D01*
X35883602Y-59815980D01*
X35771058Y-59780376D01*
X35660381Y-59750010D01*
X35606802Y-59737078D01*
X35554960Y-59725801D01*
X35505280Y-59716293D01*
X35458185Y-59708669D01*
X35414099Y-59703044D01*
X35373445Y-59699534D01*
X35362520Y-59698936D01*
X35351918Y-59698523D01*
X35341652Y-59698297D01*
X35331729Y-59698262D01*
X35322161Y-59698419D01*
X35312957Y-59698771D01*
X35304128Y-59699321D01*
X35295683Y-59700071D01*
X35273763Y-59703181D01*
X35252264Y-59707928D01*
X35231210Y-59714294D01*
X35210627Y-59722258D01*
X35190540Y-59731798D01*
X35170972Y-59742896D01*
X35151950Y-59755530D01*
X35133497Y-59769679D01*
X35115640Y-59785324D01*
X35098401Y-59802444D01*
X35081807Y-59821018D01*
X35065883Y-59841027D01*
X35050652Y-59862449D01*
X35036141Y-59885264D01*
X35022373Y-59909452D01*
X35009374Y-59934992D01*
X34994329Y-59968348D01*
X34981176Y-60001959D01*
X34969912Y-60035879D01*
X34960537Y-60070164D01*
X34953048Y-60104867D01*
X34947446Y-60140043D01*
X34943729Y-60175746D01*
X34941894Y-60212031D01*
X34788798Y-60212031D01*
X34791346Y-60171292D01*
X34798297Y-60112312D01*
X34808599Y-60052138D01*
X34822264Y-59990824D01*
X34829538Y-59962641D01*
X34837393Y-59934238D01*
X34845580Y-59906390D01*
X34853851Y-59879868D01*
X34861958Y-59855444D01*
X34869652Y-59833892D01*
X34876685Y-59815985D01*
X34879876Y-59808639D01*
X34882808Y-59802494D01*
X34888007Y-59792857D01*
X34894056Y-59782752D01*
X34900903Y-59772240D01*
X34908496Y-59761381D01*
X34916780Y-59750235D01*
X34925703Y-59738862D01*
X34935212Y-59727323D01*
X34945255Y-59715678D01*
X34955777Y-59703986D01*
X34966726Y-59692308D01*
X34978049Y-59680704D01*
X34989693Y-59669235D01*
X35001604Y-59657960D01*
X35013731Y-59646941D01*
X35026019Y-59636235D01*
X35038416Y-59625906D01*
X35053353Y-59614436D01*
X35069232Y-59603557D01*
X35085984Y-59593290D01*
X35103540Y-59583659D01*
X35121832Y-59574685D01*
X35140791Y-59566389D01*
X35160349Y-59558794D01*
X35180437Y-59551922D01*
X35200986Y-59545794D01*
X35221928Y-59540433D01*
X35243195Y-59535860D01*
X35264717Y-59532098D01*
X35286426Y-59529168D01*
X35308253Y-59527092D01*
X35330130Y-59525893D01*
X35351989Y-59525591D01*
X35381304Y-59526558D01*
X35413885Y-59528989D01*
X35449205Y-59532768D01*
X35486734Y-59537777D01*
X35566314Y-59551017D01*
X35648400Y-59567770D01*
X35728772Y-59587099D01*
X35803206Y-59608067D01*
X35836876Y-59618872D01*
X35867479Y-59629735D01*
X35894487Y-59640538D01*
X35917370Y-59651165D01*
X35946702Y-59666089D01*
X35945146Y-59603532D01*
X35941438Y-59536029D01*
X35936043Y-59466736D01*
X35929425Y-59398812D01*
X35922050Y-59335417D01*
X35914382Y-59279707D01*
X35906886Y-59234841D01*
X35903348Y-59217461D01*
X35900028Y-59203977D01*
X35877007Y-59198647D01*
X35840529Y-59197178D01*
X35791976Y-59199222D01*
X35732735Y-59204427D01*
X35587724Y-59222917D01*
X35416571Y-59249844D01*
X35040154Y-59317788D01*
X34692102Y-59385817D01*
X34657111Y-59392748D01*
X34641910Y-59395982D01*
X34628187Y-59399297D01*
X34615901Y-59402868D01*
X34610285Y-59404805D01*
X34605013Y-59406872D01*
X34600081Y-59409091D01*
X34595483Y-59411484D01*
X34591215Y-59414073D01*
X34587272Y-59416880D01*
X34583648Y-59419927D01*
X34580339Y-59423237D01*
X34577340Y-59426830D01*
X34574645Y-59430730D01*
X34572250Y-59434958D01*
X34570150Y-59439535D01*
X34568340Y-59444485D01*
X34566815Y-59449829D01*
X34565570Y-59455589D01*
X34564600Y-59461787D01*
X34563899Y-59468445D01*
X34563464Y-59475585D01*
X34563289Y-59483229D01*
X34563369Y-59491400D01*
X34563700Y-59500118D01*
X34564275Y-59509406D01*
X34567560Y-59591665D01*
X34571821Y-59751241D01*
X34581059Y-60210345D01*
X34589941Y-60679616D01*
X34593821Y-60850194D01*
X34596645Y-60945887D01*
X34603051Y-61227236D01*
X34609836Y-61690782D01*
X34614666Y-62150974D01*
X34615207Y-62422262D01*
X34613517Y-62477225D01*
X34610747Y-62530823D01*
X34606886Y-62583096D01*
X34601927Y-62634085D01*
X34595861Y-62683829D01*
X34588679Y-62732369D01*
X34580372Y-62779745D01*
X34570932Y-62825998D01*
X34560349Y-62871166D01*
X34548615Y-62915292D01*
X34535720Y-62958414D01*
X34521658Y-63000574D01*
X34506417Y-63041811D01*
X34489990Y-63082165D01*
X34472368Y-63121677D01*
X34453543Y-63160387D01*
X34428237Y-63209293D01*
X34416534Y-63230970D01*
X34405233Y-63251120D01*
X34394162Y-63269986D01*
X34383147Y-63287809D01*
X34372014Y-63304832D01*
X34360590Y-63321298D01*
X34348703Y-63337450D01*
X34336179Y-63353530D01*
X34322844Y-63369780D01*
X34308525Y-63386443D01*
X34293050Y-63403761D01*
X34276244Y-63421978D01*
X34237949Y-63462074D01*
X34223130Y-63477488D01*
X34209583Y-63491867D01*
X34197584Y-63504897D01*
X34187409Y-63516264D01*
X34183092Y-63521226D01*
X34179335Y-63525653D01*
X34176171Y-63529507D01*
X34173637Y-63532749D01*
X34171766Y-63535339D01*
X34170594Y-63537237D01*
X34170280Y-63537915D01*
X34170153Y-63538405D01*
X33868427Y-63538405D01*
X33894514Y-63523611D01*
X33948312Y-63489501D01*
X33999555Y-63453245D01*
X34048081Y-63414940D01*
X34093728Y-63374682D01*
X34136333Y-63332571D01*
X34175734Y-63288703D01*
X34211768Y-63243175D01*
X34244274Y-63196086D01*
X34264531Y-63163721D01*
X34283343Y-63131975D01*
X34300778Y-63100653D01*
X34316900Y-63069565D01*
X34331774Y-63038517D01*
X34345467Y-63007316D01*
X34358043Y-62975769D01*
X34369569Y-62943685D01*
X34380110Y-62910869D01*
X34389731Y-62877130D01*
X34398498Y-62842275D01*
X34406477Y-62806111D01*
X34413733Y-62768446D01*
X34420331Y-62729085D01*
X34426338Y-62687838D01*
X34431818Y-62644511D01*
X34436576Y-62043649D01*
X34426803Y-60873942D01*
X34409357Y-59720663D01*
X34399900Y-59333082D01*
X34391097Y-59169086D01*
X34389925Y-59165327D01*
X34388597Y-59161464D01*
X34387127Y-59157526D01*
X34385530Y-59153541D01*
X34383822Y-59149539D01*
X34382017Y-59145549D01*
X34380131Y-59141600D01*
X34378177Y-59137720D01*
X34376171Y-59133938D01*
X34374129Y-59130284D01*
X34372064Y-59126786D01*
X34369992Y-59123474D01*
X34367928Y-59120375D01*
X34365886Y-59117520D01*
X34363882Y-59114937D01*
X34361931Y-59112655D01*
X34359036Y-59109415D01*
X34356518Y-59106492D01*
X34355399Y-59105140D01*
X34354373Y-59103856D01*
X34353441Y-59102638D01*
X34352601Y-59101481D01*
X34351853Y-59100382D01*
X34351198Y-59099337D01*
X34350634Y-59098343D01*
X34350162Y-59097397D01*
X34349782Y-59096494D01*
X34349492Y-59095632D01*
X34349293Y-59094806D01*
X34349184Y-59094014D01*
X34349166Y-59093252D01*
X34349237Y-59092516D01*
X34349398Y-59091802D01*
X34349648Y-59091108D01*
X34349988Y-59090430D01*
X34350415Y-59089763D01*
X34350932Y-59089105D01*
X34351536Y-59088453D01*
X34352229Y-59087802D01*
X34353009Y-59087149D01*
X34353876Y-59086490D01*
X34354830Y-59085823D01*
X34355871Y-59085143D01*
X34356999Y-59084447D01*
X34359512Y-59082993D01*
X34380365Y-59070466D01*
X34402053Y-59055813D01*
X34424404Y-59039217D01*
X34447243Y-59020860D01*
X34470397Y-59000923D01*
X34493693Y-58979590D01*
X34516957Y-58957041D01*
X34540015Y-58933460D01*
X34562694Y-58909028D01*
X34584820Y-58883928D01*
X34606220Y-58858341D01*
X34626721Y-58832450D01*
X34646148Y-58806437D01*
X34664329Y-58780483D01*
X34681090Y-58754772D01*
X34696256Y-58729485D01*
X34716313Y-58693586D01*
X34734935Y-58658473D01*
X34752157Y-58624036D01*
X34768011Y-58590168D01*
X34782532Y-58556761D01*
X34795752Y-58523707D01*
X34807705Y-58490898D01*
X34818425Y-58458226D01*
X34827945Y-58425583D01*
X34836298Y-58392862D01*
X34843518Y-58359953D01*
X34849638Y-58326749D01*
X34854692Y-58293143D01*
X34858714Y-58259025D01*
X34861736Y-58224289D01*
X34863792Y-58188825D01*
X34865049Y-58147956D01*
X34865194Y-58107444D01*
X34864224Y-58067279D01*
X34862136Y-58027450D01*
X34858930Y-57987944D01*
X34854602Y-57948752D01*
X34849150Y-57909861D01*
X34842574Y-57871260D01*
X34834869Y-57832939D01*
X34826036Y-57794885D01*
X34816070Y-57757089D01*
X34804971Y-57719537D01*
X34792736Y-57682220D01*
X34779362Y-57645126D01*
X34764849Y-57608243D01*
X34749194Y-57571561D01*
X34731257Y-57531899D01*
X34713490Y-57494259D01*
X34695740Y-57458415D01*
X34677851Y-57424140D01*
X34659669Y-57391206D01*
X34641041Y-57359388D01*
X34621811Y-57328458D01*
X34601827Y-57298189D01*
X34580932Y-57268355D01*
X34558974Y-57238730D01*
X34535797Y-57209086D01*
X34511248Y-57179196D01*
X34485173Y-57148834D01*
X34457416Y-57117773D01*
X34427825Y-57085786D01*
X34396243Y-57052647D01*
X34344811Y-57001129D01*
X34291904Y-56951624D01*
X34237378Y-56904051D01*
X34181092Y-56858324D01*
X34122901Y-56814361D01*
X34062664Y-56772079D01*
X34000237Y-56731394D01*
X33935477Y-56692222D01*
X33868242Y-56654482D01*
X33798388Y-56618088D01*
X33725773Y-56582958D01*
X33650253Y-56549009D01*
X33571685Y-56516157D01*
X33489927Y-56484319D01*
X33404836Y-56453412D01*
X33316269Y-56423352D01*
X33170924Y-56376911D01*
X33036740Y-56337021D01*
X32909088Y-56302659D01*
X32783341Y-56272800D01*
X32654872Y-56246421D01*
X32519054Y-56222498D01*
X32371258Y-56200009D01*
X32206858Y-56177930D01*
X32082487Y-56162826D01*
X31965925Y-56150372D01*
X31853898Y-56140369D01*
X31743133Y-56132622D01*
X31630357Y-56126932D01*
X31512296Y-56123103D01*
X31385677Y-56120938D01*
X31247227Y-56120238D01*
X31065281Y-56122304D01*
X30893882Y-56128665D01*
X30731935Y-56139450D01*
X30578349Y-56154790D01*
X30432032Y-56174813D01*
X30361257Y-56186621D01*
X30291890Y-56199648D01*
X30223793Y-56213911D01*
X30156830Y-56229424D01*
X30090865Y-56246206D01*
X30025761Y-56264271D01*
X29899536Y-56304297D01*
X29776627Y-56350309D01*
X29657355Y-56402037D01*
X29542041Y-56459212D01*
X29431007Y-56521565D01*
X29324573Y-56588827D01*
X29223060Y-56660729D01*
X29126791Y-56737002D01*
X29036085Y-56817377D01*
X28951264Y-56901585D01*
X28872649Y-56989357D01*
X28800561Y-57080424D01*
X28735322Y-57174516D01*
X28677253Y-57271366D01*
X28626674Y-57370703D01*
X28604293Y-57421221D01*
X28583906Y-57472259D01*
X28571845Y-57506827D01*
X28560710Y-57544047D01*
X28550537Y-57583557D01*
X28541358Y-57624995D01*
X28533209Y-57667999D01*
X28526122Y-57712208D01*
X28520131Y-57757258D01*
X28515272Y-57802789D01*
X28511577Y-57848438D01*
X28509080Y-57893843D01*
X28507816Y-57938643D01*
X28348734Y-57938643D01*
X28348637Y-57924381D01*
X28349579Y-57873356D01*
X28351819Y-57822782D01*
X28355364Y-57773062D01*
X28360224Y-57724602D01*
X28366404Y-57677806D01*
X28373914Y-57633079D01*
X28382762Y-57590826D01*
X28396013Y-57537879D01*
X28410966Y-57485550D01*
X28427619Y-57433843D01*
X28445967Y-57382766D01*
X28466007Y-57332326D01*
X28487737Y-57282527D01*
X28511152Y-57233376D01*
X28536249Y-57184881D01*
X28563025Y-57137046D01*
X28591477Y-57089879D01*
X28621601Y-57043385D01*
X28653393Y-56997571D01*
X28686852Y-56952443D01*
X28721972Y-56908008D01*
X28758751Y-56864271D01*
X28797186Y-56821240D01*
X28873489Y-56741262D01*
X28951086Y-56666040D01*
X29030575Y-56595262D01*
X29112560Y-56528620D01*
X29197640Y-56465802D01*
X29286417Y-56406500D01*
X29379493Y-56350404D01*
X29477467Y-56297204D01*
X29580942Y-56246591D01*
X29690518Y-56198253D01*
X29806796Y-56151883D01*
X29930378Y-56107169D01*
X30061865Y-56063803D01*
X30201857Y-56021474D01*
X30350956Y-55979872D01*
X30509763Y-55938689D01*
X30524862Y-55935075D01*
X31374674Y-55935075D01*
X31376098Y-55936526D01*
X31383637Y-55939169D01*
X31397496Y-55941509D01*
X31417752Y-55943597D01*
X31444479Y-55945479D01*
X31517658Y-55948825D01*
X31617644Y-55951938D01*
X31729112Y-55955702D01*
X31833113Y-55960454D01*
X31918016Y-55965584D01*
X31949670Y-55968099D01*
X31972186Y-55970480D01*
X32352522Y-56021294D01*
X32486483Y-56040682D01*
X32596162Y-56058327D01*
X32691450Y-56075931D01*
X32782242Y-56095196D01*
X32878428Y-56117825D01*
X32989901Y-56145518D01*
X33151634Y-56188426D01*
X33305358Y-56233826D01*
X33451322Y-56281868D01*
X33589775Y-56332702D01*
X33720965Y-56386479D01*
X33845139Y-56443350D01*
X33962547Y-56503463D01*
X34073437Y-56566971D01*
X34178056Y-56634023D01*
X34276654Y-56704770D01*
X34369478Y-56779362D01*
X34456777Y-56857950D01*
X34538799Y-56940683D01*
X34615792Y-57027712D01*
X34688004Y-57119189D01*
X34755685Y-57215262D01*
X34780382Y-57253019D01*
X34803559Y-57289813D01*
X34825274Y-57325780D01*
X34845587Y-57361056D01*
X34864558Y-57395777D01*
X34882245Y-57430081D01*
X34898707Y-57464103D01*
X34914005Y-57497979D01*
X34928198Y-57531847D01*
X34941345Y-57565842D01*
X34953505Y-57600101D01*
X34964738Y-57634760D01*
X34975102Y-57669956D01*
X34984659Y-57705824D01*
X34993465Y-57742503D01*
X35001582Y-57780126D01*
X35009376Y-57819832D01*
X35015600Y-57855737D01*
X35020431Y-57889856D01*
X35024043Y-57924208D01*
X35026613Y-57960808D01*
X35028315Y-58001672D01*
X35029325Y-58048818D01*
X35029818Y-58104262D01*
X35030011Y-58166477D01*
X35029624Y-58215615D01*
X35029081Y-58236463D01*
X35028234Y-58255461D01*
X35027031Y-58273082D01*
X35025419Y-58289800D01*
X35023345Y-58306087D01*
X35020757Y-58322417D01*
X35017600Y-58339263D01*
X35013823Y-58357097D01*
X35004197Y-58397625D01*
X34991453Y-58447786D01*
X34983406Y-58477961D01*
X34974862Y-58507775D01*
X34965845Y-58537172D01*
X34956379Y-58566093D01*
X34946489Y-58594482D01*
X34936200Y-58622282D01*
X34925536Y-58649436D01*
X34914521Y-58675886D01*
X34903180Y-58701577D01*
X34891538Y-58726450D01*
X34879619Y-58750448D01*
X34867447Y-58773515D01*
X34855048Y-58795593D01*
X34842444Y-58816626D01*
X34829662Y-58836556D01*
X34816725Y-58855327D01*
X34803995Y-58872830D01*
X34791090Y-58890021D01*
X34778068Y-58906840D01*
X34764985Y-58923225D01*
X34751898Y-58939115D01*
X34738864Y-58954448D01*
X34725939Y-58969164D01*
X34713180Y-58983201D01*
X34700644Y-58996497D01*
X34688387Y-59008993D01*
X34676466Y-59020626D01*
X34664938Y-59031334D01*
X34653860Y-59041058D01*
X34643288Y-59049736D01*
X34633279Y-59057306D01*
X34623889Y-59063707D01*
X34576843Y-59093803D01*
X34613306Y-59093514D01*
X34624952Y-59092704D01*
X34644167Y-59090495D01*
X34701237Y-59082488D01*
X34776373Y-59070714D01*
X34861436Y-59056390D01*
X35284769Y-58983443D01*
X35417947Y-58960110D01*
X35532947Y-58938570D01*
X35631640Y-58918362D01*
X35675456Y-58908615D01*
X35715897Y-58899029D01*
X35753196Y-58889547D01*
X35787588Y-58880111D01*
X35819306Y-58870665D01*
X35848585Y-58861150D01*
X35875658Y-58851510D01*
X35900758Y-58841687D01*
X35924121Y-58831623D01*
X35945979Y-58821262D01*
X35986803Y-58799326D01*
X36026391Y-58774743D01*
X36064692Y-58747576D01*
X36101659Y-58717892D01*
X36137241Y-58685754D01*
X36171391Y-58651229D01*
X36204059Y-58614380D01*
X36235195Y-58575274D01*
X36264752Y-58533974D01*
X36292679Y-58490546D01*
X36318928Y-58445055D01*
X36343450Y-58397566D01*
X36366195Y-58348144D01*
X36387115Y-58296854D01*
X36406161Y-58243760D01*
X36423283Y-58188929D01*
X36433726Y-58152118D01*
X36441783Y-58120951D01*
X36445015Y-58106681D01*
X36447768Y-58092857D01*
X36450082Y-58079158D01*
X36451996Y-58065264D01*
X36453549Y-58050851D01*
X36454780Y-58035600D01*
X36456436Y-58001294D01*
X36457277Y-57959774D01*
X36457617Y-57908470D01*
X36456971Y-57846862D01*
X36454554Y-57787421D01*
X36450296Y-57729916D01*
X36444124Y-57674111D01*
X36435967Y-57619774D01*
X36425753Y-57566670D01*
X36413410Y-57514565D01*
X36398867Y-57463226D01*
X36382051Y-57412419D01*
X36362891Y-57361910D01*
X36341316Y-57311466D01*
X36317252Y-57260852D01*
X36290630Y-57209835D01*
X36261376Y-57158181D01*
X36229419Y-57105656D01*
X36194688Y-57052027D01*
X36167011Y-57011497D01*
X36138735Y-56972137D01*
X36109778Y-56933866D01*
X36080059Y-56896602D01*
X36049494Y-56860264D01*
X36018002Y-56824772D01*
X35985500Y-56790044D01*
X35951907Y-56755998D01*
X35917140Y-56722555D01*
X35881118Y-56689632D01*
X35843758Y-56657149D01*
X35804979Y-56625025D01*
X35764697Y-56593178D01*
X35722831Y-56561527D01*
X35679299Y-56529991D01*
X35634019Y-56498489D01*
X35581728Y-56463438D01*
X35532812Y-56432091D01*
X35485681Y-56403581D01*
X35438750Y-56377042D01*
X35390430Y-56351610D01*
X35339135Y-56326416D01*
X35283277Y-56300596D01*
X35221269Y-56273283D01*
X35012711Y-56187931D01*
X34804169Y-56112369D01*
X34593432Y-56046057D01*
X34378292Y-55988454D01*
X34156538Y-55939018D01*
X33925962Y-55897208D01*
X33684353Y-55862484D01*
X33429502Y-55834302D01*
X33364028Y-55828674D01*
X33293510Y-55823795D01*
X33218593Y-55819665D01*
X33139921Y-55816285D01*
X32973886Y-55811773D01*
X32800559Y-55810263D01*
X32800559Y-55810262D01*
X32625089Y-55811752D01*
X32452629Y-55816240D01*
X32369139Y-55819610D01*
X32288335Y-55823729D01*
X32210862Y-55828599D01*
X32137364Y-55834219D01*
X31923556Y-55852914D01*
X31836302Y-55861197D01*
X31760067Y-55868993D01*
X31693290Y-55876468D01*
X31634409Y-55883788D01*
X31581864Y-55891119D01*
X31534094Y-55898629D01*
X31459280Y-55911579D01*
X31407602Y-55921951D01*
X31390629Y-55926293D01*
X31379670Y-55930137D01*
X31376469Y-55931887D01*
X31374801Y-55933531D01*
X31374674Y-55935075D01*
X30524862Y-55935075D01*
X30749019Y-55881426D01*
X30985317Y-55830382D01*
X31219347Y-55785447D01*
X31451799Y-55746516D01*
X31683364Y-55713481D01*
X31914733Y-55686234D01*
X32146596Y-55664670D01*
X32379644Y-55648681D01*
X32480452Y-55643472D01*
X32578568Y-55639440D01*
X32674446Y-55636608D01*
X32768540Y-55634997D01*
X32907337Y-55634914D01*
X33044693Y-55637692D01*
G37*
%TD*%
M02*
